  0
SECTION
  2
HEADER
  9
$ACADVER
  1
AC1027
  9
$ACADMAINTVER
 70
     8
  9
$DWGCODEPAGE
  3
ANSI_1252
  9
$REQUIREDVERSIONS
160
                 0
  9
$INSBASE
 10
0.0
 20
0.0
 30
0.0
  9
$EXTMIN
 10
1.000000000000000E+20
 20
1.000000000000000E+20
 30
1.000000000000000E+20
  9
$EXTMAX
 10
-1.000000000000000E+20
 20
-1.000000000000000E+20
 30
-1.000000000000000E+20
  9
$LIMMIN
 10
0.0
 20
0.0
  9
$LIMMAX
 10
12.0
 20
9.0
  9
$ORTHOMODE
 70
     0
  9
$REGENMODE
 70
     1
  9
$FILLMODE
 70
     1
  9
$QTEXTMODE
 70
     0
  9
$MIRRTEXT
 70
     1
  9
$LTSCALE
 40
1.0
  9
$ATTMODE
 70
     1
  9
$TEXTSIZE
 40
0.2
  9
$TRACEWID
 40
0.05
  9
$TEXTSTYLE
  7
Standard
  9
$CLAYER
  8
0
  9
$CELTYPE
  6
ByLayer
  9
$CECOLOR
 62
   178
  9
$CELTSCALE
 40
1.0
  9
$DISPSILH
 70
     0
  9
$DIMSCALE
 40
1.0
  9
$DIMASZ
 40
2.5
  9
$DIMEXO
 40
0.625
  9
$DIMDLI
 40
0.38
  9
$DIMRND
 40
0.0
  9
$DIMDLE
 40
0.0
  9
$DIMEXE
 40
1.25
  9
$DIMTP
 40
0.0
  9
$DIMTM
 40
0.0
  9
$DIMTXT
 40
2.5
  9
$DIMCEN
 40
0.09
  9
$DIMTSZ
 40
0.0
  9
$DIMTOL
 70
     0
  9
$DIMLIM
 70
     0
  9
$DIMTIH
 70
     1
  9
$DIMTOH
 70
     1
  9
$DIMSE1
 70
     0
  9
$DIMSE2
 70
     0
  9
$DIMTAD
 70
     0
  9
$DIMZIN
 70
     8
  9
$DIMBLK
  1

  9
$DIMASO
 70
     1
  9
$DIMSHO
 70
     1
  9
$DIMPOST
  1

  9
$DIMAPOST
  1

  9
$DIMALT
 70
     0
  9
$DIMALTD
 70
     2
  9
$DIMALTF
 40
25.4
  9
$DIMLFAC
 40
1.0
  9
$DIMTOFL
 70
     0
  9
$DIMTVP
 40
0.0
  9
$DIMTIX
 70
     0
  9
$DIMSOXD
 70
     0
  9
$DIMSAH
 70
     0
  9
$DIMBLK1
  1

  9
$DIMBLK2
  1

  9
$DIMSTYLE
  2
Standard
  9
$DIMCLRD
 70
   178
  9
$DIMCLRE
 70
   178
  9
$DIMCLRT
 70
   178
  9
$DIMTFAC
 40
1.0
  9
$DIMGAP
 40
0.625
  9
$DIMJUST
 70
     0
  9
$DIMSD1
 70
     0
  9
$DIMSD2
 70
     0
  9
$DIMTOLJ
 70
     1
  9
$DIMTZIN
 70
     0
  9
$DIMALTZ
 70
     0
  9
$DIMALTTZ
 70
     0
  9
$DIMUPT
 70
     0
  9
$DIMDEC
 70
     4
  9
$DIMTDEC
 70
     4
  9
$DIMALTU
 70
     2
  9
$DIMALTTD
 70
     2
  9
$DIMTXSTY
  7
Standard
  9
$DIMAUNIT
 70
     0
  9
$DIMADEC
 70
     0
  9
$DIMALTRND
 40
0.0
  9
$DIMAZIN
 70
     2
  9
$DIMDSEP
 70
    46
  9
$DIMATFIT
 70
     3
  9
$DIMFRAC
 70
     0
  9
$DIMLDRBLK
  1

  9
$DIMLUNIT
 70
     2
  9
$DIMLWD
 70
    -2
  9
$DIMLWE
 70
    -2
  9
$DIMTMOVE
 70
     0
  9
$DIMFXL
 40
1.0
  9
$DIMFXLON
 70
     0
  9
$DIMJOGANG
 40
0.7853981633974483
  9
$DIMTFILL
 70
     0
  9
$DIMTFILLCLR
 70
     0
  9
$DIMARCSYM
 70
     0
  9
$DIMLTYPE
  6

  9
$DIMLTEX1
  6

  9
$DIMLTEX2
  6

  9
$DIMTXTDIRECTION
 70
     0
  9
$LUNITS
 70
     2
  9
$LUPREC
 70
     4
  9
$SKETCHINC
 40
0.1
  9
$FILLETRAD
 40
0.5
  9
$AUNITS
 70
     0
  9
$AUPREC
 70
     0
  9
$MENU
  1
.
  9
$ELEVATION
 40
0.0
  9
$PELEVATION
 40
0.0
  9
$THICKNESS
 40
0.0
  9
$LIMCHECK
 70
     0
  9
$CHAMFERA
 40
0.0
  9
$CHAMFERB
 40
0.0
  9
$CHAMFERC
 40
0.0
  9
$CHAMFERD
 40
0.0
  9
$SKPOLY
 70
     0
  9
$TDCREATE
 40
2457774.973958333
  9
$TDUCREATE
 40
2457775.182291667
  9
$TDUPDATE
 40
2457774.973958333
  9
$TDUUPDATE
 40
2457775.182291667
  9
$TDINDWG
 40
0.0000000116
  9
$TDUSRTIMER
 40
0.0000000116
  9
$USRTIMER
 70
     1
  9
$ANGBASE
 50
0.0
  9
$ANGDIR
 70
     0
  9
$PDMODE
 70
     0
  9
$PDSIZE
 40
0.0
  9
$PLINEWID
 40
0.0
  9
$SPLFRAME
 70
     0
  9
$SPLINETYPE
 70
     6
  9
$SPLINESEGS
 70
     8
  9
$HANDSEED
  5
34A
  9
$SURFTAB1
 70
     6
  9
$SURFTAB2
 70
     6
  9
$SURFTYPE
 70
     6
  9
$SURFU
 70
     6
  9
$SURFV
 70
     6
  9
$UCSBASE
  2

  9
$UCSNAME
  2

  9
$UCSORG
 10
0.0
 20
0.0
 30
0.0
  9
$UCSXDIR
 10
1.0
 20
0.0
 30
0.0
  9
$UCSYDIR
 10
0.0
 20
1.0
 30
0.0
  9
$UCSORTHOREF
  2

  9
$UCSORTHOVIEW
 70
     0
  9
$UCSORGTOP
 10
0.0
 20
0.0
 30
0.0
  9
$UCSORGBOTTOM
 10
0.0
 20
0.0
 30
0.0
  9
$UCSORGLEFT
 10
0.0
 20
0.0
 30
0.0
  9
$UCSORGRIGHT
 10
0.0
 20
0.0
 30
0.0
  9
$UCSORGFRONT
 10
0.0
 20
0.0
 30
0.0
  9
$UCSORGBACK
 10
0.0
 20
0.0
 30
0.0
  9
$PUCSBASE
  2

  9
$PUCSNAME
  2

  9
$PUCSORG
 10
0.0
 20
0.0
 30
0.0
  9
$PUCSXDIR
 10
1.0
 20
0.0
 30
0.0
  9
$PUCSYDIR
 10
0.0
 20
1.0
 30
0.0
  9
$PUCSORTHOREF
  2

  9
$PUCSORTHOVIEW
 70
     0
  9
$PUCSORGTOP
 10
0.0
 20
0.0
 30
0.0
  9
$PUCSORGBOTTOM
 10
0.0
 20
0.0
 30
0.0
  9
$PUCSORGLEFT
 10
0.0
 20
0.0
 30
0.0
  9
$PUCSORGRIGHT
 10
0.0
 20
0.0
 30
0.0
  9
$PUCSORGFRONT
 10
0.0
 20
0.0
 30
0.0
  9
$PUCSORGBACK
 10
0.0
 20
0.0
 30
0.0
  9
$USERI1
 70
     0
  9
$USERI2
 70
     0
  9
$USERI3
 70
     0
  9
$USERI4
 70
     0
  9
$USERI5
 70
     0
  9
$USERR1
 40
0.0
  9
$USERR2
 40
0.0
  9
$USERR3
 40
0.0
  9
$USERR4
 40
0.0
  9
$USERR5
 40
0.0
  9
$WORLDVIEW
 70
     1
  9
$SHADEDGE
 70
     3
  9
$SHADEDIF
 70
    70
  9
$TILEMODE
 70
     1
  9
$MAXACTVP
 70
    32
  9
$PINSBASE
 10
0.0
 20
0.0
 30
0.0
  9
$PLIMCHECK
 70
     0
  9
$PEXTMIN
 10
0.0
 20
0.0
 30
0.0
  9
$PEXTMAX
 10
0.0
 20
0.0
 30
0.0
  9
$PLIMMIN
 10
-20.0
 20
-7.5
  9
$PLIMMAX
 10
277.0
 20
202.5
  9
$UNITMODE
 70
     0
  9
$VISRETAIN
 70
     1
  9
$PLINEGEN
 70
     0
  9
$PSLTSCALE
 70
     1
  9
$TREEDEPTH
 70
  3020
  9
$CMLSTYLE
  2
Standard
  9
$CMLJUST
 70
     0
  9
$CMLSCALE
 40
1.0
  9
$PROXYGRAPHICS
 70
     1
  9
$MEASUREMENT
 70
     1
  9
$CELWEIGHT
370
    -1
  9
$ENDCAPS
280
     0
  9
$JOINSTYLE
280
     0
  9
$LWDISPLAY
290
     0
  9
$INSUNITS
 70
     4
  9
$HYPERLINKBASE
  1

  9
$STYLESHEET
  1

  9
$XEDIT
290
     1
  9
$CEPSNTYPE
380
     0
  9
$PSTYLEMODE
290
     1
  9
$FINGERPRINTGUID
  2
{E4DDBD29-1994-6631-4E88-E0959DD0FB9A}
  9
$VERSIONGUID
  2
{FAEB1C32-E019-11D5-929B-00C0DF256EC4}
  9
$EXTNAMES
290
     1
  9
$PSVPSCALE
 40
0.0
  9
$OLESTARTUP
290
     0
  9
$SORTENTS
280
   127
  9
$INDEXCTL
280
     0
  9
$HIDETEXT
280
     1
  9
$XCLIPFRAME
280
     2
  9
$HALOGAP
280
     0
  9
$OBSCOLOR
 70
   257
  9
$OBSLTYPE
280
     0
  9
$INTERSECTIONDISPLAY
280
     0
  9
$INTERSECTIONCOLOR
 70
   257
  9
$DIMASSOC
280
     2
  9
$PROJECTNAME
  1

  9
$CAMERADISPLAY
290
     0
  9
$LENSLENGTH
 40
50.0
  9
$CAMERAHEIGHT
 40
0.0
  9
$STEPSPERSEC
 40
2.0
  9
$STEPSIZE
 40
6.0
  9
$3DDWFPREC
 40
2.0
  9
$PSOLWIDTH
 40
0.25
  9
$PSOLHEIGHT
 40
4.0
  9
$LOFTANG1
 40
1.570796326794897
  9
$LOFTANG2
 40
1.570796326794897
  9
$LOFTMAG1
 40
0.0
  9
$LOFTMAG2
 40
0.0
  9
$LOFTPARAM
 70
     7
  9
$LOFTNORMALS
280
     1
  9
$LATITUDE
 40
37.795
  9
$LONGITUDE
 40
-122.394
  9
$NORTHDIRECTION
 40
0.0
  9
$TIMEZONE
 70
 -8000
  9
$LIGHTGLYPHDISPLAY
280
     1
  9
$TILEMODELIGHTSYNCH
280
     1
  9
$CMATERIAL
347
2A4
  9
$SOLIDHIST
280
     0
  9
$SHOWHIST
280
     1
  9
$DWFFRAME
280
     2
  9
$DGNFRAME
280
     2
  9
$REALWORLDSCALE
290
     1
  9
$INTERFERECOLOR
 62
   256
  9
$CSHADOW
280
     0
  9
$SHADOWPLANELOCATION
 40
0.0
  0
ENDSEC
  0
SECTION
  2
CLASSES
  0
CLASS
  1
ACDBDICTIONARYWDFLT
  2
AcDbDictionaryWithDefault
  3
ObjectDBX Classes
 90
        0
 91
        4
280
     0
281
     0
  0
CLASS
  1
VISUALSTYLE
  2
AcDbVisualStyle
  3
ObjectDBX Classes
 90
     4095
 91
        4
280
     0
281
     0
  0
CLASS
  1
MATERIAL
  2
AcDbMaterial
  3
ObjectDBX Classes
 90
     1153
 91
        4
280
     0
281
     0
  0
CLASS
  1
SCALE
  2
AcDbScale
  3
ObjectDBX Classes
 90
     1153
 91
        4
280
     0
281
     0
  0
CLASS
  1
TABLESTYLE
  2
AcDbTableStyle
  3
ObjectDBX Classes
 90
     4095
 91
        4
280
     0
281
     0
  0
CLASS
  1
MLEADERSTYLE
  2
AcDbMLeaderStyle
  3
ACDB_MLEADERSTYLE_CLASS
 90
     4095
 91
        4
280
     0
281
     0
  0
CLASS
  1
SUN
  2
AcDbSun
  3
SCENEOE
 90
     1153
 91
        4
280
     0
281
     0
  0
CLASS
  1
DICTIONARYVAR
  2
AcDbDictionaryVar
  3
ObjectDBX Classes
 90
        0
 91
        4
280
     0
281
     0
  0
CLASS
  1
CELLSTYLEMAP
  2
AcDbCellStyleMap
  3
ObjectDBX Classes
 90
     1152
 91
        4
280
     0
281
     0
  0
ENDSEC
  0
SECTION
  2
TABLES
  0
TABLE
  2
VPORT
  5
269
330
0
100
AcDbSymbolTable
 70
     1
  0
VPORT
  5
289
330
269
100
AcDbSymbolTableRecord
100
AcDbViewportTableRecord
  2
*Active
 70
     0
 10
0.0
 20
0.0
 11
1.0
 21
1.0
 12
2.696823160289256
 22
0.485914082935011
 13
0.0
 23
0.0
 14
0.5
 24
0.5
 15
0.5
 25
0.5
 16
0.0
 26
0.0
 36
1.0
 17
0.0
 27
0.0
 37
0.0
 40
143.8305685487632
 41
1.369932432432432
 42
50.0
 43
0.0
 44
0.0
 50
0.0
 51
0.0
 71
     0
 72
   100
 73
     1
 74
     3
 75
     0
 76
     0
 77
     0
 78
     0
281
     0
 65
     1
110
0.0
120
0.0
130
0.0
111
1.0
121
0.0
131
0.0
112
0.0
122
1.0
132
0.0
 79
     0
146
0.0
 60
     3
 61
     5
292
     1
282
     1
141
0.0
142
0.0
 63
   250
361
2CD
  0
ENDTAB
  0
TABLE
  2
LTYPE
  5
266
330
0
100
AcDbSymbolTable
 70
    48
  0
LTYPE
  5
274
330
266
100
AcDbSymbolTableRecord
100
AcDbLinetypeTableRecord
  2
ByBlock
 70
     0
  3

 72
    65
 73
     0
 40
0.0
  0
LTYPE
  5
275
330
266
100
AcDbSymbolTableRecord
100
AcDbLinetypeTableRecord
  2
ByLayer
 70
     0
  3

 72
    65
 73
     0
 40
0.0
  0
LTYPE
  5
276
330
266
100
AcDbSymbolTableRecord
100
AcDbLinetypeTableRecord
  2
Continuous
 70
     0
  3
Solid line
 72
    65
 73
     0
 40
0.0
  0
LTYPE
  5
305
330
266
100
AcDbSymbolTableRecord
100
AcDbLinetypeTableRecord
  2
TRACKS
 70
     0
  3
Tracks -|-|-|-|-|-|-|-|-|-|-|-|-|-|-|-|-|-|-|-|-|-|-|-|-
 72
    65
 73
     2
 40
7.62
 49
3.81
 74
     2
 75
     0
340
304
 46
6.35
 50
0.0
 44
0.0
 45
0.0
  9
TRACK1
 49
3.81
 74
     0
  0
LTYPE
  5
306
330
266
100
AcDbSymbolTableRecord
100
AcDbLinetypeTableRecord
  2
PHANTOMX2
 70
     0
  3
Phantom (2x) ____________    ____    ____   _
 72
    65
 73
     6
 40
127.0
 49
63.5
 74
     0
 49
-12.7
 74
     0
 49
12.7
 74
     0
 49
-12.7
 74
     0
 49
12.7
 74
     0
 49
-12.7
 74
     0
  0
LTYPE
  5
309
330
266
100
AcDbSymbolTableRecord
100
AcDbLinetypeTableRecord
  2
ZIGZAG
 70
     0
  3
Zig zag /\/\/\/\/\/\/\/\/\/\/\/\/\/\/\/\/\/\/\/\/\/\/\/
 72
    65
 73
     4
 40
20.32254
 49
0.00254
 74
     0
 49
-5.08
 74
     2
 75
     0
340
307
 46
5.08
 50
0.0
 44
-5.08
 45
0.0
  9
ZIG
 49
-10.16
 74
     2
 75
     0
340
308
 46
5.08
 50
180.0
 44
5.08
 45
0.0
  9
ZIG
 49
-5.08
 74
     0
  0
LTYPE
  5
30B
330
266
100
AcDbSymbolTableRecord
100
AcDbLinetypeTableRecord
  2
HOT_WATER_SUPPLY
 70
     0
  3
Hot water supply ---- HW ---- HW ---- HW ----
 72
    65
 73
     3
 40
22.86
 49
12.7
 74
     0
 49
-5.08
 74
     2
 75
     0
340
30A
 46
2.54
 50
0.0
 44
-2.54
 45
-1.27
  9
HW
 49
-5.08
 74
     0
  0
LTYPE
  5
30C
330
266
100
AcDbSymbolTableRecord
100
AcDbLinetypeTableRecord
  2
HIDDENX2
 70
     0
  3
Hidden (2x) ____ ____ ____ ____ ____ ____ ____ 
 72
    65
 73
     2
 40
19.05
 49
12.7
 74
     0
 49
-6.35
 74
     0
  0
LTYPE
  5
30D
330
266
100
AcDbSymbolTableRecord
100
AcDbLinetypeTableRecord
  2
PHANTOM2
 70
     0
  3
Phantom (.5x) ___ _ _ ___ _ _ ___ _ _ ___ _ _
 72
    65
 73
     6
 40
31.75
 49
15.875
 74
     0
 49
-3.175
 74
     0
 49
3.175
 74
     0
 49
-3.175
 74
     0
 49
3.175
 74
     0
 49
-3.175
 74
     0
  0
LTYPE
  5
30E
330
266
100
AcDbSymbolTableRecord
100
AcDbLinetypeTableRecord
  2
PHANTOM
 70
     0
  3
Phantom ______  __  __  ______  __  __  ______ 
 72
    65
 73
     6
 40
63.50000000000001
 49
31.75
 74
     0
 49
-6.35
 74
     0
 49
6.35
 74
     0
 49
-6.35
 74
     0
 49
6.35
 74
     0
 49
-6.35
 74
     0
  0
LTYPE
  5
310
330
266
100
AcDbSymbolTableRecord
100
AcDbLinetypeTableRecord
  2
GAS_LINE
 70
     0
  3
Gas line ----GAS----GAS----GAS----GAS----GAS----GAS--
 72
    65
 73
     3
 40
24.13
 49
12.7
 74
     0
 49
-5.08
 74
     2
 75
     0
340
30F
 46
2.54
 50
0.0
 44
-2.54
 45
-1.27
  9
GAS
 49
-6.35
 74
     0
  0
LTYPE
  5
312
330
266
100
AcDbSymbolTableRecord
100
AcDbLinetypeTableRecord
  2
FENCELINE2
 70
     0
  3
Fenceline square ----[]-----[]----[]-----[]----[]---
 72
    65
 73
     4
 40
36.83
 49
6.35
 74
     0
 49
-2.54
 74
     2
 75
     0
340
311
 46
2.54
 50
0.0
 44
-2.54
 45
0.0
  9
BOX
 49
-2.54
 74
     0
 49
25.4
 74
     0
  0
LTYPE
  5
313
330
266
100
AcDbSymbolTableRecord
100
AcDbLinetypeTableRecord
  2
HIDDEN2
 70
     0
  3
Hidden (.5x) _ _ _ _ _ _ _ _ _ _ _ _ _ _ _ _ _ 
 72
    65
 73
     2
 40
4.762499999999999
 49
3.175
 74
     0
 49
-1.5875
 74
     0
  0
LTYPE
  5
314
330
266
100
AcDbSymbolTableRecord
100
AcDbLinetypeTableRecord
  2
HIDDEN
 70
     0
  3
Hidden __ __ __ __ __ __ __ __ __ __ __ __ __ __
 72
    65
 73
     2
 40
9.524999999999999
 49
6.35
 74
     0
 49
-3.175
 74
     0
  0
LTYPE
  5
316
330
266
100
AcDbSymbolTableRecord
100
AcDbLinetypeTableRecord
  2
DRAINAGE
 70
     0
  3
Drainage ---->---->---->----
 72
    65
 73
     2
 40
10.16
 49
5.08
 74
     2
 75
     0
340
315
 46
2.54
 50
180.0
 44
0.0
 45
0.0
  9
RIGHT_ARROW
 49
5.08
 74
     0
  0
LTYPE
  5
317
330
266
100
AcDbSymbolTableRecord
100
AcDbLinetypeTableRecord
  2
DOTX2
 70
     0
  3
Dot (2x) .  .  .  .  .  .  .  .  .  .  .  .  .  .
 72
    65
 73
     2
 40
12.7
 49
0.0
 74
     0
 49
-12.7
 74
     0
  0
LTYPE
  5
319
330
266
100
AcDbSymbolTableRecord
100
AcDbLinetypeTableRecord
  2
FENCELINE1
 70
     0
  3
Fenceline circle ----0-----0----0-----0----0-----0--
 72
    65
 73
     4
 40
36.83
 49
6.35
 74
     0
 49
-2.54
 74
     2
 75
     0
340
318
 46
2.54
 50
0.0
 44
-2.54
 45
0.0
  9
CIRC1
 49
-2.54
 74
     0
 49
25.4
 74
     0
  0
LTYPE
  5
31B
330
266
100
AcDbSymbolTableRecord
100
AcDbLinetypeTableRecord
  2
DRAINAGE2
 70
     0
  3
Drainage reversed----<----<----<----
 72
    65
 73
     2
 40
10.16
 49
5.08
 74
     2
 75
     0
340
31A
 46
2.54
 50
0.0
 44
0.0
 45
0.0
  9
RIGHT_ARROW
 49
5.08
 74
     0
  0
LTYPE
  5
31C
330
266
100
AcDbSymbolTableRecord
100
AcDbLinetypeTableRecord
  2
DIVIDEX2
 70
     0
  3
Divide (2x) ________  .  .  ________  .  .  _
 72
    65
 73
     6
 40
63.5
 49
25.4
 74
     0
 49
-12.7
 74
     0
 49
0.0
 74
     0
 49
-12.7
 74
     0
 49
0.0
 74
     0
 49
-12.7
 74
     0
  0
LTYPE
  5
31D
330
266
100
AcDbSymbolTableRecord
100
AcDbLinetypeTableRecord
  2
DIVIDE2
 70
     0
  3
Divide (.5x) __..__..__..__..__..__..__..__.._
 72
    65
 73
     6
 40
15.875
 49
6.35
 74
     0
 49
-3.175
 74
     0
 49
0.0
 74
     0
 49
-3.175
 74
     0
 49
0.0
 74
     0
 49
-3.175
 74
     0
  0
LTYPE
  5
31E
330
266
100
AcDbSymbolTableRecord
100
AcDbLinetypeTableRecord
  2
DOT2
 70
     0
  3
Dot (.5x) ........................................
 72
    65
 73
     2
 40
3.175
 49
0.0
 74
     0
 49
-3.175
 74
     0
  0
LTYPE
  5
31F
330
266
100
AcDbSymbolTableRecord
100
AcDbLinetypeTableRecord
  2
DOT
 70
     0
  3
Dot . . . . . . . . . . . . . . . . . . . . . . . .
 72
    65
 73
     2
 40
6.35
 49
0.0
 74
     0
 49
-6.35
 74
     0
  0
LTYPE
  5
320
330
266
100
AcDbSymbolTableRecord
100
AcDbLinetypeTableRecord
  2
DASHED2
 70
     0
  3
Dashed (.5x) _ _ _ _ _ _ _ _ _ _ _ _ _ _ _ _ _ 
 72
    65
 73
     2
 40
9.524999999999999
 49
6.35
 74
     0
 49
-3.175
 74
     0
  0
LTYPE
  5
321
330
266
100
AcDbSymbolTableRecord
100
AcDbLinetypeTableRecord
  2
DASHED
 70
     0
  3
Dashed __ __ __ __ __ __ __ __ __ __ __ __ __ _
 72
    65
 73
     2
 40
19.05
 49
12.7
 74
     0
 49
-6.35
 74
     0
  0
LTYPE
  5
322
330
266
100
AcDbSymbolTableRecord
100
AcDbLinetypeTableRecord
  2
DIVIDE
 70
     0
  3
Divide ____ . . ____ . . ____ . . ____ . . ____
 72
    65
 73
     6
 40
31.75
 49
12.7
 74
     0
 49
-6.35
 74
     0
 49
0.0
 74
     0
 49
-6.35
 74
     0
 49
0.0
 74
     0
 49
-6.35
 74
     0
  0
LTYPE
  5
323
330
266
100
AcDbSymbolTableRecord
100
AcDbLinetypeTableRecord
  2
DASHEDX2
 70
     0
  3
Dashed (2x) ____  ____  ____  ____  ____  ___
 72
    65
 73
     2
 40
38.09999999999999
 49
25.4
 74
     0
 49
-12.7
 74
     0
  0
LTYPE
  5
324
330
266
100
AcDbSymbolTableRecord
100
AcDbLinetypeTableRecord
  2
DASHDOT
 70
     0
  3
Dash dot __ . __ . __ . __ . __ . __ . __ . __
 72
    65
 73
     4
 40
25.4
 49
12.7
 74
     0
 49
-6.35
 74
     0
 49
0.0
 74
     0
 49
-6.35
 74
     0
  0
LTYPE
  5
325
330
266
100
AcDbSymbolTableRecord
100
AcDbLinetypeTableRecord
  2
CENTERX2
 70
     0
  3
Center (2x) ________  __  ________  __  _____
 72
    65
 73
     4
 40
101.6
 49
63.5
 74
     0
 49
-12.7
 74
     0
 49
12.7
 74
     0
 49
-12.7
 74
     0
  0
LTYPE
  5
326
330
266
100
AcDbSymbolTableRecord
100
AcDbLinetypeTableRecord
  2
DASHDOTX2
 70
     0
  3
Dash dot (2x) ____  .  ____  .  ____  .  ___
 72
    65
 73
     4
 40
50.8
 49
25.4
 74
     0
 49
-12.7
 74
     0
 49
0.0
 74
     0
 49
-12.7
 74
     0
  0
LTYPE
  5
327
330
266
100
AcDbSymbolTableRecord
100
AcDbLinetypeTableRecord
  2
DASHDOT2
 70
     0
  3
Dash dot (.5x) _._._._._._._._._._._._._._._.
 72
    65
 73
     4
 40
12.7
 49
6.35
 74
     0
 49
-3.175
 74
     0
 49
0.0
 74
     0
 49
-3.175
 74
     0
  0
LTYPE
  5
328
330
266
100
AcDbSymbolTableRecord
100
AcDbLinetypeTableRecord
  2
BORDERX2
 70
     0
  3
Border (2x) ____  ____  .  ____  ____  .  ___
 72
    65
 73
     6
 40
88.89999999999999
 49
25.4
 74
     0
 49
-12.7
 74
     0
 49
25.4
 74
     0
 49
-12.7
 74
     0
 49
0.0
 74
     0
 49
-12.7
 74
     0
  0
LTYPE
  5
329
330
266
100
AcDbSymbolTableRecord
100
AcDbLinetypeTableRecord
  2
BORDER2
 70
     0
  3
Border (.5x) __.__.__.__.__.__.__.__.__.__.__.
 72
    65
 73
     6
 40
22.225
 49
6.35
 74
     0
 49
-3.175
 74
     0
 49
6.35
 74
     0
 49
-3.175
 74
     0
 49
0.0
 74
     0
 49
-3.175
 74
     0
  0
LTYPE
  5
32A
330
266
100
AcDbSymbolTableRecord
100
AcDbLinetypeTableRecord
  2
CENTER2
 70
     0
  3
Center (.5x) ___ _ ___ _ ___ _ ___ _ ___ _ ___
 72
    65
 73
     4
 40
28.575
 49
19.05
 74
     0
 49
-3.175
 74
     0
 49
3.175
 74
     0
 49
-3.175
 74
     0
  0
LTYPE
  5
32B
330
266
100
AcDbSymbolTableRecord
100
AcDbLinetypeTableRecord
  2
CENTER
 70
     0
  3
Center ____ _ ____ _ ____ _ ____ _ ____ _ ____
 72
    65
 73
     4
 40
50.8
 49
31.75
 74
     0
 49
-6.35
 74
     0
 49
6.35
 74
     0
 49
-6.35
 74
     0
  0
LTYPE
  5
32C
330
266
100
AcDbSymbolTableRecord
100
AcDbLinetypeTableRecord
  2
ACAD_ISO15W100
 70
     0
  3
ISO double-dash triple-dot __ __ . . . __ __ . .
 72
    65
 73
    10
 40
39.0
 49
12.0
 74
     0
 49
-3.0
 74
     0
 49
12.0
 74
     0
 49
-3.0
 74
     0
 49
0.0
 74
     0
 49
-3.0
 74
     0
 49
0.0
 74
     0
 49
-3.0
 74
     0
 49
0.0
 74
     0
 49
-3.0
 74
     0
  0
LTYPE
  5
32D
330
266
100
AcDbSymbolTableRecord
100
AcDbLinetypeTableRecord
  2
ACAD_ISO14W100
 70
     0
  3
ISO dash triple-dot __ . . . __ . . . __ . . . _
 72
    65
 73
     8
 40
24.0
 49
12.0
 74
     0
 49
-3.0
 74
     0
 49
0.0
 74
     0
 49
-3.0
 74
     0
 49
0.0
 74
     0
 49
-3.0
 74
     0
 49
0.0
 74
     0
 49
-3.0
 74
     0
  0
LTYPE
  5
32E
330
266
100
AcDbSymbolTableRecord
100
AcDbLinetypeTableRecord
  2
BORDER
 70
     0
  3
Border __ __ . __ __ . __ __ . __ __ . __ __ .
 72
    65
 73
     6
 40
44.45
 49
12.7
 74
     0
 49
-6.35
 74
     0
 49
12.7
 74
     0
 49
-6.35
 74
     0
 49
0.0
 74
     0
 49
-6.35
 74
     0
  0
LTYPE
  5
331
330
266
100
AcDbSymbolTableRecord
100
AcDbLinetypeTableRecord
  2
BATTING
 70
     0
  3
Batting SSSSSSSSSSSSSSSSSSSSSSSSSSSSSSSSSSSSSSSSSSSSSSS
 72
    65
 73
     4
 40
10.16254
 49
0.00254
 74
     0
 49
-2.54
 74
     2
 75
     0
340
32F
 46
2.54
 50
0.0
 44
-2.54
 45
0.0
  9
BAT
 49
-5.08
 74
     2
 75
     0
340
330
 46
2.54
 50
180.0
 44
2.54
 45
0.0
  9
BAT
 49
-2.54
 74
     0
  0
LTYPE
  5
332
330
266
100
AcDbSymbolTableRecord
100
AcDbLinetypeTableRecord
  2
ACAD_ISO11W100
 70
     0
  3
ISO double-dash dot __ __ . __ __ . __ __ . __ _
 72
    65
 73
     6
 40
33.0
 49
12.0
 74
     0
 49
-3.0
 74
     0
 49
12.0
 74
     0
 49
-3.0
 74
     0
 49
0.0
 74
     0
 49
-3.0
 74
     0
  0
LTYPE
  5
333
330
266
100
AcDbSymbolTableRecord
100
AcDbLinetypeTableRecord
  2
ACAD_ISO10W100
 70
     0
  3
ISO dash dot __ . __ . __ . __ . __ . __ . __ . 
 72
    65
 73
     4
 40
18.0
 49
12.0
 74
     0
 49
-3.0
 74
     0
 49
0.0
 74
     0
 49
-3.0
 74
     0
  0
LTYPE
  5
334
330
266
100
AcDbSymbolTableRecord
100
AcDbLinetypeTableRecord
  2
ACAD_ISO13W100
 70
     0
  3
ISO double-dash double-dot __ __ . . __ __ . . _
 72
    65
 73
     8
 40
36.0
 49
12.0
 74
     0
 49
-3.0
 74
     0
 49
12.0
 74
     0
 49
-3.0
 74
     0
 49
0.0
 74
     0
 49
-3.0
 74
     0
 49
0.0
 74
     0
 49
-3.0
 74
     0
  0
LTYPE
  5
335
330
266
100
AcDbSymbolTableRecord
100
AcDbLinetypeTableRecord
  2
ACAD_ISO12W100
 70
     0
  3
ISO dash double-dot __ . . __ . . __ . . __ . . 
 72
    65
 73
     6
 40
21.0
 49
12.0
 74
     0
 49
-3.0
 74
     0
 49
0.0
 74
     0
 49
-3.0
 74
     0
 49
0.0
 74
     0
 49
-3.0
 74
     0
  0
LTYPE
  5
336
330
266
100
AcDbSymbolTableRecord
100
AcDbLinetypeTableRecord
  2
ACAD_ISO07W100
 70
     0
  3
ISO dot . . . . . . . . . . . . . . . . . . . . 
 72
    65
 73
     2
 40
3.0
 49
0.0
 74
     0
 49
-3.0
 74
     0
  0
LTYPE
  5
337
330
266
100
AcDbSymbolTableRecord
100
AcDbLinetypeTableRecord
  2
ACAD_ISO06W100
 70
     0
  3
ISO long-dash triple-dot ____ ... ____ ... ____
 72
    65
 73
     8
 40
36.0
 49
24.0
 74
     0
 49
-3.0
 74
     0
 49
0.0
 74
     0
 49
-3.0
 74
     0
 49
0.0
 74
     0
 49
-3.0
 74
     0
 49
0.0
 74
     0
 49
-3.0
 74
     0
  0
LTYPE
  5
338
330
266
100
AcDbSymbolTableRecord
100
AcDbLinetypeTableRecord
  2
ACAD_ISO09W100
 70
     0
  3
ISO long-dash double-short-dash ____ __ __ ____
 72
    65
 73
     6
 40
45.0
 49
24.0
 74
     0
 49
-3.0
 74
     0
 49
6.0
 74
     0
 49
-3.0
 74
     0
 49
6.0
 74
     0
 49
-3.0
 74
     0
  0
LTYPE
  5
339
330
266
100
AcDbSymbolTableRecord
100
AcDbLinetypeTableRecord
  2
ACAD_ISO08W100
 70
     0
  3
ISO long-dash short-dash ____ __ ____ __ ____ _
 72
    65
 73
     4
 40
36.0
 49
24.0
 74
     0
 49
-3.0
 74
     0
 49
6.0
 74
     0
 49
-3.0
 74
     0
  0
LTYPE
  5
33A
330
266
100
AcDbSymbolTableRecord
100
AcDbLinetypeTableRecord
  2
ACAD_ISO03W100
 70
     0
  3
ISO dash space __    __    __    __    __    __
 72
    65
 73
     2
 40
30.0
 49
12.0
 74
     0
 49
-18.0
 74
     0
  0
LTYPE
  5
33B
330
266
100
AcDbSymbolTableRecord
100
AcDbLinetypeTableRecord
  2
ACAD_ISO02W100
 70
     0
  3
ISO dash __ __ __ __ __ __ __ __ __ __ __ __ __
 72
    65
 73
     2
 40
15.0
 49
12.0
 74
     0
 49
-3.0
 74
     0
  0
LTYPE
  5
33C
330
266
100
AcDbSymbolTableRecord
100
AcDbLinetypeTableRecord
  2
ACAD_ISO05W100
 70
     0
  3
ISO long-dash double-dot ____ .. ____ .. ____ . 
 72
    65
 73
     6
 40
33.0
 49
24.0
 74
     0
 49
-3.0
 74
     0
 49
0.0
 74
     0
 49
-3.0
 74
     0
 49
0.0
 74
     0
 49
-3.0
 74
     0
  0
LTYPE
  5
33D
330
266
100
AcDbSymbolTableRecord
100
AcDbLinetypeTableRecord
  2
ACAD_ISO04W100
 70
     0
  3
ISO long-dash dot ____ . ____ . ____ . ____ . _
 72
    65
 73
     4
 40
30.0
 49
24.0
 74
     0
 49
-3.0
 74
     0
 49
0.0
 74
     0
 49
-3.0
 74
     0
  0
ENDTAB
  0
TABLE
  2
LAYER
  5
263
330
0
100
AcDbSymbolTable
 70
     1
  0
LAYER
  5
271
330
263
100
AcDbSymbolTableRecord
100
AcDbLayerTableRecord
  2
0
 70
     0
 62
   178
420
        0
  6
Continuous
370
    25
390
270
347
2A6
348
0
  0
ENDTAB
  0
TABLE
  2
STYLE
  5
264
330
0
100
AcDbSymbolTable
 70
    14
  0
STYLE
  5
272
330
264
100
AcDbSymbolTableRecord
100
AcDbTextStyleTableRecord
  2
Standard
 70
     0
 40
0.0
 41
1.0
 50
0.0
 71
     0
 42
0.2
  3
txt
  4

  0
STYLE
  5
302
330
264
100
AcDbSymbolTableRecord
100
AcDbTextStyleTableRecord
  2
QCADDimTextStyle
 70
     0
 40
0.0
 41
1.0
 50
0.0
 71
     0
 42
0.2
  3

  4

  0
STYLE
  5
304
330
264
100
AcDbSymbolTableRecord
100
AcDbTextStyleTableRecord
  2
textstyle0
 70
     0
 40
0.0
 41
1.0
 50
0.0
 71
     0
 42
0.2
  3
ltypeshp.shx
  4

  0
STYLE
  5
307
330
264
100
AcDbSymbolTableRecord
100
AcDbTextStyleTableRecord
  2
textstyle1
 70
     0
 40
0.0
 41
1.0
 50
0.0
 71
     0
 42
0.2
  3
ltypeshp.shx
  4

  0
STYLE
  5
308
330
264
100
AcDbSymbolTableRecord
100
AcDbTextStyleTableRecord
  2
textstyle2
 70
     0
 40
0.0
 41
1.0
 50
0.0
 71
     0
 42
0.2
  3
ltypeshp.shx
  4

  0
STYLE
  5
30A
330
264
100
AcDbSymbolTableRecord
100
AcDbTextStyleTableRecord
  2
textstyle3
 70
     0
 40
0.0
 41
1.0
 50
0.0
 71
     0
 42
0.2
  3
STANDARD
  4

  0
STYLE
  5
30F
330
264
100
AcDbSymbolTableRecord
100
AcDbTextStyleTableRecord
  2
textstyle4
 70
     0
 40
0.0
 41
1.0
 50
0.0
 71
     0
 42
0.2
  3
STANDARD
  4

  0
STYLE
  5
311
330
264
100
AcDbSymbolTableRecord
100
AcDbTextStyleTableRecord
  2
textstyle5
 70
     0
 40
0.0
 41
1.0
 50
0.0
 71
     0
 42
0.2
  3
ltypeshp.shx
  4

  0
STYLE
  5
315
330
264
100
AcDbSymbolTableRecord
100
AcDbTextStyleTableRecord
  2
textstyle6
 70
     0
 40
0.0
 41
1.0
 50
0.0
 71
     0
 42
0.2
  3
qcadshp.shx
  4

  0
STYLE
  5
318
330
264
100
AcDbSymbolTableRecord
100
AcDbTextStyleTableRecord
  2
textstyle7
 70
     0
 40
0.0
 41
1.0
 50
0.0
 71
     0
 42
0.2
  3
ltypeshp.shx
  4

  0
STYLE
  5
31A
330
264
100
AcDbSymbolTableRecord
100
AcDbTextStyleTableRecord
  2
textstyle8
 70
     0
 40
0.0
 41
1.0
 50
0.0
 71
     0
 42
0.2
  3
qcadshp.shx
  4

  0
STYLE
  5
32F
330
264
100
AcDbSymbolTableRecord
100
AcDbTextStyleTableRecord
  2
textstyle9
 70
     0
 40
0.0
 41
1.0
 50
0.0
 71
     0
 42
0.2
  3
ltypeshp.shx
  4

  0
STYLE
  5
330
330
264
100
AcDbSymbolTableRecord
100
AcDbTextStyleTableRecord
  2
textstyle10
 70
     0
 40
0.0
 41
1.0
 50
0.0
 71
     0
 42
0.2
  3
ltypeshp.shx
  4

  0
STYLE
  5
340
330
264
100
AcDbSymbolTableRecord
100
AcDbTextStyleTableRecord
  2
textstyle11
 70
     0
 40
0.0
 41
1.0
 50
0.0
 71
     0
 42
0.2
  3

  4

1001
ACAD
1000
Arial
1071
 33554432
  0
ENDTAB
  0
TABLE
  2
VIEW
  5
267
330
0
100
AcDbSymbolTable
 70
     0
  0
ENDTAB
  0
TABLE
  2
UCS
  5
268
330
0
100
AcDbSymbolTable
 70
     0
  0
ENDTAB
  0
TABLE
  2
APPID
  5
26A
330
0
100
AcDbSymbolTable
 70
     2
  0
APPID
  5
273
330
26A
100
AcDbSymbolTableRecord
100
AcDbRegAppTableRecord
  2
ACAD
 70
     0
  0
APPID
  5
2CE
330
26A
100
AcDbSymbolTableRecord
100
AcDbRegAppTableRecord
  2
QCAD
 70
     0
  0
ENDTAB
  0
TABLE
  2
DIMSTYLE
  5
26B
330
0
100
AcDbSymbolTable
 70
     2
100
AcDbDimStyleTable
  0
DIMSTYLE
105
287
330
26B
100
AcDbSymbolTableRecord
100
AcDbDimStyleTableRecord
  2
Standard
 70
     0
178
     0
340
272
  0
DIMSTYLE
105
303
330
26B
100
AcDbSymbolTableRecord
100
AcDbDimStyleTableRecord
  2
QCADDimStyle
 70
     0
 41
2.5
 42
0.625
 44
1.25
 73
     0
 77
     1
140
2.5
147
0.625
178
     0
340
302
  0
ENDTAB
  0
TABLE
  2
BLOCK_RECORD
  5
262
330
0
100
AcDbSymbolTable
 70
     1
  0
BLOCK_RECORD
  5
27F
330
262
100
AcDbSymbolTableRecord
100
AcDbBlockTableRecord
  2
*Model_Space
340
282
 70
     0
280
     1
281
     0
  0
BLOCK_RECORD
  5
27B
330
262
100
AcDbSymbolTableRecord
100
AcDbBlockTableRecord
  2
*Paper_Space
340
27E
 70
     0
280
     1
281
     0
  0
ENDTAB
  0
ENDSEC
  0
SECTION
  2
BLOCKS
  0
BLOCK
  5
280
330
27F
100
AcDbEntity
  8
0
100
AcDbBlockBegin
  2
*Model_Space
 70
     0
 10
0.0
 20
0.0
 30
0.0
  3
*Model_Space
  1
*Model_Space
  0
ENDBLK
  5
281
330
27F
100
AcDbEntity
  8
0
100
AcDbBlockEnd
  0
BLOCK
  5
27C
330
27B
100
AcDbEntity
 67
     1
  8
0
100
AcDbBlockBegin
  2
*Paper_Space
 70
     0
 10
0.0
 20
0.0
 30
0.0
  3
*Paper_Space
  1
*Paper_Space
  0
ENDBLK
  5
27D
330
27B
100
AcDbEntity
 67
     1
  8
0
100
AcDbBlockEnd
  0
ENDSEC
  0
SECTION
  2
ENTITIES
  0
CIRCLE
  5
39
330
27F
100
AcDbEntity
  8
0
100
AcDbCircle
 10
0.0
 20
0.0
 30
0.0
 40
67.5
  0
LWPOLYLINE
  5
22C
330
27F
100
AcDbEntity
  8
0
100
AcDbPolyline
 90
        9
 70
   129
 43
0.0
 10
6.969348039199213
 20
22.07158823789943
 42
-0.0251125371531542
 10
6.087220326381263
 20
21.88298470210989
 42
0.078456544028381
 10
5.296024955620818
 20
21.66041629298019
 42
0.257618462456247
 10
4.996738789095247
 20
21.16430791358369
 42
0.2104033417638197
 10
5.203061642867444
 20
20.6347736805726
 42
0.2033201795235366
 10
5.767827556084294
 20
20.39446473372425
 42
0.1616872553873758
 10
6.518304044875766
 20
20.6236074782409
 42
0.1673624820506473
 10
6.877846363507573
 20
21.08684721209353
 42
0.0621623233862708
 10
6.95911657976708
 20
21.78527713168764
  0
LWPOLYLINE
  5
22B
330
27F
100
AcDbEntity
  8
0
100
AcDbPolyline
 90
       28
 70
   129
 43
0.0
 10
5.088630125179162
 20
23.30598039794907
 10
3.793296465355247
 20
23.58775420225154
 42
-0.1764233188762494
 10
4.59163247374592
 20
24.72640913475765
 42
-0.0955487779636881
 10
5.175556006128176
 20
24.96484847054285
 42
-0.0582849613543121
 10
6.20031449403288
 20
25.04774496541569
 42
-0.1066098011782696
 10
7.623739668936154
 20
24.76907259278312
 42
-0.1576832483994567
 10
8.265188478554034
 20
24.16767743209743
 42
-0.0884457482730188
 10
8.37569845183575
 20
23.79562377195649
 42
-0.0370206204507718
 10
8.410964450621218
 20
22.87498237957991
 10
8.335699236114518
 20
21.19856544280876
 42
0.0455263498574501
 10
8.366992156848879
 20
20.14032672611095
 42
0.0629548159501562
 10
8.599148012109925
 20
19.40254063081615
 10
7.177817877701182
 20
19.45333251871138
 42
-0.0211225456055614
 10
7.054939507435959
 20
19.88261950478727
 42
0.017069839398847
 10
7.009841777063496
 20
20.05316559584641
 42
-0.0927727221191253
 10
6.203302248545707
 20
19.54446878513759
 42
-0.1022100173173972
 10
5.302185379488644
 20
19.39749765448061
 42
-0.19613476247211
 10
3.996813574733305
 20
19.89975695298167
 42
-0.2158389386634208
 10
3.554772125362086
 20
21.06737966394594
 42
-0.1402444068760603
 10
3.803942246897197
 20
21.88011144593554
 42
-0.1471011708481606
 10
4.439754495418559
 20
22.410266956816
 42
-0.0620634030351888
 10
5.594409724546228
 20
22.70431421170517
 42
0.04607808183735
 10
7.002782986986364
 20
23.0072120314131
 10
7.00789871670243
 20
23.15036758451902
 42
0.2202108619330903
 10
6.824493168772753
 20
23.74819242638959
 42
0.1223767481691473
 10
6.601260651098797
 20
23.87127312271377
 42
0.0562144157660378
 10
6.05877903149457
 20
23.95216891814959
 42
0.1535481304591513
 10
5.455203540779706
 20
23.82272075958371
 42
0.1546318814123726
  0
LWPOLYLINE
  5
242
330
27F
100
AcDbEntity
  8
0
100
AcDbPolyline
 90
       14
 70
   129
 43
0.0
 10
2.219427180458175
 20
19.49368372736344
 10
0.8841616838255548
 20
19.49249024052339
 10
0.8834483353694342
 20
20.29057996264863
 42
-0.1232333924354427
 10
0.0987681197898146
 20
19.59666549895642
 42
-0.1184170771718581
 10
-0.8142272096528687
 20
19.36818905450776
 42
-0.2249696192007286
 10
-2.418755073649931
 20
20.12135956266468
 42
-0.1046858137353208
 10
-2.889675522679011
 20
20.95035316399345
 42
-0.0769261004683522
 10
-3.088269507156584
 20
22.22598025933761
 42
-0.0751507068805306
 10
-2.892126017221197
 20
23.53150629981133
 42
-0.1091642601146143
 10
-2.440419730434352
 20
24.32666247848105
 42
-0.2220073889213038
 10
-0.7988391192541052
 20
25.04692267600036
 42
-0.2258094728776367
 10
0.7775532524515415
 20
24.29116903785901
 10
0.7751388422923642
 20
26.99239578966753
 10
2.212723534069247
 20
26.99368073143784
  0
LWPOLYLINE
  5
243
330
27F
100
AcDbEntity
  8
0
100
AcDbPolyline
 90
       12
 70
   129
 43
0.0
 10
-1.620075939020182
 20
22.32449587297404
 42
0.0472305309742881
 10
-1.539138786767158
 20
21.47764401572586
 42
0.0915224042019639
 10
-1.378500934788825
 20
21.06618469178602
 42
0.2785174034009254
 10
-0.4059655788018385
 20
20.50429794033016
 42
0.2353481867770456
 10
0.4377905295509519
 20
20.92711912347498
 42
0.1054334923392861
 10
0.6769252868554184
 20
21.38829398641564
 42
0.0673936277743885
 10
0.784548611025842
 20
22.18851415039074
 42
0.0614333828168749
 10
0.6731574782589802
 20
23.08509626368967
 42
0.1107794256394156
 10
0.4456903483434468
 20
23.53626774514669
 42
0.2366234811639282
 10
-0.4192749567199127
 20
23.94732971144155
 42
0.2312983188912785
 10
-1.275834682705277
 20
23.53984497570208
 42
0.107166775959069
 10
-1.513610654008834
 20
23.0935597738989
 42
0.069338010547091
  0
LWPOLYLINE
  5
240
330
27F
100
AcDbEntity
  8
0
100
AcDbPolyline
 90
        8
 70
   129
 43
0.0
 10
-3.962852668593762
 20
19.3639394830405
 10
-5.608731538895166
 20
19.29457932847038
 10
-6.334723547809535
 20
20.96911213600266
 10
-9.330018634755566
 20
20.84288527085332
 10
-9.876771466540106
 20
19.11471681584291
 10
-11.48175893633713
 20
19.04707989492672
 10
-8.878917792416894
 20
26.66342483940308
 10
-7.279041747682922
 20
26.73084635611254
  0
LWPOLYLINE
  5
241
330
27F
100
AcDbEntity
  8
0
100
AcDbPolyline
 90
        3
 70
   129
 43
0.0
 10
-6.873513767863732
 20
22.21117072693522
 10
-8.023201519065672
 20
24.94827431147187
 10
-8.918083793082864
 20
22.12500904423943
  0
LWPOLYLINE
  5
234
330
27F
100
AcDbEntity
  8
0
100
AcDbPolyline
 90
       14
 70
   129
 43
0.0
 10
-16.71578632003698
 20
18.75095023609325
 10
-18.14723408393165
 20
18.61825247293384
 10
-18.64874662654838
 20
24.0282080788276
 10
-17.31918126577788
 20
24.1514611613351
 10
-17.24787392685592
 20
23.38224901774757
 42
-0.1032526218787234
 10
-16.70061744662876
 20
24.1574241607008
 42
-0.1452936089131388
 10
-16.09773780475765
 20
24.38800068097229
 42
-0.137443628328432
 10
-15.13029717213144
 20
24.20537560872344
 10
-15.45778828773564
 20
22.91623180961645
 42
0.1446986624674413
 10
-16.15193491385461
 20
23.08822644449941
 42
0.1736219943319948
 10
-16.64599932341613
 20
22.87544413616305
 42
0.1544311530858585
 10
-16.91908257466159
 20
22.24642592270608
 42
0.0509984655130114
 10
-16.95277230424798
 20
21.80038031174393
 42
0.0164803930265156
 10
-16.87067908272839
 20
20.42182164732977
  0
LWPOLYLINE
  5
23C
330
27F
100
AcDbEntity
  8
0
100
AcDbPolyline
 90
       10
 70
   129
 43
0.0
 10
-25.52096557292432
 20
20.61226774852593
 42
-0.1235530753264653
 10
-25.34482825317141
 20
22.03204297202081
 42
-0.150998412201383
 10
-24.48103768196408
 20
23.17271362921855
 42
-0.1273392299186444
 10
-23.09153561960003
 20
23.70437909008228
 42
-0.2090855185083223
 10
-20.98619744074163
 20
23.16378599252464
 42
-0.2044432215222164
 10
-19.95053333625816
 20
21.25535269021905
 42
-0.2040261810827724
 10
-20.48316048273927
 20
19.12781718589498
 42
-0.2097458665472299
 10
-22.36840139881462
 20
18.07188273774046
 42
-0.1176310026618005
 10
-23.82431572839913
 20
18.22797616785307
 42
-0.1581167900378068
 10
-24.97131494864397
 20
19.08065229139394
 42
-0.1252767960355575
  0
LWPOLYLINE
  5
23D
330
27F
100
AcDbEntity
  8
0
100
AcDbPolyline
 90
        9
 70
   129
 43
0.0
 10
-24.04959288919526
 20
20.7211258250427
 42
0.1862594742662073
 10
-23.51348881225174
 20
19.54103460084296
 42
0.223842343088818
 10
-22.5205698208566
 20
19.23352496054188
 42
0.2248461522326249
 10
-21.6380995491535
 20
19.77837452521594
 42
0.10771251425211
 10
-21.43415590237586
 20
20.28159173362544
 42
0.0742202234396309
 10
-21.41670426213372
 20
21.06464463228431
 42
0.1855851125505649
 10
-21.94898594535519
 20
22.23490606334734
 42
0.2248461522326262
 10
-22.93936719755805
 20
22.54273686728086
 42
0.2238423430888346
 10
-23.82437520845343
 20
21.99756613897435
 42
0.1862594742662055
  0
LWPOLYLINE
  5
230
330
27F
100
AcDbEntity
  8
0
100
AcDbPolyline
 90
       28
 70
   129
 43
0.0
 10
44.11192351261747
 20
17.81706618763116
 10
42.90854858184532
 20
18.37310084756977
 42
-0.1764233188762391
 10
43.93486205211082
 20
19.3114803541476
 42
-0.0955487779636879
 10
44.55660305709835
 20
19.41758469541856
 42
-0.0582849613543121
 10
45.57494493291932
 20
19.27622836784752
 42
-0.1066098011782642
 10
46.90403448560363
 20
18.69543711381344
 42
-0.1576832483994508
 10
47.39976364192689
 20
17.96922411597645
 42
-0.0884457482730222
 10
47.42694083700007
 20
17.58205776892785
 42
-0.0370206204507725
 10
47.261671929106
 20
16.67568563116604
 10
46.82456892785657
 20
15.05550676304479
 42
0.0455263498574361
 10
46.62557545270268
 20
14.01567503374794
 42
0.062954815950164
 10
46.69217175603072
 20
13.24509759057601
 10
45.31569806523475
 20
13.6029793383655
 42
-0.0211225456055378
 10
45.28886135809459
 20
14.04869920716542
 42
0.0170698393988397
 10
45.28183028172442
 20
14.22496701030989
 42
-0.0927727221191269
 10
44.38415210942055
 20
13.90332690824516
 42
-0.1022100173173898
 10
43.47260981783089
 20
13.95531513373186
 42
-0.1961347624721076
 10
42.30726099222839
 20
14.72876330022259
 42
-0.2158389386634162
 10
42.12901145795651
 20
15.96446979516936
 42
-0.1402444068760496
 10
42.54853803790053
 20
16.70380473120463
 42
-0.1471011708481623
 10
43.2842082123688
 20
17.0834249038569
 42
-0.0620634030351877
 10
44.47515470291956
 20
17.12001647262015
 42
0.0460780818373491
 10
45.91569843739717
 20
17.11021419750645
 10
45.95174408105942
 20
17.24885183542835
 42
0.2202108619330922
 10
45.90237859270635
 20
17.87222586851653
 42
0.1223767481691451
 10
45.71115812230813
 20
18.04079735618686
 42
0.0562144157660385
 10
45.19913899913997
 20
18.237436250706
 42
0.1535481304591443
 10
44.58185506610789
 20
18.24199089319841
 42
0.1546318814123717
  0
LWPOLYLINE
  5
231
330
27F
100
AcDbEntity
  8
0
100
AcDbPolyline
 90
        9
 70
   129
 43
0.0
 10
45.68011440917603
 20
16.20411820680263
 42
-0.0251125371531531
 10
44.77807873910028
 20
16.21134630093133
 42
0.0784565440283584
 10
43.95744319833241
 20
16.16569413029388
 42
0.2576184624562524
 10
43.55767216946573
 20
15.74631499626373
 42
0.2104033417638046
 10
43.64422218428765
 20
15.18463473236472
 42
0.203320179523535
 10
44.14341692606535
 20
14.82754435662137
 42
0.1616872553873665
 10
44.92572905755776
 20
14.88844662680239
 42
0.1673624820506587
 10
45.37719215046334
 20
15.26266956256545
 42
0.0621623233862828
 10
45.60802312185153
 20
15.92684293095884
  0
LWPOLYLINE
  5
238
330
27F
100
AcDbEntity
  8
0
100
AcDbPolyline
 90
        5
 70
   129
 43
0.0
 10
58.31941786185487
 20
13.04908096911878
 42
0.1873846994945757
 10
58.31603631926951
 20
14.05132404129709
 42
0.2154434067533755
 10
57.71140722470005
 20
14.59709419129027
 42
0.2233998153242252
 10
56.86511481876247
 20
14.51974724393255
 42
0.1912376905497707
 10
56.28252987237563
 20
13.73319792572976
  0
LWPOLYLINE
  5
239
330
27F
100
AcDbEntity
  8
0
100
AcDbPolyline
 90
       10
 70
   129
 43
0.0
 10
37.50785716199498
 20
15.45866135365292
 10
36.55400276646974
 20
21.23826194939031
 10
38.02698787938692
 20
20.90958908531441
 10
38.42175510058793
 20
17.98046195305579
 10
38.50969865364372
 20
17.01207777829507
 42
0.0108254449539635
 10
38.75588780247594
 20
17.43414602309935
 42
-0.0100001111012236
 10
39.0059559758805
 20
17.85010695272738
 10
40.6184430441463
 20
20.33134767360121
 10
42.06146913781771
 20
20.00935968133702
 10
38.77112914019175
 20
15.17678259225901
  0
LWPOLYLINE
  5
237
330
27F
100
AcDbEntity
  8
0
100
AcDbPolyline
 90
       21
 70
   129
 43
0.0
 10
57.77922875826157
 20
11.69781830791323
 10
59.06059813943651
 20
11.0138028713499
 42
-0.1619585813889304
 10
57.85175330959964
 20
10.15425931794344
 42
-0.1545460799286855
 10
56.3069336335511
 20
10.23866553151255
 42
-0.043263915684341
 10
55.70483380864194
 20
10.50071501233275
 42
-0.0531834787414255
 10
55.26451794673623
 20
10.80405089135087
 42
-0.0688441706777001
 10
54.86989147909781
 20
11.25053966162681
 42
-0.0692769432118628
 10
54.61336480845609
 20
11.78429571795599
 42
-0.1605804351980777
 10
54.70030187327585
 20
13.73032734794064
 42
-0.0807028398552824
 10
55.30021832998808
 20
14.86849746438516
 42
-0.1062233896700202
 10
56.04309450210152
 20
15.51091078517244
 42
-0.2188537467414699
 10
57.97916448624817
 20
15.66747730081509
 42
-0.2259863963909798
 10
59.53804973471394
 20
14.29930417670554
 42
-0.0684116843954274
 10
59.68633207206638
 20
13.73832939053927
 42
-0.0553118756030352
 10
59.69442677931583
 20
13.02186946709116
 42
-0.0339762831270761
 10
59.59889935852391
 20
12.45565972987686
 42
-0.0268898951725528
 10
59.39233127263492
 20
11.76047771891664
 10
55.97811902360305
 20
12.90718804618839
 42
0.1875592298420022
 10
55.9910895836596
 20
11.85315312475206
 42
0.2169548293509435
 10
56.66354131178144
 20
11.25222297656209
 42
0.1747326725964292
 10
57.2605003052819
 20
11.24601103712741
 42
0.1548242429701069
  0
LWPOLYLINE
  5
23A
330
27F
100
AcDbEntity
  8
0
100
AcDbPolyline
 90
       25
 70
   129
 43
0.0
 10
47.80126396691374
 20
12.55107026680131
 10
49.31839123978112
 20
11.89150004622731
 42
0.2028735617154931
 10
49.38747959412235
 20
11.45994723515965
 42
0.15705653308997
 10
49.96155273185328
 20
11.12901012111965
 42
0.1307628912983565
 10
50.81877873100378
 20
11.05009400765168
 42
0.1711141169219672
 10
51.19696316413752
 20
11.31654041548239
 42
0.0764185420511478
 10
51.44891750859784
 20
11.93012678547112
 10
51.67505972049295
 20
12.69017125138499
 42
-0.2529118102960251
 10
49.86479778109572
 20
12.31072334974278
 42
-0.2622986338777231
 10
48.46658272566482
 20
13.69285404756764
 42
-0.1535759222052247
 10
48.50543607905255
 20
15.58148480002608
 42
-0.0764273455519366
 10
49.06307529114342
 20
16.76061049433818
 42
-0.1089108193897418
 10
49.73080211984698
 20
17.39463878624763
 42
-0.2208160651295508
 10
51.50319088589016
 20
17.61988932168872
 42
-0.2516013889544128
 10
52.84442861985245
 20
16.29741247350156
 10
53.06181693967419
 20
17.02803586331554
 10
54.35144077538612
 20
16.64432359409998
 10
52.96103091773428
 20
11.97127600690048
 42
-0.074850636336794
 10
52.39904807911586
 20
10.6386173852679
 42
-0.1239116667476717
 10
51.75943110188236
 20
10.04963596856757
 42
-0.112468050475036
 10
50.90526044871192
 20
9.860762226680258
 42
-0.0761699053023138
 10
49.70181023874106
 20
10.05870609207236
 42
-0.0593135032362773
 10
48.47683220036372
 20
10.58775142811128
 42
-0.1127223329987672
 10
47.95872071716224
 20
11.07107112596178
 42
-0.236825462434815
 10
47.74675506581472
 20
12.38580981758081
 42
-0.0121959639455663
  0
LWPOLYLINE
  5
23B
330
27F
100
AcDbEntity
  8
0
100
AcDbPolyline
 90
       12
 70
   129
 43
0.0
 10
49.94099144404299
 20
15.2397541834379
 42
0.0647691836834096
 10
49.80847075428993
 20
14.41773827301644
 42
0.109597955489513
 10
49.90107347677407
 20
13.93057147251652
 42
0.2337957751994944
 10
50.57846068716973
 20
13.31002013190169
 42
0.2256137442505741
 10
51.54911994605082
 20
13.45089003278117
 42
0.1087846269617419
 10
51.91976804964811
 20
13.81430347104666
 42
0.0724613711956556
 10
52.24523655648223
 20
14.51679008488379
 42
0.0677876273880087
 10
52.36954748830449
 20
15.31851954320314
 42
0.1088664943556645
 10
52.26924828701227
 20
15.81736146912744
 42
0.2312157061890822
 10
51.54256266646016
 20
16.46058738989562
 42
0.2339890961571558
 10
50.61159771672838
 20
16.31858214929108
 42
0.1075128826336712
 10
50.26607563974225
 20
15.962507252678
 42
0.066838895220884
  0
LWPOLYLINE
  5
23E
330
27F
100
AcDbEntity
  8
0
100
AcDbPolyline
 90
       28
 70
   129
 43
0.0
 10
31.64669041760368
 20
20.57089516406779
 10
30.40710989655122
 20
21.04070991361406
 42
-0.1764233188762488
 10
31.3647151856183
 20
22.04910842014032
 42
-0.0955487779636879
 10
31.97742899401375
 20
22.19878072058704
 42
-0.058284961354313
 10
33.00320254461946
 20
22.12956793078149
 42
-0.1066098011782683
 10
34.36993020183964
 20
21.64392090792791
 42
-0.1576832483994547
 10
34.91562302380768
 20
20.95446310739991
 42
-0.0884457482730182
 10
34.97002734013773
 20
20.57017603946285
 42
-0.0370206204507716
 10
34.86906774161515
 20
19.6544078245233
 10
34.54727288773371
 20
18.00744496203266
 42
0.0455263498574631
 10
34.42208136688112
 20
16.95617168095253
 42
0.062954815950166
 10
34.54283671274892
 20
16.19220649196377
 10
33.14455765591917
 20
16.45215811455081
 42
-0.0211225456055557
 10
33.08636503052464
 20
16.89487701932318
 42
0.0170698393988469
 10
33.06692478943498
 20
17.07021056285286
 42
-0.0927727221191265
 10
32.1941553825162
 20
16.6860855589366
 42
-0.1022100173173934
 10
31.2812160237545
 20
16.67368184297866
 42
-0.1961347624721095
 10
30.06423961447304
 20
17.36304993829016
 42
-0.2158389386634255
 10
29.79931783106179
 20
18.58311546390588
 42
-0.1402444068760564
 10
30.16567838814416
 20
19.35018693458909
 42
-0.1471011708481614
 10
30.87275537227145
 20
19.78072638644475
 42
-0.0620634030351939
 10
32.05815897112361
 20
19.90118714390571
 42
0.0460780818373482
 10
33.49580949081076
 20
19.99296578403158
 10
33.52199166862528
 20
20.13379964587054
 42
0.220210861933108
 10
33.42880192091166
 20
20.75214243711989
 42
0.1223767481691533
 10
33.22617315389429
 20
20.90681369344023
 42
0.0562144157660393
 10
32.70156520651584
 20
21.06686661867123
 42
0.1535481304591403
 10
32.08549606077699
 20
21.02789218581584
 42
0.1546318814123625
  0
LWPOLYLINE
  5
23F
330
27F
100
AcDbEntity
  8
0
100
AcDbPolyline
 90
        9
 70
   129
 43
0.0
 10
33.32469025723728
 20
19.07251590129832
 42
-0.0251125371531556
 10
32.4243893993627
 20
19.01613362798431
 42
0.0784565440283806
 10
31.60901412885293
 20
18.9127412699669
 42
0.2576184624562485
 10
31.23980348582505
 20
18.4662222506005
 42
0.210403341763807
 10
31.36573590667624
 20
17.9120411887643
 42
0.2033201795235313
 10
31.88886300953124
 20
17.59103190396779
 42
0.1616872553873736
 10
32.66493511158039
 20
17.70693466499789
 42
0.1673624820506505
 10
33.0888926572933
 20
18.11205406633542
 42
0.0621623233862666
 10
33.27232590160823
 20
18.79084817762039
  0
MTEXT
  5
50
330
27F
100
AcDbEntity
  8
0
100
AcDbMText
 10
97.22616663290324
 20
-5.267088350299616
 30
0.0
 40
1.0
 41
0.0
 46
0.0
 71
     5
 72
     1
  1
\H7.5;
  7
textstyle11
 11
0.841571731387225
 21
-0.5401453701827948
 31
0.0
 73
     1
 44
1.0
  0
LWPOLYLINE
  5
22F
330
27F
100
AcDbEntity
  8
0
100
AcDbPolyline
 90
       19
 70
   129
 43
0.0
 10
-30.36805780006383
 20
22.35081473874439
 10
-29.57974985822489
 20
22.47538721669045
 10
-29.64363318024851
 20
22.87964769968477
 42
-0.0959078809463473
 10
-29.65932368824082
 20
23.91305734064152
 42
-0.1716885180151166
 10
-29.21457501828
 20
24.54012922482114
 42
-0.1247255299483831
 10
-28.26990944833721
 20
24.90435713551907
 42
-0.0764318557865598
 10
-27.05364678463074
 20
24.910097176616
 10
-27.08915637509519
 20
23.88931441531867
 42
0.0587502648537967
 10
-27.75380306832827
 20
23.86715465515446
 42
0.2086865325191194
 10
-28.1732045381324
 20
23.6532644746244
 42
0.1758652178903885
 10
-28.21967552610445
 20
23.07877158810559
 10
-28.15978491170731
 20
22.6997773852984
 10
-27.09860114384719
 20
22.8674711056104
 10
-26.92212346675695
 20
21.75070152133856
 10
-27.98330723461707
 20
21.58300780102657
 10
-27.31173381184379
 20
17.33321947354868
 10
-28.73169875836137
 20
17.10882930494073
 10
-29.40327218113465
 20
21.35861763241861
 10
-30.19158012297359
 20
21.23404515447256
  0
LWPOLYLINE
  5
235
330
27F
100
AcDbEntity
  8
0
100
AcDbPolyline
 90
       21
 70
   129
 43
0.0
 10
-35.83554596183868
 20
17.72564520086731
 10
-34.3842678558792
 20
17.78544877628051
 42
-0.1619585813889343
 10
-34.99068669770169
 20
16.4317955226337
 42
-0.1545460799286855
 10
-36.36516221308773
 20
15.72157774054145
 42
-0.043263915684341
 10
-37.01701342476078
 20
15.6423052522863
 42
-0.0531834787414257
 10
-37.55032621330736
 20
15.68062213261502
 42
-0.0688441706776968
 10
-38.11680883272093
 20
15.86549969438404
 42
-0.0692769432118603
 10
-38.60847474289551
 20
16.19559982039248
 42
-0.1605804351980791
 10
-39.51986183438162
 20
17.91721845633155
 42
-0.080702839855283
 10
-39.57958263831166
 20
19.20242832035354
 42
-0.1062233896700209
 10
-39.2647962993603
 20
20.13273442192896
 42
-0.2188537467414707
 10
-37.67518279232587
 20
21.24898213439598
 42
-0.2259863963909793
 10
-35.63791543023906
 20
20.85967170453868
 42
-0.0684116843954238
 10
-35.2257647734487
 20
20.45124521373249
 42
-0.0553118756030309
 10
-34.85565495886235
 20
19.83773150456245
 42
-0.0339762831270808
 10
-34.65102454682693
 20
19.30121929677063
 42
-0.0268898951725559
 10
-34.47674698276165
 20
18.59724789597794
 10
-38.00113209538507
 20
17.85529140532011
 42
0.1875592298419951
 10
-37.45572197451669
 20
16.95324614531936
 42
0.2169548293509436
 10
-36.57146577516198
 20
16.77604754611374
 42
0.1747326725964287
 10
-36.05371532937006
 20
17.07325640196241
 42
0.1548242429701089
  0
LWPOLYLINE
  5
236
330
27F
100
AcDbEntity
  8
0
100
AcDbPolyline
 90
        5
 70
   129
 43
0.0
 10
-36.05475829357854
 20
19.16427684267921
 42
0.1873846994945819
 10
-36.56565203095396
 20
20.02653562034995
 42
0.2154434067533876
 10
-37.36348507584003
 20
20.19055949395158
 42
0.2233998153242296
 10
-38.05381952505123
 20
19.69494700939794
 42
0.1912376905497715
 10
-38.157374411905
 20
18.72163234541176
  0
LWPOLYLINE
  5
232
330
27F
100
AcDbEntity
  8
0
100
AcDbPolyline
 90
       14
 70
   129
 43
0.0
 10
-40.14830844701655
 20
14.98273511623302
 10
-41.44407251954816
 20
14.66035205333318
 10
-41.63676124679864
 20
15.43483172886931
 42
-0.1232333924354451
 10
-42.23146193687785
 20
14.57252585920203
 42
-0.1184170771718568
 10
-43.06267971713781
 20
14.13112019653813
 42
-0.2249696192007253
 10
-44.80127565015079
 20
14.47617042825964
 42
-0.1046858137353207
 10
-45.45779689656853
 20
15.16752873866017
 42
-0.0769261004683654
 10
-45.95743596374718
 20
16.35791727170152
 42
-0.0751507068805483
 10
-46.08112305955409
 20
17.67228860938704
 42
-0.1091642601146114
 10
-45.83397316722945
 20
18.55275942021687
 42
-0.222007388921303
 10
-44.41387566935504
 20
19.64678170137219
 42
-0.2258094728776397
 10
-42.7019675174435
 20
19.2924556501786
 10
-43.35414474813743
 20
21.91377147507014
 10
-41.95908840951144
 20
22.26085822095081
  0
LWPOLYLINE
  5
233
330
27F
100
AcDbEntity
  8
0
100
AcDbPolyline
 90
       12
 70
   129
 43
0.0
 10
-44.55606044412468
 20
16.8067427752661
 42
0.0472305309743025
 10
-44.27377323980396
 20
16.00423244821929
 42
0.0915224042019636
 10
-44.01886831813867
 20
15.64350155731021
 42
0.2785174034009264
 10
-42.93972153384752
 20
15.33207908210903
 42
0.2353481867770451
 10
-42.22246303086485
 20
15.94546506434019
 42
0.1054334923392881
 10
-42.10129599410635
 20
16.45062467828669
 42
0.0673936277744059
 10
-42.1893422188827
 20
17.25323476608821
 42
0.0614333828168583
 10
-42.51315262644594
 20
18.09668855278907
 42
0.1107794256394171
 10
-42.84247772026659
 20
18.47988821804487
 42
0.2366234811639359
 10
-43.78092969276192
 20
18.67079346788672
 42
0.2312983188912713
 10
-44.51430528145352
 20
18.06921336519711
 42
0.1071667759590682
 10
-44.6377354408897
 20
17.57883301320549
 42
0.069338010547108
  0
LWPOLYLINE
  5
229
330
27F
100
AcDbEntity
  8
0
100
AcDbPolyline
 90
       28
 70
   129
 43
0.0
 10
-50.64774454518788
 20
16.11363514088619
 10
-51.9667984159212
 20
15.98179185069914
 42
-0.1764233188762501
 10
-51.55894184431583
 20
17.31127613214513
 42
-0.0955487779636869
 10
-51.07713923675538
 20
17.71832189845086
 42
-0.0582849613543136
 10
-50.12801634733228
 20
18.11350227267011
 42
-0.1066098011782597
 10
-48.68808396917976
 20
18.28783605070838
 42
-0.1576832483994557
 10
-47.89231726338957
 20
17.91381992189546
 42
-0.0884457482730174
 10
-47.67235518150429
 20
17.5940495937665
 42
-0.0370206204507727
 10
-47.35461903128476
 20
16.72925597510882
 10
-46.90871599505049
 20
15.11147691705268
 42
0.0455263498574491
 10
-46.55228402296319
 20
14.11457939088449
 42
0.0629548159501678
 10
-46.10371909338078
 20
13.48448878827954
 10
-47.47131440625031
 20
13.09405028214621
 42
-0.0211225456055701
 10
-47.72070818127384
 20
13.46444082640006
 42
0.0170698393988554
 10
-47.81624927419145
 20
13.61273672662798
 42
-0.0927727221191112
 10
-48.42637026353645
 20
12.87991284966455
 42
-0.1022100173173959
 10
-49.23811066654904
 20
12.46195394849992
 42
-0.1961347624721127
 10
-50.63477403137868
 20
12.53672959242051
 42
-0.2158389386634262
 10
-51.41566043765987
 20
13.51087529949261
 42
-0.1402444068760665
 10
-51.4295409476635
 20
14.36083178682819
 42
-0.1471011708481652
 10
-50.98843347810099
 20
15.06136464214825
 42
-0.0620634030351871
 10
-49.98093768574628
 20
15.69748154543514
 42
0.0460780818373468
 10
-48.73484680988232
 20
16.42033690069555
 10
-48.77417155150726
 20
16.55808031350256
 42
0.2202108619330828
 10
-49.13316241472014
 20
17.0700936890101
 42
0.1223767481691449
 10
-49.38348662019593
 20
17.11825391022651
 42
0.0562144157660396
 10
-49.92444666186007
 20
17.02774053745566
 42
0.153548130459155
 10
-50.45858592687734
 20
16.71829677145836
 42
0.1546318814123677
  0
LWPOLYLINE
  5
22A
330
27F
100
AcDbEntity
  8
0
100
AcDbPolyline
 90
        9
 70
   129
 43
0.0
 10
-48.47783153426218
 20
15.52008530984978
 42
-0.0251125371531574
 10
-49.25865866640951
 20
15.06838896811529
 42
0.0784565440283736
 10
-49.94250973140413
 20
14.6124563718239
 42
0.2576184624562542
 10
-50.07403609867256
 20
14.04818999120729
 42
0.2104033417638221
 10
-49.71432774834213
 20
13.60820643853526
 42
0.203320179523533
 10
-49.10296252961868
 20
13.55397087822426
 42
0.1616872553873556
 10
-48.45987118048409
 20
14.00358724165164
 42
0.1673624820506555
 10
-48.26088519166445
 20
14.55519063736315
 42
0.0621623233862824
 10
-48.3991820510123
 20
15.24459848423578
  0
LWPOLYLINE
  5
228
330
27F
100
AcDbEntity
  8
0
100
AcDbPolyline
 90
       13
 70
   129
 43
0.0
 10
-59.3685686183028
 20
9.291557507045965
 10
-61.74211452381132
 20
16.40606942526241
 10
-59.59223131796556
 20
17.12331419752726
 10
-56.68226810121652
 20
12.70097537941595
 10
-57.02498929563507
 20
17.97979836124759
 10
-54.87025308029531
 20
18.69866219620378
 10
-52.49670717478679
 20
11.58415027798734
 10
-53.83128478563913
 20
11.13890803786808
 10
-55.69968313144869
 20
16.73928099395387
 10
-55.24351054839559
 20
10.66776079468733
 10
-56.62661825418801
 20
10.20632792765464
 10
-59.90238935326004
 20
15.33717270325102
 10
-58.03399100745047
 20
9.73679974716523
  0
LWPOLYLINE
  5
22E
330
27F
100
AcDbEntity
  8
0
100
AcDbPolyline
 90
       35
 70
   129
 43
0.0
 10
22.696846375776
 20
20.60073828419653
 10
24.17548290373721
 20
20.5296579293631
 42
0.1742698639722199
 10
24.55215473822188
 20
19.37342400833451
 42
0.1822119347677029
 10
25.58776982423738
 20
18.87067663881518
 42
0.1749322093143575
 10
26.72340560905612
 20
19.01769709541284
 42
0.2327914426502689
 10
27.19498813972056
 20
19.68043817917145
 42
0.1811098694256745
 10
27.10598705002176
 20
20.15099135298587
 42
0.1292873456279133
 10
26.61377602513637
 20
20.55114894330562
 42
0.0168515435654278
 10
25.46130306675388
 20
21.05027402913808
 42
-0.0416689387734814
 10
24.36250330368769
 20
21.61014521440988
 42
-0.0804047223462253
 10
23.87764310237069
 20
22.03112685577513
 42
-0.2232150866739313
 10
23.41222914529238
 20
23.62426996150173
 42
-0.1484219162819376
 10
23.88850124201881
 20
24.63789888986148
 42
-0.151602706539461
 10
24.92464182975863
 20
25.25441931698303
 42
-0.1008779219693788
 10
26.42280595576926
 20
25.29940259833122
 42
-0.0709633037273449
 10
27.72174834201256
 20
24.9165281173709
 42
-0.1081997329952343
 10
28.43677958313225
 20
24.37981867859942
 42
-0.2174301491091178
 10
28.939718780119
 20
22.63643267849458
 10
27.43166841107339
 20
22.7893594857879
 42
0.1871423791968715
 10
27.13917373299499
 20
23.67221134585323
 42
0.1670009239443049
 10
26.22656995790458
 20
24.06135363879725
 42
0.1582324430723933
 10
25.16481767303686
 20
23.94232433209831
 42
0.2553934114733867
 10
24.85964231821838
 20
23.51638600768032
 42
0.2323241784268833
 10
25.01661510154534
 20
23.03332550582486
 42
0.0883349310298793
 10
25.30299533030236
 20
22.80784365136464
 42
0.0284955261347073
 10
26.32114372404215
 20
22.33621773608596
 42
-0.0588045002859089
 10
27.8605897408786
 20
21.56604129323664
 42
-0.1361073350707267
 10
28.57057652639559
 20
20.69204306357097
 42
-0.1408318990042021
 10
28.6941707992819
 20
19.4667636549685
 42
-0.1455664233979777
 10
28.16541083078497
 20
18.32378686107062
 42
-0.1567867069058997
 10
27.04225096005277
 20
17.64241642466737
 42
-0.0983302336073179
 10
25.38783894742093
 20
17.60731613056886
 42
-0.0732093705471571
 10
24.0821899326515
 20
17.99851762760431
 42
-0.1052213216939036
 10
23.3211910764472
 20
18.57336559495828
 42
-0.1042362442294129
 10
22.85997738717407
 20
19.40479334750455
 42
-0.0817687144783232
  0
LWPOLYLINE
  5
22D
330
27F
100
AcDbEntity
  8
0
100
AcDbPolyline
 90
       31
 70
   129
 43
0.0
 10
10.38538582994831
 20
24.6547582773965
 10
11.7061482886046
 20
24.54844783125282
 10
11.64663085736586
 20
23.8090248331634
 42
-0.2352774286122515
 10
13.40392367286204
 20
24.53497115686747
 42
-0.1297180932575806
 10
14.28929014561929
 20
24.24814114825359
 42
-0.1396127710664373
 10
14.86439576629295
 20
23.55002139101412
 42
-0.1015752160210487
 10
15.68654463856069
 20
24.13567372646452
 42
-0.1219202445144578
 10
16.58599229912274
 20
24.27884097001937
 42
-0.1345001002415135
 10
17.57619006214251
 20
23.95534411626408
 42
-0.1628622979485665
 10
18.13596593187366
 20
23.19430192720641
 42
-0.0924606854379847
 10
18.19354822202587
 20
22.06051527144367
 10
17.91484245781136
 20
18.59797585280422
 10
16.48189168220358
 20
18.71331652989447
 10
16.73104396332023
 20
21.80869418396537
 42
0.035317351206355
 10
16.73875724777642
 20
22.60277202960634
 42
0.1057129740580348
 10
16.66689423247961
 20
22.86088933649066
 42
0.2704032074156877
 10
16.07958586078025
 20
23.2161132787942
 42
0.1560368153909605
 10
15.49876806552149
 20
23.0780940162858
 42
0.1665428661649475
 10
15.0730038320567
 20
22.57088492004077
 42
0.0730791917484018
 10
14.8656189692087
 20
21.46099218099154
 10
14.65628179726555
 20
18.8602630152977
 10
13.22333102165776
 20
18.97560369238795
 10
13.46222167669877
 20
21.94349462265033
 42
0.0623513009056766
 10
13.46782265101882
 20
22.96954538876389
 42
0.1640436051320577
 10
13.25819850261769
 20
23.33029643307143
 42
0.1537011612322014
 10
12.83122413813912
 20
23.47757951120163
 42
0.1525559180265475
 10
12.22021999420933
 20
23.34712250790372
 42
0.1680348615221833
 10
11.79885258791433
 20
22.86265578942271
 42
0.0737117464130485
 10
11.59422269206402
 20
21.75510755232814
 10
11.38242272986271
 20
19.12378157292025
 10
9.949471954254927
 20
19.2391222500105
  0
LWPOLYLINE
  5
244
330
27F
100
AcDbEntity
  8
0
100
AcDbPolyline
 90
       33
 70
   129
 43
0.0
 10
12.19205971902495
 20
-25.0055705559016
 10
13.6128075054194
 20
-24.6720191240392
 42
0.1802897130255531
 10
14.03554251361778
 20
-25.27737887663737
 42
0.1663912994955056
 10
14.8381454627602
 20
-25.43172918595679
 42
0.1554653797789088
 10
15.65832137324469
 20
-25.16128669613275
 42
0.2486454460037838
 10
15.81663016803615
 20
-24.76380368626587
 42
0.1995951405943068
 10
15.69315865731283
 20
-24.5016126259724
 42
0.1142675158994929
 10
15.19877768178985
 20
-24.35100193289077
 42
-0.0226674154390607
 10
13.46072861275256
 20
-24.02905356247411
 42
-0.0727058003395382
 10
12.94521646431498
 20
-23.82694196141998
 42
-0.2640932623139289
 10
12.20579593898244
 20
-22.6591181205586
 42
-0.2289676122616123
 10
12.66768639476307
 20
-21.43178016694885
 42
-0.1105441540004892
 10
13.25390986488694
 20
-21.05542926950123
 42
-0.0679171417976819
 10
14.35336485955433
 20
-20.81544505381216
 42
-0.0539838128840238
 10
15.43897391146459
 20
-20.84648455379988
 42
-0.0938870795927052
 10
16.03449675923705
 20
-21.04626455947508
 42
-0.1820429793207379
 10
16.86416540896625
 20
-22.05808824042998
 10
15.53254678185667
 20
-22.41535125465393
 42
0.1809644690422132
 10
15.16511317936971
 20
-21.95699445586213
 42
0.1512025160576251
 10
14.46070730027367
 20
-21.84359760928485
 42
0.1350773078251743
 10
13.66238438520454
 20
-22.06611524650605
 42
0.2623801400273123
 10
13.52228211659747
 20
-22.36977436740668
 42
0.2486934353261178
 10
13.68574244425916
 20
-22.61852433585853
 42
0.0858843412835539
 10
13.90500735770515
 20
-22.7072220794909
 42
0.0172392007335458
 10
15.05647223477499
 20
-22.91506052470059
 42
-0.0390262019645844
 10
16.18765682814502
 20
-23.1705277264681
 42
-0.0787185232901191
 10
16.70593407408626
 20
-23.42552846264679
 42
-0.2297389100242385
 10
17.23940377067003
 20
-24.45575171904981
 42
-0.2288852516769469
 10
16.71891280851876
 20
-25.78525476053816
 42
-0.1073086903295322
 10
16.06495876116908
 20
-26.21009450600736
 42
-0.0708806839761692
 10
14.92039360208108
 20
-26.46700745059818
 42
-0.0627804238082926
 10
13.84514241886895
 20
-26.41738453581491
 42
-0.0894901131447397
 10
13.13292601506357
 20
-26.15739044847148
 42
-0.1854152645467879
  0
LWPOLYLINE
  5
245
330
27F
100
AcDbEntity
  8
0
100
AcDbPolyline
 90
       20
 70
   129
 43
0.0
 10
9.648674525304614
 20
-26.69354939224044
 10
9.611725389881968
 20
-25.88095107733706
 42
-0.1259556170213203
 10
8.863486025881144
 20
-26.60122099777106
 42
-0.1219174016396365
 10
7.855291961808723
 20
-26.89800508548857
 42
-0.1287920369738225
 10
6.863119094976564
 20
-26.70242089178221
 42
-0.167103819384865
 10
6.20383055026647
 20
-26.05639426341579
 42
-0.1020889602928724
 10
5.955014306300116
 20
-24.86421478633262
 10
5.798851922627049
 20
-21.42983700258997
 10
7.234953347078935
 20
-21.36453695822667
 10
7.34835698284152
 20
-23.8585493964207
 42
0.0509227707214607
 10
7.491362086957989
 20
-25.25782943316238
 42
0.1682080884581344
 10
7.798706336177188
 20
-25.65355420700446
 42
0.1596057839407572
 10
8.337072526396808
 20
-25.78015131521638
 42
0.1562691711446434
 10
8.987171216795183
 20
-25.54830180635974
 42
0.1598178526060027
 10
9.363030671455839
 20
-25.02932905526856
 42
0.0679743362409082
 10
9.414047305308905
 20
-24.72002521108104
 42
0.0182939358110274
 10
9.403776818087183
 20
-23.56023880958492
 10
9.299668562305135
 20
-21.27065362042323
 10
10.73576998675702
 20
-21.20535357605993
 10
10.98256232524035
 20
-26.63289703786742
  0
LWPOLYLINE
  5
248
330
27F
100
AcDbEntity
  8
0
100
AcDbPolyline
 90
       28
 70
   129
 43
0.0
 10
-10.8790205219685
 20
-22.84382791470918
 10
-12.16920309760603
 20
-22.53933704689012
 42
-0.1764233188762512
 10
-11.3509828084476
 20
-21.41488562685316
 42
-0.0955487779636873
 10
-10.76295976037409
 20
-21.18674333911628
 42
-0.0582849613543133
 10
-9.736902889457161
 20
-21.12186587739751
 42
-0.1066098011782707
 10
-8.318594078331579
 20
-21.42550651384234
 42
-0.1576832483994487
 10
-7.687811533008359
 20
-22.03807985244917
 42
-0.0884457482730195
 10
-7.583856049694049
 20
-22.41201786563837
 42
-0.0370206204507711
 10
-7.564772268420906
 20
-23.33313679027284
 10
-7.669482518391696
 20
-25.00797241264267
 42
0.0455263498574531
 10
-7.656788951728309
 20
-26.06659760683166
 42
0.0629548159501568
 10
-7.437632724123047
 20
-26.80834905539389
 10
-8.857850951504453
 20
-26.7325905346325
 42
-0.021122545605565
 10
-8.973167264152304
 20
-26.30121070393749
 42
0.0170698393988532
 10
-9.01526133281665
 20
-26.1298985215231
 42
-0.0927727221191209
 10
-9.830614756186009
 20
-26.62434493043602
 42
-0.1022100173173923
 10
-10.73417496488528
 20
-26.75545966721698
 42
-0.1961347624721093
 10
-12.03051994125336
 20
-26.23034096270703
 42
-0.2158389386634189
 10
-12.45197661505275
 20
-25.05513131748125
 42
-0.1402444068760581
 10
-12.18856429001821
 20
-24.24690322718637
 42
-0.1471011708481579
 10
-11.54353473375314
 20
-23.7280015480301
 42
-0.0620634030351881
 10
-10.38389100379049
 20
-23.45428836636351
 42
0.0460780818373462
 10
-8.970412895849275
 20
-23.17618411628633
 10
-8.962782541240209
 20
-23.03314055381626
 42
0.2202108619330942
 10
-9.135655274863646
 20
-22.43218535204285
 42
0.1223767481691483
 10
-9.356690653301868
 20
-22.30520119463189
 42
0.0562144157660392
 10
-9.897667085541071
 20
-22.21478583592908
 42
0.1535481304591554
 10
-10.50342395232555
 20
-22.33360846462932
 42
0.1546318814123722
  0
LWPOLYLINE
  5
249
330
27F
100
AcDbEntity
  8
0
100
AcDbPolyline
 90
        9
 70
   129
 43
0.0
 10
-9.02028271347277
 20
-24.11107597100142
 42
-0.0251125371531549
 10
-9.90558822885033
 20
-24.28415034771798
 42
0.0784565440283886
 10
-10.70057224434192
 20
-24.49278214435538
 42
0.2576184624562559
 10
-11.00852942441874
 20
-24.98355511510675
 42
0.2104033417638195
 10
-10.8115429751845
 20
-25.51663293563339
 42
0.2033201795235348
 10
-10.25108676988242
 20
-25.76682839643438
 42
0.1616872553873617
 10
-9.496699831003378
 20
-25.55090779982046
 42
0.1673624820506448
 10
-9.129073342998472
 20
-25.09405717300227
 42
0.0621623233862632
 10
-9.035543422690896
 20
-24.39716309594157
  0
LWPOLYLINE
  5
246
330
27F
100
AcDbEntity
  8
0
100
AcDbPolyline
 90
       20
 70
   129
 43
0.0
 10
37.00154504942392
 20
-23.25365987679235
 10
36.84580502204984
 20
-22.45527005730202
 42
-0.1259556170213212
 10
36.21130638177217
 20
-23.27750018300172
 42
-0.1219174016396419
 10
35.25754847204265
 20
-23.71895450134232
 42
-0.1287920369738336
 10
34.24741874481796
 20
-23.67101590851073
 42
-0.1671038193848604
 10
33.50050282399601
 20
-23.12867985312889
 42
-0.1020889602928812
 10
33.0795108769926
 20
-21.98589062960679
 10
32.42128887450592
 20
-18.61156384534573
 10
33.83227968756746
 20
-18.33632518061544
 10
34.31027423699231
 20
-20.78672915490025
 42
0.0509227707216214
 10
34.65697662514505
 20
-22.14989918650905
 42
0.1682080884581253
 10
35.01904094584398
 20
-22.49626317400963
 42
0.1596057839407536
 10
35.57015334857688
 20
-22.54252441192196
 42
0.1562691711446446
 10
36.17921344689749
 20
-22.21782717040545
 42
0.1598178526060061
 10
36.47488566851754
 20
-21.64933707955494
 42
0.0679743362409013
 10
36.47998236285703
 20
-21.33589555603627
 42
0.018293935811029
 10
36.29970748214409
 20
-20.19015957100879
 10
35.86089281381965
 20
-17.94060838150142
 10
37.27188362688118
 20
-17.66536971677113
 10
38.31210947009674
 20
-22.99801115261226
  0
LWPOLYLINE
  5
247
330
27F
100
AcDbEntity
  8
0
100
AcDbPolyline
 90
       14
 70
   129
 43
0.0
 10
-4.193605874194377
 20
-26.95337433790696
 10
-5.630884678316779
 20
-26.92369208180904
 10
-5.518704763811458
 20
-21.49169887904039
 10
-4.18372338347001
 20
-21.51926851904594
 10
-4.19967363496747
 20
-22.29161406859214
 42
-0.1032526218787197
 10
-3.568437713235951
 20
-21.583145742893
 42
-0.1452936089131492
 10
-2.943389416409613
 20
-21.42207426522658
 42
-0.1374436283284366
 10
-2.002736679080593
 20
-21.71270413710061
 10
-2.473610019659385
 20
-22.95665769841544
 42
0.144698662467447
 10
-3.143913999601209
 20
-22.70743035750955
 42
0.1736219943320066
 10
-3.658834119656095
 20
-22.86310059069171
 42
0.15443115308585
 10
-4.001154930892397
 20
-23.45728476850689
 42
0.0509984655130132
 10
-4.084963702742915
 20
-23.89667955079168
 42
0.0164803930265159
 10
-4.158958970279365
 20
-25.27569658789946
  0
LWPOLYLINE
  5
24C
330
27F
100
AcDbEntity
  8
0
100
AcDbPolyline
 90
       16
 70
   129
 43
0.0
 10
-31.35875922686915
 20
-18.76365694846593
 10
-29.8480991913405
 20
-19.00408251761856
 10
-29.17108658303551
 20
-23.01781416094088
 10
-27.3118070915566
 20
-19.40774016214907
 10
-25.84156605363407
 20
-19.64173294015381
 10
-28.55799563556463
 20
-24.50372279927771
 10
-29.04526303581098
 20
-25.38453749305555
 42
-0.0526990235225783
 10
-29.51563749509005
 20
-26.0452857285733
 42
-0.09067096397286
 10
-29.96859620908116
 20
-26.38503390248559
 42
-0.0876169916421753
 10
-30.54739499950362
 20
-26.5389831191688
 42
-0.0652912813640173
 10
-31.28608045025264
 20
-26.50948529786641
 42
-0.0538528961931458
 10
-32.07573834648495
 20
-26.29574320388896
 10
-32.02514595743691
 20
-25.16411829738355
 42
0.0482535347938525
 10
-31.43436665366124
 20
-25.32548693681845
 42
0.233156882036706
 10
-30.65553663567485
 20
-25.1515697310801
 42
0.1033659202779865
 10
-30.17396516932394
 20
-24.46929195774914
  0
LWPOLYLINE
  5
24D
330
27F
100
AcDbEntity
  8
0
100
AcDbPolyline
 90
       13
 70
   129
 43
0.0
 10
-21.30202470852354
 20
-25.82121016847634
 10
-20.59418104316878
 20
-18.35468772858391
 10
-18.33792630860374
 20
-18.56858591668225
 10
-17.46599499642323
 20
-23.79014720923121
 10
-15.64366275423601
 20
-18.82400835800057
 10
-13.38231489385932
 20
-19.03838938625263
 10
-14.09015855921407
 20
-26.50491182614505
 10
-15.49076815742036
 20
-26.37213078387182
 10
-14.93357062002651
 20
-20.49466359721707
 10
-16.97286776861319
 20
-26.23162429913905
 10
-18.42440862493607
 20
-26.09401485532861
 10
-19.3442175729234
 20
-20.07652402409482
 10
-19.90141511031725
 20
-25.95399121074957
  0
LWPOLYLINE
  5
24A
330
27F
100
AcDbEntity
  8
0
100
AcDbPolyline
 90
       13
 70
   129
 43
0.0
 10
24.05245370909448
 20
-25.47723633575281
 10
21.1947218099571
 20
-18.31556272735558
 10
22.72852074844354
 20
-18.09109946885055
 10
24.59322063860878
 20
-23.02485904286452
 10
25.2038596293672
 20
-17.72884688334243
 10
26.98569866021613
 20
-17.46808428600326
 10
29.04522573579423
 20
-22.46122968393831
 10
29.42560324223086
 20
-17.11101732032859
 10
30.93409196721093
 20
-16.89025807599031
 10
30.21802171924789
 20
-24.57493848473259
 10
28.62854031104742
 20
-24.80755057440447
 10
26.33850393692349
 20
-19.47586620114483
 10
25.67736941620388
 20
-25.23943862624748
  0
LWPOLYLINE
  5
24B
330
27F
100
AcDbEntity
  8
0
100
AcDbPolyline
 90
       24
 70
   129
 43
0.0
 10
4.152835064226823
 20
-23.08180696848246
 10
2.738086324861161
 20
-23.35041780785676
 42
0.1800241240423864
 10
2.407449398251135
 20
-22.71388838384615
 42
0.1820889974823551
 10
1.748130906298142
 20
-22.50497546402157
 42
0.2286876629121521
 10
0.8945986464823659
 20
-22.88362162361875
 42
0.1153112131262346
 10
0.683883621034987
 20
-23.29558010126806
 42
0.0631443374598716
 10
0.5860902306213709
 20
-24.12708489424699
 42
0.0584388877075959
 10
0.7033436245221458
 20
-25.05427024688517
 42
0.1129241362965521
 10
0.9233007944911463
 20
-25.4900511516616
 42
0.2374916202501925
 10
1.799147440981603
 20
-25.8811868407653
 42
0.1896451092624934
 10
2.467204657042216
 20
-25.64235569709692
 42
0.161487020800809
 10
2.828293937140369
 20
-24.83840734279811
 10
4.242417366511607
 20
-25.06607077439176
 42
-0.1741052774459185
 10
3.411604383285455
 20
-26.54193007956648
 42
-0.1718942095236665
 10
1.743243807870551
 20
-27.05329594029977
 42
-0.2149439961590249
 10
-0.1640632927405323
 20
-26.31847827643785
 42
-0.1073171291813984
 10
-0.6735933937853844
 20
-25.4890293968044
 42
-0.0821849825740934
 10
-0.891436333523449
 20
-24.24277868182545
 42
-0.0339525715149898
 10
-0.8550325206150262
 20
-23.62469768979634
 42
-0.0408965113873011
 10
-0.748599803577898
 20
-23.12154003881373
 42
-0.0552128177000931
 10
-0.5192264262046207
 20
-22.57980322274221
 42
-0.0598849748935044
 10
-0.1993038308101427
 20
-22.14144333775472
 42
-0.2136769016566026
 10
1.71743709525574
 20
-21.37457936801278
 42
-0.1597392867003517
 10
3.29951217846931
 20
-21.78746323065083
 42
-0.1684092384496096
  0
LWPOLYLINE
  5
260
330
27F
100
AcDbEntity
  8
0
100
AcDbPolyline
 90
       12
 70
   129
 43
0.0
 10
-36.54677678952327
 20
-20.45470760964333
 42
0.0525416475457602
 10
-36.61881532002049
 20
-21.27438042562302
 42
0.0933104206096632
 10
-36.52466544402502
 20
-21.73084344221626
 42
0.2703290392749848
 10
-35.66023310493553
 20
-22.48325366293003
 42
0.2353604972033013
 10
-34.78648393156787
 20
-22.23930903204518
 42
0.1087744111331422
 10
-34.47786180176765
 20
-21.84581071386227
 42
0.0640250394282505
 10
-34.21222349110357
 20
-21.04562552267834
 42
0.0616586470464863
 10
-34.14984320652783
 20
-20.14934587446459
 42
0.1105522630865109
 10
-34.28651261626499
 20
-19.66288231876071
 42
0.2366234811639222
 10
-35.05626612123514
 20
-19.09313109174693
 42
0.2305811972302012
 10
-35.97673833395994
 20
-19.32274918125099
 42
0.1085889318889534
 10
-36.29228239919279
 20
-19.71069398570251
 42
0.0685731482846649
  0
LWPOLYLINE
  5
25F
330
27F
100
AcDbEntity
  8
0
100
AcDbPolyline
 90
       14
 70
   129
 43
0.0
 10
-38.49036631658645
 20
-22.96323900813566
 10
-37.05442367425689
 20
-15.60198444604235
 10
-35.64343286119534
 20
-15.87722311077264
 10
-36.16060729172059
 20
-18.5284798698349
 42
-0.2258094728776354
 10
-34.4690752888628
 20
-18.08700965063141
 42
-0.2220073889213023
 10
-32.99485102338896
 20
-19.10692360299287
 42
-0.1079271358434934
 10
-32.70073798416881
 20
-19.97319899574903
 42
-0.0763804438026754
 10
-32.75237048232083
 20
-21.25742219192909
 42
-0.0750796647111746
 10
-33.19954167166412
 20
-22.51147031466346
 42
-0.1060031517283261
 10
-33.81304062756447
 20
-23.23451024741028
 42
-0.2257123956902788
 10
-35.53623171092108
 20
-23.66459241631551
 42
-0.1208142953307175
 10
-36.39299146785815
 20
-23.26030265719314
 42
-0.1201480642403144
 10
-37.02700035962207
 20
-22.43556187168372
 10
-37.17980189591363
 20
-23.21888773231575
  0
LWPOLYLINE
  5
160
330
27F
100
AcDbEntity
  8
0
100
AcDbPolyline
 90
       17
 70
   129
 43
0.0
 10
10.8567106785833
 20
0.0
 10
10.85671067858328
 20
-12.79540901404463
 10
8.021769156652576
 20
-14.05437594418592
 42
-0.2512891238818783
 10
3.354908102694207
 20
-10.32534543639783
 10
-8.814249018774689
 20
-14.27934427171599
 10
-10.88764282982144
 20
-11.97219684073779
 42
-0.2512891238818782
 10
-8.783263441985866
 20
-6.381414425277473
 10
-16.30421615749145
 20
3.970288917063032
 10
-14.7507024828513
 20
6.655151376605853
 42
-0.2512891238818787
 10
-8.783263441985856
 20
6.381414425277476
 10
-1.262310726480251
 20
16.73311776761795
 10
1.771207337481859
 20
16.08530659175587
 42
-0.2512891238818787
 10
3.35490810269421
 20
10.32534543639783
 10
15.52406522416308
 20
6.371346601079643
 10
15.8453688185383
 20
3.286114816562017
 42
-0.2512891238818787
 10
10.8567106785833
 20
-0.0000000000000023
 10
10.8567106785833
 20
-12.79540901404461
  0
LWPOLYLINE
  5
186
330
27F
100
AcDbEntity
  8
0
100
AcDbPolyline
 90
       10
 70
   129
 43
0.0
 10
0.8237613082955719
 20
-0.0391837665105919
 10
-0.3437802725305628
 20
0.4996777044332945
 42
0.1507553578443649
 10
0.0327281504587229
 20
5.201595319493598
 10
-2.80777052658885
 20
3.364846403572519
 10
-5.610896301395769
 20
5.198921732909957
 42
0.1507553578443651
 10
-5.229933115598101
 20
0.4973629592197675
 10
-6.396963616615494
 20
-0.0426044819476545
 42
-0.2303579185802631
 10
-6.403595915431631
 20
6.957392376095386
 10
-2.807770526588851
 20
4.76484640357252
 10
0.8237613082955728
 20
6.960816233489409
 42
-0.2303579185802631
  0
LWPOLYLINE
  5
18B
330
27F
100
AcDbEntity
  8
0
100
AcDbPolyline
 90
       10
 70
   129
 43
0.0
 10
-0.7809502220748694
 20
-0.4527538240636
 10
0.3865913587512644
 20
-0.9916152950074881
 42
0.1507553578443649
 10
0.0100829357619752
 20
-5.693532910067795
 10
2.850581612809549
 20
-3.856783994146716
 10
5.653707387616468
 20
-5.690859323484155
 42
0.1507553578443651
 10
5.272744201818801
 20
-0.9893005497939651
 10
6.439774702836194
 20
-0.4493331086265417
 42
-0.2303579185802631
 10
6.44640700165233
 20
-7.449329966669582
 10
2.850581612809548
 20
-5.256783994146716
 10
-0.780950222074873
 20
-7.452753824063606
 42
-0.2303579185802631
  0
LWPOLYLINE
  5
214
330
27F
100
AcDbEntity
  8
0
100
AcDbPolyline
 90
       28
 70
   129
 43
0.0
 10
-25.96021103232888
 20
36.93280798398055
 10
-25.09459029563039
 20
37.06479979844167
 42
0.1802897130255436
 10
-24.87051116875453
 20
36.68263745192053
 42
0.1663912994955257
 10
-24.39779629835889
 20
36.55218042599965
 42
0.1554653797789013
 10
-23.89438565715835
 20
36.6749635092193
 42
0.2486454460037928
 10
-23.78081130518018
 20
36.90518179025613
 42
0.1995951405943309
 10
-23.84220284679
 20
37.06786937552216
 42
0.114267515899506
 10
-24.13074309235617
 20
37.18144372750034
 42
-0.0226674154390605
 10
-25.15499888438696
 20
37.45659384570079
 42
-0.0727058003395422
 10
-25.45373081404785
 20
37.60197578752762
 42
-0.2640932623139233
 10
-25.84049752618973
 20
38.335604709765
 42
-0.2289676122616159
 10
-25.5059136244162
 20
39.04774659243894
 42
-0.1105441540004891
 10
-25.13740104306256
 20
39.24499197555402
 42
-0.0679171417976809
 10
-24.46839657121019
 20
39.33628683800511
 42
-0.1435244907169891
 10
-23.47385359713106
 20
39.11834686529023
 42
-0.1820429793207352
 10
-23.02569534337936
 20
38.4737356783871
 10
-23.83913326970951
 20
38.32332640144303
 42
0.1809644690421976
 10
-24.03712099140119
 20
38.61493622408969
 42
0.1512025160576247
 10
-24.45304868580774
 20
38.7162322677459
 42
0.1350773078251805
 10
-24.94111144160583
 20
38.62107537825067
 42
0.2623801400272905
 10
-25.03933790818154
 20
38.44610948466268
 42
0.2486934353260485
 10
-24.95338974992779
 20
38.28956105355763
 42
0.0652820663457165
 10
-24.14762576629887
 20
38.04706446419883
 42
-0.1092628380846697
 10
-23.1853133515649
 20
37.66336732913744
 42
-0.2297389100242304
 10
-22.91519056848168
 20
37.0218257193148
 42
-0.2288852516769586
 10
-23.2896789723016
 20
36.25136187211152
 42
-0.1796655323249088
 10
-24.39779629835889
 20
35.92905627865995
 42
-0.1531631714921254
 10
-25.4521960255076
 20
36.19917906174317
 42
-0.1854152645468015
  0
LWPOLYLINE
  5
215
330
27F
100
AcDbEntity
  8
0
100
AcDbPolyline
 90
       21
 70
   129
 43
0.0
 10
-20.66555891773134
 20
39.26261698807332
 10
-20.66555891773134
 20
38.57503172204331
 10
-21.25491771718564
 20
38.57503172204331
 10
-21.25491771718564
 20
37.2612527315931
 42
0.0356477566266286
 10
-21.23803504324293
 20
36.7962118038987
 42
0.1816276587619484
 10
-21.16129561623066
 20
36.68724181754126
 42
0.1601333503395615
 10
-21.01549070490733
 20
36.64426773841438
 42
0.0804174096891335
 10
-20.66862849481183
 20
36.72714631958765
 10
-20.59495864488004
 20
36.05797851604058
 42
-0.1021774704330632
 10
-21.27640475674907
 20
35.92905627865995
 42
-0.0999273148094075
 10
-21.69693681677636
 20
36.00733049421248
 42
-0.1418457765398572
 10
-21.97166396548031
 20
36.20992258152489
 42
-0.1131446565550557
 10
-22.09291226015972
 20
36.54604127183867
 42
-0.0364267570303138
 10
-22.12053845388414
 20
37.15381753377589
 10
-22.12053845388414
 20
38.57503172204331
 10
-22.51651389726749
 20
38.57503172204331
 10
-22.51651389726749
 20
39.26261698807332
 10
-22.12053845388414
 20
39.26261698807332
 10
-22.12053845388414
 20
39.91029775205695
 10
-21.25491771718564
 20
40.41370839325749
 10
-21.25491771718564
 20
39.26261698807332
  0
LWPOLYLINE
  5
212
330
27F
100
AcDbEntity
  8
0
100
AcDbPolyline
 90
       32
 70
   129
 43
0.0
 10
-33.56858756711742
 20
37.46691439598601
 10
-32.68454936793597
 20
37.55286255423976
 42
0.1742698639722362
 10
-32.36070898594416
 20
36.89904263609515
 42
0.1822119347677103
 10
-31.70228470217882
 20
36.69031139462175
 42
0.1749322093143575
 10
-31.04079084133298
 20
36.87602080799147
 42
0.2327914426502576
 10
-30.81824650299737
 20
37.31036596488096
 42
0.1811098694256711
 10
-30.91186860395235
 20
37.58202353650443
 42
0.1292873456279102
 10
-31.23877856302466
 20
37.77694168111562
 42
0.0168515435654161
 10
-31.96626833110105
 20
37.97339461426704
 42
-0.1147099677201997
 10
-32.99150707598509
 20
38.41848329093826
 42
-0.2232150866739366
 10
-33.40589998185139
 20
39.32400852968315
 42
-0.1484219162819355
 10
-33.2109818372402
 20
39.96708492804603
 42
-0.1516027065394652
 10
-32.64924923151032
 20
40.42291712449897
 42
-0.1008779219693769
 10
-31.76367624378864
 20
40.57946555560402
 42
-0.0709633037273455
 10
-30.95930155109289
 20
40.46472557786017
 42
-0.1081997329952366
 10
-30.48826696684457
 20
40.20804672886459
 42
-0.2174301491091111
 10
-30.03857392455262
 20
39.21657333186597
 10
-30.947168740378
 20
39.17666882981957
 42
0.1871423791968712
 10
-31.19733927243803
 20
39.67547510539938
 42
0.167000923944298
 10
-31.77288497503011
 20
39.82741917088369
 42
0.1582324430723862
 10
-32.39293954528932
 20
39.66473158561766
 42
0.2553934114734215
 10
-32.5372096680724
 20
39.38540007129296
 42
0.232324178426886
 10
-32.40214827653079
 20
39.11220771112926
 42
0.0936974867588478
 10
-31.56722331063721
 20
38.81138915724112
 42
-0.0588045002859119
 10
-30.58649343342029
 20
38.48754877524931
 42
-0.1361073350707351
 10
-30.08922194638073
 20
38.03018179025613
 42
-0.1408318990042039
 10
-29.90965168717199
 20
37.31343554196145
 42
-0.1455664233979858
 10
-30.12452208280637
 20
36.58901535096555
 42
-0.1567867069058992
 10
-30.73229834474362
 20
36.08713949830525
 42
-0.0983302336073213
 10
-31.71149343342029
 20
35.92291712449897
 42
-0.0732093705471571
 10
-32.52057158119727
 20
36.04201967177739
 42
-0.1052213216939042
 10
-33.02220284679
 20
36.31735777934208
 42
-0.1923164667376453
  0
LWPOLYLINE
  5
213
330
27F
100
AcDbEntity
  8
0
100
AcDbPolyline
 90
       16
 70
   129
 43
0.0
 10
-29.56045659849532
 20
39.26261698807332
 10
-28.64265305142847
 20
39.26261698807332
 10
-27.86298047298373
 20
36.94815586938301
 10
-27.10172535702193
 20
39.26261698807332
 10
-26.208478426599
 20
39.26261698807332
 10
-27.35956983178318
 20
36.12550921181138
 10
-27.56523149617609
 20
35.55763745192053
 42
-0.0526990235225976
 10
-27.78163668035071
 20
35.12175750649078
 42
-0.0906709639728455
 10
-28.01799411554853
 20
34.87772612859174
 42
-0.0876169916421885
 10
-28.34643886316108
 20
34.73192121726841
 42
-0.0652912813639953
 10
-28.78692317421156
 20
34.67973840690006
 42
-0.0538528961931249
 10
-29.27498593000965
 20
34.73192121726841
 10
-29.35172535702193
 20
35.40722817497646
 42
0.048253534793865
 10
-28.98644568444348
 20
35.36732367293008
 42
0.2331568820366739
 10
-28.54135700777227
 20
35.54382435505831
 42
0.103365920277995
 10
-28.3203474579769
 20
35.99351739735027
  0
LWPOLYLINE
  5
218
330
27F
100
AcDbEntity
  8
0
100
AcDbPolyline
 90
       30
 70
   129
 43
0.0
 10
-16.63581812646258
 20
39.26261698807332
 10
-15.84079766261537
 20
39.26261698807332
 10
-15.84079766261537
 20
38.81752831140211
 42
-0.2352774286122538
 10
-14.82476764897281
 20
39.33628683800511
 42
-0.1297180932575766
 10
-14.28145250572588
 20
39.20736460062448
 42
-0.1396127710664333
 10
-13.90389452482547
 20
38.81752831140211
 42
-0.1015752160210477
 10
-13.44038838567131
 20
39.20736460062448
 42
-0.1219202445144504
 10
-12.90935155074635
 20
39.33628683800511
 42
-0.1345001002415131
 10
-12.3015752888091
 20
39.19048192668178
 42
-0.1628622979485702
 10
-11.93015646206967
 20
38.76227592395327
 42
-0.0924606854379834
 10
-11.84113872673543
 20
38.08696896624522
 10
-11.84113872673543
 20
36.00272612859174
 10
-12.70368988635344
 20
36.00272612859174
 10
-12.70368988635344
 20
37.86595941644985
 42
0.1155892055045172
 10
-12.79270762168768
 20
38.49215314087004
 42
0.2704032074156935
 10
-13.16105687134661
 20
38.67632776569951
 42
0.1560368153909673
 10
-13.50177992728114
 20
38.56582299080183
 42
0.1665428661649292
 10
-13.73199820831797
 20
38.24198260881002
 42
0.073079191748397
 10
-13.80259848116926
 20
37.56821043964221
 10
-13.80259848116926
 20
36.00272612859174
 10
-14.66514964078727
 20
36.00272612859174
 10
-14.66514964078727
 20
37.78921998943758
 42
0.0623513009056769
 10
-14.71119329699464
 20
38.40313540553581
 42
0.1640436051320476
 10
-14.85392863123747
 20
38.60879706992871
 42
0.1537011612321709
 10
-15.11637747161947
 20
38.67632776569951
 42
0.1525559180265272
 10
-15.47551799003693
 20
38.56889256788232
 42
0.1680348615222009
 10
-15.70420148253352
 20
38.25886528275272
 42
0.0737117464130434
 10
-15.77326696684457
 20
37.58662790212516
 10
-15.77326696684457
 20
36.00272612859174
 10
-16.63581812646258
 20
36.00272612859174
  0
LWPOLYLINE
  5
219
330
27F
100
AcDbEntity
  8
0
100
AcDbPolyline
 90
       22
 70
   129
 43
0.0
 10
-6.350402028236114
 20
37.65722817497646
 10
-5.469433406135155
 20
37.37789666065176
 42
-0.1671334748728398
 10
-6.143205575302964
 20
36.28359243145668
 42
-0.1668573789571507
 10
-7.338805848154254
 20
35.92598670157946
 42
-0.2156679250405063
 10
-8.812202846790003
 20
36.53836732913744
 42
-0.1063582139118206
 10
-9.222490344164608
 20
37.21695458620893
 42
-0.0831634248410543
 10
-9.389283337922333
 20
38.21282162654536
 42
-0.0804123472112083
 10
-9.218333701356332
 20
39.26890478553039
 42
-0.1079085039530273
 10
-8.809133269709513
 20
39.95787619680456
 42
-0.2167562810564344
 10
-7.283553460705419
 20
40.57946555560402
 42
-0.1981473977178452
 10
-5.94214827653079
 20
40.09140279980593
 42
-0.136006393183972
 10
-5.481711714457123
 20
39.26261698807332
 10
-6.381097799041025
 20
39.04774659243894
 42
0.1742050159678657
 10
-6.714146912274312
 20
39.60027046692735
 42
0.1749533473552971
 10
-7.329597116912786
 20
39.80286255423976
 42
0.2280391616546856
 10
-8.141500254702686
 20
39.4437220358223
 42
0.1137136285233108
 10
-8.352191702137082
 20
39.0469253789345
 42
0.065510861378044
 10
-8.45306232837254
 20
38.28035232231615
 42
0.0619174330820349
 10
-8.351607404993013
 20
37.46421732077126
 42
0.1144108920919824
 10
-8.14610462032342
 20
37.06479979844167
 42
0.231611470545808
 10
-7.348014579395731
 20
36.70258970294372
 42
0.1889892712899879
 10
-6.724890432056031
 20
36.93280798398055
 42
0.1561720808102632
  0
LWPOLYLINE
  5
216
330
27F
100
AcDbEntity
  8
0
100
AcDbPolyline
 90
       18
 70
   129
 43
0.0
 10
-18.17944704869996
 20
37.04024318179774
 10
-17.31996546616244
 20
36.89597305901466
 42
-0.1619585813889359
 10
-17.84332835838618
 20
36.17615723363949
 42
-0.1545460799286832
 10
-18.73811007734935
 20
35.92905627865995
 42
-0.0432639156843412
 10
-19.13063015187383
 20
35.96308388120035
 42
-0.0531834787414251
 10
-19.43901827741821
 20
36.05150006168557
 42
-0.0688441706776943
 10
-19.74876605286318
 20
36.23006638870857
 42
-0.0692769432118585
 10
-19.99663668035071
 20
36.48464973022885
 42
-0.1605804351980829
 10
-20.31894227380228
 20
37.6081149416886
 42
-0.1927516888920913
 10
-19.8953406366945
 20
38.87738506447168
 42
-0.2188537467414839
 10
-18.8240582356031
 20
39.33628683800511
 42
-0.2259863963909692
 10
-17.67603640749941
 20
38.85589802490825
 42
-0.1135753498457075
 10
-17.3913695727831
 20
38.32587739056269
 42
-0.0714378728523959
 10
-17.27392180995508
 20
37.38403581481275
 10
-19.43490407462084
 20
37.38403581481275
 42
0.1875592298419728
 10
-19.22617283314744
 20
36.78700307265722
 42
0.2169548293509558
 10
-18.72890134610787
 20
36.57366746556309
 42
0.1747326725964319
 10
-18.38817829017336
 20
36.68417224046077
 42
0.1548242429700889
  0
LWPOLYLINE
  5
217
330
27F
100
AcDbEntity
  8
0
100
AcDbPolyline
 90
        5
 70
   129
 43
0.0
 10
-18.1303338154121
 20
37.91200307265722
 42
0.1873846994945801
 10
-18.32371717148304
 20
38.48140962108833
 42
0.2154434067533672
 10
-18.77187542523475
 20
38.67632776569951
 42
0.2233998153242258
 10
-19.2384511414694
 20
38.47066610130661
 42
0.1912376905497589
 10
-19.41955618921838
 20
37.91200307265722
  0
LWPOLYLINE
  5
21C
330
27F
100
AcDbEntity
  8
0
100
AcDbPolyline
 90
       21
 70
   129
 43
0.0
 10
3.083636170945337
 20
39.26261698807332
 10
3.083636170945337
 20
38.57503172204331
 10
2.494277371491035
 20
38.57503172204331
 10
2.494277371491035
 20
37.2612527315931
 42
0.0356477566266377
 10
2.511160045433738
 20
36.7962118038987
 42
0.1816276587619477
 10
2.587899472446009
 20
36.68724181754126
 42
0.1601333503395226
 10
2.73370438376934
 20
36.64426773841438
 42
0.0804174096891364
 10
3.080566593864842
 20
36.72714631958765
 10
3.154236443796624
 20
36.05797851604058
 42
-0.102177470433065
 10
2.472790331927595
 20
35.92905627865995
 42
-0.0999273148094052
 10
2.052258271900311
 20
36.00733049421248
 42
-0.1418457765398695
 10
1.777531123196359
 20
36.20992258152489
 42
-0.1131446565550597
 10
1.656282828516955
 20
36.54604127183867
 42
-0.036426757030311
 10
1.628656634792532
 20
37.15381753377591
 10
1.628656634792532
 20
38.57503172204331
 10
1.232681191409182
 20
38.57503172204331
 10
1.232681191409182
 20
39.26261698807332
 10
1.628656634792532
 20
39.26261698807332
 10
1.628656634792532
 20
39.91029775205695
 10
2.494277371491035
 20
40.41370839325749
 10
2.494277371491035
 20
39.26261698807332
  0
LWPOLYLINE
  5
21D
330
27F
100
AcDbEntity
  8
0
100
AcDbPolyline
 90
       12
 70
   129
 43
0.0
 10
5.437633442432376
 20
36.00272612859174
 10
5.437633442432376
 20
40.50272612859174
 10
6.34622825825775
 20
40.50272612859174
 10
6.34622825825775
 20
38.73158015314836
 10
8.126582964942605
 20
38.73158015314836
 10
8.126582964942605
 20
40.50272612859174
 10
9.03517778076798
 20
40.50272612859174
 10
9.03517778076798
 20
36.00272612859174
 10
8.126582964942605
 20
36.00272612859174
 10
8.126582964942605
 20
37.97032503718656
 10
6.34622825825775
 20
37.97032503718656
 10
6.34622825825775
 20
36.00272612859174
  0
LWPOLYLINE
  5
21A
330
27F
100
AcDbEntity
  8
0
100
AcDbPolyline
 90
       19
 70
   129
 43
0.0
 10
-2.551125084170631
 20
36.00272612859174
 10
-2.551125084170631
 20
36.49078888438983
 42
-0.1259556170213311
 10
-3.019235588945523
 20
36.07946555560402
 42
-0.1219174016396214
 10
-3.631616216503509
 20
35.92905627865995
 42
-0.1287920369738426
 10
-4.220975015957808
 20
36.07332640144303
 42
-0.1671038193848606
 10
-4.598532996858213
 20
36.47851057606786
 42
-0.1020889602928812
 10
-4.715176925916878
 20
37.19986118998328
 10
-4.715176925916878
 20
39.26261698807332
 10
-3.852625766298867
 20
39.26261698807332
 10
-3.852625766298867
 20
37.76466337279365
 42
0.0509227707216205
 10
-3.805047321551256
 20
36.92206446419883
 42
0.1682080884581505
 10
-3.631616216503509
 20
36.67649829775954
 42
0.1596057839407547
 10
-3.31238020013243
 20
36.58594577388505
 42
0.1562691711446287
 10
-2.916404756749074
 20
36.70719406856445
 42
0.1598178526060023
 10
-2.676977744470768
 20
37.00801262245258
 42
0.0633887207416069
 10
-2.612516625780454
 20
37.88744645601329
 10
-2.612516625780454
 20
39.26261698807332
 10
-1.749965466162446
 20
39.26261698807332
 10
-1.749965466162446
 20
36.00272612859174
  0
LWPOLYLINE
  5
21B
330
27F
100
AcDbEntity
  8
0
100
AcDbPolyline
 90
       13
 70
   129
 43
0.0
 10
-0.0313706503370693
 20
36.00272612859174
 10
-0.8939218099550769
 20
36.00272612859174
 10
-0.8939218099550769
 20
39.26261698807332
 10
-0.0927621919468916
 20
39.26261698807332
 10
-0.0927621919468916
 20
38.79911084891916
 42
-0.103252621878718
 10
0.2771218462522897
 20
39.23192121726841
 42
-0.1452936089131399
 10
0.6500754615319597
 20
39.33628683800511
 42
-0.137443628328418
 10
1.217947221422823
 20
39.17359925273908
 10
0.9508940154200946
 20
38.42155286801875
 42
0.1446986624674562
 10
0.545709840795266
 20
38.56275341372135
 42
0.1736219943319888
 10
0.2387521327461475
 20
38.46299215860538
 42
0.1544311530858468
 10
0.0407644110544726
 20
38.10231685164767
 42
0.053587749210845
 10
-0.0313706503370694
 20
37.00954741099283
  0
LWPOLYLINE
  5
220
330
27F
100
AcDbEntity
  8
0
100
AcDbPolyline
 90
       13
 70
   129
 43
0.0
 10
14.2890659117366
 20
36.00272612859174
 10
13.4265147521186
 20
36.00272612859174
 10
13.4265147521186
 20
39.26261698807332
 10
14.22767437012678
 20
39.26261698807332
 10
14.22767437012678
 20
38.79911084891916
 42
-0.1032526218787272
 10
14.59755840832596
 20
39.23192121726841
 42
-0.1452936089131416
 10
14.97051202360563
 20
39.33628683800511
 42
-0.1374436283284125
 10
15.5383837834965
 20
39.17359925273908
 10
15.27133057749376
 20
38.42155286801875
 42
0.1446986624674635
 10
14.86614640286893
 20
38.56275341372135
 42
0.1736219943319931
 10
14.55918869481982
 20
38.46299215860538
 42
0.1544311530858329
 10
14.36120097312814
 20
38.10231685164767
 42
0.0535877492108427
 10
14.2890659117366
 20
37.00954741099282
  0
LWPOLYLINE
  5
221
330
27F
100
AcDbEntity
  8
0
100
AcDbPolyline
 90
       14
 70
   129
 43
0.0
 10
15.56232648472432
 20
36.00272612859174
 10
15.56232648472432
 20
36.6749635092193
 10
16.78401816275979
 20
38.07776023500374
 42
-0.0147503186737199
 10
17.22910683943101
 20
38.56582299080183
 42
-0.0116335927367621
 10
16.83313139604765
 20
38.55354468247987
 10
15.68203999086348
 20
38.54740552831889
 10
15.68203999086348
 20
39.26261698807332
 10
18.37712866753469
 20
39.26261698807332
 10
18.37712866753469
 20
38.65177114905558
 10
17.13088037285529
 20
37.21520907538574
 10
16.69193085034506
 20
36.73942462790961
 42
-0.0102706456364728
 10
17.13701952701627
 20
36.76091166747305
 10
18.47228555702992
 20
36.76091166747305
 10
18.47228555702992
 20
36.00272612859174
  0
LWPOLYLINE
  5
21E
330
27F
100
AcDbEntity
  8
0
100
AcDbPolyline
 90
       18
 70
   129
 43
0.0
 10
11.85525963615679
 20
37.04024318179774
 10
12.71474121869431
 20
36.89597305901466
 42
-0.1619585813889434
 10
12.19137832647058
 20
36.17615723363949
 42
-0.1545460799286773
 10
11.29659660750741
 20
35.92905627865995
 42
-0.0432639156843415
 10
10.90407653298292
 20
35.96308388120035
 42
-0.0531834787414248
 10
10.59568840743854
 20
36.05150006168557
 42
-0.0688441706776957
 10
10.28594063199357
 20
36.23006638870857
 42
-0.0692769432118596
 10
10.03807000450605
 20
36.48464973022885
 42
-0.1605804351980848
 10
9.715764411054478
 20
37.6081149416886
 42
-0.1927516888920911
 10
10.13936604816225
 20
38.87738506447168
 42
-0.2188537467414799
 10
11.21064844925365
 20
39.33628683800511
 42
-0.2259863963909703
 10
12.35867027735734
 20
38.85589802490825
 42
-0.113575349845705
 10
12.64333711207365
 20
38.32587739056267
 42
-0.071437872852397
 10
12.76078487490168
 20
37.38403581481276
 10
10.59980261023592
 20
37.38403581481275
 42
0.1875592298419767
 10
10.80853385170931
 20
36.78700307265722
 42
0.2169548293509563
 10
11.30580533874888
 20
36.57366746556309
 42
0.1747326725964443
 10
11.64652839468339
 20
36.68417224046077
 42
0.1548242429700968
  0
LWPOLYLINE
  5
21F
330
27F
100
AcDbEntity
  8
0
100
AcDbPolyline
 90
        5
 70
   129
 43
0.0
 10
11.90437286944466
 20
37.91200307265722
 42
0.1873846994945799
 10
11.71098951337371
 20
38.48140962108833
 42
0.2154434067533617
 10
11.262831259622
 20
38.67632776569951
 42
0.2233998153242242
 10
10.79625554338735
 20
38.47066610130661
 42
0.1912376905497809
 10
10.61515049563838
 20
37.91200307265722
  0
LWPOLYLINE
  5
224
330
27F
100
AcDbEntity
  8
0
100
AcDbPolyline
 90
       25
 70
   129
 43
0.0
 10
25.28613276030413
 20
38.26807401399419
 10
24.50339060477889
 20
38.40927455969678
 42
-0.1764233188762468
 10
24.95768801269158
 20
39.10913813404876
 42
-0.1514095799757653
 10
25.91539606180481
 20
39.33628683800511
 42
-0.1066098011782672
 10
26.77487764434233
 20
39.19969065792326
 42
-0.1576832483994551
 10
27.17238787626593
 20
38.85282844782775
 42
-0.1110589339840755
 10
27.28749701678435
 20
38.08082981208423
 10
27.27828828554288
 20
37.07400852968314
 42
0.0455263498574483
 10
27.31972757612951
 20
36.44014086256173
 42
0.0629548159501638
 10
27.47474121869431
 20
36.00272612859174
 10
26.62139879031777
 20
36.00272612859174
 42
-0.0211225456055338
 10
26.53852020914451
 20
36.2575010262725
 42
0.0170698393988605
 10
26.5078244383396
 20
36.35879706992871
 42
-0.0927727221191112
 10
26.03510956794397
 20
36.03649147647714
 42
-0.1022100173174028
 10
25.49793357885802
 20
35.92905627865995
 42
-0.1961347624721033
 10
24.70444790355107
 20
36.20224863882366
 42
-0.2158389386634221
 10
24.41437286944465
 20
36.89290348193417
 42
-0.1402444068760614
 10
24.54636468390578
 20
37.385570603353
 42
-0.1471011708481625
 10
24.91624872210495
 20
37.71708492804603
 42
-0.062063403035189
 10
25.60229919959472
 20
37.9181422268182
 42
0.0460780818373348
 10
26.4402937425688
 20
38.12994304537209
 10
26.4402937425688
 20
38.21589120362584
 42
0.2202108619330778
 10
26.31751065934915
 20
38.57042735642257
 42
0.1660009986570284
 10
25.85400452019499
 20
38.67632776569951
 42
0.1535481304591798
 10
25.49486400177753
 20
38.58577524182503
 42
0.1546318814123583
  0
LWPOLYLINE
  5
225
330
27F
100
AcDbEntity
  8
0
100
AcDbPolyline
 90
        9
 70
   129
 43
0.0
 10
26.4402937425688
 20
37.56821043964221
 42
-0.0251125371531616
 10
25.91539606180481
 20
37.4362186251811
 42
0.0784565440283688
 10
25.44575076848967
 20
37.28580934823703
 42
0.2576184624562534
 10
25.27692402906265
 20
36.98192121726841
 42
0.2104033417638328
 10
25.41198542060427
 20
36.66882435505831
 42
0.2033201795235378
 10
25.75577805361928
 20
36.5368325405972
 42
0.1616872553873451
 10
26.20086673029049
 20
36.69031139462175
 42
0.167362482050624
 10
26.4065283946834
 20
36.97578206310743
 42
0.0621623233862739
 10
26.4402937425688
 20
37.39631412313472
  0
LWPOLYLINE
  5
222
330
27F
100
AcDbEntity
  8
0
100
AcDbPolyline
 90
       28
 70
   129
 43
0.0
 10
18.74854749427412
 20
36.93280798398055
 10
19.61416823097262
 20
37.06479979844167
 42
0.1802897130255642
 10
19.83824735784847
 20
36.68263745192053
 42
0.1663912994955296
 10
20.3109622282441
 20
36.55218042599965
 42
0.155465379778904
 10
20.81437286944465
 20
36.6749635092193
 42
0.2486454460037956
 10
20.92794722142282
 20
36.90518179025613
 42
0.1995951405943392
 10
20.866555679813
 20
37.06786937552216
 42
0.1142675158995066
 10
20.57801543424683
 20
37.18144372750034
 42
-0.0226674154390609
 10
19.55375964221606
 20
37.45659384570079
 42
-0.0727058003395418
 10
19.25502771255516
 20
37.60197578752762
 42
-0.2640932623139362
 10
18.86826100041327
 20
38.335604709765
 42
-0.2289676122616123
 10
19.2028449021868
 20
39.04774659243894
 42
-0.1105441540004844
 10
19.57135748354045
 20
39.24499197555402
 42
-0.0679171417976813
 10
20.2403619553928
 20
39.3362868380051
 42
-0.1435244907169892
 10
21.23490492947193
 20
39.11834686529023
 42
-0.1820429793207493
 10
21.68306318322363
 20
38.4737356783871
 10
20.86962525689349
 20
38.32332640144303
 42
0.1809644690422313
 10
20.67163753520181
 20
38.61493622408969
 42
0.1512025160576348
 10
20.25570984079526
 20
38.7162322677459
 42
0.1350773078251787
 10
19.76764708499718
 20
38.62107537825067
 42
0.2623801400272825
 10
19.66942061842146
 20
38.44610948466268
 42
0.2486934353260844
 10
19.75536877667521
 20
38.28956105355763
 42
0.0652820663457125
 10
20.56113276030413
 20
38.04706446419883
 42
-0.109262838084671
 10
21.5234451750381
 20
37.66336732913744
 42
-0.2297389100242418
 10
21.79356795812132
 20
37.0218257193148
 42
-0.2288852516769539
 10
21.41907955430141
 20
36.25136187211152
 42
-0.1796655323249102
 10
20.3109622282441
 20
35.92905627865995
 42
-0.1531631714921242
 10
19.2565625010954
 20
36.19917906174317
 42
-0.1854152645467938
  0
LWPOLYLINE
  5
223
330
27F
100
AcDbEntity
  8
0
100
AcDbPolyline
 90
       21
 70
   129
 43
0.0
 10
24.04319960887166
 20
39.26261698807332
 10
24.04319960887166
 20
38.57503172204331
 10
23.45384080941737
 20
38.57503172204331
 10
23.45384080941737
 20
37.2612527315931
 42
0.0356477566266231
 10
23.47072348336006
 20
36.7962118038987
 42
0.1816276587619448
 10
23.54746291037234
 20
36.68724181754126
 42
0.1601333503395319
 10
23.69326782169567
 20
36.64426773841438
 42
0.0804174096891219
 10
24.04013003179118
 20
36.72714631958765
 10
24.11379988172296
 20
36.05797851604058
 42
-0.1021774704330612
 10
23.43235376985393
 20
35.92905627865995
 42
-0.0999273148094075
 10
23.01182170982664
 20
36.00733049421248
 42
-0.1418457765398617
 10
22.73709456112269
 20
36.20992258152489
 42
-0.1131446565550755
 10
22.61584626644329
 20
36.54604127183867
 42
-0.0364267570303217
 10
22.58822007271887
 20
37.1538175337759
 10
22.58822007271887
 20
38.57503172204331
 10
22.19224462933551
 20
38.57503172204331
 10
22.19224462933551
 20
39.26261698807332
 10
22.58822007271887
 20
39.26261698807332
 10
22.58822007271887
 20
39.91029775205695
 10
23.45384080941737
 20
40.41370839325749
 10
23.45384080941737
 20
39.26261698807332
  0
LWPOLYLINE
  5
226
330
27F
100
AcDbEntity
  8
0
100
AcDbPolyline
 90
       13
 70
   129
 43
0.0
 10
28.96311775348284
 20
36.00272612859174
 10
28.10056659386484
 20
36.00272612859174
 10
28.10056659386484
 20
39.26261698807332
 10
28.90172621187302
 20
39.26261698807332
 10
28.90172621187302
 20
38.79911084891916
 42
-0.1032526218787244
 10
29.27161025007221
 20
39.23192121726841
 42
-0.1452936089131416
 10
29.64456386535188
 20
39.33628683800511
 42
-0.137443628328414
 10
30.21243562524274
 20
39.17359925273908
 10
29.94538241924002
 20
38.42155286801875
 42
0.1446986624674541
 10
29.54019824461518
 20
38.56275341372135
 42
0.1736219943319764
 10
29.23324053656607
 20
38.46299215860538
 42
0.1544311530858567
 10
29.03525281487439
 20
38.10231685164767
 42
0.0535877492108531
 10
28.96311775348284
 20
37.00954741099283
  0
LWPOLYLINE
  5
227
330
27F
100
AcDbEntity
  8
0
100
AcDbPolyline
 90
       12
 70
   129
 43
0.0
 10
30.55254476576115
 20
36.00272612859174
 10
30.55254476576115
 20
40.50272612859174
 10
31.41509592537917
 20
40.50272612859174
 10
31.41509592537917
 20
38.11459515996964
 10
32.42498678486075
 20
39.26261698807332
 10
33.48706045471069
 20
39.26261698807332
 10
32.3728039744924
 20
38.07162108084276
 10
33.56686945880345
 20
36.00272612859174
 10
32.63678760341463
 20
36.00272612859174
 10
31.8172105229235
 20
37.46691439598601
 10
31.41509592537917
 20
37.04638233595873
 10
31.41509592537917
 20
36.00272612859174
  0
LWPOLYLINE
  5
251
330
27F
100
AcDbEntity
  8
0
100
AcDbPolyline
 90
        8
 70
   129
 43
0.0
 10
-21.18261571152937
 20
-40.49721052565425
 10
-21.18261571152937
 20
-36.75846564161606
 10
-22.51788174154302
 20
-36.75846564161606
 10
-22.51788174154302
 20
-35.99721052565425
 10
-18.94182444277085
 20
-35.99721052565425
 10
-18.94182444277085
 20
-36.75846564161606
 10
-20.274020895704
 20
-36.75846564161606
 10
-20.274020895704
 20
-40.49721052565425
  0
LWPOLYLINE
  5
254
330
27F
100
AcDbEntity
  8
0
100
AcDbPolyline
 90
        8
 70
   129
 43
0.0
 10
-14.50395268287999
 20
-38.81201270846462
 42
0.1723355874828098
 10
-14.28601271016512
 20
-39.62391584625453
 42
0.2343402436799653
 10
-13.75497587524015
 20
-39.88636468663652
 42
0.235067215434924
 10
-13.2546348111201
 20
-39.64540288581797
 42
0.1688328644413765
 10
-13.05511230088817
 20
-38.8549867875915
 42
0.1722728066742304
 10
-13.26077396528108
 20
-38.0937316716297
 42
0.2351187663210369
 10
-13.77032376064261
 20
-37.84509592810991
 42
0.2302695428954726
 10
-14.29522144140659
 20
-38.08912730600896
 42
0.1787035655015006
  0
LWPOLYLINE
  5
255
330
27F
100
AcDbEntity
  8
0
100
AcDbPolyline
 90
       18
 70
   129
 43
0.0
 10
-9.605276011665799
 20
-39.45969347244825
 10
-8.745794429128283
 20
-39.60396359523133
 42
-0.1619585813889386
 10
-9.269157321352022
 20
-40.32377942060651
 42
-0.1545460799286819
 10
-10.16393904031519
 20
-40.57088037558604
 42
-0.0432639156843437
 10
-10.55645911483968
 20
-40.53685277304564
 42
-0.0531834787414313
 10
-10.86484724038405
 20
-40.44843659256043
 42
-0.0688441706777008
 10
-11.17459501582901
 20
-40.26987026553743
 42
-0.0692769432118584
 10
-11.42246564331655
 20
-40.01528692401715
 42
-0.1605804351980787
 10
-11.74477123676812
 20
-38.89182171255739
 42
-0.1927516888920857
 10
-11.32116959966034
 20
-37.62255158977431
 42
-0.2188537467414697
 10
-10.24988719856894
 20
-37.16364981624088
 42
-0.2259863963909851
 10
-9.101865370465255
 20
-37.64403862933774
 42
-0.1135753498457059
 10
-8.817198535748947
 20
-38.1740592636833
 42
-0.0714378728523977
 10
-8.699750772920915
 20
-39.11590083943325
 10
-10.86073303758667
 20
-39.11590083943324
 42
0.1875592298419933
 10
-10.65200179611328
 20
-39.71293358158877
 42
0.2169548293509333
 10
-10.15473030907371
 20
-39.9262691886829
 42
0.174732672596409
 10
-9.814007253139197
 20
-39.81576441378522
 42
0.154824242970073
  0
LWPOLYLINE
  5
252
330
27F
100
AcDbEntity
  8
0
100
AcDbPolyline
 90
       16
 70
   129
 43
0.0
 10
-19.23687219174766
 20
-37.23731966617267
 10
-18.3190686446808
 20
-37.23731966617267
 10
-17.53939606623606
 20
-39.55178078486298
 10
-16.77814095027426
 20
-37.23731966617267
 10
-15.88489401985134
 20
-37.23731966617267
 10
-17.03598542503551
 20
-40.37442744243461
 10
-17.24164708942842
 20
-40.94229920232547
 42
-0.0526990235225834
 10
-17.45805227360304
 20
-41.37817914775521
 42
-0.090670963972847
 10
-17.69440970880086
 20
-41.62221052565425
 42
-0.0876169916421518
 10
-18.02285445641341
 20
-41.76801543697758
 42
-0.0652912813639975
 10
-18.46333876746389
 20
-41.82019824734593
 42
-0.0538528961931242
 10
-18.95140152326198
 20
-41.76801543697758
 10
-19.02814095027426
 20
-41.09270847926953
 42
0.0482535347938254
 10
-18.66286127769581
 20
-41.13261298131592
 42
0.2331568820367013
 10
-18.2177726010246
 20
-40.95611229918768
 42
0.1033659202779835
 10
-17.99676305122924
 20
-40.50641925689573
  0
LWPOLYLINE
  5
253
330
27F
100
AcDbEntity
  8
0
100
AcDbPolyline
 90
       13
 70
   129
 43
0.0
 10
-15.35729511125652
 20
-37.23731966617267
 10
-14.55306591616785
 20
-37.23731966617267
 10
-14.55306591616785
 20
-37.71617369072928
 42
-0.1227175361458357
 10
-14.12946427906007
 20
-37.31712867026544
 42
-0.1333649245478902
 10
-13.53703590252528
 20
-37.16364981624088
 42
-0.2242941000401324
 10
-12.57318869925106
 20
-37.6087384929121
 42
-0.1869725400720676
 10
-12.17721325586771
 20
-38.84884763343052
 42
-0.1853594764234154
 10
-12.57625827633156
 20
-40.1181177562136
 42
-0.2256234885489445
 10
-13.54317505668626
 20
-40.57088037558604
 42
-0.1155855007235359
 10
-14.0327726010246
 20
-40.46344517776885
 42
-0.0902340527776045
 10
-14.49474395163852
 20
-40.09509592810991
 10
-14.49474395163852
 20
-41.73731966617267
 10
-15.35729511125652
 20
-41.73731966617267
  0
LWPOLYLINE
  5
258
330
27F
100
AcDbEntity
  8
0
100
AcDbPolyline
 90
        4
 70
   129
 43
0.0
 10
-4.525739858869073
 20
-40.49721052565425
 10
-4.525739858869073
 20
-35.99721052565425
 10
-3.617145043043699
 20
-35.99721052565425
 10
-3.617145043043699
 20
-40.49721052565425
  0
LWPOLYLINE
  5
259
330
27F
100
AcDbEntity
  8
0
100
AcDbPolyline
 90
        4
 70
   129
 43
0.0
 10
-2.77927328315284
 20
-40.49721052565425
 10
-2.77927328315284
 20
-35.99721052565425
 10
-1.870678467327465
 20
-35.99721052565425
 10
-1.870678467327465
 20
-40.49721052565425
  0
LWPOLYLINE
  5
256
330
27F
100
AcDbEntity
  8
0
100
AcDbPolyline
 90
        5
 70
   129
 43
0.0
 10
-9.556162778377935
 20
-38.58793358158877
 42
0.1873846994945852
 10
-9.749546134448883
 20
-38.01852703315767
 42
0.2154434067533632
 10
-10.19770438820059
 20
-37.82360888854647
 42
0.2233998153242403
 10
-10.66428010443524
 20
-38.02927055293938
 42
0.1912376905497657
 10
-10.84538515218422
 20
-38.58793358158877
  0
LWPOLYLINE
  5
257
330
27F
100
AcDbEntity
  8
0
100
AcDbPolyline
 90
        4
 70
   129
 43
0.0
 10
-6.272206434585307
 20
-40.49721052565425
 10
-6.272206434585307
 20
-35.99721052565425
 10
-5.363611618759933
 20
-35.99721052565425
 10
-5.363611618759933
 20
-40.49721052565425
  0
LWPOLYLINE
  5
25C
330
27F
100
AcDbEntity
  8
0
100
AcDbPolyline
 90
       12
 70
   129
 43
0.0
 10
3.533864506751662
 20
-40.49721052565425
 10
3.533864506751662
 20
-35.99721052565425
 10
4.991913619984949
 20
-35.99721052565425
 42
-0.0513237629049868
 10
6.07240475231783
 20
-36.06474122142506
 42
-0.1708083754019255
 10
6.720085516301459
 20
-36.50522553247554
 42
-0.1682841475321519
 10
6.980999568143204
 20
-37.38158978895576
 42
-0.123224220194869
 10
6.830590291199137
 20
-38.07838378622724
 42
-0.1203454834000785
 10
6.448427944677995
 20
-38.52193767435821
 42
-0.0991548166615771
 10
5.977247862822601
 20
-38.73527328145234
 42
-0.0456245006661096
 10
5.034887699111827
 20
-38.79973440014265
 10
4.442459322577037
 20
-38.79973440014265
 10
4.442459322577037
 20
-40.49721052565425
  0
LWPOLYLINE
  5
25D
330
27F
100
AcDbEntity
  8
0
100
AcDbPolyline
 90
        9
 70
   129
 43
0.0
 10
4.442459322577037
 20
-36.75846564161606
 10
4.442459322577037
 20
-38.03540970710036
 10
4.939730809616602
 20
-38.03540970710036
 42
0.0772557168441934
 10
5.658011846451529
 20
-37.96480943424907
 42
0.1543749198800855
 10
5.941947726396958
 20
-37.74379988445371
 42
0.1543260998934882
 10
6.044778558593411
 20
-37.39386809727772
 42
0.1917795802523053
 10
5.900508435810323
 20
-36.98868392265289
 42
0.1704251045652692
 10
5.535228763231878
 20
-36.78916141242097
 42
0.0375218814037931
 10
4.881408845087273
 20
-36.75846564161606
  0
LWPOLYLINE
  5
25A
330
27F
100
AcDbEntity
  8
0
100
AcDbPolyline
 90
       11
 70
   129
 43
0.0
 10
-1.008250090792675
 20
-35.99721052565425
 10
0.6523911097530259
 20
-35.99721052565425
 42
-0.0666508244572574
 10
1.508803115210054
 20
-36.083158683908
 42
-0.1344499765204271
 10
2.18717964999859
 20
-36.49755158977431
 42
-0.1088878701119999
 10
2.616920441267354
 20
-37.22657614639095
 42
-0.0813678137237547
 10
2.764260141130926
 20
-38.29018460478114
 42
-0.0823488530412255
 10
2.626129172508825
 20
-39.24789265389436
 42
-0.1188012209229197
 10
2.144205570871719
 20
-40.04291311774156
 42
-0.116207168450648
 10
1.505733538129561
 20
-40.40205363615903
 42
-0.0740543908422685
 10
0.7015043430408879
 20
-40.49721052565425
 10
-1.008250090792675
 20
-40.49721052565425
  0
LWPOLYLINE
  5
25B
330
27F
100
AcDbEntity
  8
0
100
AcDbPolyline
 90
       11
 70
   129
 43
0.0
 10
-0.0996552749673008
 20
-36.75846564161606
 10
-0.0996552749673008
 20
-39.73902498677295
 10
0.5787212598212435
 20
-39.73902498677295
 42
0.0558295038653088
 10
1.128175557229152
 20
-39.69605090764607
 42
0.1246777329599474
 10
1.494990018347846
 20
-39.50880670573611
 42
0.1322184632590798
 10
1.732882242085907
 20
-39.07446154884661
 42
0.0709800395109282
 10
1.82496955450064
 20
-38.25028010273475
 42
0.0754210298554474
 10
1.732882242085907
 20
-37.44912048472656
 42
0.1248773689815475
 10
1.47503776732465
 20
-37.01324053929682
 42
0.1387658659854641
 10
1.054505707297366
 20
-36.80143972074293
 42
0.0454358940188855
 10
0.30859847673802
 20
-36.75846564161606
  0
LWPOLYLINE
  5
25E
330
27F
100
AcDbEntity
  8
0
100
AcDbPolyline
 90
       10
 70
   129
 43
0.0
 10
9.36888497059887
 20
-40.49721052565425
 10
9.36888497059887
 20
-35.99721052565425
 10
10.25292316978031
 20
-35.99721052565425
 10
12.09466941807499
 20
-39.00232648745507
 10
12.09466941807499
 20
-35.99721052565425
 10
12.93880311521006
 20
-35.99721052565425
 10
12.93880311521006
 20
-40.49721052565425
 10
12.02713872230419
 20
-40.49721052565425
 10
10.21301866773393
 20
-37.56269483670473
 10
10.21301866773393
 20
-40.49721052565425
  0
LWPOLYLINE
  5
250
330
27F
100
AcDbEntity
  8
0
100
AcDbPolyline
 90
        8
 70
   129
 43
0.0
 10
14.68008328454888
 20
-37.72278907870258
 42
0.1862594742662013
 10
14.91030156558571
 20
-38.46562673218143
 42
0.2238423430888185
 10
15.47817332547657
 20
-38.72347120694269
 42
0.2248461522326207
 10
16.04451029682718
 20
-38.46562673218143
 42
0.1849238093447996
 10
16.27319378932377
 20
-37.7166499245416
 42
0.1855851125505607
 10
16.04451029682718
 20
-36.97995142522372
 42
0.2248461522326401
 10
15.47817332547657
 20
-36.72210695046247
 42
0.2238423430888423
 10
14.91030156558571
 20
-36.97995142522372
 42
0.1862594742661988
  0
LWPOLYLINE
  5
24F
330
27F
100
AcDbEntity
  8
0
100
AcDbPolyline
 90
       10
 70
   129
 43
0.0
 10
13.79604508536743
 20
-37.67674542249519
 42
-0.1235530753264597
 10
14.00784590392132
 20
-36.84489003368211
 42
-0.1509984122013866
 10
14.60794822315734
 20
-36.23097461758389
 42
-0.1273392299186462
 10
15.47510374839608
 20
-36.01917379903
 42
-0.2090855185083141
 10
16.68758669519008
 20
-36.49956261212686
 42
-0.20444322152221
 10
17.16030156558571
 20
-37.7135803474611
 42
-0.2040261810827787
 10
16.68298232956934
 20
-38.93987639111731
 42
-0.2097458665472361
 10
15.48124290255706
 20
-39.42640435837516
 42
-0.1176310026618048
 10
14.62636568564028
 20
-39.22381227106274
 42
-0.1581167900378176
 10
14.00784590392132
 20
-38.62984910598771
 42
-0.1252767960355571
  0
LWPOLYLINE
  5
19D
330
27F
100
AcDbEntity
  8
0
100
AcDbPolyline
 90
        4
 70
   129
 43
0.0
 10
14.27917017936422
 20
-40.5
 10
16.63991089273892
 20
-40.5
 10
16.63991089273893
 20
-39.88629632309944
 10
14.27917017936422
 20
-39.88629632309944
  0
LWPOLYLINE
  5
24E
330
27F
100
AcDbEntity
  8
0
100
AcDbPolyline
 90
       22
 70
   129
 43
0.0
 10
22.51711426821534
 20
-39.9615145568911
 10
22.51711426821534
 20
-40.49255139181606
 10
19.54269407721943
 20
-40.49255139181606
 42
-0.1005238071602702
 10
19.60715519590974
 20
-40.10885425675468
 42
-0.0869184430311705
 10
19.97090007994795
 20
-39.5102867260589
 42
-0.0436643923069552
 10
20.69378548240361
 20
-38.82884061418987
 42
0.056284392124152
 10
21.68525887940224
 20
-37.87573693069737
 42
0.1601572711526657
 10
21.9431033541635
 20
-37.21117349277105
 42
0.2129851073318799
 10
21.70828070750592
 20
-36.6571148297424
 42
0.2003538190123406
 10
21.09590007994795
 20
-36.4315009143263
 42
0.2059336222034818
 10
20.45742804720579
 20
-36.67092792660461
 42
0.2028385893301866
 10
20.21493145784699
 20
-37.33395657599069
 10
19.64705969795613
 20
-37.27563461146136
 42
-0.1975904670791612
 10
20.08600922046636
 20
-36.30718304256641
 42
-0.1856862718218998
 10
21.10817838826991
 20
-35.97413392933312
 42
-0.1978580460611577
 10
22.13341713315395
 20
-36.33327444775058
 42
-0.2144497835432458
 10
22.51097511405436
 20
-37.22345180109301
 42
-0.1014727138627247
 10
22.40047033915668
 20
-37.75448863601797
 42
-0.0806642830193404
 10
22.03365587803799
 20
-38.30394293342589
 42
-0.0325730016231082
 10
21.18184823820169
 20
-39.0958938201926
 42
0.022217054739553
 10
20.54337620545954
 20
-39.66223079154322
 42
0.0523590320384463
 10
20.31008834734222
 20
-39.9615145568911
  0
LWPOLYLINE
  5
1FE
330
27F
100
AcDbEntity
  8
0
100
AcDbPolyline
 90
       20
 70
   129
 43
0.0
 10
10.1067106785833
 20
-12.30784593937272
 10
7.936669369652996
 20
-13.2715378617102
 42
-0.240563168458973
 10
4.044454869724874
 20
-10.0303450023684
 42
0.3880646747059659
 10
3.123145356912998
 20
-9.61205304917647
 10
-8.582311725284283
 20
-13.4153866085913
 10
-10.16941685067947
 20
-11.64935186244762
 42
-0.2405631684589731
 10
-8.2896196874635
 20
-6.946052223889167
 42
0.3880646747059661
 10
-8.176500696204656
 20
-5.94057548605812
 10
-15.41087102685572
 20
4.016681043043115
 10
-14.22171462913882
 20
6.07184246381068
 42
-0.2405631684589738
 10
-9.167721590387591
 20
5.737448640373096
 42
0.3880646747059672
 10
-8.176500696204645
 20
5.940575486058119
 10
-0.9421303655535612
 20
15.89783201515933
 10
1.379913831570064
 20
15.40195687941754
 42
-0.2405631684589735
 10
2.623656145207717
 20
10.49199049234661
 42
0.3880646747059669
 10
3.123145356913
 20
9.612053049176462
 10
14.82860243911026
 20
5.808719489761597
 10
15.07454827859522
 20
3.447090380929623
 42
-0.2405631684589735
 10
10.78923026291849
 20
0.7469580935378506
 42
0.3880646747059672
 10
10.1067106785833
 20
-0.0000000000000013
  0
VIEWPORT
  5
33E
330
27B
100
AcDbEntity
 67
     1
  8
0
 62
   178
420
        0
100
AcDbViewport
 10
128.5
 20
97.5
 30
0.0
 40
314.226
 41
222.18
 68
     1
 69
     1
 12
128.5
 22
97.5
 13
0.0
 23
0.0
 14
10.0
 24
10.0
 15
10.0
 25
10.0
 16
0.0
 26
0.0
 36
1.0
 17
0.0
 27
0.0
 37
0.0
 42
50.0
 43
0.0
 44
0.0
 45
222.18
 50
0.0
 51
0.0
 72
   100
 90
   557152
  1

281
     0
 71
     1
 74
     0
110
0.0
120
0.0
130
0.0
111
1.0
121
0.0
131
0.0
112
0.0
122
1.0
132
0.0
 79
     0
146
0.0
170
     0
 61
     5
292
     1
282
     1
141
0.0
142
0.0
 63
   256
361
33F
  0
ENDSEC
  0
SECTION
  2
OBJECTS
  0
DICTIONARY
  5
26D
330
0
100
AcDbDictionary
281
     1
  3
ACAD_DETAILVIEWSTYLE
350
348
  3
ACAD_GROUP
350
26E
  3
ACAD_LAYOUT
350
27A
  3
ACAD_MATERIAL
350
2A3
  3
ACAD_MLEADERSTYLE
350
2CB
  3
ACAD_MLINESTYLE
350
277
  3
ACAD_PLOTSETTINGS
350
279
  3
ACAD_PLOTSTYLENAME
350
26F
  3
ACAD_SCALELIST
350
2A7
  3
ACAD_SECTIONVIEWSTYLE
350
349
  3
ACAD_TABLESTYLE
350
2C9
  3
ACAD_VISUALSTYLE
350
28A
  3
AcDbVariableDictionary
350
341
  3
ACDB_RECOMPOSE_DATA
350
345
  3
QCAD_OBJECTS
350
2CF
  0
SUN
  5
2CD
330
289
100
AcDbSun
 90
        1
290
     0
 63
     7
421
 16777215
 40
1.0
291
     1
 91
  2455826
 92
 54000000
292
     0
 70
     2
 71
   256
280
     1
  0
SUN
  5
33F
330
33E
100
AcDbSun
 90
        1
290
     0
 63
     7
421
 16777215
 40
1.0
291
     1
 91
  2455826
 92
 54000000
292
     0
 70
     2
 71
   256
280
     1
  0
DICTIONARY
  5
348
102
{ACAD_REACTORS
330
26D
102
}
330
26D
100
AcDbDictionary
281
     1
  0
DICTIONARY
  5
26E
102
{ACAD_REACTORS
330
26D
102
}
330
26D
100
AcDbDictionary
281
     1
  0
DICTIONARY
  5
27A
102
{ACAD_REACTORS
330
26D
102
}
330
26D
100
AcDbDictionary
281
     1
  3
Layout1
350
27E
  3
Model
350
282
  0
DICTIONARY
  5
2A3
102
{ACAD_REACTORS
330
26D
102
}
330
26D
100
AcDbDictionary
281
     1
  3
ByBlock
350
2A5
  3
ByLayer
350
2A4
  3
Global
350
2A6
  0
DICTIONARY
  5
2CB
102
{ACAD_REACTORS
330
26D
102
}
330
26D
100
AcDbDictionary
281
     1
  3
Standard
350
2CC
  0
DICTIONARY
  5
277
102
{ACAD_REACTORS
330
26D
102
}
330
26D
100
AcDbDictionary
281
     1
  3
Standard
350
278
  0
DICTIONARY
  5
279
102
{ACAD_REACTORS
330
26D
102
}
330
26D
100
AcDbDictionary
281
     1
  0
ACDBDICTIONARYWDFLT
  5
26F
102
{ACAD_REACTORS
330
26D
102
}
330
26D
100
AcDbDictionary
281
     1
  3
Normal
350
270
100
AcDbDictionaryWithDefault
340
270
  0
DICTIONARY
  5
2A7
102
{ACAD_REACTORS
330
26D
102
}
330
26D
100
AcDbDictionary
281
     1
  3
A0
350
2A8
  3
A1
350
2A9
  3
A2
350
2AA
  3
A3
350
2AB
  3
A4
350
2AC
  3
A5
350
2AD
  3
A6
350
2AE
  3
A7
350
2AF
  3
A8
350
2B0
  3
A9
350
2B1
  3
B0
350
2B2
  3
B1
350
2B3
  3
B2
350
2B4
  3
B3
350
2B5
  3
B4
350
2B6
  3
B5
350
2B7
  3
B6
350
2B8
  3
B7
350
2B9
  3
B8
350
2BA
  3
B9
350
2BB
  3
C0
350
2BC
  3
C1
350
2BD
  3
C2
350
2BE
  3
C3
350
2BF
  3
C4
350
2C0
  3
C5
350
2C1
  3
C6
350
2C2
  3
C7
350
2C3
  3
C8
350
2C4
  3
C9
350
2C5
  3
D0
350
2C6
  3
D1
350
2C7
  3
D2
350
2C8
  0
DICTIONARY
  5
349
102
{ACAD_REACTORS
330
26D
102
}
330
26D
100
AcDbDictionary
281
     1
  0
DICTIONARY
  5
2C9
102
{ACAD_REACTORS
330
26D
102
}
330
26D
100
AcDbDictionary
281
     1
  3
Standard
350
2CA
  0
DICTIONARY
  5
28A
102
{ACAD_REACTORS
330
26D
102
}
330
26D
100
AcDbDictionary
281
     1
  3
2dWireframe
350
28F
  3
Basic
350
292
  3
Brighten
350
296
  3
ColorChange
350
29A
  3
Conceptual
350
294
  3
Dim
350
295
  3
EdgeColorOff
350
29D
  3
Facepattern
350
299
  3
Flat
350
28B
  3
FlatWithEdges
350
28C
  3
Gouraud
350
28D
  3
GouraudWithEdges
350
28E
  3
Hidden
350
291
  3
JitterOff
350
29B
  3
Linepattern
350
298
  3
OverhangOff
350
29C
  3
Realistic
350
293
  3
Shaded
350
2A2
  3
Shaded with edges
350
2A1
  3
Shades of Gray
350
29E
  3
Sketchy
350
29F
  3
Thicken
350
297
  3
Wireframe
350
290
  3
X-Ray
350
2A0
  0
DICTIONARY
  5
341
102
{ACAD_REACTORS
330
26D
102
}
330
26D
100
AcDbDictionary
281
     1
  3
CANNOSCALE
350
342
  3
CMLEADERSTYLE
350
347
  3
CTABLESTYLE
350
346
  0
XRECORD
  5
345
102
{ACAD_REACTORS
330
26D
102
}
330
26D
100
AcDbXrecord
280
     1
 90
        1
330
2CA
  0
DICTIONARY
  5
2CF
102
{ACAD_REACTORS
330
26D
102
}
330
26D
100
AcDbDictionary
281
     1
  3
ColorSettings/BackgroundColor
350
2D1
  3
ColorSettings/ColorMode
350
2D2
  3
Grid/DisplayGrid00
350
2D3
  3
Grid/DisplayGrid01
350
2D4
  3
Grid/DisplayGrid02
350
2D5
  3
Grid/DisplayGrid03
350
2D6
  3
Grid/GridSpacingX00
350
2D7
  3
Grid/GridSpacingX01
350
2D8
  3
Grid/GridSpacingX02
350
2D9
  3
Grid/GridSpacingX03
350
2DA
  3
Grid/GridSpacingY00
350
2DB
  3
Grid/GridSpacingY01
350
2DC
  3
Grid/GridSpacingY02
350
2DD
  3
Grid/GridSpacingY03
350
2DE
  3
Grid/IsometricGrid00
350
2DF
  3
Grid/IsometricGrid01
350
2E0
  3
Grid/IsometricGrid02
350
2E1
  3
Grid/IsometricGrid03
350
2E2
  3
Grid/IsometricProjection00
350
2E3
  3
Grid/IsometricProjection01
350
2E4
  3
Grid/IsometricProjection02
350
2E5
  3
Grid/IsometricProjection03
350
2E6
  3
Grid/MetaGridSpacingX00
350
2E7
  3
Grid/MetaGridSpacingX01
350
2E8
  3
Grid/MetaGridSpacingX02
350
2E9
  3
Grid/MetaGridSpacingX03
350
2EA
  3
Grid/MetaGridSpacingY00
350
2EB
  3
Grid/MetaGridSpacingY01
350
2EC
  3
Grid/MetaGridSpacingY02
350
2ED
  3
Grid/MetaGridSpacingY03
350
2EE
  3
MultiPageSettings/Columns
350
2EF
  3
MultiPageSettings/GlueMarginsBottom
350
2F0
  3
MultiPageSettings/GlueMarginsLeft
350
2F1
  3
MultiPageSettings/GlueMarginsRight
350
2F2
  3
MultiPageSettings/GlueMarginsTop
350
2F3
  3
MultiPageSettings/PrintCropMarks
350
2F4
  3
MultiPageSettings/Rows
350
2F5
  3
PageSettings/OffsetX
350
2F6
  3
PageSettings/OffsetY
350
2F7
  3
PageSettings/PageOrientation
350
2F8
  3
PageSettings/PaperHeight
350
2F9
  3
PageSettings/PaperWidth
350
2FA
  3
PageSettings/Scale
350
2FB
  3
PageSettings/ShowPaperBorders
350
2FC
  3
QCADVersion
350
2FD
  3
UnitSettings/PaperUnit
350
2FE
  3
ViewportCenter
350
2FF
  3
ViewportHeight
350
300
  3
ViewportWidth
350
301
  0
LAYOUT
  5
27E
102
{ACAD_REACTORS
330
27A
102
}
330
27A
100
AcDbPlotSettings
  1

  2
none_device
  4
ISO_A4_(210.00_x_297.00_MM)
  6

 40
7.5
 41
20.0
 42
7.5
 43
20.0
 44
210.0
 45
297.0
 46
0.0
 47
0.0
 48
0.0
 49
0.0
140
0.0
141
0.0
142
1.0
143
1.0
 70
   688
 72
     1
 73
     1
 74
     5
  7

 75
    16
 76
     0
 77
     2
 78
   300
147
1.0
148
0.0
149
0.0
100
AcDbLayout
  1
Layout1
 70
     1
 71
     0
 10
-20.0
 20
-7.5
 11
277.0
 21
202.5
 12
0.0
 22
0.0
 32
0.0
 14
0.0
 24
0.0
 34
0.0
 15
0.0
 25
0.0
 35
0.0
146
0.0
 13
0.0
 23
0.0
 33
0.0
 16
1.0
 26
0.0
 36
0.0
 17
0.0
 27
1.0
 37
0.0
 76
     0
330
27B
331
33E
  0
LAYOUT
  5
282
102
{ACAD_REACTORS
330
27A
102
}
330
27A
100
AcDbPlotSettings
  1

  2
none_device
  4
Letter_(8.50_x_11.00_Inches)
  6

 40
6.35
 41
6.35
 42
6.35000508
 43
6.35000508
 44
215.9
 45
279.4
 46
0.0
 47
0.0
 48
0.0
 49
0.0
140
0.0
141
0.0
142
1.0
143
1.0
 70
  1712
 72
     0
 73
     0
 74
     0
  7

 75
     0
 76
     0
 77
     2
 78
   300
147
1.0
148
0.0
149
0.0
100
AcDbLayout
  1
Model
 70
     1
 71
     0
 10
0.0
 20
0.0
 11
12.0
 21
9.0
 12
0.0
 22
0.0
 32
0.0
 14
1.000000000000000E+20
 24
1.000000000000000E+20
 34
1.000000000000000E+20
 15
-1.000000000000000E+20
 25
-1.000000000000000E+20
 35
-1.000000000000000E+20
146
0.0
 13
0.0
 23
0.0
 33
0.0
 16
1.0
 26
0.0
 36
0.0
 17
0.0
 27
1.0
 37
0.0
 76
     0
330
27F
331
289
  0
MATERIAL
  5
2A5
102
{ACAD_REACTORS
330
2A3
102
}
330
2A3
100
AcDbMaterial
  1
ByBlock
 72
     1
 94
      127
  0
MATERIAL
  5
2A4
102
{ACAD_REACTORS
330
2A3
102
}
330
2A3
100
AcDbMaterial
  1
ByLayer
 72
     1
 94
      127
  0
MATERIAL
  5
2A6
102
{ACAD_REACTORS
330
2A3
102
}
330
2A3
100
AcDbMaterial
  1
Global
 72
     1
 94
      127
  0
MLEADERSTYLE
  5
2CC
102
{ACAD_REACTORS
330
2CB
102
}
330
2CB
100
AcDbMLeaderStyle
179
     2
170
     2
171
     1
172
     0
 90
        2
 40
0.0
 41
0.0
173
     1
 91
-1056964608
340
274
 92
       -2
290
     1
 42
0.09
291
     1
 43
0.36
  3
Standard
341
0
 44
0.18
300

342
272
174
     1
178
     6
175
     1
176
     0
 93
-1056964608
 45
0.18
292
     0
297
     0
 46
0.18
343
0
 94
-1056964608
 47
1.0
 49
1.0
140
1.0
293
     1
141
0.0
294
     1
177
     0
142
1.0
295
     0
296
     0
143
0.125
271
     0
272
     9
273
     9
298
     0
  0
MLINESTYLE
  5
278
102
{ACAD_REACTORS
330
277
102
}
330
277
100
AcDbMlineStyle
  2
Standard
 70
     0
  3

 62
   256
 51
90.0
 52
90.0
 71
     2
 49
0.5
 62
   256
  6
BYLAYER
 49
-0.5
 62
   256
  6
BYLAYER
  0
ACDBPLACEHOLDER
  5
270
102
{ACAD_REACTORS
330
26F
102
}
330
26F
  0
SCALE
  5
2A8
102
{ACAD_REACTORS
330
2A7
102
}
330
2A7
100
AcDbScale
 70
     0
300
1:1
140
1.0
141
1.0
290
     1
  0
SCALE
  5
2A9
102
{ACAD_REACTORS
330
2A7
102
}
330
2A7
100
AcDbScale
 70
     0
300
1:2
140
1.0
141
2.0
290
     0
  0
SCALE
  5
2AA
102
{ACAD_REACTORS
330
2A7
102
}
330
2A7
100
AcDbScale
 70
     0
300
1:4
140
1.0
141
4.0
290
     0
  0
SCALE
  5
2AB
102
{ACAD_REACTORS
330
2A7
102
}
330
2A7
100
AcDbScale
 70
     0
300
1:5
140
1.0
141
5.0
290
     0
  0
SCALE
  5
2AC
102
{ACAD_REACTORS
330
2A7
102
}
330
2A7
100
AcDbScale
 70
     0
300
1:8
140
1.0
141
8.0
290
     0
  0
SCALE
  5
2AD
102
{ACAD_REACTORS
330
2A7
102
}
330
2A7
100
AcDbScale
 70
     0
300
1:10
140
1.0
141
10.0
290
     0
  0
SCALE
  5
2AE
102
{ACAD_REACTORS
330
2A7
102
}
330
2A7
100
AcDbScale
 70
     0
300
1:16
140
1.0
141
16.0
290
     0
  0
SCALE
  5
2AF
102
{ACAD_REACTORS
330
2A7
102
}
330
2A7
100
AcDbScale
 70
     0
300
1:20
140
1.0
141
20.0
290
     0
  0
SCALE
  5
2B0
102
{ACAD_REACTORS
330
2A7
102
}
330
2A7
100
AcDbScale
 70
     0
300
1:30
140
1.0
141
30.0
290
     0
  0
SCALE
  5
2B1
102
{ACAD_REACTORS
330
2A7
102
}
330
2A7
100
AcDbScale
 70
     0
300
1:40
140
1.0
141
40.0
290
     0
  0
SCALE
  5
2B2
102
{ACAD_REACTORS
330
2A7
102
}
330
2A7
100
AcDbScale
 70
     0
300
1:50
140
1.0
141
50.0
290
     0
  0
SCALE
  5
2B3
102
{ACAD_REACTORS
330
2A7
102
}
330
2A7
100
AcDbScale
 70
     0
300
1:100
140
1.0
141
100.0
290
     0
  0
SCALE
  5
2B4
102
{ACAD_REACTORS
330
2A7
102
}
330
2A7
100
AcDbScale
 70
     0
300
2:1
140
2.0
141
1.0
290
     0
  0
SCALE
  5
2B5
102
{ACAD_REACTORS
330
2A7
102
}
330
2A7
100
AcDbScale
 70
     0
300
4:1
140
4.0
141
1.0
290
     0
  0
SCALE
  5
2B6
102
{ACAD_REACTORS
330
2A7
102
}
330
2A7
100
AcDbScale
 70
     0
300
8:1
140
8.0
141
1.0
290
     0
  0
SCALE
  5
2B7
102
{ACAD_REACTORS
330
2A7
102
}
330
2A7
100
AcDbScale
 70
     0
300
10:1
140
10.0
141
1.0
290
     0
  0
SCALE
  5
2B8
102
{ACAD_REACTORS
330
2A7
102
}
330
2A7
100
AcDbScale
 70
     0
300
100:1
140
100.0
141
1.0
290
     0
  0
SCALE
  5
2B9
102
{ACAD_REACTORS
330
2A7
102
}
330
2A7
100
AcDbScale
 70
     0
300
1/128" = 1'-0"
140
0.0078125
141
12.0
290
     0
  0
SCALE
  5
2BA
102
{ACAD_REACTORS
330
2A7
102
}
330
2A7
100
AcDbScale
 70
     0
300
1/64" = 1'-0"
140
0.015625
141
12.0
290
     0
  0
SCALE
  5
2BB
102
{ACAD_REACTORS
330
2A7
102
}
330
2A7
100
AcDbScale
 70
     0
300
1/32" = 1'-0"
140
0.03125
141
12.0
290
     0
  0
SCALE
  5
2BC
102
{ACAD_REACTORS
330
2A7
102
}
330
2A7
100
AcDbScale
 70
     0
300
1/16" = 1'-0"
140
0.0625
141
12.0
290
     0
  0
SCALE
  5
2BD
102
{ACAD_REACTORS
330
2A7
102
}
330
2A7
100
AcDbScale
 70
     0
300
3/32" = 1'-0"
140
0.09375
141
12.0
290
     0
  0
SCALE
  5
2BE
102
{ACAD_REACTORS
330
2A7
102
}
330
2A7
100
AcDbScale
 70
     0
300
1/8" = 1'-0"
140
0.125
141
12.0
290
     0
  0
SCALE
  5
2BF
102
{ACAD_REACTORS
330
2A7
102
}
330
2A7
100
AcDbScale
 70
     0
300
3/16" = 1'-0"
140
0.1875
141
12.0
290
     0
  0
SCALE
  5
2C0
102
{ACAD_REACTORS
330
2A7
102
}
330
2A7
100
AcDbScale
 70
     0
300
1/4" = 1'-0"
140
0.25
141
12.0
290
     0
  0
SCALE
  5
2C1
102
{ACAD_REACTORS
330
2A7
102
}
330
2A7
100
AcDbScale
 70
     0
300
3/8" = 1'-0"
140
0.375
141
12.0
290
     0
  0
SCALE
  5
2C2
102
{ACAD_REACTORS
330
2A7
102
}
330
2A7
100
AcDbScale
 70
     0
300
1/2" = 1'-0"
140
0.5
141
12.0
290
     0
  0
SCALE
  5
2C3
102
{ACAD_REACTORS
330
2A7
102
}
330
2A7
100
AcDbScale
 70
     0
300
3/4" = 1'-0"
140
0.75
141
12.0
290
     0
  0
SCALE
  5
2C4
102
{ACAD_REACTORS
330
2A7
102
}
330
2A7
100
AcDbScale
 70
     0
300
1" = 1'-0"
140
1.0
141
12.0
290
     0
  0
SCALE
  5
2C5
102
{ACAD_REACTORS
330
2A7
102
}
330
2A7
100
AcDbScale
 70
     0
300
1-1/2" = 1'-0"
140
1.5
141
12.0
290
     0
  0
SCALE
  5
2C6
102
{ACAD_REACTORS
330
2A7
102
}
330
2A7
100
AcDbScale
 70
     0
300
3" = 1'-0"
140
3.0
141
12.0
290
     0
  0
SCALE
  5
2C7
102
{ACAD_REACTORS
330
2A7
102
}
330
2A7
100
AcDbScale
 70
     0
300
6" = 1'-0"
140
6.0
141
12.0
290
     0
  0
SCALE
  5
2C8
102
{ACAD_REACTORS
330
2A7
102
}
330
2A7
100
AcDbScale
 70
     0
300
1'-0" = 1'-0"
140
12.0
141
12.0
290
     0
  0
TABLESTYLE
  5
2CA
102
{ACAD_REACTORS
330
2C9
102
}
102
{ACAD_XDICTIONARY
360
343
102
}
330
2C9
100
AcDbTableStyle
  3
Standard
 70
     0
 71
     0
 40
0.06
 41
0.06
280
     0
281
     0
  7
Standard
140
0.18
170
     2
 62
     0
 63
   257
283
     0
 90
        4
 91
        0
  1

274
    -2
284
     1
 64
     0
275
    -2
285
     1
 65
     0
276
    -2
286
     1
 66
     0
277
    -2
287
     1
 67
     0
278
    -2
288
     1
 68
     0
279
    -2
289
     1
 69
     0
  7
Standard
140
0.25
170
     5
 62
     0
 63
   257
283
     0
 90
        4
 91
        0
  1

274
    -2
284
     1
 64
     0
275
    -2
285
     1
 65
     0
276
    -2
286
     1
 66
     0
277
    -2
287
     1
 67
     0
278
    -2
288
     1
 68
     0
279
    -2
289
     1
 69
     0
  7
Standard
140
0.18
170
     5
 62
     0
 63
   257
283
     0
 90
        4
 91
        0
  1

274
    -2
284
     1
 64
     0
275
    -2
285
     1
 65
     0
276
    -2
286
     1
 66
     0
277
    -2
287
     1
 67
     0
278
    -2
288
     1
 68
     0
279
    -2
289
     1
 69
     0
  0
VISUALSTYLE
  5
28F
102
{ACAD_REACTORS
330
28A
102
}
330
28A
100
AcDbVisualStyle
  2
2dWireframe
 70
     4
177
     3
291
     0
 70
    58
 90
        0
176
     1
 90
        2
176
     1
 90
        0
176
     1
 90
        0
176
     1
 40
0.6
176
     1
 40
30.0
176
     1
 62
     7
420
 16777215
176
     1
 90
        1
176
     1
 90
        4
176
     1
 62
     7
176
     1
 62
   257
176
     1
 90
        1
176
     1
 90
        1
176
     1
 40
1.0
176
     1
 90
        0
176
     1
 62
   257
176
     1
 40
1.0
176
     1
 90
        1
176
     1
 90
        6
176
     1
 90
        2
176
     1
 62
     7
176
     1
 90
        5
176
     1
 90
        0
176
     1
 90
        0
176
     1
290
     0
176
     1
 90
        1
176
     1
 40
0.0
176
     1
 90
        0
176
     1
290
     1
176
     1
290
     1
176
     1
290
     0
176
     1
290
     0
176
     1
290
     0
176
     1
290
     0
176
     1
290
     0
176
     1
290
     0
176
     1
290
     0
176
     1
 90
       50
176
     1
 40
0.0
176
     1
 40
1.0
176
     1
 90
        0
176
     1
 62
   178
420
        0
176
     1
 90
       50
176
     1
 90
        3
176
     1
 62
     5
420
      255
176
     1
290
     0
176
     1
 90
       50
176
     1
 90
       50
176
     1
 90
       50
176
     1
290
     0
176
     1
 90
       50
176
     1
 62
   256
176
     0
 40
1.0
176
     0
 90
        2
176
     1
  1
strokes_ogs.tif
176
     1
290
     0
176
     1
 40
1.0
176
     1
 40
1.0
176
     1
  0
VISUALSTYLE
  5
292
102
{ACAD_REACTORS
330
28A
102
}
330
28A
100
AcDbVisualStyle
  2
Basic
 70
     7
177
     3
291
     1
 70
    58
 90
        1
176
     1
 90
        0
176
     1
 90
        1
176
     1
 90
        0
176
     1
 40
0.6
176
     1
 40
30.0
176
     1
 62
     7
420
 16777215
176
     1
 90
        0
176
     1
 90
        4
176
     1
 62
     7
176
     1
 62
   257
176
     1
 90
        1
176
     1
 90
        1
176
     1
 40
1.0
176
     1
 90
        8
176
     1
 62
     7
176
     1
 40
1.0
176
     1
 90
        1
176
     1
 90
        6
176
     1
 90
        2
176
     1
 62
     7
176
     1
 90
        5
176
     1
 90
        0
176
     1
 90
        0
176
     1
290
     0
176
     1
 90
        1
176
     1
 40
0.0
176
     1
 90
        0
176
     1
290
     0
176
     1
290
     1
176
     1
290
     1
176
     1
290
     0
176
     1
290
     0
176
     1
290
     0
176
     1
290
     0
176
     1
290
     0
176
     1
290
     0
176
     1
 90
       50
176
     1
 40
0.0
176
     1
 40
1.0
176
     1
 90
        0
176
     1
 62
   178
420
        0
176
     1
 90
       50
176
     1
 90
        3
176
     1
 62
     5
420
      255
176
     1
290
     0
176
     1
 90
       50
176
     1
 90
       50
176
     1
 90
       50
176
     1
290
     0
176
     1
 90
       50
176
     1
 62
   256
176
     0
 40
1.0
176
     0
 90
        2
176
     1
  1
strokes_ogs.tif
176
     1
290
     0
176
     1
 40
1.0
176
     1
 40
1.0
176
     1
  0
VISUALSTYLE
  5
296
102
{ACAD_REACTORS
330
28A
102
}
330
28A
100
AcDbVisualStyle
  2
Brighten
 70
    12
177
     3
291
     1
 70
    58
 90
        2
176
     1
 90
        2
176
     1
 90
        0
176
     1
 90
        0
176
     1
 40
0.6
176
     1
 40
30.0
176
     1
 62
     7
420
 16777215
176
     1
 90
        1
176
     1
 90
        4
176
     1
 62
     7
176
     1
 62
   257
176
     1
 90
        1
176
     1
 90
        1
176
     1
 40
1.0
176
     1
 90
        8
176
     1
 62
     7
176
     1
 40
1.0
176
     1
 90
        1
176
     1
 90
        6
176
     1
 90
        2
176
     1
 62
     7
176
     1
 90
        5
176
     1
 90
        0
176
     1
 90
        0
176
     1
290
     0
176
     1
 90
        1
176
     1
 40
50.0
176
     1
 90
        0
176
     1
290
     0
176
     1
290
     1
176
     1
290
     1
176
     1
290
     0
176
     1
290
     0
176
     1
290
     0
176
     1
290
     0
176
     1
290
     0
176
     1
290
     0
176
     1
 90
       50
176
     1
 40
0.0
176
     1
 40
1.0
176
     1
 90
        0
176
     1
 62
   178
420
        0
176
     1
 90
       50
176
     1
 90
        3
176
     1
 62
     5
420
      255
176
     1
290
     0
176
     1
 90
       50
176
     1
 90
       50
176
     1
 90
       50
176
     1
290
     0
176
     1
 90
       50
176
     1
 62
   256
176
     0
 40
1.0
176
     0
 90
        2
176
     1
  1
strokes_ogs.tif
176
     1
290
     0
176
     1
 40
1.0
176
     1
 40
1.0
176
     1
  0
VISUALSTYLE
  5
29A
102
{ACAD_REACTORS
330
28A
102
}
330
28A
100
AcDbVisualStyle
  2
ColorChange
 70
    16
177
     3
291
     1
 70
    58
 90
        2
176
     1
 90
        2
176
     1
 90
        3
176
     1
 90
        0
176
     1
 40
0.6
176
     1
 40
30.0
176
     1
 62
     8
420
  8421504
176
     1
 90
        1
176
     1
 90
        4
176
     1
 62
     7
176
     1
 62
   257
176
     1
 90
        1
176
     1
 90
        1
176
     1
 40
1.0
176
     1
 90
        8
176
     1
 62
     8
420
  8421504
176
     1
 40
1.0
176
     1
 90
        1
176
     1
 90
        6
176
     1
 90
        2
176
     1
 62
     7
176
     1
 90
        5
176
     1
 90
        0
176
     1
 90
        0
176
     1
290
     0
176
     1
 90
        1
176
     1
 40
0.0
176
     1
 90
        0
176
     1
290
     0
176
     1
290
     1
176
     1
290
     1
176
     1
290
     0
176
     1
290
     0
176
     1
290
     0
176
     1
290
     0
176
     1
290
     0
176
     1
290
     0
176
     1
 90
       50
176
     1
 40
0.0
176
     1
 40
1.0
176
     1
 90
        0
176
     1
 62
   178
420
        0
176
     1
 90
       50
176
     1
 90
        3
176
     1
 62
     5
420
      255
176
     1
290
     0
176
     1
 90
       50
176
     1
 90
       50
176
     1
 90
       50
176
     1
290
     0
176
     1
 90
       50
176
     1
 62
   256
176
     0
 40
1.0
176
     0
 90
        2
176
     1
  1
strokes_ogs.tif
176
     1
290
     0
176
     1
 40
1.0
176
     1
 40
1.0
176
     1
  0
VISUALSTYLE
  5
294
102
{ACAD_REACTORS
330
28A
102
}
330
28A
100
AcDbVisualStyle
  2
Conceptual
 70
     9
177
     3
291
     0
 70
    58
 90
        3
176
     1
 90
        2
176
     1
 90
        0
176
     1
 90
        0
176
     1
 40
0.6
176
     1
 40
30.0
176
     1
 62
     7
420
 16777215
176
     1
 90
        2
176
     1
 90
        2
176
     1
 62
     7
176
     1
 62
   257
176
     1
 90
        1
176
     1
 90
        1
176
     1
 40
179.0
176
     1
 90
        8
176
     1
 62
     7
176
     1
 40
1.0
176
     1
 90
        1
176
     1
 90
        6
176
     1
 90
        2
176
     1
 62
     7
176
     1
 90
        3
176
     1
 90
        0
176
     1
 90
        0
176
     1
290
     0
176
     1
 90
        1
176
     1
 40
0.0
176
     1
 90
        0
176
     1
290
     0
176
     1
290
     1
176
     1
290
     1
176
     1
290
     0
176
     1
290
     0
176
     1
290
     0
176
     1
290
     0
176
     1
290
     0
176
     1
290
     0
176
     1
 90
       50
176
     1
 40
0.0
176
     1
 40
1.0
176
     1
 90
        0
176
     1
 62
   178
420
        0
176
     1
 90
       50
176
     1
 90
        3
176
     1
 62
     5
420
      255
176
     1
290
     0
176
     1
 90
       50
176
     1
 90
       50
176
     1
 90
       50
176
     1
290
     0
176
     1
 90
       50
176
     1
 62
   256
176
     0
 40
1.0
176
     0
 90
        2
176
     1
  1
strokes_ogs.tif
176
     1
290
     0
176
     1
 40
1.0
176
     1
 40
1.0
176
     1
  0
VISUALSTYLE
  5
295
102
{ACAD_REACTORS
330
28A
102
}
330
28A
100
AcDbVisualStyle
  2
Dim
 70
    11
177
     3
291
     1
 70
    58
 90
        2
176
     1
 90
        2
176
     1
 90
        0
176
     1
 90
        0
176
     1
 40
0.6
176
     1
 40
30.0
176
     1
 62
     7
420
 16777215
176
     1
 90
        1
176
     1
 90
        4
176
     1
 62
     7
176
     1
 62
   257
176
     1
 90
        1
176
     1
 90
        1
176
     1
 40
1.0
176
     1
 90
        8
176
     1
 62
     7
176
     1
 40
1.0
176
     1
 90
        1
176
     1
 90
        6
176
     1
 90
        2
176
     1
 62
     7
176
     1
 90
        5
176
     1
 90
        0
176
     1
 90
        0
176
     1
290
     0
176
     1
 90
        1
176
     1
 40
-50.0
176
     1
 90
        0
176
     1
290
     0
176
     1
290
     1
176
     1
290
     1
176
     1
290
     0
176
     1
290
     0
176
     1
290
     0
176
     1
290
     0
176
     1
290
     0
176
     1
290
     0
176
     1
 90
       50
176
     1
 40
0.0
176
     1
 40
1.0
176
     1
 90
        0
176
     1
 62
   178
420
        0
176
     1
 90
       50
176
     1
 90
        3
176
     1
 62
     5
420
      255
176
     1
290
     0
176
     1
 90
       50
176
     1
 90
       50
176
     1
 90
       50
176
     1
290
     0
176
     1
 90
       50
176
     1
 62
   256
176
     0
 40
1.0
176
     0
 90
        2
176
     1
  1
strokes_ogs.tif
176
     1
290
     0
176
     1
 40
1.0
176
     1
 40
1.0
176
     1
  0
VISUALSTYLE
  5
29D
102
{ACAD_REACTORS
330
28A
102
}
330
28A
100
AcDbVisualStyle
  2
EdgeColorOff
 70
    22
177
     3
291
     1
 70
    58
 90
        2
176
     0
 90
        2
176
     0
 90
        0
176
     0
 90
        0
176
     0
 40
0.6
176
     0
 40
30.0
176
     0
 62
     7
420
 16777215
176
     0
 90
        1
176
     0
 90
        4
176
     0
 62
     7
176
     0
 62
   257
176
     0
 90
        1
176
     0
 90
        1
176
     0
 40
1.0
176
     0
 90
        8
176
     2
 62
     7
176
     0
 40
1.0
176
     0
 90
        1
176
     0
 90
        6
176
     0
 90
        2
176
     0
 62
     7
176
     0
 90
        5
176
     0
 90
        0
176
     0
 90
        0
176
     0
290
     0
176
     0
 90
        1
176
     0
 40
0.0
176
     0
 90
        0
176
     0
290
     0
176
     0
290
     1
176
     0
290
     1
176
     0
290
     0
176
     0
290
     0
176
     0
290
     0
176
     0
290
     0
176
     0
290
     0
176
     0
290
     0
176
     0
 90
       50
176
     0
 40
0.0
176
     0
 40
1.0
176
     0
 90
        0
176
     0
 62
   178
420
        0
176
     0
 90
       50
176
     0
 90
        3
176
     0
 62
     5
420
      255
176
     0
290
     0
176
     0
 90
       50
176
     0
 90
       50
176
     0
 90
       50
176
     0
290
     0
176
     0
 90
       50
176
     0
 62
   256
176
     0
 40
1.0
176
     0
 90
        2
176
     0
  1
strokes_ogs.tif
176
     0
290
     0
176
     0
 40
1.0
176
     0
 40
1.0
176
     0
  0
VISUALSTYLE
  5
299
102
{ACAD_REACTORS
330
28A
102
}
330
28A
100
AcDbVisualStyle
  2
Facepattern
 70
    15
177
     3
291
     1
 70
    58
 90
        2
176
     1
 90
        2
176
     1
 90
        0
176
     1
 90
        0
176
     1
 40
0.6
176
     1
 40
30.0
176
     1
 62
     7
420
 16777215
176
     1
 90
        1
176
     1
 90
        4
176
     1
 62
     7
176
     1
 62
   257
176
     1
 90
        1
176
     1
 90
        1
176
     1
 40
1.0
176
     1
 90
        8
176
     1
 62
     7
176
     1
 40
1.0
176
     1
 90
        1
176
     1
 90
        6
176
     1
 90
        2
176
     1
 62
     7
176
     1
 90
        5
176
     1
 90
        0
176
     1
 90
        0
176
     1
290
     0
176
     1
 90
        1
176
     1
 40
0.0
176
     1
 90
        0
176
     1
290
     0
176
     1
290
     1
176
     1
290
     1
176
     1
290
     0
176
     1
290
     0
176
     1
290
     0
176
     1
290
     0
176
     1
290
     0
176
     1
290
     0
176
     1
 90
       50
176
     1
 40
0.0
176
     1
 40
1.0
176
     1
 90
        0
176
     1
 62
   178
420
        0
176
     1
 90
       50
176
     1
 90
        3
176
     1
 62
     5
420
      255
176
     1
290
     0
176
     1
 90
       50
176
     1
 90
       50
176
     1
 90
       50
176
     1
290
     0
176
     1
 90
       50
176
     1
 62
   256
176
     0
 40
1.0
176
     0
 90
        2
176
     1
  1
strokes_ogs.tif
176
     1
290
     0
176
     1
 40
1.0
176
     1
 40
1.0
176
     1
  0
VISUALSTYLE
  5
28B
102
{ACAD_REACTORS
330
28A
102
}
330
28A
100
AcDbVisualStyle
  2
Flat
 70
     0
177
     3
291
     1
 70
    58
 90
        2
176
     1
 90
        1
176
     1
 90
        1
176
     1
 90
        2
176
     1
 40
0.6
176
     1
 40
30.0
176
     1
 62
     7
420
 16777215
176
     1
 90
        0
176
     1
 90
        0
176
     1
 62
     7
176
     1
 62
   257
176
     1
 90
        1
176
     1
 90
        1
176
     1
 40
1.0
176
     1
 90
        8
176
     1
 62
     7
176
     1
 40
1.0
176
     1
 90
        1
176
     1
 90
        6
176
     1
 90
        2
176
     1
 62
     7
176
     1
 90
        5
176
     1
 90
        0
176
     1
 90
        0
176
     1
290
     0
176
     1
 90
       13
176
     1
 40
0.0
176
     1
 90
        0
176
     1
290
     0
176
     1
290
     1
176
     1
290
     1
176
     1
290
     0
176
     1
290
     0
176
     1
290
     0
176
     1
290
     0
176
     1
290
     0
176
     1
290
     0
176
     1
 90
       50
176
     1
 40
0.0
176
     1
 40
1.0
176
     1
 90
        0
176
     1
 62
   178
420
        0
176
     1
 90
       50
176
     1
 90
        3
176
     1
 62
     5
420
      255
176
     1
290
     0
176
     1
 90
       50
176
     1
 90
       50
176
     1
 90
       50
176
     1
290
     0
176
     1
 90
       50
176
     1
 62
   256
176
     0
 40
1.0
176
     0
 90
        2
176
     1
  1
strokes_ogs.tif
176
     1
290
     0
176
     1
 40
1.0
176
     1
 40
1.0
176
     1
  0
VISUALSTYLE
  5
28C
102
{ACAD_REACTORS
330
28A
102
}
330
28A
100
AcDbVisualStyle
  2
FlatWithEdges
 70
     1
177
     3
291
     1
 70
    58
 90
        2
176
     1
 90
        1
176
     1
 90
        1
176
     1
 90
        2
176
     1
 40
0.6
176
     1
 40
30.0
176
     1
 62
     7
420
 16777215
176
     1
 90
        1
176
     1
 90
        0
176
     1
 62
     7
176
     1
 62
   257
176
     1
 90
        1
176
     1
 90
        1
176
     1
 40
1.0
176
     1
 90
        0
176
     1
 62
   257
176
     1
 40
1.0
176
     1
 90
        1
176
     1
 90
        6
176
     1
 90
        2
176
     1
 62
     7
176
     1
 90
        5
176
     1
 90
        0
176
     1
 90
        0
176
     1
290
     0
176
     1
 90
       13
176
     1
 40
0.0
176
     1
 90
        0
176
     1
290
     0
176
     1
290
     1
176
     1
290
     1
176
     1
290
     0
176
     1
290
     0
176
     1
290
     0
176
     1
290
     0
176
     1
290
     0
176
     1
290
     0
176
     1
 90
       50
176
     1
 40
0.0
176
     1
 40
1.0
176
     1
 90
        0
176
     1
 62
   178
420
        0
176
     1
 90
       50
176
     1
 90
        3
176
     1
 62
     5
420
      255
176
     1
290
     0
176
     1
 90
       50
176
     1
 90
       50
176
     1
 90
       50
176
     1
290
     0
176
     1
 90
       50
176
     1
 62
   256
176
     0
 40
1.0
176
     0
 90
        2
176
     1
  1
strokes_ogs.tif
176
     1
290
     0
176
     1
 40
1.0
176
     1
 40
1.0
176
     1
  0
VISUALSTYLE
  5
28D
102
{ACAD_REACTORS
330
28A
102
}
330
28A
100
AcDbVisualStyle
  2
Gouraud
 70
     2
177
     3
291
     1
 70
    58
 90
        2
176
     1
 90
        2
176
     1
 90
        1
176
     1
 90
        2
176
     1
 40
0.6
176
     1
 40
30.0
176
     1
 62
     7
420
 16777215
176
     1
 90
        0
176
     1
 90
        0
176
     1
 62
     7
176
     1
 62
   257
176
     1
 90
        1
176
     1
 90
        1
176
     1
 40
1.0
176
     1
 90
        0
176
     1
 62
     7
176
     1
 40
1.0
176
     1
 90
        1
176
     1
 90
        6
176
     1
 90
        2
176
     1
 62
     7
176
     1
 90
        5
176
     1
 90
        0
176
     1
 90
        0
176
     1
290
     0
176
     1
 90
       13
176
     1
 40
0.0
176
     1
 90
        0
176
     1
290
     0
176
     1
290
     1
176
     1
290
     1
176
     1
290
     0
176
     1
290
     0
176
     1
290
     0
176
     1
290
     0
176
     1
290
     0
176
     1
290
     0
176
     1
 90
       50
176
     1
 40
0.0
176
     1
 40
1.0
176
     1
 90
        0
176
     1
 62
   178
420
        0
176
     1
 90
       50
176
     1
 90
        3
176
     1
 62
     5
420
      255
176
     1
290
     0
176
     1
 90
       50
176
     1
 90
       50
176
     1
 90
       50
176
     1
290
     0
176
     1
 90
       50
176
     1
 62
   256
176
     0
 40
1.0
176
     0
 90
        2
176
     1
  1
strokes_ogs.tif
176
     1
290
     0
176
     1
 40
1.0
176
     1
 40
1.0
176
     1
  0
VISUALSTYLE
  5
28E
102
{ACAD_REACTORS
330
28A
102
}
330
28A
100
AcDbVisualStyle
  2
GouraudWithEdges
 70
     3
177
     3
291
     1
 70
    58
 90
        2
176
     1
 90
        2
176
     1
 90
        1
176
     1
 90
        2
176
     1
 40
0.6
176
     1
 40
30.0
176
     1
 62
     7
420
 16777215
176
     1
 90
        1
176
     1
 90
        0
176
     1
 62
     7
176
     1
 62
   257
176
     1
 90
        1
176
     1
 90
        1
176
     1
 40
1.0
176
     1
 90
        0
176
     1
 62
   257
176
     1
 40
1.0
176
     1
 90
        1
176
     1
 90
        6
176
     1
 90
        2
176
     1
 62
     7
176
     1
 90
        5
176
     1
 90
        0
176
     1
 90
        0
176
     1
290
     0
176
     1
 90
       13
176
     1
 40
0.0
176
     1
 90
        0
176
     1
290
     0
176
     1
290
     1
176
     1
290
     1
176
     1
290
     0
176
     1
290
     0
176
     1
290
     0
176
     1
290
     0
176
     1
290
     0
176
     1
290
     0
176
     1
 90
       50
176
     1
 40
0.0
176
     1
 40
1.0
176
     1
 90
        0
176
     1
 62
   178
420
        0
176
     1
 90
       50
176
     1
 90
        3
176
     1
 62
     5
420
      255
176
     1
290
     0
176
     1
 90
       50
176
     1
 90
       50
176
     1
 90
       50
176
     1
290
     0
176
     1
 90
       50
176
     1
 62
   256
176
     0
 40
1.0
176
     0
 90
        2
176
     1
  1
strokes_ogs.tif
176
     1
290
     0
176
     1
 40
1.0
176
     1
 40
1.0
176
     1
  0
VISUALSTYLE
  5
291
102
{ACAD_REACTORS
330
28A
102
}
330
28A
100
AcDbVisualStyle
  2
Hidden
 70
     6
177
     3
291
     0
 70
    58
 90
        1
176
     1
 90
        2
176
     1
 90
        2
176
     1
 90
        0
176
     1
 40
0.6
176
     1
 40
30.0
176
     1
 62
     7
420
 16777215
176
     1
 90
        2
176
     1
 90
        2
176
     1
 62
     7
176
     1
 62
   257
176
     1
 90
        2
176
     1
 90
        1
176
     1
 40
40.0
176
     1
 90
        0
176
     1
 62
   257
176
     1
 40
1.0
176
     1
 90
        1
176
     1
 90
        6
176
     1
 90
        2
176
     1
 62
     7
176
     1
 90
        3
176
     1
 90
        0
176
     1
 90
        0
176
     1
290
     0
176
     1
 90
        1
176
     1
 40
0.0
176
     1
 90
        0
176
     1
290
     0
176
     1
290
     1
176
     1
290
     1
176
     1
290
     0
176
     1
290
     0
176
     1
290
     0
176
     1
290
     0
176
     1
290
     0
176
     1
290
     0
176
     1
 90
       50
176
     1
 40
0.0
176
     1
 40
1.0
176
     1
 90
        0
176
     1
 62
   178
420
        0
176
     1
 90
       50
176
     1
 90
        3
176
     1
 62
     5
420
      255
176
     1
290
     0
176
     1
 90
       50
176
     1
 90
       50
176
     1
 90
       50
176
     1
290
     0
176
     1
 90
       50
176
     1
 62
   256
176
     0
 40
1.0
176
     0
 90
        2
176
     1
  1
strokes_ogs.tif
176
     1
290
     0
176
     1
 40
1.0
176
     1
 40
1.0
176
     1
  0
VISUALSTYLE
  5
29B
102
{ACAD_REACTORS
330
28A
102
}
330
28A
100
AcDbVisualStyle
  2
JitterOff
 70
    20
177
     3
291
     1
 70
    58
 90
        2
176
     0
 90
        2
176
     0
 90
        0
176
     0
 90
        0
176
     0
 40
0.6
176
     0
 40
30.0
176
     0
 62
     7
420
 16777215
176
     0
 90
        1
176
     0
 90
        4
176
     0
 62
     7
176
     0
 62
   257
176
     0
 90
        1
176
     0
 90
        1
176
     0
 40
1.0
176
     0
 90
       10
176
     2
 62
     7
176
     0
 40
1.0
176
     0
 90
        1
176
     0
 90
        6
176
     0
 90
        2
176
     0
 62
     7
176
     0
 90
        5
176
     0
 90
        0
176
     0
 90
        0
176
     0
290
     0
176
     0
 90
        1
176
     0
 40
0.0
176
     0
 90
        0
176
     0
290
     0
176
     0
290
     1
176
     0
290
     1
176
     0
290
     0
176
     0
290
     0
176
     0
290
     0
176
     0
290
     0
176
     0
290
     0
176
     0
290
     0
176
     0
 90
       50
176
     0
 40
0.0
176
     0
 40
1.0
176
     0
 90
        0
176
     0
 62
   178
420
        0
176
     0
 90
       50
176
     0
 90
        3
176
     0
 62
     5
420
      255
176
     0
290
     0
176
     0
 90
       50
176
     0
 90
       50
176
     0
 90
       50
176
     0
290
     0
176
     0
 90
       50
176
     0
 62
   256
176
     0
 40
1.0
176
     0
 90
        2
176
     0
  1
strokes_ogs.tif
176
     0
290
     0
176
     0
 40
1.0
176
     0
 40
1.0
176
     0
  0
VISUALSTYLE
  5
298
102
{ACAD_REACTORS
330
28A
102
}
330
28A
100
AcDbVisualStyle
  2
Linepattern
 70
    14
177
     3
291
     1
 70
    58
 90
        2
176
     1
 90
        2
176
     1
 90
        0
176
     1
 90
        0
176
     1
 40
0.6
176
     1
 40
30.0
176
     1
 62
     7
420
 16777215
176
     1
 90
        1
176
     1
 90
        4
176
     1
 62
     7
176
     1
 62
   257
176
     1
 90
        7
176
     1
 90
        7
176
     1
 40
1.0
176
     1
 90
        8
176
     1
 62
     7
176
     1
 40
1.0
176
     1
 90
        1
176
     1
 90
        6
176
     1
 90
        2
176
     1
 62
     7
176
     1
 90
        5
176
     1
 90
        0
176
     1
 90
        0
176
     1
290
     0
176
     1
 90
        1
176
     1
 40
0.0
176
     1
 90
        0
176
     1
290
     0
176
     1
290
     1
176
     1
290
     1
176
     1
290
     0
176
     1
290
     0
176
     1
290
     0
176
     1
290
     0
176
     1
290
     0
176
     1
290
     0
176
     1
 90
       50
176
     1
 40
0.0
176
     1
 40
1.0
176
     1
 90
        0
176
     1
 62
   178
420
        0
176
     1
 90
       50
176
     1
 90
        3
176
     1
 62
     5
420
      255
176
     1
290
     0
176
     1
 90
       50
176
     1
 90
       50
176
     1
 90
       50
176
     1
290
     0
176
     1
 90
       50
176
     1
 62
   256
176
     0
 40
1.0
176
     0
 90
        2
176
     1
  1
strokes_ogs.tif
176
     1
290
     0
176
     1
 40
1.0
176
     1
 40
1.0
176
     1
  0
VISUALSTYLE
  5
29C
102
{ACAD_REACTORS
330
28A
102
}
330
28A
100
AcDbVisualStyle
  2
OverhangOff
 70
    21
177
     3
291
     1
 70
    58
 90
        2
176
     0
 90
        2
176
     0
 90
        0
176
     0
 90
        0
176
     0
 40
0.6
176
     0
 40
30.0
176
     0
 62
     7
420
 16777215
176
     0
 90
        1
176
     0
 90
        4
176
     0
 62
     7
176
     0
 62
   257
176
     0
 90
        1
176
     0
 90
        1
176
     0
 40
1.0
176
     0
 90
        9
176
     2
 62
     7
176
     0
 40
1.0
176
     0
 90
        1
176
     0
 90
        6
176
     0
 90
        2
176
     0
 62
     7
176
     0
 90
        5
176
     0
 90
        0
176
     0
 90
        0
176
     0
290
     0
176
     0
 90
        1
176
     0
 40
0.0
176
     0
 90
        0
176
     0
290
     0
176
     0
290
     1
176
     0
290
     1
176
     0
290
     0
176
     0
290
     0
176
     0
290
     0
176
     0
290
     0
176
     0
290
     0
176
     0
290
     0
176
     0
 90
       50
176
     0
 40
0.0
176
     0
 40
1.0
176
     0
 90
        0
176
     0
 62
   178
420
        0
176
     0
 90
       50
176
     0
 90
        3
176
     0
 62
     5
420
      255
176
     0
290
     0
176
     0
 90
       50
176
     0
 90
       50
176
     0
 90
       50
176
     0
290
     0
176
     0
 90
       50
176
     0
 62
   256
176
     0
 40
1.0
176
     0
 90
        2
176
     0
  1
strokes_ogs.tif
176
     0
290
     0
176
     0
 40
1.0
176
     0
 40
1.0
176
     0
  0
VISUALSTYLE
  5
293
102
{ACAD_REACTORS
330
28A
102
}
330
28A
100
AcDbVisualStyle
  2
Realistic
 70
     8
177
     3
291
     0
 70
    58
 90
        2
176
     1
 90
        3
176
     1
 90
        0
176
     1
 90
        2
176
     1
 40
0.6
176
     1
 40
30.0
176
     1
 62
     7
420
 16777215
176
     1
 90
        0
176
     1
 90
        0
176
     1
 62
     7
176
     1
 62
   257
176
     1
 90
        1
176
     1
 90
        1
176
     1
 40
1.0
176
     1
 90
        8
176
     1
 62
   257
176
     1
 40
1.0
176
     1
 90
        1
176
     1
 90
        6
176
     1
 90
        2
176
     1
 62
     7
176
     1
 90
        3
176
     1
 90
        0
176
     1
 90
        0
176
     1
290
     0
176
     1
 90
       13
176
     1
 40
0.0
176
     1
 90
        0
176
     1
290
     0
176
     1
290
     1
176
     1
290
     1
176
     1
290
     0
176
     1
290
     0
176
     1
290
     0
176
     1
290
     0
176
     1
290
     0
176
     1
290
     0
176
     1
 90
       50
176
     1
 40
0.0
176
     1
 40
1.0
176
     1
 90
        0
176
     1
 62
   178
420
        0
176
     1
 90
       50
176
     1
 90
        3
176
     1
 62
     5
420
      255
176
     1
290
     0
176
     1
 90
       50
176
     1
 90
       50
176
     1
 90
       50
176
     1
290
     0
176
     1
 90
       50
176
     1
 62
   256
176
     0
 40
1.0
176
     0
 90
        2
176
     1
  1
strokes_ogs.tif
176
     1
290
     0
176
     1
 40
1.0
176
     1
 40
1.0
176
     1
  0
VISUALSTYLE
  5
2A2
102
{ACAD_REACTORS
330
28A
102
}
330
28A
100
AcDbVisualStyle
  2
Shaded
 70
    27
177
     3
291
     0
 70
    58
 90
        2
176
     1
 90
        2
176
     1
 90
        1
176
     1
 90
        2
176
     1
 40
0.6
176
     1
 40
30.0
176
     1
 62
     7
420
 16777215
176
     1
 90
        0
176
     1
 90
        4
176
     1
 62
     7
176
     1
 62
   257
176
     1
 90
        1
176
     1
 90
        1
176
     1
 40
1.0
176
     1
 90
        8
176
     1
 62
   257
176
     1
 40
1.0
176
     1
 90
        1
176
     1
 90
        6
176
     1
 90
        2
176
     1
 62
     8
420
  7895160
176
     1
 90
        3
176
     1
 90
        0
176
     1
 90
        0
176
     1
290
     0
176
     1
 90
        5
176
     1
 40
0.0
176
     1
 90
        0
176
     1
290
     0
176
     1
290
     1
176
     1
290
     1
176
     1
290
     0
176
     1
290
     0
176
     1
290
     0
176
     1
290
     0
176
     1
290
     0
176
     1
290
     0
176
     1
 90
       50
176
     1
 40
0.0
176
     1
 40
1.0
176
     1
 90
        0
176
     1
 62
   178
420
        0
176
     1
 90
       50
176
     1
 90
        3
176
     1
 62
     5
420
      255
176
     1
290
     0
176
     1
 90
       50
176
     1
 90
       50
176
     1
 90
       50
176
     1
290
     0
176
     1
 90
       50
176
     1
 62
   256
176
     0
 40
1.0
176
     0
 90
        2
176
     1
  1
strokes_ogs.tif
176
     1
290
     0
176
     1
 40
1.0
176
     1
 40
1.0
176
     1
  0
VISUALSTYLE
  5
2A1
102
{ACAD_REACTORS
330
28A
102
}
330
28A
100
AcDbVisualStyle
  2
Shaded with edges
 70
    26
177
     3
291
     0
 70
    58
 90
        2
176
     1
 90
        2
176
     1
 90
        1
176
     1
 90
        2
176
     1
 40
0.6
176
     1
 40
30.0
176
     1
 62
     7
420
 16777215
176
     1
 90
        1
176
     1
 90
       10
176
     1
 62
     7
176
     1
 62
   257
176
     1
 90
        2
176
     1
 90
        1
176
     1
 40
1.0
176
     1
 90
        8
176
     1
 62
   257
176
     1
 40
1.0
176
     1
 90
        1
176
     1
 90
        6
176
     1
 90
        2
176
     1
 62
     7
176
     1
 90
        3
176
     1
 90
        0
176
     1
 90
        0
176
     1
290
     0
176
     1
 90
        5
176
     1
 40
0.0
176
     1
 90
        0
176
     1
290
     0
176
     1
290
     1
176
     1
290
     1
176
     1
290
     0
176
     1
290
     0
176
     1
290
     0
176
     1
290
     0
176
     1
290
     0
176
     1
290
     0
176
     1
 90
       50
176
     1
 40
0.0
176
     1
 40
1.0
176
     1
 90
        0
176
     1
 62
   178
420
        0
176
     1
 90
       50
176
     1
 90
        3
176
     1
 62
     5
420
      255
176
     1
290
     0
176
     1
 90
       50
176
     1
 90
       50
176
     1
 90
       50
176
     1
290
     0
176
     1
 90
       50
176
     1
 62
   256
176
     0
 40
1.0
176
     0
 90
        2
176
     1
  1
strokes_ogs.tif
176
     1
290
     0
176
     1
 40
1.0
176
     1
 40
1.0
176
     1
  0
VISUALSTYLE
  5
29E
102
{ACAD_REACTORS
330
28A
102
}
330
28A
100
AcDbVisualStyle
  2
Shades of Gray
 70
    23
177
     3
291
     0
 70
    58
 90
        2
176
     1
 90
        2
176
     1
 90
        3
176
     1
 90
        0
176
     1
 40
0.6
176
     1
 40
30.0
176
     1
 62
     7
420
 16777215
176
     1
 90
        2
176
     1
 90
        2
176
     1
 62
     7
176
     1
 62
     7
176
     1
 90
        1
176
     1
 90
        1
176
     1
 40
40.0
176
     1
 90
        8
176
     1
 62
     7
176
     1
 40
1.0
176
     1
 90
        1
176
     1
 90
        6
176
     1
 90
        2
176
     1
 62
     7
176
     1
 90
        3
176
     1
 90
        0
176
     1
 90
        0
176
     1
290
     0
176
     1
 90
        1
176
     1
 40
0.0
176
     1
 90
        0
176
     1
290
     0
176
     1
290
     1
176
     1
290
     1
176
     1
290
     0
176
     1
290
     0
176
     1
290
     0
176
     1
290
     0
176
     1
290
     0
176
     1
290
     0
176
     1
 90
       50
176
     1
 40
0.0
176
     1
 40
1.0
176
     1
 90
        0
176
     1
 62
   178
420
        0
176
     1
 90
       50
176
     1
 90
        3
176
     1
 62
     5
420
      255
176
     1
290
     0
176
     1
 90
       50
176
     1
 90
       50
176
     1
 90
       50
176
     1
290
     0
176
     1
 90
       50
176
     1
 62
   256
176
     0
 40
1.0
176
     0
 90
        2
176
     1
  1
strokes_ogs.tif
176
     1
290
     0
176
     1
 40
1.0
176
     1
 40
1.0
176
     1
  0
VISUALSTYLE
  5
29F
102
{ACAD_REACTORS
330
28A
102
}
330
28A
100
AcDbVisualStyle
  2
Sketchy
 70
    24
177
     3
291
     0
 70
    58
 90
        1
176
     1
 90
        2
176
     1
 90
        2
176
     1
 90
        0
176
     1
 40
0.6
176
     1
 40
30.0
176
     1
 62
     7
420
 16777215
176
     1
 90
        2
176
     1
 90
        2
176
     1
 62
     7
176
     1
 62
     7
176
     1
 90
        1
176
     1
 90
        1
176
     1
 40
40.0
176
     1
 90
       11
176
     1
 62
     7
176
     1
 40
1.0
176
     1
 90
        1
176
     1
 90
        6
176
     1
 90
        2
176
     1
 62
     7
176
     1
 90
        6
176
     1
 90
        0
176
     1
 90
        0
176
     1
290
     0
176
     1
 90
        1
176
     1
 40
0.0
176
     1
 90
        0
176
     1
290
     0
176
     1
290
     1
176
     1
290
     1
176
     1
290
     0
176
     1
290
     0
176
     1
290
     0
176
     1
290
     0
176
     1
290
     0
176
     1
290
     0
176
     1
 90
       50
176
     1
 40
0.0
176
     1
 40
1.0
176
     1
 90
        0
176
     1
 62
   178
420
        0
176
     1
 90
       50
176
     1
 90
        3
176
     1
 62
     5
420
      255
176
     1
290
     0
176
     1
 90
       50
176
     1
 90
       50
176
     1
 90
       50
176
     1
290
     0
176
     1
 90
       50
176
     1
 62
   256
176
     0
 40
1.0
176
     0
 90
        2
176
     1
  1
strokes_ogs.tif
176
     1
290
     0
176
     1
 40
1.0
176
     1
 40
1.0
176
     1
  0
VISUALSTYLE
  5
297
102
{ACAD_REACTORS
330
28A
102
}
330
28A
100
AcDbVisualStyle
  2
Thicken
 70
    13
177
     3
291
     1
 70
    58
 90
        2
176
     1
 90
        2
176
     1
 90
        0
176
     1
 90
        0
176
     1
 40
0.6
176
     1
 40
30.0
176
     1
 62
     7
420
 16777215
176
     1
 90
        1
176
     1
 90
        4
176
     1
 62
     7
176
     1
 62
   257
176
     1
 90
        1
176
     1
 90
        1
176
     1
 40
1.0
176
     1
 90
       12
176
     1
 62
     7
176
     1
 40
1.0
176
     1
 90
        1
176
     1
 90
        6
176
     1
 90
        2
176
     1
 62
     7
176
     1
 90
        5
176
     1
 90
        0
176
     1
 90
        0
176
     1
290
     0
176
     1
 90
        1
176
     1
 40
0.0
176
     1
 90
        0
176
     1
290
     0
176
     1
290
     1
176
     1
290
     1
176
     1
290
     0
176
     1
290
     0
176
     1
290
     0
176
     1
290
     0
176
     1
290
     0
176
     1
290
     0
176
     1
 90
       50
176
     1
 40
0.0
176
     1
 40
1.0
176
     1
 90
        0
176
     1
 62
   178
420
        0
176
     1
 90
       50
176
     1
 90
        3
176
     1
 62
     5
420
      255
176
     1
290
     0
176
     1
 90
       50
176
     1
 90
       50
176
     1
 90
       50
176
     1
290
     0
176
     1
 90
       50
176
     1
 62
   256
176
     0
 40
1.0
176
     0
 90
        2
176
     1
  1
strokes_ogs.tif
176
     1
290
     0
176
     1
 40
1.0
176
     1
 40
1.0
176
     1
  0
VISUALSTYLE
  5
290
102
{ACAD_REACTORS
330
28A
102
}
330
28A
100
AcDbVisualStyle
  2
Wireframe
 70
     5
177
     3
291
     0
 70
    58
 90
        0
176
     1
 90
        2
176
     1
 90
        0
176
     1
 90
        0
176
     1
 40
0.6
176
     1
 40
30.0
176
     1
 62
     7
420
 16777215
176
     1
 90
        1
176
     1
 90
        4
176
     1
 62
     7
176
     1
 62
   257
176
     1
 90
        1
176
     1
 90
        1
176
     1
 40
1.0
176
     1
 90
        0
176
     1
 62
   257
176
     1
 40
1.0
176
     1
 90
        1
176
     1
 90
        6
176
     1
 90
        2
176
     1
 62
     7
176
     1
 90
        3
176
     1
 90
        0
176
     1
 90
        0
176
     1
290
     0
176
     1
 90
        1
176
     1
 40
0.0
176
     1
 90
        0
176
     1
290
     0
176
     1
290
     1
176
     1
290
     1
176
     1
290
     0
176
     1
290
     0
176
     1
290
     0
176
     1
290
     0
176
     1
290
     0
176
     1
290
     0
176
     1
 90
       50
176
     1
 40
0.0
176
     1
 40
1.0
176
     1
 90
        0
176
     1
 62
   178
420
        0
176
     1
 90
       50
176
     1
 90
        3
176
     1
 62
     5
420
      255
176
     1
290
     0
176
     1
 90
       50
176
     1
 90
       50
176
     1
 90
       50
176
     1
290
     0
176
     1
 90
       50
176
     1
 62
   256
176
     0
 40
1.0
176
     0
 90
        2
176
     1
  1
strokes_ogs.tif
176
     1
290
     0
176
     1
 40
1.0
176
     1
 40
1.0
176
     1
  0
VISUALSTYLE
  5
2A0
102
{ACAD_REACTORS
330
28A
102
}
330
28A
100
AcDbVisualStyle
  2
X-Ray
 70
    25
177
     3
291
     0
 70
    58
 90
        2
176
     1
 90
        2
176
     1
 90
        1
176
     1
 90
        1
176
     1
 40
0.5
176
     1
 40
30.0
176
     1
 62
     7
420
 16777215
176
     1
 90
        1
176
     1
 90
        0
176
     1
 62
     7
176
     1
 62
   257
176
     1
 90
        1
176
     1
 90
        1
176
     1
 40
1.0
176
     1
 90
        8
176
     1
 62
     7
176
     1
 40
1.0
176
     1
 90
        1
176
     1
 90
        6
176
     1
 90
        2
176
     1
 62
     7
176
     1
 90
        3
176
     1
 90
        0
176
     1
 90
        0
176
     1
290
     0
176
     1
 90
       13
176
     1
 40
0.0
176
     1
 90
        0
176
     1
290
     0
176
     1
290
     1
176
     1
290
     1
176
     1
290
     0
176
     1
290
     0
176
     1
290
     0
176
     1
290
     0
176
     1
290
     0
176
     1
290
     0
176
     1
 90
       50
176
     1
 40
0.0
176
     1
 40
1.0
176
     1
 90
        0
176
     1
 62
   178
420
        0
176
     1
 90
       50
176
     1
 90
        3
176
     1
 62
     5
420
      255
176
     1
290
     0
176
     1
 90
       50
176
     1
 90
       50
176
     1
 90
       50
176
     1
290
     0
176
     1
 90
       50
176
     1
 62
   256
176
     0
 40
1.0
176
     0
 90
        2
176
     1
  1
strokes_ogs.tif
176
     1
290
     0
176
     1
 40
1.0
176
     1
 40
1.0
176
     1
  0
DICTIONARYVAR
  5
342
102
{ACAD_REACTORS
330
341
102
}
330
341
100
DictionaryVariables
280
     0
  1
1:1
  0
DICTIONARYVAR
  5
347
102
{ACAD_REACTORS
330
341
102
}
330
341
100
DictionaryVariables
280
     0
  1
Standard
  0
DICTIONARYVAR
  5
346
102
{ACAD_REACTORS
330
341
102
}
330
341
100
DictionaryVariables
280
     0
  1
Standard
  0
XRECORD
  5
2D1
102
{ACAD_REACTORS
330
2CF
102
}
330
2CF
100
AcDbXrecord
280
     1
1000
#ffffff
  0
XRECORD
  5
2D2
102
{ACAD_REACTORS
330
2CF
102
}
330
2CF
100
AcDbXrecord
280
     1
1000
FullColor
  0
XRECORD
  5
2D3
102
{ACAD_REACTORS
330
2CF
102
}
330
2CF
100
AcDbXrecord
280
     1
290
     1
  0
XRECORD
  5
2D4
102
{ACAD_REACTORS
330
2CF
102
}
330
2CF
100
AcDbXrecord
280
     1
290
     1
  0
XRECORD
  5
2D5
102
{ACAD_REACTORS
330
2CF
102
}
330
2CF
100
AcDbXrecord
280
     1
290
     1
  0
XRECORD
  5
2D6
102
{ACAD_REACTORS
330
2CF
102
}
330
2CF
100
AcDbXrecord
280
     1
290
     1
  0
XRECORD
  5
2D7
102
{ACAD_REACTORS
330
2CF
102
}
330
2CF
100
AcDbXrecord
280
     1
1000
auto
  0
XRECORD
  5
2D8
102
{ACAD_REACTORS
330
2CF
102
}
330
2CF
100
AcDbXrecord
280
     1
1000
auto
  0
XRECORD
  5
2D9
102
{ACAD_REACTORS
330
2CF
102
}
330
2CF
100
AcDbXrecord
280
     1
1000
auto
  0
XRECORD
  5
2DA
102
{ACAD_REACTORS
330
2CF
102
}
330
2CF
100
AcDbXrecord
280
     1
1000
auto
  0
XRECORD
  5
2DB
102
{ACAD_REACTORS
330
2CF
102
}
330
2CF
100
AcDbXrecord
280
     1
1000
auto
  0
XRECORD
  5
2DC
102
{ACAD_REACTORS
330
2CF
102
}
330
2CF
100
AcDbXrecord
280
     1
1000
auto
  0
XRECORD
  5
2DD
102
{ACAD_REACTORS
330
2CF
102
}
330
2CF
100
AcDbXrecord
280
     1
1000
auto
  0
XRECORD
  5
2DE
102
{ACAD_REACTORS
330
2CF
102
}
330
2CF
100
AcDbXrecord
280
     1
1000
auto
  0
XRECORD
  5
2DF
102
{ACAD_REACTORS
330
2CF
102
}
330
2CF
100
AcDbXrecord
280
     1
290
     0
  0
XRECORD
  5
2E0
102
{ACAD_REACTORS
330
2CF
102
}
330
2CF
100
AcDbXrecord
280
     1
290
     0
  0
XRECORD
  5
2E1
102
{ACAD_REACTORS
330
2CF
102
}
330
2CF
100
AcDbXrecord
280
     1
290
     0
  0
XRECORD
  5
2E2
102
{ACAD_REACTORS
330
2CF
102
}
330
2CF
100
AcDbXrecord
280
     1
290
     0
  0
XRECORD
  5
2E3
102
{ACAD_REACTORS
330
2CF
102
}
330
2CF
100
AcDbXrecord
280
     1
 90
        0
  0
XRECORD
  5
2E4
102
{ACAD_REACTORS
330
2CF
102
}
330
2CF
100
AcDbXrecord
280
     1
 90
        0
  0
XRECORD
  5
2E5
102
{ACAD_REACTORS
330
2CF
102
}
330
2CF
100
AcDbXrecord
280
     1
 90
        0
  0
XRECORD
  5
2E6
102
{ACAD_REACTORS
330
2CF
102
}
330
2CF
100
AcDbXrecord
280
     1
 90
        0
  0
XRECORD
  5
2E7
102
{ACAD_REACTORS
330
2CF
102
}
330
2CF
100
AcDbXrecord
280
     1
1000
auto
  0
XRECORD
  5
2E8
102
{ACAD_REACTORS
330
2CF
102
}
330
2CF
100
AcDbXrecord
280
     1
1000
auto
  0
XRECORD
  5
2E9
102
{ACAD_REACTORS
330
2CF
102
}
330
2CF
100
AcDbXrecord
280
     1
1000
auto
  0
XRECORD
  5
2EA
102
{ACAD_REACTORS
330
2CF
102
}
330
2CF
100
AcDbXrecord
280
     1
1000
auto
  0
XRECORD
  5
2EB
102
{ACAD_REACTORS
330
2CF
102
}
330
2CF
100
AcDbXrecord
280
     1
1000
auto
  0
XRECORD
  5
2EC
102
{ACAD_REACTORS
330
2CF
102
}
330
2CF
100
AcDbXrecord
280
     1
1000
auto
  0
XRECORD
  5
2ED
102
{ACAD_REACTORS
330
2CF
102
}
330
2CF
100
AcDbXrecord
280
     1
1000
auto
  0
XRECORD
  5
2EE
102
{ACAD_REACTORS
330
2CF
102
}
330
2CF
100
AcDbXrecord
280
     1
1000
auto
  0
XRECORD
  5
2EF
102
{ACAD_REACTORS
330
2CF
102
}
330
2CF
100
AcDbXrecord
280
     1
 90
        1
  0
XRECORD
  5
2F0
102
{ACAD_REACTORS
330
2CF
102
}
330
2CF
100
AcDbXrecord
280
     1
 40
10.0
  0
XRECORD
  5
2F1
102
{ACAD_REACTORS
330
2CF
102
}
330
2CF
100
AcDbXrecord
280
     1
 40
10.0
  0
XRECORD
  5
2F2
102
{ACAD_REACTORS
330
2CF
102
}
330
2CF
100
AcDbXrecord
280
     1
 40
10.0
  0
XRECORD
  5
2F3
102
{ACAD_REACTORS
330
2CF
102
}
330
2CF
100
AcDbXrecord
280
     1
 40
10.0
  0
XRECORD
  5
2F4
102
{ACAD_REACTORS
330
2CF
102
}
330
2CF
100
AcDbXrecord
280
     1
290
     0
  0
XRECORD
  5
2F5
102
{ACAD_REACTORS
330
2CF
102
}
330
2CF
100
AcDbXrecord
280
     1
 90
        1
  0
XRECORD
  5
2F6
102
{ACAD_REACTORS
330
2CF
102
}
330
2CF
100
AcDbXrecord
280
     1
 40
0.0
  0
XRECORD
  5
2F7
102
{ACAD_REACTORS
330
2CF
102
}
330
2CF
100
AcDbXrecord
280
     1
 40
0.0
  0
XRECORD
  5
2F8
102
{ACAD_REACTORS
330
2CF
102
}
330
2CF
100
AcDbXrecord
280
     1
1000
Portrait
  0
XRECORD
  5
2F9
102
{ACAD_REACTORS
330
2CF
102
}
330
2CF
100
AcDbXrecord
280
     1
 40
279.4
  0
XRECORD
  5
2FA
102
{ACAD_REACTORS
330
2CF
102
}
330
2CF
100
AcDbXrecord
280
     1
 40
215.9
  0
XRECORD
  5
2FB
102
{ACAD_REACTORS
330
2CF
102
}
330
2CF
100
AcDbXrecord
280
     1
1000
1:1
  0
XRECORD
  5
2FC
102
{ACAD_REACTORS
330
2CF
102
}
330
2CF
100
AcDbXrecord
280
     1
290
     1
  0
XRECORD
  5
2FD
102
{ACAD_REACTORS
330
2CF
102
}
330
2CF
100
AcDbXrecord
280
     1
1000
3.16.4
  0
XRECORD
  5
2FE
102
{ACAD_REACTORS
330
2CF
102
}
330
2CF
100
AcDbXrecord
280
     1
 90
        4
  0
XRECORD
  5
2FF
102
{ACAD_REACTORS
330
2CF
102
}
330
2CF
100
AcDbXrecord
280
     1
  0
XRECORD
  5
300
102
{ACAD_REACTORS
330
2CF
102
}
330
2CF
100
AcDbXrecord
280
     1
 40
143.8305685487632
  0
XRECORD
  5
301
102
{ACAD_REACTORS
330
2CF
102
}
330
2CF
100
AcDbXrecord
280
     1
 40
197.0381606301469
  0
DICTIONARY
  5
343
330
2CA
100
AcDbDictionary
280
     1
281
     1
  3
ACAD_ROUNDTRIP_2008_TABLESTYLE_CELLSTYLEMAP
360
344
  0
CELLSTYLEMAP
  5
344
102
{ACAD_REACTORS
330
343
102
}
330
343
100
AcDbCellStyleMap
 90
        3
300
CELLSTYLE
  1
TABLEFORMAT_BEGIN
 90
        5
170
     1
 91
        0
 92
    32768
 62
   257
 93
        1
300
CONTENTFORMAT
  1
CONTENTFORMAT_BEGIN
 90
        0
 91
        0
 92
        4
 93
        0
300

 40
0.0
140
1.0
 94
        5
 62
     0
340
272
144
0.25
309
CONTENTFORMAT_END
171
     1
301
MARGIN
  1
CELLMARGIN_BEGIN
 40
0.06
 40
0.06
 40
0.06
 40
0.06
 40
0.06
 40
0.06
309
CELLMARGIN_END
 94
        6
 95
        1
302
GRIDFORMAT
  1
GRIDFORMAT_BEGIN
 90
        0
 91
        1
 62
     0
 92
       -2
340
274
 93
        0
 40
0.045
309
GRIDFORMAT_END
 95
        2
302
GRIDFORMAT
  1
GRIDFORMAT_BEGIN
 90
        0
 91
        1
 62
     0
 92
       -2
340
274
 93
        0
 40
0.045
309
GRIDFORMAT_END
 95
        4
302
GRIDFORMAT
  1
GRIDFORMAT_BEGIN
 90
        0
 91
        1
 62
     0
 92
       -2
340
274
 93
        0
 40
0.045
309
GRIDFORMAT_END
 95
        8
302
GRIDFORMAT
  1
GRIDFORMAT_BEGIN
 90
        0
 91
        1
 62
     0
 92
       -2
340
274
 93
        0
 40
0.045
309
GRIDFORMAT_END
 95
       16
302
GRIDFORMAT
  1
GRIDFORMAT_BEGIN
 90
        0
 91
        1
 62
     0
 92
       -2
340
274
 93
        0
 40
0.045
309
GRIDFORMAT_END
 95
       32
302
GRIDFORMAT
  1
GRIDFORMAT_BEGIN
 90
        0
 91
        1
 62
     0
 92
       -2
340
274
 93
        0
 40
0.045
309
GRIDFORMAT_END
309
TABLEFORMAT_END
  1
CELLSTYLE_BEGIN
 90
        1
 91
        1
300
_TITLE
309
CELLSTYLE_END
300
CELLSTYLE
  1
TABLEFORMAT_BEGIN
 90
        5
170
     1
 91
        0
 92
        0
 62
   257
 93
        1
300
CONTENTFORMAT
  1
CONTENTFORMAT_BEGIN
 90
        0
 91
        0
 92
        4
 93
        0
300

 40
0.0
140
1.0
 94
        5
 62
     0
340
272
144
0.18
309
CONTENTFORMAT_END
171
     1
301
MARGIN
  1
CELLMARGIN_BEGIN
 40
0.06
 40
0.06
 40
0.06
 40
0.06
 40
0.06
 40
0.06
309
CELLMARGIN_END
 94
        6
 95
        1
302
GRIDFORMAT
  1
GRIDFORMAT_BEGIN
 90
        0
 91
        1
 62
     0
 92
       -2
340
274
 93
        0
 40
0.045
309
GRIDFORMAT_END
 95
        2
302
GRIDFORMAT
  1
GRIDFORMAT_BEGIN
 90
        0
 91
        1
 62
     0
 92
       -2
340
274
 93
        0
 40
0.045
309
GRIDFORMAT_END
 95
        4
302
GRIDFORMAT
  1
GRIDFORMAT_BEGIN
 90
        0
 91
        1
 62
     0
 92
       -2
340
274
 93
        0
 40
0.045
309
GRIDFORMAT_END
 95
        8
302
GRIDFORMAT
  1
GRIDFORMAT_BEGIN
 90
        0
 91
        1
 62
     0
 92
       -2
340
274
 93
        0
 40
0.045
309
GRIDFORMAT_END
 95
       16
302
GRIDFORMAT
  1
GRIDFORMAT_BEGIN
 90
        0
 91
        1
 62
     0
 92
       -2
340
274
 93
        0
 40
0.045
309
GRIDFORMAT_END
 95
       32
302
GRIDFORMAT
  1
GRIDFORMAT_BEGIN
 90
        0
 91
        1
 62
     0
 92
       -2
340
274
 93
        0
 40
0.045
309
GRIDFORMAT_END
309
TABLEFORMAT_END
  1
CELLSTYLE_BEGIN
 90
        2
 91
        1
300
_HEADER
309
CELLSTYLE_END
300
CELLSTYLE
  1
TABLEFORMAT_BEGIN
 90
        5
170
     1
 91
        0
 92
        0
 62
   257
 93
        1
300
CONTENTFORMAT
  1
CONTENTFORMAT_BEGIN
 90
        0
 91
        0
 92
        4
 93
        0
300

 40
0.0
140
1.0
 94
        2
 62
     0
340
272
144
0.18
309
CONTENTFORMAT_END
171
     1
301
MARGIN
  1
CELLMARGIN_BEGIN
 40
0.06
 40
0.06
 40
0.06
 40
0.06
 40
0.06
 40
0.06
309
CELLMARGIN_END
 94
        6
 95
        1
302
GRIDFORMAT
  1
GRIDFORMAT_BEGIN
 90
        0
 91
        1
 62
     0
 92
       -2
340
274
 93
        0
 40
0.045
309
GRIDFORMAT_END
 95
        2
302
GRIDFORMAT
  1
GRIDFORMAT_BEGIN
 90
        0
 91
        1
 62
     0
 92
       -2
340
274
 93
        0
 40
0.045
309
GRIDFORMAT_END
 95
        4
302
GRIDFORMAT
  1
GRIDFORMAT_BEGIN
 90
        0
 91
        1
 62
     0
 92
       -2
340
274
 93
        0
 40
0.045
309
GRIDFORMAT_END
 95
        8
302
GRIDFORMAT
  1
GRIDFORMAT_BEGIN
 90
        0
 91
        1
 62
     0
 92
       -2
340
274
 93
        0
 40
0.045
309
GRIDFORMAT_END
 95
       16
302
GRIDFORMAT
  1
GRIDFORMAT_BEGIN
 90
        0
 91
        1
 62
     0
 92
       -2
340
274
 93
        0
 40
0.045
309
GRIDFORMAT_END
 95
       32
302
GRIDFORMAT
  1
GRIDFORMAT_BEGIN
 90
        0
 91
        1
 62
     0
 92
       -2
340
274
 93
        0
 40
0.045
309
GRIDFORMAT_END
309
TABLEFORMAT_END
  1
CELLSTYLE_BEGIN
 90
        3
 91
        2
300
_DATA
309
CELLSTYLE_END
  0
ENDSEC
  0
EOF
