  0
SECTION
  2
HEADER
  9
$ACADVER
  1
AC1027
  9
$ACADMAINTVER
 70
     8
  9
$DWGCODEPAGE
  3
ANSI_1252
  9
$REQUIREDVERSIONS
160
                 0
  9
$INSBASE
 10
0.0
 20
0.0
 30
0.0
  9
$EXTMIN
 10
1.000000000000000E+20
 20
1.000000000000000E+20
 30
1.000000000000000E+20
  9
$EXTMAX
 10
-1.000000000000000E+20
 20
-1.000000000000000E+20
 30
-1.000000000000000E+20
  9
$LIMMIN
 10
0.0
 20
0.0
  9
$LIMMAX
 10
12.0
 20
9.0
  9
$ORTHOMODE
 70
     0
  9
$REGENMODE
 70
     1
  9
$FILLMODE
 70
     1
  9
$QTEXTMODE
 70
     0
  9
$MIRRTEXT
 70
     1
  9
$LTSCALE
 40
1.0
  9
$ATTMODE
 70
     1
  9
$TEXTSIZE
 40
0.2
  9
$TRACEWID
 40
0.05
  9
$TEXTSTYLE
  7
Standard
  9
$CLAYER
  8
0
  9
$CELTYPE
  6
ByLayer
  9
$CECOLOR
 62
   178
  9
$CELTSCALE
 40
1.0
  9
$DISPSILH
 70
     0
  9
$DIMSCALE
 40
1.0
  9
$DIMASZ
 40
2.5
  9
$DIMEXO
 40
0.625
  9
$DIMDLI
 40
0.38
  9
$DIMRND
 40
0.0
  9
$DIMDLE
 40
0.0
  9
$DIMEXE
 40
1.25
  9
$DIMTP
 40
0.0
  9
$DIMTM
 40
0.0
  9
$DIMTXT
 40
2.5
  9
$DIMCEN
 40
0.09
  9
$DIMTSZ
 40
0.0
  9
$DIMTOL
 70
     0
  9
$DIMLIM
 70
     0
  9
$DIMTIH
 70
     1
  9
$DIMTOH
 70
     1
  9
$DIMSE1
 70
     0
  9
$DIMSE2
 70
     0
  9
$DIMTAD
 70
     0
  9
$DIMZIN
 70
     8
  9
$DIMBLK
  1

  9
$DIMASO
 70
     1
  9
$DIMSHO
 70
     1
  9
$DIMPOST
  1

  9
$DIMAPOST
  1

  9
$DIMALT
 70
     0
  9
$DIMALTD
 70
     2
  9
$DIMALTF
 40
25.4
  9
$DIMLFAC
 40
1.0
  9
$DIMTOFL
 70
     0
  9
$DIMTVP
 40
0.0
  9
$DIMTIX
 70
     0
  9
$DIMSOXD
 70
     0
  9
$DIMSAH
 70
     0
  9
$DIMBLK1
  1

  9
$DIMBLK2
  1

  9
$DIMSTYLE
  2
Standard
  9
$DIMCLRD
 70
   178
  9
$DIMCLRE
 70
   178
  9
$DIMCLRT
 70
   178
  9
$DIMTFAC
 40
1.0
  9
$DIMGAP
 40
0.625
  9
$DIMJUST
 70
     0
  9
$DIMSD1
 70
     0
  9
$DIMSD2
 70
     0
  9
$DIMTOLJ
 70
     1
  9
$DIMTZIN
 70
     0
  9
$DIMALTZ
 70
     0
  9
$DIMALTTZ
 70
     0
  9
$DIMUPT
 70
     0
  9
$DIMDEC
 70
     4
  9
$DIMTDEC
 70
     4
  9
$DIMALTU
 70
     2
  9
$DIMALTTD
 70
     2
  9
$DIMTXSTY
  7
Standard
  9
$DIMAUNIT
 70
     0
  9
$DIMADEC
 70
     0
  9
$DIMALTRND
 40
0.0
  9
$DIMAZIN
 70
     2
  9
$DIMDSEP
 70
    46
  9
$DIMATFIT
 70
     3
  9
$DIMFRAC
 70
     0
  9
$DIMLDRBLK
  1

  9
$DIMLUNIT
 70
     2
  9
$DIMLWD
 70
    -2
  9
$DIMLWE
 70
    -2
  9
$DIMTMOVE
 70
     0
  9
$DIMFXL
 40
1.0
  9
$DIMFXLON
 70
     0
  9
$DIMJOGANG
 40
0.7853981633974483
  9
$DIMTFILL
 70
     0
  9
$DIMTFILLCLR
 70
     0
  9
$DIMARCSYM
 70
     0
  9
$DIMLTYPE
  6

  9
$DIMLTEX1
  6

  9
$DIMLTEX2
  6

  9
$DIMTXTDIRECTION
 70
     0
  9
$LUNITS
 70
     2
  9
$LUPREC
 70
     4
  9
$SKETCHINC
 40
0.1
  9
$FILLETRAD
 40
0.5
  9
$AUNITS
 70
     0
  9
$AUPREC
 70
     0
  9
$MENU
  1
.
  9
$ELEVATION
 40
0.0
  9
$PELEVATION
 40
0.0
  9
$THICKNESS
 40
0.0
  9
$LIMCHECK
 70
     0
  9
$CHAMFERA
 40
0.0
  9
$CHAMFERB
 40
0.0
  9
$CHAMFERC
 40
0.0
  9
$CHAMFERD
 40
0.0
  9
$SKPOLY
 70
     0
  9
$TDCREATE
 40
2457785.901226852
  9
$TDUCREATE
 40
2457786.109560185
  9
$TDUPDATE
 40
2457785.901226852
  9
$TDUUPDATE
 40
2457786.109560185
  9
$TDINDWG
 40
0.0000000116
  9
$TDUSRTIMER
 40
0.0000000116
  9
$USRTIMER
 70
     1
  9
$ANGBASE
 50
0.0
  9
$ANGDIR
 70
     0
  9
$PDMODE
 70
     0
  9
$PDSIZE
 40
0.0
  9
$PLINEWID
 40
0.0
  9
$SPLFRAME
 70
     0
  9
$SPLINETYPE
 70
     6
  9
$SPLINESEGS
 70
     8
  9
$HANDSEED
  5
600
  9
$SURFTAB1
 70
     6
  9
$SURFTAB2
 70
     6
  9
$SURFTYPE
 70
     6
  9
$SURFU
 70
     6
  9
$SURFV
 70
     6
  9
$UCSBASE
  2

  9
$UCSNAME
  2

  9
$UCSORG
 10
0.0
 20
0.0
 30
0.0
  9
$UCSXDIR
 10
1.0
 20
0.0
 30
0.0
  9
$UCSYDIR
 10
0.0
 20
1.0
 30
0.0
  9
$UCSORTHOREF
  2

  9
$UCSORTHOVIEW
 70
     0
  9
$UCSORGTOP
 10
0.0
 20
0.0
 30
0.0
  9
$UCSORGBOTTOM
 10
0.0
 20
0.0
 30
0.0
  9
$UCSORGLEFT
 10
0.0
 20
0.0
 30
0.0
  9
$UCSORGRIGHT
 10
0.0
 20
0.0
 30
0.0
  9
$UCSORGFRONT
 10
0.0
 20
0.0
 30
0.0
  9
$UCSORGBACK
 10
0.0
 20
0.0
 30
0.0
  9
$PUCSBASE
  2

  9
$PUCSNAME
  2

  9
$PUCSORG
 10
0.0
 20
0.0
 30
0.0
  9
$PUCSXDIR
 10
1.0
 20
0.0
 30
0.0
  9
$PUCSYDIR
 10
0.0
 20
1.0
 30
0.0
  9
$PUCSORTHOREF
  2

  9
$PUCSORTHOVIEW
 70
     0
  9
$PUCSORGTOP
 10
0.0
 20
0.0
 30
0.0
  9
$PUCSORGBOTTOM
 10
0.0
 20
0.0
 30
0.0
  9
$PUCSORGLEFT
 10
0.0
 20
0.0
 30
0.0
  9
$PUCSORGRIGHT
 10
0.0
 20
0.0
 30
0.0
  9
$PUCSORGFRONT
 10
0.0
 20
0.0
 30
0.0
  9
$PUCSORGBACK
 10
0.0
 20
0.0
 30
0.0
  9
$USERI1
 70
     0
  9
$USERI2
 70
     0
  9
$USERI3
 70
     0
  9
$USERI4
 70
     0
  9
$USERI5
 70
     0
  9
$USERR1
 40
0.0
  9
$USERR2
 40
0.0
  9
$USERR3
 40
0.0
  9
$USERR4
 40
0.0
  9
$USERR5
 40
0.0
  9
$WORLDVIEW
 70
     1
  9
$SHADEDGE
 70
     3
  9
$SHADEDIF
 70
    70
  9
$TILEMODE
 70
     1
  9
$MAXACTVP
 70
    32
  9
$PINSBASE
 10
0.0
 20
0.0
 30
0.0
  9
$PLIMCHECK
 70
     0
  9
$PEXTMIN
 10
0.0
 20
0.0
 30
0.0
  9
$PEXTMAX
 10
0.0
 20
0.0
 30
0.0
  9
$PLIMMIN
 10
-20.0
 20
-7.5
  9
$PLIMMAX
 10
277.0
 20
202.5
  9
$UNITMODE
 70
     0
  9
$VISRETAIN
 70
     1
  9
$PLINEGEN
 70
     0
  9
$PSLTSCALE
 70
     1
  9
$TREEDEPTH
 70
  3020
  9
$CMLSTYLE
  2
Standard
  9
$CMLJUST
 70
     0
  9
$CMLSCALE
 40
1.0
  9
$PROXYGRAPHICS
 70
     1
  9
$MEASUREMENT
 70
     1
  9
$CELWEIGHT
370
    -1
  9
$ENDCAPS
280
     0
  9
$JOINSTYLE
280
     0
  9
$LWDISPLAY
290
     0
  9
$INSUNITS
 70
     4
  9
$HYPERLINKBASE
  1

  9
$STYLESHEET
  1

  9
$XEDIT
290
     1
  9
$CEPSNTYPE
380
     0
  9
$PSTYLEMODE
290
     1
  9
$FINGERPRINTGUID
  2
{EF78098C-C9D0-D996-7296-1D4A06CB1CC0}
  9
$VERSIONGUID
  2
{FAEB1C32-E019-11D5-929B-00C0DF256EC4}
  9
$EXTNAMES
290
     1
  9
$PSVPSCALE
 40
0.0
  9
$OLESTARTUP
290
     0
  9
$SORTENTS
280
   127
  9
$INDEXCTL
280
     0
  9
$HIDETEXT
280
     1
  9
$XCLIPFRAME
280
     2
  9
$HALOGAP
280
     0
  9
$OBSCOLOR
 70
   257
  9
$OBSLTYPE
280
     0
  9
$INTERSECTIONDISPLAY
280
     0
  9
$INTERSECTIONCOLOR
 70
   257
  9
$DIMASSOC
280
     2
  9
$PROJECTNAME
  1

  9
$CAMERADISPLAY
290
     0
  9
$LENSLENGTH
 40
50.0
  9
$CAMERAHEIGHT
 40
0.0
  9
$STEPSPERSEC
 40
2.0
  9
$STEPSIZE
 40
6.0
  9
$3DDWFPREC
 40
2.0
  9
$PSOLWIDTH
 40
0.25
  9
$PSOLHEIGHT
 40
4.0
  9
$LOFTANG1
 40
1.570796326794897
  9
$LOFTANG2
 40
1.570796326794897
  9
$LOFTMAG1
 40
0.0
  9
$LOFTMAG2
 40
0.0
  9
$LOFTPARAM
 70
     7
  9
$LOFTNORMALS
280
     1
  9
$LATITUDE
 40
37.795
  9
$LONGITUDE
 40
-122.394
  9
$NORTHDIRECTION
 40
0.0
  9
$TIMEZONE
 70
 -8000
  9
$LIGHTGLYPHDISPLAY
280
     1
  9
$TILEMODELIGHTSYNCH
280
     1
  9
$CMATERIAL
347
55A
  9
$SOLIDHIST
280
     0
  9
$SHOWHIST
280
     1
  9
$DWFFRAME
280
     2
  9
$DGNFRAME
280
     2
  9
$REALWORLDSCALE
290
     1
  9
$INTERFERECOLOR
 62
   256
  9
$CSHADOW
280
     0
  9
$SHADOWPLANELOCATION
 40
0.0
  0
ENDSEC
  0
SECTION
  2
CLASSES
  0
CLASS
  1
ACDBDICTIONARYWDFLT
  2
AcDbDictionaryWithDefault
  3
ObjectDBX Classes
 90
        0
 91
        4
280
     0
281
     0
  0
CLASS
  1
VISUALSTYLE
  2
AcDbVisualStyle
  3
ObjectDBX Classes
 90
     4095
 91
        4
280
     0
281
     0
  0
CLASS
  1
MATERIAL
  2
AcDbMaterial
  3
ObjectDBX Classes
 90
     1153
 91
        4
280
     0
281
     0
  0
CLASS
  1
SCALE
  2
AcDbScale
  3
ObjectDBX Classes
 90
     1153
 91
        4
280
     0
281
     0
  0
CLASS
  1
TABLESTYLE
  2
AcDbTableStyle
  3
ObjectDBX Classes
 90
     4095
 91
        4
280
     0
281
     0
  0
CLASS
  1
MLEADERSTYLE
  2
AcDbMLeaderStyle
  3
ACDB_MLEADERSTYLE_CLASS
 90
     4095
 91
        4
280
     0
281
     0
  0
CLASS
  1
SUN
  2
AcDbSun
  3
SCENEOE
 90
     1153
 91
        4
280
     0
281
     0
  0
CLASS
  1
DICTIONARYVAR
  2
AcDbDictionaryVar
  3
ObjectDBX Classes
 90
        0
 91
        4
280
     0
281
     0
  0
CLASS
  1
CELLSTYLEMAP
  2
AcDbCellStyleMap
  3
ObjectDBX Classes
 90
     1152
 91
        4
280
     0
281
     0
  0
ENDSEC
  0
SECTION
  2
TABLES
  0
TABLE
  2
VPORT
  5
51F
330
0
100
AcDbSymbolTable
 70
     1
  0
VPORT
  5
53F
330
51F
100
AcDbSymbolTableRecord
100
AcDbViewportTableRecord
  2
*Active
 70
     0
 10
0.0
 20
0.0
 11
1.0
 21
1.0
 12
37.10301188663704
 22
8.209298035923556
 13
0.0
 23
0.0
 14
0.5
 24
0.5
 15
0.5
 25
0.5
 16
0.0
 26
0.0
 36
1.0
 17
0.0
 27
0.0
 37
0.0
 40
3.830213955822018
 41
1.51969981238274
 42
50.0
 43
0.0
 44
0.0
 50
0.0
 51
0.0
 71
     0
 72
   100
 73
     1
 74
     3
 75
     0
 76
     0
 77
     0
 78
     0
281
     0
 65
     1
110
0.0
120
0.0
130
0.0
111
1.0
121
0.0
131
0.0
112
0.0
122
1.0
132
0.0
 79
     0
146
0.0
 60
     3
 61
     5
292
     1
282
     1
141
0.0
142
0.0
 63
   250
361
583
  0
ENDTAB
  0
TABLE
  2
LTYPE
  5
51C
330
0
100
AcDbSymbolTable
 70
    48
  0
LTYPE
  5
52A
330
51C
100
AcDbSymbolTableRecord
100
AcDbLinetypeTableRecord
  2
ByBlock
 70
     0
  3

 72
    65
 73
     0
 40
0.0
  0
LTYPE
  5
52B
330
51C
100
AcDbSymbolTableRecord
100
AcDbLinetypeTableRecord
  2
ByLayer
 70
     0
  3

 72
    65
 73
     0
 40
0.0
  0
LTYPE
  5
52C
330
51C
100
AcDbSymbolTableRecord
100
AcDbLinetypeTableRecord
  2
Continuous
 70
     0
  3
Solid line
 72
    65
 73
     0
 40
0.0
  0
LTYPE
  5
5BA
330
51C
100
AcDbSymbolTableRecord
100
AcDbLinetypeTableRecord
  2
DASHED
 70
     0
  3
Dashed __ __ __ __ __ __ __ __ __ __ __ __ __ _
 72
    65
 73
     2
 40
19.05
 49
12.7
 74
     0
 49
-6.35
 74
     0
  0
LTYPE
  5
5BB
330
51C
100
AcDbSymbolTableRecord
100
AcDbLinetypeTableRecord
  2
DASHED2
 70
     0
  3
Dashed (.5x) _ _ _ _ _ _ _ _ _ _ _ _ _ _ _ _ _ 
 72
    65
 73
     2
 40
9.524999999999999
 49
6.35
 74
     0
 49
-3.175
 74
     0
  0
LTYPE
  5
5BC
330
51C
100
AcDbSymbolTableRecord
100
AcDbLinetypeTableRecord
  2
DASHEDX2
 70
     0
  3
Dashed (2x) ____  ____  ____  ____  ____  ___
 72
    65
 73
     2
 40
38.09999999999999
 49
25.4
 74
     0
 49
-12.7
 74
     0
  0
LTYPE
  5
5BD
330
51C
100
AcDbSymbolTableRecord
100
AcDbLinetypeTableRecord
  2
DIVIDE
 70
     0
  3
Divide ____ . . ____ . . ____ . . ____ . . ____
 72
    65
 73
     6
 40
31.75
 49
12.7
 74
     0
 49
-6.35
 74
     0
 49
0.0
 74
     0
 49
-6.35
 74
     0
 49
0.0
 74
     0
 49
-6.35
 74
     0
  0
LTYPE
  5
5BF
330
51C
100
AcDbSymbolTableRecord
100
AcDbLinetypeTableRecord
  2
FENCELINE2
 70
     0
  3
Fenceline square ----[]-----[]----[]-----[]----[]---
 72
    65
 73
     4
 40
36.83
 49
6.35
 74
     0
 49
-2.54
 74
     2
 75
     0
340
5BE
 46
2.54
 50
0.0
 44
-2.54
 45
0.0
  9
BOX
 49
-2.54
 74
     0
 49
25.4
 74
     0
  0
LTYPE
  5
5C1
330
51C
100
AcDbSymbolTableRecord
100
AcDbLinetypeTableRecord
  2
GAS_LINE
 70
     0
  3
Gas line ----GAS----GAS----GAS----GAS----GAS----GAS--
 72
    65
 73
     3
 40
24.13
 49
12.7
 74
     0
 49
-5.08
 74
     2
 75
     0
340
5C0
 46
2.54
 50
0.0
 44
-2.54
 45
-1.27
  9
GAS
 49
-6.35
 74
     0
  0
LTYPE
  5
5C2
330
51C
100
AcDbSymbolTableRecord
100
AcDbLinetypeTableRecord
  2
HIDDEN
 70
     0
  3
Hidden __ __ __ __ __ __ __ __ __ __ __ __ __ __
 72
    65
 73
     2
 40
9.524999999999999
 49
6.35
 74
     0
 49
-3.175
 74
     0
  0
LTYPE
  5
5C3
330
51C
100
AcDbSymbolTableRecord
100
AcDbLinetypeTableRecord
  2
HIDDEN2
 70
     0
  3
Hidden (.5x) _ _ _ _ _ _ _ _ _ _ _ _ _ _ _ _ _ 
 72
    65
 73
     2
 40
4.762499999999999
 49
3.175
 74
     0
 49
-1.5875
 74
     0
  0
LTYPE
  5
5C4
330
51C
100
AcDbSymbolTableRecord
100
AcDbLinetypeTableRecord
  2
DOTX2
 70
     0
  3
Dot (2x) .  .  .  .  .  .  .  .  .  .  .  .  .  .
 72
    65
 73
     2
 40
12.7
 49
0.0
 74
     0
 49
-12.7
 74
     0
  0
LTYPE
  5
5C6
330
51C
100
AcDbSymbolTableRecord
100
AcDbLinetypeTableRecord
  2
DRAINAGE
 70
     0
  3
Drainage ---->---->---->----
 72
    65
 73
     2
 40
10.16
 49
5.08
 74
     2
 75
     0
340
5C5
 46
2.54
 50
180.0
 44
0.0
 45
0.0
  9
RIGHT_ARROW
 49
5.08
 74
     0
  0
LTYPE
  5
5C8
330
51C
100
AcDbSymbolTableRecord
100
AcDbLinetypeTableRecord
  2
DRAINAGE2
 70
     0
  3
Drainage reversed----<----<----<----
 72
    65
 73
     2
 40
10.16
 49
5.08
 74
     2
 75
     0
340
5C7
 46
2.54
 50
0.0
 44
0.0
 45
0.0
  9
RIGHT_ARROW
 49
5.08
 74
     0
  0
LTYPE
  5
5CA
330
51C
100
AcDbSymbolTableRecord
100
AcDbLinetypeTableRecord
  2
FENCELINE1
 70
     0
  3
Fenceline circle ----0-----0----0-----0----0-----0--
 72
    65
 73
     4
 40
36.83
 49
6.35
 74
     0
 49
-2.54
 74
     2
 75
     0
340
5C9
 46
2.54
 50
0.0
 44
-2.54
 45
0.0
  9
CIRC1
 49
-2.54
 74
     0
 49
25.4
 74
     0
  0
LTYPE
  5
5CB
330
51C
100
AcDbSymbolTableRecord
100
AcDbLinetypeTableRecord
  2
ACAD_ISO14W100
 70
     0
  3
ISO dash triple-dot __ . . . __ . . . __ . . . _
 72
    65
 73
     8
 40
24.0
 49
12.0
 74
     0
 49
-3.0
 74
     0
 49
0.0
 74
     0
 49
-3.0
 74
     0
 49
0.0
 74
     0
 49
-3.0
 74
     0
 49
0.0
 74
     0
 49
-3.0
 74
     0
  0
LTYPE
  5
5CC
330
51C
100
AcDbSymbolTableRecord
100
AcDbLinetypeTableRecord
  2
ACAD_ISO15W100
 70
     0
  3
ISO double-dash triple-dot __ __ . . . __ __ . .
 72
    65
 73
    10
 40
39.0
 49
12.0
 74
     0
 49
-3.0
 74
     0
 49
12.0
 74
     0
 49
-3.0
 74
     0
 49
0.0
 74
     0
 49
-3.0
 74
     0
 49
0.0
 74
     0
 49
-3.0
 74
     0
 49
0.0
 74
     0
 49
-3.0
 74
     0
  0
LTYPE
  5
5CF
330
51C
100
AcDbSymbolTableRecord
100
AcDbLinetypeTableRecord
  2
BATTING
 70
     0
  3
Batting SSSSSSSSSSSSSSSSSSSSSSSSSSSSSSSSSSSSSSSSSSSSSSS
 72
    65
 73
     4
 40
10.16254
 49
0.00254
 74
     0
 49
-2.54
 74
     2
 75
     0
340
5CD
 46
2.54
 50
0.0
 44
-2.54
 45
0.0
  9
BAT
 49
-5.08
 74
     2
 75
     0
340
5CE
 46
2.54
 50
180.0
 44
2.54
 45
0.0
  9
BAT
 49
-2.54
 74
     0
  0
LTYPE
  5
5D0
330
51C
100
AcDbSymbolTableRecord
100
AcDbLinetypeTableRecord
  2
BORDER
 70
     0
  3
Border __ __ . __ __ . __ __ . __ __ . __ __ .
 72
    65
 73
     6
 40
44.45
 49
12.7
 74
     0
 49
-6.35
 74
     0
 49
12.7
 74
     0
 49
-6.35
 74
     0
 49
0.0
 74
     0
 49
-6.35
 74
     0
  0
LTYPE
  5
5D1
330
51C
100
AcDbSymbolTableRecord
100
AcDbLinetypeTableRecord
  2
ACAD_ISO10W100
 70
     0
  3
ISO dash dot __ . __ . __ . __ . __ . __ . __ . 
 72
    65
 73
     4
 40
18.0
 49
12.0
 74
     0
 49
-3.0
 74
     0
 49
0.0
 74
     0
 49
-3.0
 74
     0
  0
LTYPE
  5
5D2
330
51C
100
AcDbSymbolTableRecord
100
AcDbLinetypeTableRecord
  2
ACAD_ISO11W100
 70
     0
  3
ISO double-dash dot __ __ . __ __ . __ __ . __ _
 72
    65
 73
     6
 40
33.0
 49
12.0
 74
     0
 49
-3.0
 74
     0
 49
12.0
 74
     0
 49
-3.0
 74
     0
 49
0.0
 74
     0
 49
-3.0
 74
     0
  0
LTYPE
  5
5D3
330
51C
100
AcDbSymbolTableRecord
100
AcDbLinetypeTableRecord
  2
ACAD_ISO12W100
 70
     0
  3
ISO dash double-dot __ . . __ . . __ . . __ . . 
 72
    65
 73
     6
 40
21.0
 49
12.0
 74
     0
 49
-3.0
 74
     0
 49
0.0
 74
     0
 49
-3.0
 74
     0
 49
0.0
 74
     0
 49
-3.0
 74
     0
  0
LTYPE
  5
5D4
330
51C
100
AcDbSymbolTableRecord
100
AcDbLinetypeTableRecord
  2
ACAD_ISO13W100
 70
     0
  3
ISO double-dash double-dot __ __ . . __ __ . . _
 72
    65
 73
     8
 40
36.0
 49
12.0
 74
     0
 49
-3.0
 74
     0
 49
12.0
 74
     0
 49
-3.0
 74
     0
 49
0.0
 74
     0
 49
-3.0
 74
     0
 49
0.0
 74
     0
 49
-3.0
 74
     0
  0
LTYPE
  5
5D5
330
51C
100
AcDbSymbolTableRecord
100
AcDbLinetypeTableRecord
  2
CENTERX2
 70
     0
  3
Center (2x) ________  __  ________  __  _____
 72
    65
 73
     4
 40
101.6
 49
63.5
 74
     0
 49
-12.7
 74
     0
 49
12.7
 74
     0
 49
-12.7
 74
     0
  0
LTYPE
  5
5D6
330
51C
100
AcDbSymbolTableRecord
100
AcDbLinetypeTableRecord
  2
DASHDOT
 70
     0
  3
Dash dot __ . __ . __ . __ . __ . __ . __ . __
 72
    65
 73
     4
 40
25.4
 49
12.7
 74
     0
 49
-6.35
 74
     0
 49
0.0
 74
     0
 49
-6.35
 74
     0
  0
LTYPE
  5
5D7
330
51C
100
AcDbSymbolTableRecord
100
AcDbLinetypeTableRecord
  2
DASHDOT2
 70
     0
  3
Dash dot (.5x) _._._._._._._._._._._._._._._.
 72
    65
 73
     4
 40
12.7
 49
6.35
 74
     0
 49
-3.175
 74
     0
 49
0.0
 74
     0
 49
-3.175
 74
     0
  0
LTYPE
  5
5D8
330
51C
100
AcDbSymbolTableRecord
100
AcDbLinetypeTableRecord
  2
DASHDOTX2
 70
     0
  3
Dash dot (2x) ____  .  ____  .  ____  .  ___
 72
    65
 73
     4
 40
50.8
 49
25.4
 74
     0
 49
-12.7
 74
     0
 49
0.0
 74
     0
 49
-12.7
 74
     0
  0
LTYPE
  5
5D9
330
51C
100
AcDbSymbolTableRecord
100
AcDbLinetypeTableRecord
  2
BORDER2
 70
     0
  3
Border (.5x) __.__.__.__.__.__.__.__.__.__.__.
 72
    65
 73
     6
 40
22.225
 49
6.35
 74
     0
 49
-3.175
 74
     0
 49
6.35
 74
     0
 49
-3.175
 74
     0
 49
0.0
 74
     0
 49
-3.175
 74
     0
  0
LTYPE
  5
5DA
330
51C
100
AcDbSymbolTableRecord
100
AcDbLinetypeTableRecord
  2
BORDERX2
 70
     0
  3
Border (2x) ____  ____  .  ____  ____  .  ___
 72
    65
 73
     6
 40
88.89999999999999
 49
25.4
 74
     0
 49
-12.7
 74
     0
 49
25.4
 74
     0
 49
-12.7
 74
     0
 49
0.0
 74
     0
 49
-12.7
 74
     0
  0
LTYPE
  5
5DB
330
51C
100
AcDbSymbolTableRecord
100
AcDbLinetypeTableRecord
  2
CENTER
 70
     0
  3
Center ____ _ ____ _ ____ _ ____ _ ____ _ ____
 72
    65
 73
     4
 40
50.8
 49
31.75
 74
     0
 49
-6.35
 74
     0
 49
6.35
 74
     0
 49
-6.35
 74
     0
  0
LTYPE
  5
5DC
330
51C
100
AcDbSymbolTableRecord
100
AcDbLinetypeTableRecord
  2
CENTER2
 70
     0
  3
Center (.5x) ___ _ ___ _ ___ _ ___ _ ___ _ ___
 72
    65
 73
     4
 40
28.575
 49
19.05
 74
     0
 49
-3.175
 74
     0
 49
3.175
 74
     0
 49
-3.175
 74
     0
  0
LTYPE
  5
5DD
330
51C
100
AcDbSymbolTableRecord
100
AcDbLinetypeTableRecord
  2
ACAD_ISO06W100
 70
     0
  3
ISO long-dash triple-dot ____ ... ____ ... ____
 72
    65
 73
     8
 40
36.0
 49
24.0
 74
     0
 49
-3.0
 74
     0
 49
0.0
 74
     0
 49
-3.0
 74
     0
 49
0.0
 74
     0
 49
-3.0
 74
     0
 49
0.0
 74
     0
 49
-3.0
 74
     0
  0
LTYPE
  5
5DE
330
51C
100
AcDbSymbolTableRecord
100
AcDbLinetypeTableRecord
  2
ACAD_ISO07W100
 70
     0
  3
ISO dot . . . . . . . . . . . . . . . . . . . . 
 72
    65
 73
     2
 40
3.0
 49
0.0
 74
     0
 49
-3.0
 74
     0
  0
LTYPE
  5
5DF
330
51C
100
AcDbSymbolTableRecord
100
AcDbLinetypeTableRecord
  2
ACAD_ISO08W100
 70
     0
  3
ISO long-dash short-dash ____ __ ____ __ ____ _
 72
    65
 73
     4
 40
36.0
 49
24.0
 74
     0
 49
-3.0
 74
     0
 49
6.0
 74
     0
 49
-3.0
 74
     0
  0
LTYPE
  5
5E0
330
51C
100
AcDbSymbolTableRecord
100
AcDbLinetypeTableRecord
  2
ACAD_ISO09W100
 70
     0
  3
ISO long-dash double-short-dash ____ __ __ ____
 72
    65
 73
     6
 40
45.0
 49
24.0
 74
     0
 49
-3.0
 74
     0
 49
6.0
 74
     0
 49
-3.0
 74
     0
 49
6.0
 74
     0
 49
-3.0
 74
     0
  0
LTYPE
  5
5E1
330
51C
100
AcDbSymbolTableRecord
100
AcDbLinetypeTableRecord
  2
ACAD_ISO02W100
 70
     0
  3
ISO dash __ __ __ __ __ __ __ __ __ __ __ __ __
 72
    65
 73
     2
 40
15.0
 49
12.0
 74
     0
 49
-3.0
 74
     0
  0
LTYPE
  5
5E2
330
51C
100
AcDbSymbolTableRecord
100
AcDbLinetypeTableRecord
  2
ACAD_ISO03W100
 70
     0
  3
ISO dash space __    __    __    __    __    __
 72
    65
 73
     2
 40
30.0
 49
12.0
 74
     0
 49
-18.0
 74
     0
  0
LTYPE
  5
5E3
330
51C
100
AcDbSymbolTableRecord
100
AcDbLinetypeTableRecord
  2
ACAD_ISO04W100
 70
     0
  3
ISO long-dash dot ____ . ____ . ____ . ____ . _
 72
    65
 73
     4
 40
30.0
 49
24.0
 74
     0
 49
-3.0
 74
     0
 49
0.0
 74
     0
 49
-3.0
 74
     0
  0
LTYPE
  5
5E4
330
51C
100
AcDbSymbolTableRecord
100
AcDbLinetypeTableRecord
  2
ACAD_ISO05W100
 70
     0
  3
ISO long-dash double-dot ____ .. ____ .. ____ . 
 72
    65
 73
     6
 40
33.0
 49
24.0
 74
     0
 49
-3.0
 74
     0
 49
0.0
 74
     0
 49
-3.0
 74
     0
 49
0.0
 74
     0
 49
-3.0
 74
     0
  0
LTYPE
  5
5E5
330
51C
100
AcDbSymbolTableRecord
100
AcDbLinetypeTableRecord
  2
PHANTOMX2
 70
     0
  3
Phantom (2x) ____________    ____    ____   _
 72
    65
 73
     6
 40
127.0
 49
63.5
 74
     0
 49
-12.7
 74
     0
 49
12.7
 74
     0
 49
-12.7
 74
     0
 49
12.7
 74
     0
 49
-12.7
 74
     0
  0
LTYPE
  5
5E7
330
51C
100
AcDbSymbolTableRecord
100
AcDbLinetypeTableRecord
  2
TRACKS
 70
     0
  3
Tracks -|-|-|-|-|-|-|-|-|-|-|-|-|-|-|-|-|-|-|-|-|-|-|-|-
 72
    65
 73
     2
 40
7.62
 49
3.81
 74
     2
 75
     0
340
5E6
 46
6.35
 50
0.0
 44
0.0
 45
0.0
  9
TRACK1
 49
3.81
 74
     0
  0
LTYPE
  5
5EA
330
51C
100
AcDbSymbolTableRecord
100
AcDbLinetypeTableRecord
  2
ZIGZAG
 70
     0
  3
Zig zag /\/\/\/\/\/\/\/\/\/\/\/\/\/\/\/\/\/\/\/\/\/\/\/
 72
    65
 73
     4
 40
20.32254
 49
0.00254
 74
     0
 49
-5.08
 74
     2
 75
     0
340
5E8
 46
5.08
 50
0.0
 44
-5.08
 45
0.0
  9
ZIG
 49
-10.16
 74
     2
 75
     0
340
5E9
 46
5.08
 50
180.0
 44
5.08
 45
0.0
  9
ZIG
 49
-5.08
 74
     0
  0
LTYPE
  5
5EB
330
51C
100
AcDbSymbolTableRecord
100
AcDbLinetypeTableRecord
  2
HIDDENX2
 70
     0
  3
Hidden (2x) ____ ____ ____ ____ ____ ____ ____ 
 72
    65
 73
     2
 40
19.05
 49
12.7
 74
     0
 49
-6.35
 74
     0
  0
LTYPE
  5
5ED
330
51C
100
AcDbSymbolTableRecord
100
AcDbLinetypeTableRecord
  2
HOT_WATER_SUPPLY
 70
     0
  3
Hot water supply ---- HW ---- HW ---- HW ----
 72
    65
 73
     3
 40
22.86
 49
12.7
 74
     0
 49
-5.08
 74
     2
 75
     0
340
5EC
 46
2.54
 50
0.0
 44
-2.54
 45
-1.27
  9
HW
 49
-5.08
 74
     0
  0
LTYPE
  5
5EE
330
51C
100
AcDbSymbolTableRecord
100
AcDbLinetypeTableRecord
  2
PHANTOM
 70
     0
  3
Phantom ______  __  __  ______  __  __  ______ 
 72
    65
 73
     6
 40
63.50000000000001
 49
31.75
 74
     0
 49
-6.35
 74
     0
 49
6.35
 74
     0
 49
-6.35
 74
     0
 49
6.35
 74
     0
 49
-6.35
 74
     0
  0
LTYPE
  5
5EF
330
51C
100
AcDbSymbolTableRecord
100
AcDbLinetypeTableRecord
  2
PHANTOM2
 70
     0
  3
Phantom (.5x) ___ _ _ ___ _ _ ___ _ _ ___ _ _
 72
    65
 73
     6
 40
31.75
 49
15.875
 74
     0
 49
-3.175
 74
     0
 49
3.175
 74
     0
 49
-3.175
 74
     0
 49
3.175
 74
     0
 49
-3.175
 74
     0
  0
LTYPE
  5
5F0
330
51C
100
AcDbSymbolTableRecord
100
AcDbLinetypeTableRecord
  2
DIVIDE2
 70
     0
  3
Divide (.5x) __..__..__..__..__..__..__..__.._
 72
    65
 73
     6
 40
15.875
 49
6.35
 74
     0
 49
-3.175
 74
     0
 49
0.0
 74
     0
 49
-3.175
 74
     0
 49
0.0
 74
     0
 49
-3.175
 74
     0
  0
LTYPE
  5
5F1
330
51C
100
AcDbSymbolTableRecord
100
AcDbLinetypeTableRecord
  2
DIVIDEX2
 70
     0
  3
Divide (2x) ________  .  .  ________  .  .  _
 72
    65
 73
     6
 40
63.5
 49
25.4
 74
     0
 49
-12.7
 74
     0
 49
0.0
 74
     0
 49
-12.7
 74
     0
 49
0.0
 74
     0
 49
-12.7
 74
     0
  0
LTYPE
  5
5F2
330
51C
100
AcDbSymbolTableRecord
100
AcDbLinetypeTableRecord
  2
DOT
 70
     0
  3
Dot . . . . . . . . . . . . . . . . . . . . . . . .
 72
    65
 73
     2
 40
6.35
 49
0.0
 74
     0
 49
-6.35
 74
     0
  0
LTYPE
  5
5F3
330
51C
100
AcDbSymbolTableRecord
100
AcDbLinetypeTableRecord
  2
DOT2
 70
     0
  3
Dot (.5x) ........................................
 72
    65
 73
     2
 40
3.175
 49
0.0
 74
     0
 49
-3.175
 74
     0
  0
ENDTAB
  0
TABLE
  2
LAYER
  5
519
330
0
100
AcDbSymbolTable
 70
     2
  0
LAYER
  5
527
330
519
100
AcDbSymbolTableRecord
100
AcDbLayerTableRecord
  2
0
 70
     0
 62
   178
420
        0
  6
Continuous
370
    -3
390
526
347
55C
348
0
  0
LAYER
  5
5F4
330
519
100
AcDbSymbolTableRecord
100
AcDbLayerTableRecord
  2
VISIBLE
 70
     0
 62
     7
420
 16777215
  6
Continuous
370
    -3
390
526
347
55C
348
0
  0
ENDTAB
  0
TABLE
  2
STYLE
  5
51A
330
0
100
AcDbSymbolTable
 70
    13
  0
STYLE
  5
528
330
51A
100
AcDbSymbolTableRecord
100
AcDbTextStyleTableRecord
  2
Standard
 70
     0
 40
0.0
 41
1.0
 50
0.0
 71
     0
 42
0.2
  3
txt
  4

  0
STYLE
  5
5B8
330
51A
100
AcDbSymbolTableRecord
100
AcDbTextStyleTableRecord
  2
QCADDimTextStyle
 70
     0
 40
0.0
 41
1.0
 50
0.0
 71
     0
 42
0.2
  3

  4

  0
STYLE
  5
5BE
330
51A
100
AcDbSymbolTableRecord
100
AcDbTextStyleTableRecord
  2
textstyle0
 70
     0
 40
0.0
 41
1.0
 50
0.0
 71
     0
 42
0.2
  3
ltypeshp.shx
  4

  0
STYLE
  5
5C0
330
51A
100
AcDbSymbolTableRecord
100
AcDbTextStyleTableRecord
  2
textstyle1
 70
     0
 40
0.0
 41
1.0
 50
0.0
 71
     0
 42
0.2
  3
STANDARD
  4

  0
STYLE
  5
5C5
330
51A
100
AcDbSymbolTableRecord
100
AcDbTextStyleTableRecord
  2
textstyle2
 70
     0
 40
0.0
 41
1.0
 50
0.0
 71
     0
 42
0.2
  3
qcadshp.shx
  4

  0
STYLE
  5
5C7
330
51A
100
AcDbSymbolTableRecord
100
AcDbTextStyleTableRecord
  2
textstyle3
 70
     0
 40
0.0
 41
1.0
 50
0.0
 71
     0
 42
0.2
  3
qcadshp.shx
  4

  0
STYLE
  5
5C9
330
51A
100
AcDbSymbolTableRecord
100
AcDbTextStyleTableRecord
  2
textstyle4
 70
     0
 40
0.0
 41
1.0
 50
0.0
 71
     0
 42
0.2
  3
ltypeshp.shx
  4

  0
STYLE
  5
5CD
330
51A
100
AcDbSymbolTableRecord
100
AcDbTextStyleTableRecord
  2
textstyle5
 70
     0
 40
0.0
 41
1.0
 50
0.0
 71
     0
 42
0.2
  3
ltypeshp.shx
  4

  0
STYLE
  5
5CE
330
51A
100
AcDbSymbolTableRecord
100
AcDbTextStyleTableRecord
  2
textstyle6
 70
     0
 40
0.0
 41
1.0
 50
0.0
 71
     0
 42
0.2
  3
ltypeshp.shx
  4

  0
STYLE
  5
5E6
330
51A
100
AcDbSymbolTableRecord
100
AcDbTextStyleTableRecord
  2
textstyle7
 70
     0
 40
0.0
 41
1.0
 50
0.0
 71
     0
 42
0.2
  3
ltypeshp.shx
  4

  0
STYLE
  5
5E8
330
51A
100
AcDbSymbolTableRecord
100
AcDbTextStyleTableRecord
  2
textstyle8
 70
     0
 40
0.0
 41
1.0
 50
0.0
 71
     0
 42
0.2
  3
ltypeshp.shx
  4

  0
STYLE
  5
5E9
330
51A
100
AcDbSymbolTableRecord
100
AcDbTextStyleTableRecord
  2
textstyle9
 70
     0
 40
0.0
 41
1.0
 50
0.0
 71
     0
 42
0.2
  3
ltypeshp.shx
  4

  0
STYLE
  5
5EC
330
51A
100
AcDbSymbolTableRecord
100
AcDbTextStyleTableRecord
  2
textstyle10
 70
     0
 40
0.0
 41
1.0
 50
0.0
 71
     0
 42
0.2
  3
STANDARD
  4

  0
ENDTAB
  0
TABLE
  2
VIEW
  5
51D
330
0
100
AcDbSymbolTable
 70
     0
  0
ENDTAB
  0
TABLE
  2
UCS
  5
51E
330
0
100
AcDbSymbolTable
 70
     0
  0
ENDTAB
  0
TABLE
  2
APPID
  5
520
330
0
100
AcDbSymbolTable
 70
     2
  0
APPID
  5
529
330
520
100
AcDbSymbolTableRecord
100
AcDbRegAppTableRecord
  2
ACAD
 70
     0
  0
APPID
  5
584
330
520
100
AcDbSymbolTableRecord
100
AcDbRegAppTableRecord
  2
QCAD
 70
     0
  0
ENDTAB
  0
TABLE
  2
DIMSTYLE
  5
521
330
0
100
AcDbSymbolTable
 70
     2
100
AcDbDimStyleTable
  0
DIMSTYLE
105
53D
330
521
100
AcDbSymbolTableRecord
100
AcDbDimStyleTableRecord
  2
Standard
 70
     0
178
     0
340
528
  0
DIMSTYLE
105
5B9
330
521
100
AcDbSymbolTableRecord
100
AcDbDimStyleTableRecord
  2
QCADDimStyle
 70
     0
 41
2.5
 42
0.625
 44
1.25
 73
     0
 77
     1
140
2.5
147
0.625
178
     0
340
5B8
  0
ENDTAB
  0
TABLE
  2
BLOCK_RECORD
  5
518
330
0
100
AcDbSymbolTable
 70
     1
  0
BLOCK_RECORD
  5
535
330
518
100
AcDbSymbolTableRecord
100
AcDbBlockTableRecord
  2
*Model_Space
340
538
 70
     0
280
     1
281
     0
  0
BLOCK_RECORD
  5
531
330
518
100
AcDbSymbolTableRecord
100
AcDbBlockTableRecord
  2
*Paper_Space
340
534
 70
     0
280
     1
281
     0
  0
ENDTAB
  0
ENDSEC
  0
SECTION
  2
BLOCKS
  0
BLOCK
  5
536
330
535
100
AcDbEntity
  8
0
100
AcDbBlockBegin
  2
*Model_Space
 70
     0
 10
0.0
 20
0.0
 30
0.0
  3
*Model_Space
  1
*Model_Space
  0
ENDBLK
  5
537
330
535
100
AcDbEntity
  8
0
100
AcDbBlockEnd
  0
BLOCK
  5
532
330
531
100
AcDbEntity
 67
     1
  8
0
100
AcDbBlockBegin
  2
*Paper_Space
 70
     0
 10
0.0
 20
0.0
 30
0.0
  3
*Paper_Space
  1
*Paper_Space
  0
ENDBLK
  5
533
330
531
100
AcDbEntity
 67
     1
  8
0
100
AcDbBlockEnd
  0
ENDSEC
  0
SECTION
  2
ENTITIES
  0
ARC
  5
4A0
330
535
100
AcDbEntity
  8
VISIBLE
100
AcDbCircle
 10
37.98209999999999
 20
7.887604011145978
 30
0.0
 40
1.299525244085386
100
AcDbArc
 50
70.94688737943117
 51
109.0531126205688
  0
ARC
  5
49F
330
535
100
AcDbEntity
  8
VISIBLE
100
AcDbCircle
 10
37.9675944938707
 20
7.801168651011855
 30
0.0
 40
1.386036509676626
100
AcDbArc
 50
62.29430428258129
 51
71.54652486883528
  0
ARC
  5
49E
330
535
100
AcDbEntity
  8
VISIBLE
100
AcDbCircle
 10
37.88588134572869
 20
7.60940555479481
 30
0.0
 40
1.593893035351488
100
AcDbArc
 50
55.13185214218701
 51
62.89865410881372
  0
ARC
  5
49D
330
535
100
AcDbEntity
  8
VISIBLE
100
AcDbCircle
 10
37.76370148863481
 20
7.405941452296856
 30
0.0
 40
1.830748735703157
100
AcDbArc
 50
48.18819650140833
 51
55.63489994862813
  0
ARC
  5
4A4
330
535
100
AcDbEntity
  8
VISIBLE
100
AcDbCircle
 10
38.39600788130647
 20
7.156495583722811
 30
0.0
 40
2.147112398808963
100
AcDbArc
 50
131.2625800890716
 51
138.9826220208563
  0
ARC
  5
4A3
330
535
100
AcDbEntity
  8
VISIBLE
100
AcDbCircle
 10
38.2004985113652
 20
7.405941452296863
 30
0.0
 40
1.830748735703177
100
AcDbArc
 50
124.3651000513728
 51
131.8118034985926
  0
ARC
  5
4A2
330
535
100
AcDbEntity
  8
VISIBLE
100
AcDbCircle
 10
38.07831865427122
 20
7.609405554794865
 30
0.0
 40
1.593893035351416
100
AcDbArc
 50
117.1013458911854
 51
124.8681478578121
  0
ARC
  5
4A1
330
535
100
AcDbEntity
  8
VISIBLE
100
AcDbCircle
 10
37.99660550612929
 20
7.801168651011814
 30
0.0
 40
1.386036509676675
100
AcDbArc
 50
108.4534751311647
 51
117.7056957174187
  0
ARC
  5
49C
330
535
100
AcDbEntity
  8
VISIBLE
100
AcDbCircle
 10
37.56819211869345
 20
7.156495583722847
 30
0.0
 40
2.147112398808972
100
AcDbArc
 50
41.01737797914198
 51
48.73741991092659
  0
ARC
  5
49B
330
535
100
AcDbEntity
  8
VISIBLE
100
AcDbCircle
 10
37.24499465824946
 20
6.84255552085536
 30
0.0
 40
2.597121395843975
100
AcDbArc
 50
35.13277902641975
 51
41.56363436579553
  0
ARC
  5
49A
330
535
100
AcDbEntity
  8
VISIBLE
100
AcDbCircle
 10
37.22152736252857
 20
6.809152027993747
 30
0.0
 40
2.635572448432341
100
AcDbArc
 50
11.56372217359204
 51
35.43307257741267
  0
ARC
  5
4B0
330
535
100
AcDbEntity
  8
VISIBLE
100
AcDbCircle
 10
37.88588134572871
 20
3.264853711826161
 30
0.0
 40
1.593893035351538
100
AcDbArc
 50
297.1013458911848
 51
304.8681478578116
  0
ARC
  5
4AF
330
535
100
AcDbEntity
  8
VISIBLE
100
AcDbCircle
 10
37.96759449387067
 20
3.073090615609066
 30
0.0
 40
1.386036509676647
100
AcDbArc
 50
288.4534751311657
 51
297.7056957174196
  0
ARC
  5
4AE
330
535
100
AcDbEntity
  8
VISIBLE
100
AcDbCircle
 10
37.98209999999999
 20
2.986655255474933
 30
0.0
 40
1.299525244085386
100
AcDbArc
 50
250.9468873794312
 51
289.0531126205688
  0
ARC
  5
4AD
330
535
100
AcDbEntity
  8
VISIBLE
100
AcDbCircle
 10
37.99660550612926
 20
3.073090615609101
 30
0.0
 40
1.386036509676663
100
AcDbArc
 50
242.2943042825827
 51
251.5465248688367
  0
ARC
  5
4B4
330
535
100
AcDbEntity
  8
VISIBLE
100
AcDbCircle
 10
37.22152736252855
 20
4.065107238627022
 30
0.0
 40
2.635572095087515
100
AcDbArc
 50
324.5669274225864
 51
44.59898520492666
  0
ARC
  5
4B3
330
535
100
AcDbEntity
  8
VISIBLE
100
AcDbCircle
 10
37.24499269108136
 20
4.031701285810628
 30
0.0
 40
2.597121235658427
100
AcDbArc
 50
318.4364350324657
 51
324.8672903718373
  0
ARC
  5
4B2
330
535
100
AcDbEntity
  8
VISIBLE
100
AcDbCircle
 10
37.56819211869345
 20
3.717763682898056
 30
0.0
 40
2.147112398808968
100
AcDbArc
 50
311.2625800890735
 51
318.9826220208581
  0
ARC
  5
4B1
330
535
100
AcDbEntity
  8
VISIBLE
100
AcDbCircle
 10
37.76370148863483
 20
3.468317814324002
 30
0.0
 40
1.830748735703107
100
AcDbArc
 50
304.3651000513724
 51
311.8118034985922
  0
ARC
  5
4A8
330
535
100
AcDbEntity
  8
VISIBLE
100
AcDbCircle
 10
38.74267263747129
 20
4.065107238626991
 30
0.0
 40
2.635572448432146
100
AcDbArc
 50
180.0
 51
215.4330725774133
  0
LINE
  5
4A7
330
535
100
AcDbEntity
  8
VISIBLE
100
AcDbLine
 10
36.10710018903913
 20
6.809152027993897
 30
0.0
 11
36.10710018903915
 21
4.065107238626971
 31
0.0
  0
ARC
  5
4A6
330
535
100
AcDbEntity
  8
VISIBLE
100
AcDbCircle
 10
38.74267263747147
 20
6.8091520279939
 30
0.0
 40
2.635572448432346
100
AcDbArc
 50
144.5669274225908
 51
180.0
  0
ARC
  5
4A5
330
535
100
AcDbEntity
  8
VISIBLE
100
AcDbCircle
 10
38.71920534175035
 20
6.842555520855168
 30
0.0
 40
2.597121395843996
100
AcDbArc
 50
138.4363656341989
 51
144.8672209735747
  0
ARC
  5
4AC
330
535
100
AcDbEntity
  8
VISIBLE
100
AcDbCircle
 10
38.07831865427126
 20
3.26485371182609
 30
0.0
 40
1.593893035351475
100
AcDbArc
 50
235.1318521421875
 51
242.8986541088142
  0
ARC
  5
4AB
330
535
100
AcDbEntity
  8
VISIBLE
100
AcDbCircle
 10
38.20049851136522
 20
3.468317814323991
 30
0.0
 40
1.830748735703138
100
AcDbArc
 50
228.1881965014058
 51
235.6348999486256
  0
ARC
  5
4AA
330
535
100
AcDbEntity
  8
VISIBLE
100
AcDbCircle
 10
38.39600788130641
 20
3.717763682898096
 30
0.0
 40
2.147112398808912
100
AcDbArc
 50
221.0173779791448
 51
228.7374199109295
  0
ARC
  5
4A9
330
535
100
AcDbEntity
  8
VISIBLE
100
AcDbCircle
 10
38.71920534175067
 20
4.031703745765452
 30
0.0
 40
2.597121395844033
100
AcDbArc
 50
215.1327790264183
 51
221.5636343657918
  0
ARC
  5
4BE
330
535
100
AcDbEntity
  8
VISIBLE
100
AcDbCircle
 10
39.43621558314213
 20
7.262301066414391
 30
0.0
 40
0.3749999621921831
100
AcDbArc
 50
191.563722173587
 51
11.56372217358687
  0
ARC
  5
4BD
330
535
100
AcDbEntity
  8
VISIBLE
100
AcDbCircle
 10
37.22152736252853
 20
6.809152027993977
 30
0.0
 40
1.885572524047963
100
AcDbArc
 50
11.56372217358706
 51
35.43307257741113
1001
QCAD
1000
reversed:1
  0
ARC
  5
4B8
330
535
100
AcDbEntity
  8
VISIBLE
100
AcDbCircle
 10
38.74265905180408
 20
6.809109485470765
 30
0.0
 40
1.88555893886053
100
AcDbArc
 50
144.565634698729
 51
179.9987072761761
1001
QCAD
1000
reversed:1
  0
LINE
  5
4B7
330
535
100
AcDbEntity
  8
VISIBLE
100
AcDbLine
 10
36.85710011342347
 20
5.906504813738098
 30
0.0
 11
36.85710011342347
 21
6.809152027992792
 31
0.0
  0
ARC
  5
4B6
330
535
100
AcDbEntity
  8
VISIBLE
100
AcDbCircle
 10
38.74892124225178
 20
4.065092101426
 30
0.0
 40
2.640035598348215
100
AcDbArc
 50
135.4959991055291
 51
135.7735957978883
  0
ARC
  5
4B5
330
535
100
AcDbEntity
  8
VISIBLE
100
AcDbCircle
 10
37.98210000000003
 20
4.815107163011335
 30
0.0
 40
1.56740983051963
100
AcDbArc
 50
44.59898520492756
 51
135.4010147950725
  0
ARC
  5
4C0
330
535
100
AcDbEntity
  8
VISIBLE
100
AcDbCircle
 10
38.74267263747146
 20
4.065107238626994
 30
0.0
 40
2.635572095087502
100
AcDbArc
 50
180.0
 51
201.0323376702437
1001
QCAD
1000
reversed:1
  0
ARC
  5
4C8
330
535
100
AcDbEntity
  8
VISIBLE
100
AcDbCircle
 10
37.22152736252855
 20
4.065107238626961
 30
0.0
 40
1.885572524047968
100
AcDbArc
 50
315.4010147950735
 51
44.59898520492796
1001
QCAD
1000
reversed:1
  0
ARC
  5
4CB
330
535
100
AcDbEntity
  8
VISIBLE
100
AcDbCircle
 10
37.98210000000002
 20
4.815107163011345
 30
0.0
 40
0.8174102594800517
100
AcDbArc
 50
44.5989852049272
 51
135.4010147950715
1001
QCAD
1000
reversed:1
  0
ARC
  5
4CA
330
535
100
AcDbEntity
  8
VISIBLE
100
AcDbCircle
 10
38.74267263747148
 20
4.065107238626998
 30
0.0
 40
1.885572524047966
100
AcDbArc
 50
135.4010147950722
 51
224.5989852049279
1001
QCAD
1000
reversed:1
  0
ARC
  5
4C9
330
535
100
AcDbEntity
  8
VISIBLE
100
AcDbCircle
 10
37.98210000000003
 20
3.315107314242651
 30
0.0
 40
0.8174102594800774
100
AcDbArc
 50
224.5989852049277
 51
315.4010147950719
1001
QCAD
1000
reversed:1
  0
ARC
  5
420
330
535
100
AcDbEntity
  8
VISIBLE
100
AcDbCircle
 10
31.43124302438716
 20
5.133733722266145
 30
0.0
 40
1.715221651003802
100
AcDbArc
 50
23.12904677163907
 51
34.40634970362598
1001
QCAD
1000
reversed:1
  0
ARC
  5
41F
330
535
100
AcDbEntity
  8
VISIBLE
100
AcDbCircle
 10
31.75074185006861
 20
5.381067767335225
 30
0.0
 40
1.312071635430874
100
AcDbArc
 50
33.37888441030004
 51
42.11026712839546
1001
QCAD
1000
reversed:1
  0
ARC
  5
41E
330
535
100
AcDbEntity
  8
VISIBLE
100
AcDbCircle
 10
31.9242248619725
 20
5.556056910142138
 30
0.0
 40
1.066116931778332
100
AcDbArc
 50
41.38547665666378
 51
49.10979624039354
1001
QCAD
1000
reversed:1
  0
ARC
  5
41D
330
535
100
AcDbEntity
  8
VISIBLE
100
AcDbCircle
 10
32.02711511734397
 20
5.688886724892862
 30
0.0
 40
0.8983958409661332
100
AcDbArc
 50
48.52493401073411
 51
55.95218818994513
1001
QCAD
1000
reversed:1
  0
ARC
  5
424
330
535
100
AcDbEntity
  8
VISIBLE
100
AcDbCircle
 10
31.92422486197248
 20
3.443202545516535
 30
0.0
 40
1.066116931778343
100
AcDbArc
 50
310.890203759607
 51
318.6145233433368
1001
QCAD
1000
reversed:1
  0
ARC
  5
423
330
535
100
AcDbEntity
  8
VISIBLE
100
AcDbCircle
 10
31.75074185006861
 20
3.618191688323445
 30
0.0
 40
1.312071635430873
100
AcDbArc
 50
317.8897328716048
 51
326.6211155897003
1001
QCAD
1000
reversed:1
  0
ARC
  5
422
330
535
100
AcDbEntity
  8
VISIBLE
100
AcDbCircle
 10
31.43124302438713
 20
3.865525733392389
 30
0.0
 40
1.715221651003744
100
AcDbArc
 50
325.5936502963785
 51
336.8709532283654
1001
QCAD
1000
reversed:1
  0
ARC
  5
421
330
535
100
AcDbEntity
  8
VISIBLE
100
AcDbCircle
 10
29.78361055093476
 20
4.499629727829374
 30
0.0
 40
3.480089335641781
100
AcDbArc
 50
337.9256778370205
 51
22.07432216297832
1001
QCAD
1000
reversed:1
  0
ARC
  5
418
330
535
100
AcDbEntity
  8
VISIBLE
100
AcDbCircle
 10
32.1873541981854
 20
5.794824505391471
 30
0.0
 40
0.7754181426967044
100
AcDbArc
 50
116.8458944609262
 51
124.5776418125566
1001
QCAD
1000
reversed:1
  0
ARC
  5
417
330
535
100
AcDbEntity
  8
VISIBLE
100
AcDbCircle
 10
32.25028488265605
 20
5.688886724892949
 30
0.0
 40
0.8983958409660865
100
AcDbArc
 50
124.0478118100595
 51
131.4750659892705
1001
QCAD
1000
reversed:1
  0
ARC
  5
416
330
535
100
AcDbEntity
  8
VISIBLE
100
AcDbCircle
 10
32.35317513802748
 20
5.556056910142147
 30
0.0
 40
1.066116931778308
100
AcDbArc
 50
130.8902037596056
 51
138.6145233433355
1001
QCAD
1000
reversed:1
  0
ARC
  5
415
330
535
100
AcDbEntity
  8
VISIBLE
100
AcDbCircle
 10
32.5266581499314
 20
5.381067767335113
 30
0.0
 40
1.312071635430962
100
AcDbArc
 50
137.889732871601
 51
146.6211155896965
1001
QCAD
1000
reversed:1
  0
ARC
  5
41C
330
535
100
AcDbEntity
  8
VISIBLE
100
AcDbCircle
 10
32.09004580181458
 20
5.794824505391491
 30
0.0
 40
0.7754181426966908
100
AcDbArc
 50
55.42235818744126
 51
63.15410553907159
1001
QCAD
1000
reversed:1
  0
ARC
  5
41B
330
535
100
AcDbEntity
  8
VISIBLE
100
AcDbCircle
 10
32.13141792649227
 20
5.892891316262271
 30
0.0
 40
0.669277821076179
100
AcDbArc
 50
62.52290187094744
 51
71.72958042506089
1001
QCAD
1000
reversed:1
  0
ARC
  5
41A
330
535
100
AcDbEntity
  8
VISIBLE
100
AcDbCircle
 10
32.1387
 20
5.936656308160165
 30
0.0
 40
0.6254732117261289
100
AcDbArc
 50
71.10616172247803
 51
108.8938382775221
1001
QCAD
1000
reversed:1
  0
ARC
  5
419
330
535
100
AcDbEntity
  8
VISIBLE
100
AcDbCircle
 10
32.14598207350773
 20
5.892891316262302
 30
0.0
 40
0.6692778210761542
100
AcDbArc
 50
108.2704195749401
 51
117.4770981290537
1001
QCAD
1000
reversed:1
  0
ARC
  5
430
330
535
100
AcDbEntity
  8
VISIBLE
100
AcDbCircle
 10
30.6387001512313
 20
4.499629727829333
 30
0.0
 40
0.3749999621921649
100
AcDbArc
 50
0.0
 51
180.0
  0
ARC
  5
42F
330
535
100
AcDbEntity
  8
VISIBLE
100
AcDbCircle
 10
34.49378944906523
 20
4.499629727829363
 30
0.0
 40
3.480089335641764
100
AcDbArc
 50
180.0
 51
202.0743221629793
1001
QCAD
1000
reversed:1
  0
ARC
  5
42E
330
535
100
AcDbEntity
  8
VISIBLE
100
AcDbCircle
 10
32.84615697561291
 20
3.865525733392418
 30
0.0
 40
1.715221651003799
100
AcDbArc
 50
203.1290467716346
 51
214.4063497036214
1001
QCAD
1000
reversed:1
  0
ARC
  5
42D
330
535
100
AcDbEntity
  8
VISIBLE
100
AcDbCircle
 10
32.52665814993142
 20
3.61819168832348
 30
0.0
 40
1.312071635430926
100
AcDbArc
 50
213.3788844103001
 51
222.1102671283955
1001
QCAD
1000
reversed:1
  0
ARC
  5
428
330
535
100
AcDbEntity
  8
VISIBLE
100
AcDbCircle
 10
32.1387
 20
3.062603147498509
 30
0.0
 40
0.6254732117261325
100
AcDbArc
 50
251.106161722478
 51
288.8938382775218
1001
QCAD
1000
reversed:1
  0
ARC
  5
427
330
535
100
AcDbEntity
  8
VISIBLE
100
AcDbCircle
 10
32.13141792649225
 20
3.106368139396398
 30
0.0
 40
0.6692778210761844
100
AcDbArc
 50
288.2704195749403
 51
297.4770981290537
1001
QCAD
1000
reversed:1
  0
ARC
  5
426
330
535
100
AcDbEntity
  8
VISIBLE
100
AcDbCircle
 10
32.09004580181457
 20
3.204434950267176
 30
0.0
 40
0.7754181426966896
100
AcDbArc
 50
296.845894460929
 51
304.5776418125594
1001
QCAD
1000
reversed:1
  0
ARC
  5
425
330
535
100
AcDbEntity
  8
VISIBLE
100
AcDbCircle
 10
32.02711511734397
 20
3.310372730765808
 30
0.0
 40
0.8983958409661347
100
AcDbArc
 50
304.0478118100549
 51
311.4750659892659
1001
QCAD
1000
reversed:1
  0
ARC
  5
42C
330
535
100
AcDbEntity
  8
VISIBLE
100
AcDbCircle
 10
32.35317513802755
 20
3.443202545516499
 30
0.0
 40
1.066116931778346
100
AcDbArc
 50
221.3854766566608
 51
229.1097962403907
1001
QCAD
1000
reversed:1
  0
ARC
  5
42B
330
535
100
AcDbEntity
  8
VISIBLE
100
AcDbCircle
 10
32.25028488265601
 20
3.3103727307658
 30
0.0
 40
0.8983958409661263
100
AcDbArc
 50
228.5249340107345
 51
235.9521881899456
1001
QCAD
1000
reversed:1
  0
ARC
  5
42A
330
535
100
AcDbEntity
  8
VISIBLE
100
AcDbCircle
 10
32.1873541981854
 20
3.204434950267197
 30
0.0
 40
0.7754181426967037
100
AcDbArc
 50
235.4223581874433
 51
243.1541055390737
1001
QCAD
1000
reversed:1
  0
ARC
  5
429
330
535
100
AcDbEntity
  8
VISIBLE
100
AcDbCircle
 10
32.14598207350772
 20
3.106368139396374
 30
0.0
 40
0.6692778210761586
100
AcDbArc
 50
242.5229018709471
 51
251.7295804250606
1001
QCAD
1000
reversed:1
  0
ARC
  5
400
330
535
100
AcDbEntity
  8
VISIBLE
100
AcDbCircle
 10
31.8102092721063
 20
3.532920715382621
 30
0.0
 40
1.939121217772045
100
AcDbArc
 50
312.0770577270895
 51
319.7558976330029
  0
ARC
  5
3FF
330
535
100
AcDbEntity
  8
VISIBLE
100
AcDbCircle
 10
31.95929171117583
 20
3.347515313062926
 30
0.0
 40
1.701654860558655
100
AcDbArc
 50
305.0701076184108
 51
312.5346477882496
  0
ARC
  5
3FE
330
535
100
AcDbEntity
  8
VISIBLE
100
AcDbCircle
 10
32.05755651286734
 20
3.187718222953642
 30
0.0
 40
1.514451011600203
100
AcDbArc
 50
297.6765454717865
 51
305.5010699905445
  0
ARC
  5
3FD
330
535
100
AcDbEntity
  8
VISIBLE
100
AcDbCircle
 10
32.12623763829874
 20
3.03005956943794
 30
0.0
 40
1.342987382049165
100
AcDbArc
 50
288.8731036299208
 51
298.2058433212251
  0
ARC
  5
404
330
535
100
AcDbEntity
  8
VISIBLE
100
AcDbCircle
 10
31.22525077116467
 20
4.981482607329569
 30
0.0
 40
2.69886985029159
100
AcDbArc
 50
22.28229785739158
 51
32.95759845541743
  0
ARC
  5
403
330
535
100
AcDbEntity
  8
VISIBLE
100
AcDbCircle
 10
29.97689532213942
 20
4.499629727829336
 30
0.0
 40
4.036804488821453
100
AcDbArc
 50
338.1075660836482
 51
21.89243391635173
  0
ARC
  5
402
330
535
100
AcDbEntity
  8
VISIBLE
100
AcDbCircle
 10
31.22525077116466
 20
4.017776848329106
 30
0.0
 40
2.698869850291606
100
AcDbArc
 50
327.0424015445826
 51
337.7177021426085
  0
ARC
  5
401
330
535
100
AcDbEntity
  8
VISIBLE
100
AcDbCircle
 10
31.58340030414617
 20
3.752587448444551
 30
0.0
 40
2.254258104764863
100
AcDbArc
 50
319.2185174327565
 51
327.745787862906
  0
ARC
  5
3F8
330
535
100
AcDbEntity
  8
VISIBLE
100
AcDbCircle
 10
32.46719072789369
 20
3.532920715382646
 30
0.0
 40
1.939121217772061
100
AcDbArc
 50
220.2441023669979
 51
227.9229422729113
  0
ARC
  5
3F7
330
535
100
AcDbEntity
  8
VISIBLE
100
AcDbCircle
 10
32.69399969585387
 20
3.752587448444601
 30
0.0
 40
2.254258104764937
100
AcDbArc
 50
212.254212137094
 51
220.7814825672436
  0
ARC
  5
3F6
330
535
100
AcDbEntity
  8
VISIBLE
100
AcDbCircle
 10
33.0521492288353
 20
4.017776848329047
 30
0.0
 40
2.698869850291544
100
AcDbArc
 50
202.2822978573907
 51
212.9575984554165
  0
ARC
  5
3F5
330
535
100
AcDbEntity
  8
VISIBLE
100
AcDbCircle
 10
34.30050467786057
 20
4.499629727829324
 30
0.0
 40
4.036804488821438
100
AcDbArc
 50
180.0
 51
201.8924339163516
  0
ARC
  5
3FC
330
535
100
AcDbEntity
  8
VISIBLE
100
AcDbCircle
 10
32.13869999999999
 20
2.957170104439689
 30
0.0
 40
1.27004009305166
100
AcDbArc
 50
250.5952078479504
 51
289.4047921520497
  0
ARC
  5
3FB
330
535
100
AcDbEntity
  8
VISIBLE
100
AcDbCircle
 10
32.15116236170128
 20
3.030059569437826
 30
0.0
 40
1.342987382049071
100
AcDbArc
 50
241.7941566787719
 51
251.1268963700764
  0
ARC
  5
3FA
330
535
100
AcDbEntity
  8
VISIBLE
100
AcDbCircle
 10
32.21984348713264
 20
3.187718222953763
 30
0.0
 40
1.514451011600294
100
AcDbArc
 50
234.4989300094585
 51
242.3234545282164
  0
ARC
  5
3F9
330
535
100
AcDbEntity
  8
VISIBLE
100
AcDbCircle
 10
32.31810828882416
 20
3.347515313062894
 30
0.0
 40
1.701654860558625
100
AcDbArc
 50
227.4653522117501
 51
234.9298923815889
  0
LINE
  5
410
330
535
100
AcDbEntity
  8
VISIBLE
100
AcDbLine
 10
33.26369988657652
 20
9.187129255231515
 30
0.0
 11
31.01370011342347
 21
9.187129255231513
 31
0.0
  0
ARC
  5
40F
330
535
100
AcDbEntity
  8
VISIBLE
100
AcDbCircle
 10
33.26369988657652
 20
8.812129293039341
 30
0.0
 40
0.3749999621921738
100
AcDbArc
 50
270.0
 51
90.0
  0
LINE
  5
40E
330
535
100
AcDbEntity
  8
VISIBLE
100
AcDbLine
 10
31.38870007561564
 20
8.437129330847164
 30
0.0
 11
33.26369988657652
 21
8.437129330847167
 31
0.0
  0
LINE
  5
40D
330
535
100
AcDbEntity
  8
VISIBLE
100
AcDbLine
 10
31.38870007561564
 20
7.077328296356161
 30
0.0
 11
31.38870007561564
 21
8.437129330847164
 31
0.0
  0
ARC
  5
414
330
535
100
AcDbEntity
  8
VISIBLE
100
AcDbCircle
 10
32.85263723221114
 20
5.143998399238717
 30
0.0
 40
1.714810956646668
100
AcDbArc
 50
145.9989650828146
 51
150.2819037064925
1001
QCAD
1000
reversed:1
  0
ARC
  5
413
330
535
100
AcDbEntity
  8
VISIBLE
100
AcDbCircle
 10
31.02674566155143
 20
6.187129557694123
 30
0.0
 40
0.3880455103201433
100
AcDbArc
 50
180.0
 51
330.1669377842315
  0
LINE
  5
412
330
535
100
AcDbEntity
  8
VISIBLE
100
AcDbLine
 10
30.6387001512313
 20
8.81212929303934
 30
0.0
 11
30.63870015123129
 21
6.187129557694124
 31
0.0
  0
ARC
  5
411
330
535
100
AcDbEntity
  8
VISIBLE
100
AcDbCircle
 10
31.01370011342348
 20
8.81212929303934
 30
0.0
 40
0.3749999621921738
100
AcDbArc
 50
90.00000000000054
 51
180.0
  0
ARC
  5
408
330
535
100
AcDbEntity
  8
VISIBLE
100
AcDbCircle
 10
32.05755651286741
 20
5.811541232705021
 30
0.0
 40
1.514451011600174
100
AcDbArc
 50
54.49893000945767
 51
62.32345452821559
  0
ARC
  5
407
330
535
100
AcDbEntity
  8
VISIBLE
100
AcDbCircle
 10
31.9592917111758
 20
5.651744142595743
 30
0.0
 40
1.701654860558674
100
AcDbArc
 50
47.4653522117497
 51
54.92989238158849
  0
ARC
  5
406
330
535
100
AcDbEntity
  8
VISIBLE
100
AcDbCircle
 10
31.81020927210635
 20
5.466338740276
 30
0.0
 40
1.939121217772045
100
AcDbArc
 50
40.24410236699912
 51
47.92294227291254
  0
ARC
  5
405
330
535
100
AcDbEntity
  8
VISIBLE
100
AcDbCircle
 10
31.58340030414615
 20
5.246672007214173
 30
0.0
 40
2.254258104764849
100
AcDbArc
 50
32.25421213709248
 51
40.78148256724197
  0
ARC
  5
40C
330
535
100
AcDbEntity
  8
VISIBLE
100
AcDbCircle
 10
32.22142873919347
 20
5.812474390083401
 30
0.0
 40
1.514362054251751
100
AcDbArc
 50
117.7460598345137
 51
123.3592907883485
  0
ARC
  5
40B
330
535
100
AcDbEntity
  8
VISIBLE
100
AcDbCircle
 10
32.15116236170131
 20
5.969199886220774
 30
0.0
 40
1.342987382049142
100
AcDbArc
 50
108.8731036299234
 51
118.2058433212278
  0
ARC
  5
40A
330
535
100
AcDbEntity
  8
VISIBLE
100
AcDbCircle
 10
32.1387
 20
6.042089351218993
 30
0.0
 40
1.270040093051649
100
AcDbArc
 50
70.59520784795045
 51
109.4047921520496
  0
ARC
  5
409
330
535
100
AcDbEntity
  8
VISIBLE
100
AcDbCircle
 10
32.12623763829868
 20
5.969199886220729
 30
0.0
 40
1.342987382049187
100
AcDbArc
 50
61.79415667877262
 51
71.12689637007699
  0
ARC
  5
468
330
535
100
AcDbEntity
  8
VISIBLE
100
AcDbCircle
 10
20.56958922557667
 20
3.515231565632011
 30
0.0
 40
1.855756752233138
100
AcDbArc
 50
226.1367935402702
 51
233.5382594772306
1001
QCAD
1000
reversed:1
  0
ARC
  5
467
330
535
100
AcDbEntity
  8
VISIBLE
100
AcDbCircle
 10
20.50867538169171
 20
3.420618590231462
 30
0.0
 40
1.743478682857654
100
AcDbArc
 50
233.3004312485753
 51
241.1509781195801
1001
QCAD
1000
reversed:1
  0
ARC
  5
466
330
535
100
AcDbEntity
  8
VISIBLE
100
AcDbCircle
 10
20.46104519555415
 20
3.315921409434673
 30
0.0
 40
1.628817071828007
100
AcDbArc
 50
240.8415049625508
 51
250.2338006528315
1001
QCAD
1000
reversed:1
  0
ARC
  5
465
330
535
100
AcDbEntity
  8
VISIBLE
100
AcDbCircle
 10
20.45189997124896
 20
3.264287890871166
 30
0.0
 40
1.577157879483143
100
AcDbArc
 50
249.912103687892
 51
290.0878963121079
1001
QCAD
1000
reversed:1
  0
ARC
  5
46C
330
535
100
AcDbEntity
  8
VISIBLE
100
AcDbCircle
 10
19.18459151782707
 20
2.937129885361945
 30
0.0
 40
0.3749999621921575
100
AcDbArc
 50
33.79566397998013
 51
206.8885318039403
1001
QCAD
1000
reversed:1
  0
ARC
  5
46B
330
535
100
AcDbEntity
  8
VISIBLE
100
AcDbCircle
 10
20.89907106903352
 20
3.804540000825205
 30
0.0
 40
2.296416090750796
100
AcDbArc
 50
206.8448373865731
 51
211.1941443363974
1001
QCAD
1000
reversed:1
  0
ARC
  5
46A
330
535
100
AcDbEntity
  8
VISIBLE
100
AcDbCircle
 10
20.75798843919966
 20
3.710225717636454
 30
0.0
 40
2.126896081010107
100
AcDbArc
 50
210.9892541828226
 51
219.1346996688216
1001
QCAD
1000
reversed:1
  0
ARC
  5
469
330
535
100
AcDbEntity
  8
VISIBLE
100
AcDbCircle
 10
20.6512212356146
 20
3.61195843781972
 30
0.0
 40
1.982079300617446
100
AcDbArc
 50
218.8792553659756
 51
226.3729476313448
1001
QCAD
1000
reversed:1
  0
ARC
  5
480
330
535
100
AcDbEntity
  8
VISIBLE
100
AcDbCircle
 10
20.44503527325509
 20
4.542948284444806
 30
0.0
 40
0.8942076988801337
100
AcDbArc
 50
61.30691545324277
 51
70.68791396119336
  0
ARC
  5
47F
330
535
100
AcDbEntity
  8
VISIBLE
100
AcDbCircle
 10
20.40818357105048
 20
4.460188056296978
 30
0.0
 40
0.9845263358661205
100
AcDbArc
 50
53.88523876200033
 51
61.73804806122512
  0
ARC
  5
47E
330
535
100
AcDbEntity
  8
VISIBLE
100
AcDbCircle
 10
20.35814960179899
 20
4.380699642758018
 30
0.0
 40
1.078249529725635
100
AcDbArc
 50
46.77862732220704
 51
54.22699553456866
  0
ARC
  5
47D
330
535
100
AcDbEntity
  8
VISIBLE
100
AcDbCircle
 10
20.28665006431227
 20
4.293955096175522
 30
0.0
 40
1.190448061041365
100
AcDbArc
 50
39.52998237990614
 51
47.13005512831774
  0
ARC
  5
481
330
535
100
AcDbEntity
  8
VISIBLE
100
AcDbCircle
 10
20.45189997124889
 20
4.582378860967333
 30
0.0
 40
0.8547507723424307
100
AcDbArc
 50
70.24805856006553
 51
90.00000000000024
  0
ARC
  5
478
330
535
100
AcDbEntity
  8
VISIBLE
100
AcDbCircle
 10
20.18579173344155
 20
3.675448372919646
 30
0.0
 40
1.328828391916266
100
AcDbArc
 50
320.0737994458439
 51
328.4169364793342
  0
ARC
  5
477
330
535
100
AcDbEntity
  8
VISIBLE
100
AcDbCircle
 10
20.28665006431226
 20
3.580304472906613
 30
0.0
 40
1.190448061041364
100
AcDbArc
 50
312.8699448716825
 51
320.470017620094
  0
ARC
  5
476
330
535
100
AcDbEntity
  8
VISIBLE
100
AcDbCircle
 10
20.358149601799
 20
3.493559926324115
 30
0.0
 40
1.078249529725622
100
AcDbArc
 50
305.7730044654309
 51
313.2213726777925
  0
ARC
  5
475
330
535
100
AcDbEntity
  8
VISIBLE
100
AcDbCircle
 10
20.40818357105047
 20
3.414071512785161
 30
0.0
 40
0.9845263358661239
100
AcDbArc
 50
298.261951938775
 51
306.1147612379999
  0
ARC
  5
47C
330
535
100
AcDbEntity
  8
VISIBLE
100
AcDbCircle
 10
20.18579173344154
 20
4.198811196162493
 30
0.0
 40
1.328828391916273
100
AcDbArc
 50
31.58306352066547
 51
39.92620055415576
  0
ARC
  5
47B
330
535
100
AcDbEntity
  8
VISIBLE
100
AcDbCircle
 10
20.04169385813494
 20
4.095057881775723
 30
0.0
 40
1.505977290549795
100
AcDbArc
 50
21.80363503253354
 51
32.07448853536321
  0
ARC
  5
47A
330
535
100
AcDbEntity
  8
VISIBLE
100
AcDbCircle
 10
19.6301634151636
 20
3.937129784541069
 30
0.0
 40
1.946736442661813
100
AcDbArc
 50
338.379522701456
 51
21.62047729854399
  0
ARC
  5
479
330
535
100
AcDbEntity
  8
VISIBLE
100
AcDbCircle
 10
20.04169385813493
 20
3.779201687306413
 30
0.0
 40
1.505977290549803
100
AcDbArc
 50
327.925511464637
 51
338.1963649674667
  0
ARC
  5
434
330
535
100
AcDbEntity
  8
VISIBLE
100
AcDbCircle
 10
20.42351226602758
 20
7.053873847115814
 30
0.0
 40
0.8717393414288126
100
AcDbArc
 50
298.8490218804205
 51
306.6995687514253
  0
ARC
  5
433
330
535
100
AcDbEntity
  8
VISIBLE
100
AcDbCircle
 10
20.44732735909636
 20
7.001525256717416
 30
0.0
 40
0.8144085359139837
100
AcDbArc
 50
289.7661993471691
 51
299.1584950374498
  0
ARC
  5
432
330
535
100
AcDbEntity
  8
VISIBLE
100
AcDbCircle
 10
20.45189997124896
 20
6.975708497435726
 30
0.0
 40
0.7885789397416094
100
AcDbArc
 50
269.9999999999993
 51
290.0878963121069
  0
ARC
  5
431
330
535
100
AcDbEntity
  8
VISIBLE
100
AcDbCircle
 10
20.45189996303032
 20
5.812129595501938
 30
0.0
 40
0.3749999621921783
100
AcDbArc
 50
89.99999874428609
 51
269.9999987442856
1001
QCAD
1000
reversed:1
  0
ARC
  5
440
330
535
100
AcDbEntity
  8
VISIBLE
100
AcDbCircle
 10
20.45189997124896
 20
7.64855039110558
 30
0.0
 40
0.7885789397415779
100
AcDbArc
 50
69.91210368789191
 51
110.0878963121079
  0
ARC
  5
43F
330
535
100
AcDbEntity
  8
VISIBLE
100
AcDbCircle
 10
20.4473273590964
 20
7.622733631823858
 30
0.0
 40
0.8144085359139642
100
AcDbArc
 50
60.84150496255261
 51
70.23380065283335
  0
ARC
  5
43E
330
535
100
AcDbEntity
  8
VISIBLE
100
AcDbCircle
 10
20.42351226602758
 20
7.570385041425459
 30
0.0
 40
0.8717393414288092
100
AcDbArc
 50
53.30043124857503
 51
61.15097811957977
  0
ARC
  5
43D
330
535
100
AcDbEntity
  8
VISIBLE
100
AcDbCircle
 10
20.39305534408506
 20
7.523078553725162
 30
0.0
 40
0.9278783761165971
100
AcDbArc
 50
46.13679354026876
 51
53.53825947722908
  0
ARC
  5
444
330
535
100
AcDbEntity
  8
VISIBLE
100
AcDbCircle
 10
20.55156060343174
 20
7.47471511763124
 30
0.0
 40
0.9910396503087415
100
AcDbArc
 50
133.6270523686507
 51
141.1207446340201
  0
ARC
  5
443
330
535
100
AcDbEntity
  8
VISIBLE
100
AcDbCircle
 10
20.51074459841286
 20
7.523078553725247
 30
0.0
 40
0.92787837611654
100
AcDbArc
 50
126.4617405227751
 51
133.8632064597354
  0
ARC
  5
442
330
535
100
AcDbEntity
  8
VISIBLE
100
AcDbCircle
 10
20.48028767647032
 20
7.570385041425435
 30
0.0
 40
0.8717393414288285
100
AcDbArc
 50
118.8490218804193
 51
126.6995687514241
  0
ARC
  5
441
330
535
100
AcDbEntity
  8
VISIBLE
100
AcDbCircle
 10
20.45647258340156
 20
7.622733631823799
 30
0.0
 40
0.8144085359140437
100
AcDbArc
 50
109.7661993471683
 51
119.1584950374491
  0
ARC
  5
438
330
535
100
AcDbEntity
  8
VISIBLE
100
AcDbCircle
 10
20.2292555306474
 20
7.247524284223092
 30
0.0
 40
1.148279810920015
100
AcDbArc
 50
328.7094114543549
 51
338.611307150852
  0
ARC
  5
437
330
535
100
AcDbEntity
  8
VISIBLE
100
AcDbCircle
 10
20.29885573727359
 20
7.19867741081835
 30
0.0
 40
1.063448040505072
100
AcDbArc
 50
320.8653003311779
 51
329.0107458171767
  0
ARC
  5
436
330
535
100
AcDbEntity
  8
VISIBLE
100
AcDbCircle
 10
20.35223933906615
 20
7.149543770909955
 30
0.0
 40
0.9910396503087041
100
AcDbArc
 50
313.6270523686549
 51
321.1207446340242
  0
ARC
  5
435
330
535
100
AcDbEntity
  8
VISIBLE
100
AcDbCircle
 10
20.39305534408507
 20
7.101180334816111
 30
0.0
 40
0.9278783761165899
100
AcDbArc
 50
306.4617405227706
 51
313.863206459731
  0
ARC
  5
43C
330
535
100
AcDbEntity
  8
VISIBLE
100
AcDbCircle
 10
20.35223933906614
 20
7.47471511763132
 30
0.0
 40
0.9910396503087062
100
AcDbArc
 50
38.87925536597556
 51
46.37294763134494
  0
ARC
  5
43B
330
535
100
AcDbEntity
  8
VISIBLE
100
AcDbCircle
 10
20.29885573727358
 20
7.425581477722923
 30
0.0
 40
1.063448040505075
100
AcDbArc
 50
30.98925418282323
 51
39.13469966882202
  0
ARC
  5
43A
330
535
100
AcDbEntity
  8
VISIBLE
100
AcDbCircle
 10
20.22925553064741
 20
7.376734604318182
 30
0.0
 40
1.148279810920006
100
AcDbArc
 50
21.38869284914822
 51
31.29058854564531
  0
ARC
  5
439
330
535
100
AcDbEntity
  8
VISIBLE
100
AcDbCircle
 10
20.05940881178584
 20
7.312129444270638
 30
0.0
 40
1.329991064943546
100
AcDbArc
 50
338.6882587105301
 51
21.31174128946986
  0
ARC
  5
450
330
535
100
AcDbEntity
  8
VISIBLE
100
AcDbCircle
 10
20.41770508212181
 20
7.566186513861766
 30
0.0
 40
1.627021057814152
100
AcDbArc
 50
52.85755985334794
 51
60.68507728507297
1001
QCAD
1000
reversed:1
  0
ARC
  5
44F
330
535
100
AcDbEntity
  8
VISIBLE
100
AcDbCircle
 10
20.44626704896018
 20
7.627931657778939
 30
0.0
 40
1.55920777334016
100
AcDbArc
 50
60.48934029779382
 51
69.86218102050167
1001
QCAD
1000
reversed:1
  0
ARC
  5
44E
330
535
100
AcDbEntity
  8
VISIBLE
100
AcDbCircle
 10
20.45190001630856
 20
7.659325102985181
 30
0.0
 40
1.527804152246324
100
AcDbArc
 50
69.65518763103329
 51
110.3447975791908
1001
QCAD
1000
reversed:1
  0
ARC
  5
44D
330
535
100
AcDbEntity
  8
VISIBLE
100
AcDbCircle
 10
20.45753297513531
 20
7.627931656323497
 30
0.0
 40
1.55920777334014
100
AcDbArc
 50
110.1378041753017
 51
119.5106448980095
1001
QCAD
1000
reversed:1
  0
ARC
  5
454
330
535
100
AcDbEntity
  8
VISIBLE
100
AcDbCircle
 10
20.21836609912899
 20
7.367249427995096
 30
0.0
 40
1.910985885890876
100
AcDbArc
 50
21.09428585601619
 51
30.7323931298315
1001
QCAD
1000
reversed:1
  0
ARC
  5
453
330
535
100
AcDbEntity
  8
VISIBLE
100
AcDbCircle
 10
20.28466609030191
 20
7.412914917727191
 30
0.0
 40
1.830668325491153
100
AcDbArc
 50
30.56428735986701
 51
38.55157486736406
1001
QCAD
1000
reversed:1
  0
ARC
  5
452
330
535
100
AcDbEntity
  8
VISIBLE
100
AcDbCircle
 10
20.33899322491047
 20
7.4620061162272
 30
0.0
 40
1.757593214349378
100
AcDbArc
 50
38.40377234639407
 51
45.79955502752728
1001
QCAD
1000
reversed:1
  0
ARC
  5
451
330
535
100
AcDbEntity
  8
VISIBLE
100
AcDbCircle
 10
20.38304287523047
 20
7.513274937000799
 30
0.0
 40
1.690133334935969
100
AcDbArc
 50
45.65840498237893
 51
53.00392095202561
1001
QCAD
1000
reversed:1
  0
ARC
  5
448
330
535
100
AcDbEntity
  8
VISIBLE
100
AcDbCircle
 10
20.68572964145212
 20
7.367837336747754
 30
0.0
 40
1.910939774260076
100
AcDbArc
 50
149.2872774557854
 51
157.3417973762939
1001
QCAD
1000
reversed:1
  0
ARC
  5
447
330
535
100
AcDbEntity
  8
VISIBLE
100
AcDbCircle
 10
19.25810634820672
 20
7.937129381258543
 30
0.0
 40
0.3749999621965474
100
AcDbArc
 50
153.5783789352934
 51
338.2404883154309
1001
QCAD
1000
reversed:1
  0
ARC
  5
446
330
535
100
AcDbEntity
  8
VISIBLE
100
AcDbCircle
 10
20.67457460191847
 20
7.376795396036336
 30
0.0
 40
1.148274037731071
100
AcDbArc
 50
148.7127859735061
 51
158.4746153860116
  0
ARC
  5
445
330
535
100
AcDbEntity
  8
VISIBLE
100
AcDbCircle
 10
20.60494420522431
 20
7.425581477723003
 30
0.0
 40
1.063448040505026
100
AcDbArc
 50
140.8653003311813
 51
149.0107458171801
  0
ARC
  5
44C
330
535
100
AcDbEntity
  8
VISIBLE
100
AcDbCircle
 10
20.48609492601986
 20
7.566186505026449
 30
0.0
 40
1.627021057814118
100
AcDbArc
 50
119.3149079107309
 51
127.142425342456
1001
QCAD
1000
reversed:1
  0
ARC
  5
44B
330
535
100
AcDbEntity
  8
VISIBLE
100
AcDbCircle
 10
20.52075711923979
 20
7.513274919209376
 30
0.0
 40
1.690133334935948
100
AcDbArc
 50
126.9960642437777
 51
134.3415802134244
1001
QCAD
1000
reversed:1
  0
ARC
  5
44A
330
535
100
AcDbEntity
  8
VISIBLE
100
AcDbCircle
 10
20.56480675631288
 20
7.46200608705408
 30
0.0
 40
1.757593214349427
100
AcDbArc
 50
134.2004301682754
 51
141.5962128494086
1001
QCAD
1000
reversed:1
  0
ARC
  5
449
330
535
100
AcDbEntity
  8
VISIBLE
100
AcDbCircle
 10
20.61913387823715
 20
7.412914874516995
 30
0.0
 40
1.830668325491147
100
AcDbArc
 50
141.4484103284403
 51
149.4356978359373
1001
QCAD
1000
reversed:1
  0
ARC
  5
460
330
535
100
AcDbEntity
  8
VISIBLE
100
AcDbCircle
 10
20.14581150329826
 20
3.710225717636367
 30
0.0
 40
2.126896081010041
100
AcDbArc
 50
320.8653003311798
 51
329.0107458171789
1001
QCAD
1000
reversed:1
  0
ARC
  5
45F
330
535
100
AcDbEntity
  8
VISIBLE
100
AcDbCircle
 10
20.00661109004582
 20
3.807919464446011
 30
0.0
 40
2.29655962184007
100
AcDbArc
 50
328.7094114543544
 51
338.6113071508514
1001
QCAD
1000
reversed:1
  0
ARC
  5
45E
330
535
100
AcDbEntity
  8
VISIBLE
100
AcDbCircle
 10
19.66691765232272
 20
3.937129784541069
 30
0.0
 40
2.6599821298871
100
AcDbArc
 50
338.6882587105301
 51
21.31174128946984
1001
QCAD
1000
reversed:1
  0
ARC
  5
45D
330
535
100
AcDbEntity
  8
VISIBLE
100
AcDbCircle
 10
20.00661109004584
 20
4.066340104636121
 30
0.0
 40
2.29655962184005
100
AcDbArc
 50
21.3886928491489
 51
31.29058854564582
1001
QCAD
1000
reversed:1
  0
ARC
  5
464
330
535
100
AcDbEntity
  8
VISIBLE
100
AcDbCircle
 10
20.44275474694377
 20
3.315921409434633
 30
0.0
 40
1.62881707182797
100
AcDbArc
 50
289.7661993471688
 51
299.1584950374494
1001
QCAD
1000
reversed:1
  0
ARC
  5
463
330
535
100
AcDbEntity
  8
VISIBLE
100
AcDbCircle
 10
20.3951245608062
 20
3.420618590231516
 30
0.0
 40
1.743478682857704
100
AcDbArc
 50
298.8490218804187
 51
306.6995687514236
1001
QCAD
1000
reversed:1
  0
ARC
  5
462
330
535
100
AcDbEntity
  8
VISIBLE
100
AcDbCircle
 10
20.33421071692121
 20
3.515231565631943
 30
0.0
 40
1.855756752233104
100
AcDbArc
 50
306.4617405227713
 51
313.8632064597317
1001
QCAD
1000
reversed:1
  0
ARC
  5
461
330
535
100
AcDbEntity
  8
VISIBLE
100
AcDbCircle
 10
20.25257870688332
 20
3.611958437819772
 30
0.0
 40
1.982079300617471
100
AcDbArc
 50
313.6270523686537
 51
321.120744634023
1001
QCAD
1000
reversed:1
  0
ARC
  5
458
330
535
100
AcDbEntity
  8
VISIBLE
100
AcDbCircle
 10
20.33899318618503
 20
7.162252801487179
 30
0.0
 40
1.757593214349417
100
AcDbArc
 50
314.2004301682753
 51
321.5962128494085
1001
QCAD
1000
reversed:1
  0
ARC
  5
457
330
535
100
AcDbEntity
  8
VISIBLE
100
AcDbCircle
 10
20.28466606426077
 20
7.211344014024327
 30
0.0
 40
1.830668325491176
100
AcDbArc
 50
321.4484103284386
 51
329.4356978359356
1001
QCAD
1000
reversed:1
  0
ARC
  5
456
330
535
100
AcDbEntity
  8
VISIBLE
100
AcDbCircle
 10
20.21836608488701
 20
7.257009520887064
 30
0.0
 40
1.910985885890838
100
AcDbArc
 50
329.2675920659728
 51
338.9056993397883
1001
QCAD
1000
reversed:1
  0
ARC
  5
455
330
535
100
AcDbEntity
  8
VISIBLE
100
AcDbCircle
 10
20.0722640793072
 20
7.312129493316173
 30
0.0
 40
2.067135721806547
100
AcDbArc
 50
338.9377504423063
 51
21.06223475349675
1001
QCAD
1000
reversed:1
  0
ARC
  5
45C
330
535
100
AcDbEntity
  8
VISIBLE
100
AcDbCircle
 10
20.14581150329825
 20
4.164033851445761
 30
0.0
 40
2.12689608101005
100
AcDbArc
 50
30.98925418282107
 51
39.13469966882015
1001
QCAD
1000
reversed:1
  0
ARC
  5
45B
330
535
100
AcDbEntity
  8
VISIBLE
100
AcDbCircle
 10
20.25257870688332
 20
4.262301131262359
 30
0.0
 40
1.982079300617471
100
AcDbArc
 50
38.87925536597701
 51
46.37294763134623
1001
QCAD
1000
reversed:1
  0
ARC
  5
45A
330
535
100
AcDbEntity
  8
VISIBLE
100
AcDbCircle
 10
20.33467976545327
 20
4.358621443355864
 30
0.0
 40
1.855724962066417
100
AcDbArc
 50
46.15593315375826
 51
52.04641362648952
1001
QCAD
1000
reversed:1
  0
ARC
  5
459
330
535
100
AcDbEntity
  8
VISIBLE
100
AcDbCircle
 10
20.38370923492321
 20
7.111590719351004
 30
0.0
 40
1.69010173577177
100
AcDbArc
 50
310.2619347896007
 51
314.3110462269211
1001
QCAD
1000
reversed:1
  0
ARC
  5
470
330
535
100
AcDbEntity
  8
VISIBLE
100
AcDbCircle
 10
20.54565034069878
 20
3.493559926324069
 30
0.0
 40
1.078249529725588
100
AcDbArc
 50
226.7786273222058
 51
234.2269955345675
  0
ARC
  5
46F
330
535
100
AcDbEntity
  8
VISIBLE
100
AcDbCircle
 10
20.6171498781855
 20
3.580304472906665
 30
0.0
 40
1.190448061041387
100
AcDbArc
 50
219.5299823799083
 51
227.1300551283199
  0
ARC
  5
46E
330
535
100
AcDbEntity
  8
VISIBLE
100
AcDbCircle
 10
20.71800820905624
 20
3.675448372919641
 30
0.0
 40
1.328828391916268
100
AcDbArc
 50
211.5830635206653
 51
219.9262005541556
  0
ARC
  5
46D
330
535
100
AcDbEntity
  8
VISIBLE
100
AcDbCircle
 10
20.86341570842489
 20
3.776787449602203
 30
0.0
 40
1.505807494825966
100
AcDbArc
 50
204.7772094654145
 51
211.9701875804755
  0
ARC
  5
474
330
535
100
AcDbEntity
  8
VISIBLE
100
AcDbCircle
 10
20.44503527325509
 20
3.33131128463733
 30
0.0
 40
0.8942076988801316
100
AcDbArc
 50
289.3120860388067
 51
298.6930845467573
  0
ARC
  5
473
330
535
100
AcDbEntity
  8
VISIBLE
100
AcDbCircle
 10
20.45189997124889
 20
3.2918807081148
 30
0.0
 40
0.8547507723424266
100
AcDbArc
 50
250.2480585600652
 51
289.7519414399346
  0
ARC
  5
472
330
535
100
AcDbEntity
  8
VISIBLE
100
AcDbCircle
 10
20.4587646692427
 20
3.331311284637265
 30
0.0
 40
0.8942076988800742
100
AcDbArc
 50
241.3069154532409
 51
250.6879139611915
  0
ARC
  5
471
330
535
100
AcDbEntity
  8
VISIBLE
100
AcDbCircle
 10
20.49561637144733
 20
3.414071512785239
 30
0.0
 40
0.9845263358661951
100
AcDbArc
 50
233.885238762002
 51
241.7380480612267
  0
ARC
  5
484
330
535
100
AcDbEntity
  8
VISIBLE
100
AcDbCircle
 10
16.10849984876871
 20
2.116120536618907
 30
0.0
 40
0.3749999621921756
100
AcDbArc
 50
269.9999999999994
 51
89.99999999999945
  0
LINE
  5
483
330
535
100
AcDbEntity
  8
VISIBLE
100
AcDbLine
 10
13.1085001512313
 20
1.741120574426732
 30
0.0
 11
16.1084998487687
 21
1.741120574426731
 31
0.0
  0
ARC
  5
482
330
535
100
AcDbEntity
  8
VISIBLE
100
AcDbCircle
 10
13.1085001512313
 20
2.116120536618904
 30
0.0
 40
0.3749999621921722
100
AcDbArc
 50
180.0
 51
269.9999999999998
  0
LINE
  5
48E
330
535
100
AcDbEntity
  8
VISIBLE
100
AcDbLine
 10
12.73350018903913
 20
3.190421479429252
 30
0.0
 11
12.73350018903913
 21
2.116120536618906
 31
0.0
  0
ARC
  5
48D
330
535
100
AcDbEntity
  8
VISIBLE
100
AcDbCircle
 10
14.23350003780782
 20
3.190421479429258
 30
0.0
 40
1.499999848768689
100
AcDbArc
 50
135.0000000000002
 51
180.0
  0
LINE
  5
488
330
535
100
AcDbEntity
  8
VISIBLE
100
AcDbLine
 10
13.70317000538625
 20
3.720751511850821
 30
0.0
 11
15.91601925672369
 21
5.933600763188259
 31
0.0
  0
ARC
  5
487
330
535
100
AcDbEntity
  8
VISIBLE
100
AcDbCircle
 10
14.23350003780782
 20
3.19042147942926
 30
0.0
 40
0.7499999243843443
100
AcDbArc
 50
135.0000000000007
 51
180.0
1001
QCAD
1000
reversed:1
  0
LINE
  5
486
330
535
100
AcDbEntity
  8
VISIBLE
100
AcDbLine
 10
13.48350011342347
 20
2.491120498811082
 30
0.0
 11
13.48350011342348
 21
3.19042147942926
 31
0.0
  0
LINE
  5
485
330
535
100
AcDbEntity
  8
VISIBLE
100
AcDbLine
 10
16.10849984876871
 20
2.491120498811082
 30
0.0
 11
13.48350011342347
 21
2.491120498811082
 31
0.0
  0
LINE
  5
48C
330
535
100
AcDbEntity
  8
VISIBLE
100
AcDbLine
 10
15.38568922430213
 20
6.463930795609833
 30
0.0
 11
13.17283997296468
 21
4.25108154427239
 31
0.0
  0
ARC
  5
48B
330
535
100
AcDbEntity
  8
VISIBLE
100
AcDbCircle
 10
14.54600000630131
 20
7.303620013610653
 30
0.0
 40
1.187499880275222
100
AcDbArc
 50
315.0000000000002
 51
156.9260819343693
1001
QCAD
1000
reversed:1
  0
ARC
  5
48A
330
535
100
AcDbEntity
  8
VISIBLE
100
AcDbCircle
 10
13.1085001512313
 20
7.915992387566526
 30
0.0
 40
0.3749999621921736
100
AcDbArc
 50
156.926081934369
 51
336.9260819343688
  0
ARC
  5
489
330
535
100
AcDbEntity
  8
VISIBLE
100
AcDbCircle
 10
14.5460000063013
 20
7.303620013610651
 30
0.0
 40
1.937499804659566
100
AcDbArc
 50
314.9999999999999
 51
156.926081934369
  0
LINE
  5
490
330
535
100
AcDbEntity
  8
VISIBLE
100
AcDbLine
 10
24.65804063865081
 20
4.312129746733246
 30
0.0
 11
26.2953
 21
4.312129746733246
 31
0.0
  0
ARC
  5
48F
330
535
100
AcDbEntity
  8
VISIBLE
100
AcDbCircle
 10
24.65804063865081
 20
4.924870158537074
 30
0.0
 40
0.6127404118038299
100
AcDbArc
 50
149.9999999999997
 51
269.9999999999997
  0
LINE
  5
494
330
535
100
AcDbEntity
  8
VISIBLE
100
AcDbLine
 10
27.04529992438435
 20
4.312129746733246
 30
0.0
 11
27.42029988657655
 21
4.312129746733246
 31
0.0
  0
LINE
  5
493
330
535
100
AcDbEntity
  8
VISIBLE
100
AcDbLine
 10
27.04529992438435
 20
2.0621299735802
 30
0.0
 11
27.04529992438435
 21
4.312129746733246
 31
0.0
  0
ARC
  5
492
330
535
100
AcDbEntity
  8
VISIBLE
100
AcDbCircle
 10
26.67029996219218
 20
2.0621299735802
 30
0.0
 40
0.3749999621921685
100
AcDbArc
 50
180.0
 51
0.0
  0
LINE
  5
491
330
535
100
AcDbEntity
  8
VISIBLE
100
AcDbLine
 10
26.2953
 20
4.312129746733246
 30
0.0
 11
26.29530000000001
 21
2.0621299735802
 31
0.0
  0
ARC
  5
498
330
535
100
AcDbEntity
  8
VISIBLE
100
AcDbCircle
 10
26.64337617625997
 20
8.785205507107136
 30
0.0
 40
0.40192374812438
100
AcDbArc
 50
0.0
 51
149.9999999999991
  0
LINE
  5
497
330
535
100
AcDbEntity
  8
VISIBLE
100
AcDbLine
 10
27.04529992438435
 20
5.062129671117595
 30
0.0
 11
27.04529992438435
 21
8.785205507107136
 31
0.0
  0
LINE
  5
496
330
535
100
AcDbEntity
  8
VISIBLE
100
AcDbLine
 10
27.42029988657655
 20
5.062129671117595
 30
0.0
 11
27.04529992438435
 21
5.062129671117595
 31
0.0
  0
ARC
  5
495
330
535
100
AcDbEntity
  8
VISIBLE
100
AcDbCircle
 10
27.42029988657655
 20
4.68712970892542
 30
0.0
 40
0.3749999621921747
100
AcDbArc
 50
270.0
 51
90.0
  0
LINE
  5
499
330
535
100
AcDbEntity
  8
VISIBLE
100
AcDbLine
 10
26.2953
 20
8.986167381169333
 30
0.0
 11
24.12739187610336
 21
5.231240364438992
 31
0.0
  0
LINE
  5
39F
330
535
100
AcDbEntity
  8
VISIBLE
100
AcDbLine
 10
26.2953
 20
7.48616753240064
 30
0.0
 11
26.2953
 21
5.062129671117595
 31
0.0
  0
LINE
  5
39E
330
535
100
AcDbEntity
  8
VISIBLE
100
AcDbLine
 10
24.89578108826239
 20
5.062129671117592
 30
0.0
 11
26.2953
 21
7.48616753240064
 31
0.0
  0
LINE
  5
39D
330
535
100
AcDbEntity
  8
VISIBLE
100
AcDbLine
 10
26.2953
 20
5.062129671117595
 30
0.0
 11
24.89578108826239
 21
5.062129671117592
 31
0.0
  0
ARC
  5
3A0
330
535
100
AcDbEntity
  8
VISIBLE
100
AcDbCircle
 10
45.22960296072161
 20
8.64258782205933
 30
0.0
 40
0.5445414331722771
100
AcDbArc
 50
337.8331197908395
 51
90.00000000000075
1001
QCAD
1000
reversed:1
  0
LINE
  5
3A4
330
535
100
AcDbEntity
  8
VISIBLE
100
AcDbLine
 10
44.98389678092489
 20
8.437129330847288
 30
0.0
 11
42.42139703927837
 21
8.437129330847288
 31
0.0
  0
ARC
  5
3A3
330
535
100
AcDbEntity
  8
VISIBLE
100
AcDbCircle
 10
60.20302634407282
 20
2.062129973581742
 30
0.0
 40
16.50037943397119
100
AcDbArc
 50
157.2721317295279
 51
180.0
1001
QCAD
1000
reversed:1
  0
ARC
  5
3A2
330
535
100
AcDbEntity
  8
VISIBLE
100
AcDbCircle
 10
44.07764687229381
 20
2.062129973581734
 30
0.0
 40
0.3749999621921809
100
AcDbArc
 50
180.0
 51
0.0
1001
QCAD
1000
reversed:1
  0
ARC
  5
3A1
330
535
100
AcDbEntity
  8
VISIBLE
100
AcDbCircle
 10
61.79806363958928
 20
1.892294031344445
 30
0.0
 40
17.3462482511359
100
AcDbArc
 50
157.8331197908392
 51
179.4390119386893
  0
LINE
  5
3A6
330
535
100
AcDbEntity
  8
VISIBLE
100
AcDbLine
 10
42.42139703927837
 20
9.187129255231412
 30
0.0
 11
45.22960296072161
 21
9.187129255231607
 31
0.0
  0
ARC
  5
3A5
330
535
100
AcDbEntity
  8
VISIBLE
100
AcDbCircle
 10
42.42139703927837
 20
8.81212929303935
 30
0.0
 40
0.3749999621920619
100
AcDbArc
 50
90.0
 51
270.0
1001
QCAD
1000
reversed:1
  0
ARC
  5
3B0
330
535
100
AcDbEntity
  8
VISIBLE
100
AcDbCircle
 10
49.63470507805091
 20
7.566186509443953
 30
0.0
 40
1.627021057814219
100
AcDbArc
 50
52.85756725544559
 51
60.68508468717047
  0
ARC
  5
3AF
330
535
100
AcDbEntity
  8
VISIBLE
100
AcDbCircle
 10
49.60004287799537
 20
7.513274928105062
 30
0.0
 40
1.69013333493588
100
AcDbArc
 50
45.65841238447671
 51
53.0039283541235
  0
ARC
  5
3AE
330
535
100
AcDbEntity
  8
VISIBLE
100
AcDbCircle
 10
49.55599323429881
 20
7.462006101640522
 30
0.0
 40
1.7575932143494
100
AcDbArc
 50
38.40377974849389
 51
45.79956242962717
  0
ARC
  5
3AD
330
535
100
AcDbEntity
  8
VISIBLE
100
AcDbCircle
 10
49.50166610603236
 20
7.412914896122005
 30
0.0
 40
1.830668325491161
100
AcDbArc
 50
30.56429476196442
 51
38.55158226946148
  0
ARC
  5
3B4
330
535
100
AcDbEntity
  8
VISIBLE
100
AcDbCircle
 10
49.70309492194902
 20
7.566186509443999
 30
0.0
 40
1.627021057814145
100
AcDbArc
 50
119.3149153128289
 51
127.1424327445537
  0
ARC
  5
3B3
330
535
100
AcDbEntity
  8
VISIBLE
100
AcDbCircle
 10
49.67453296308755
 20
7.627931657051165
 30
0.0
 40
1.559207773340112
100
AcDbArc
 50
110.1378115774006
 51
119.5106523001085
  0
ARC
  5
3B2
330
535
100
AcDbEntity
  8
VISIBLE
100
AcDbCircle
 10
49.66889999999999
 20
7.659325102985056
 30
0.0
 40
1.527804152246356
100
AcDbArc
 50
69.65519502592151
 51
110.3448049740788
  0
ARC
  5
3B1
330
535
100
AcDbEntity
  8
VISIBLE
100
AcDbCircle
 10
49.66326703691244
 20
7.627931657051168
 30
0.0
 40
1.559207773340103
100
AcDbArc
 50
60.48934769989201
 51
69.86218842259984
  0
ARC
  5
3A8
330
535
100
AcDbEntity
  8
VISIBLE
100
AcDbCircle
 10
49.55599323429876
 20
7.16225278690057
 30
0.0
 40
1.757593214349441
100
AcDbArc
 50
314.2004375703737
 51
321.5962202515069
  0
ARC
  5
3A7
330
535
100
AcDbEntity
  8
VISIBLE
100
AcDbCircle
 10
49.60070928758821
 20
7.111590708643875
 30
0.0
 40
1.690101735806861
100
AcDbArc
 50
310.2619345716474
 51
314.3110537223195
  0
ARC
  5
3AC
330
535
100
AcDbEntity
  8
VISIBLE
100
AcDbCircle
 10
49.43536612075902
 20
7.367249397824612
 30
0.0
 40
1.910985885890836
100
AcDbArc
 50
21.09429325811221
 51
30.73240053192756
  0
ARC
  5
3AB
330
535
100
AcDbEntity
  8
VISIBLE
100
AcDbCircle
 10
49.28926410805826
 20
7.312129444270536
 30
0.0
 40
2.06713572180651
100
AcDbArc
 50
338.9377578444045
 51
21.06224215559561
  0
ARC
  5
3AA
330
535
100
AcDbEntity
  8
VISIBLE
100
AcDbCircle
 10
49.43536612075907
 20
7.257009490716466
 30
0.0
 40
1.910985885890794
100
AcDbArc
 50
329.2675994680718
 51
338.9057067418871
  0
ARC
  5
3A9
330
535
100
AcDbEntity
  8
VISIBLE
100
AcDbCircle
 10
49.50166610603238
 20
7.211343992419077
 30
0.0
 40
1.83066832549114
100
AcDbArc
 50
321.4484177305381
 51
329.4357052380352
  0
ARC
  5
3C0
330
535
100
AcDbEntity
  8
VISIBLE
100
AcDbCircle
 10
49.97498846795073
 20
4.164033851446985
 30
0.0
 40
2.126896081010103
100
AcDbArc
 50
140.8653003311803
 51
149.0107458171791
  0
ARC
  5
3BF
330
535
100
AcDbEntity
  8
VISIBLE
100
AcDbCircle
 10
49.86822126436557
 20
4.262301131263608
 30
0.0
 40
1.982079300617433
100
AcDbArc
 50
133.6270523686527
 51
141.1207446340223
  0
ARC
  5
3BE
330
535
100
AcDbEntity
  8
VISIBLE
100
AcDbCircle
 10
49.78612020552752
 20
4.358621443119278
 30
0.0
 40
1.855724962052194
100
AcDbArc
 50
127.9535871085201
 51
133.8440668351838
  0
ARC
  5
3BD
330
535
100
AcDbEntity
  8
VISIBLE
100
AcDbCircle
 10
49.73709071241179
 20
7.111590708644104
 30
0.0
 40
1.690101735807039
100
AcDbArc
 50
225.6889462776854
 51
229.7380654283574
  0
ARC
  5
3C4
330
535
100
AcDbEntity
  8
VISIBLE
100
AcDbCircle
 10
49.97498846795073
 20
3.71022571763765
 30
0.0
 40
2.126896081010105
100
AcDbArc
 50
210.989254182821
 51
219.1346996688198
  0
ARC
  5
3C3
330
535
100
AcDbEntity
  8
VISIBLE
100
AcDbCircle
 10
50.11418888120306
 20
3.807919464447223
 30
0.0
 40
2.296559621839998
100
AcDbArc
 50
201.3886928491483
 51
211.2905885456454
  0
ARC
  5
3C2
330
535
100
AcDbEntity
  8
VISIBLE
100
AcDbCircle
 10
50.4538823189262
 20
3.937129784542313
 30
0.0
 40
2.659982129887083
100
AcDbArc
 50
158.6882587105301
 51
201.3117412894699
  0
ARC
  5
3C1
330
535
100
AcDbEntity
  8
VISIBLE
100
AcDbCircle
 10
50.11418888120307
 20
4.066340104637404
 30
0.0
 40
2.296559621840003
100
AcDbArc
 50
148.7094114543546
 51
158.6113071508517
  0
ARC
  5
3B8
330
535
100
AcDbEntity
  8
VISIBLE
100
AcDbCircle
 10
49.90243387924093
 20
7.367249397824532
 30
0.0
 40
1.91098588589084
100
AcDbArc
 50
149.2675994680697
 51
158.9057067418851
  0
ARC
  5
3B7
330
535
100
AcDbEntity
  8
VISIBLE
100
AcDbCircle
 10
49.83613389396763
 20
7.412914896122016
 30
0.0
 40
1.830668325491156
100
AcDbArc
 50
141.4484177305386
 51
149.4357052380357
  0
ARC
  5
3B6
330
535
100
AcDbEntity
  8
VISIBLE
100
AcDbCircle
 10
49.78180676570118
 20
7.462006101640565
 30
0.0
 40
1.757593214349364
100
AcDbArc
 50
134.2004375703738
 51
141.596220251507
  0
ARC
  5
3B5
330
535
100
AcDbEntity
  8
VISIBLE
100
AcDbCircle
 10
49.73775712200464
 20
7.513274928105065
 30
0.0
 40
1.690133334935898
100
AcDbArc
 50
126.9960716458773
 51
134.341587615524
  0
ARC
  5
3BC
330
535
100
AcDbEntity
  8
VISIBLE
100
AcDbCircle
 10
49.78180676570121
 20
7.162252786900563
 30
0.0
 40
1.757593214349431
100
AcDbArc
 50
218.4037797484932
 51
225.7995624296265
  0
ARC
  5
3BB
330
535
100
AcDbEntity
  8
VISIBLE
100
AcDbCircle
 10
49.83613389396761
 20
7.211343992419022
 30
0.0
 40
1.830668325491116
100
AcDbArc
 50
210.5642947619633
 51
218.5515822694604
  0
ARC
  5
3BA
330
535
100
AcDbEntity
  8
VISIBLE
100
AcDbCircle
 10
49.90243387924099
 20
7.257009490716476
 30
0.0
 40
1.910985885890864
100
AcDbArc
 50
201.0942932581121
 51
210.7324005319273
  0
ARC
  5
3B9
330
535
100
AcDbEntity
  8
VISIBLE
100
AcDbCircle
 10
50.04853589194171
 20
7.312129444270554
 30
0.0
 40
2.067135721806502
100
AcDbArc
 50
158.9377578444046
 51
201.0622421555959
  0
ARC
  5
3D0
330
535
100
AcDbEntity
  8
VISIBLE
100
AcDbCircle
 10
48.88391768107379
 20
3.937129784542313
 30
0.0
 40
2.659982129887086
100
AcDbArc
 50
338.68825871053
 51
21.31174128946998
  0
ARC
  5
3CF
330
535
100
AcDbEntity
  8
VISIBLE
100
AcDbCircle
 10
49.22361111879693
 20
3.807919464447256
 30
0.0
 40
2.29655962184001
100
AcDbArc
 50
328.7094114543537
 51
338.6113071508508
  0
ARC
  5
3CE
330
535
100
AcDbEntity
  8
VISIBLE
100
AcDbCircle
 10
49.36281153204927
 20
3.710225717637694
 30
0.0
 40
2.126896081010115
100
AcDbArc
 50
320.8653003311788
 51
329.0107458171776
  0
ARC
  5
3CD
330
535
100
AcDbEntity
  8
VISIBLE
100
AcDbCircle
 10
49.46957873563441
 20
3.611958437820912
 30
0.0
 40
1.982079300617374
100
AcDbArc
 50
313.6270523686553
 51
321.1207446340248
  0
ARC
  5
3D4
330
535
100
AcDbEntity
  8
VISIBLE
100
AcDbCircle
 10
49.55167979447243
 20
4.35862144311923
 30
0.0
 40
1.855724962052259
100
AcDbArc
 50
46.15593316481624
 51
52.04641289147973
  0
ARC
  5
3D3
330
535
100
AcDbEntity
  8
VISIBLE
100
AcDbCircle
 10
49.46957873563441
 20
4.26230113126371
 30
0.0
 40
1.982079300617375
100
AcDbArc
 50
38.87925536597527
 51
46.3729476313448
  0
ARC
  5
3D2
330
535
100
AcDbEntity
  8
VISIBLE
100
AcDbCircle
 10
49.36281153204926
 20
4.164033851446932
 30
0.0
 40
2.126896081010128
100
AcDbArc
 50
30.98925418282213
 51
39.13469966882091
  0
ARC
  5
3D1
330
535
100
AcDbEntity
  8
VISIBLE
100
AcDbCircle
 10
49.22361111879692
 20
4.066340104637367
 30
0.0
 40
2.296559621840015
100
AcDbArc
 50
21.38869284914916
 51
31.29058854564628
  0
ARC
  5
3C8
330
535
100
AcDbEntity
  8
VISIBLE
100
AcDbCircle
 10
49.67804522430517
 20
3.31592140943586
 30
0.0
 40
1.62881707182795
100
AcDbArc
 50
240.8415049625504
 51
250.2338006528312
  0
ARC
  5
3C7
330
535
100
AcDbEntity
  8
VISIBLE
100
AcDbCircle
 10
49.72567541044277
 20
3.420618590232795
 30
0.0
 40
1.743478682857742
100
AcDbArc
 50
233.3004312485763
 51
241.1509781195809
  0
ARC
  5
3C6
330
535
100
AcDbEntity
  8
VISIBLE
100
AcDbCircle
 10
49.78658925432774
 20
3.515231565633214
 30
0.0
 40
1.855756752233133
100
AcDbArc
 50
226.1367935402685
 51
233.5382594772288
  0
ARC
  5
3C5
330
535
100
AcDbEntity
  8
VISIBLE
100
AcDbCircle
 10
49.86822126436559
 20
3.611958437821021
 30
0.0
 40
1.982079300617453
100
AcDbArc
 50
218.8792553659773
 51
226.3729476313469
  0
ARC
  5
3CC
330
535
100
AcDbEntity
  8
VISIBLE
100
AcDbCircle
 10
49.55121074567224
 20
3.515231565633332
 30
0.0
 40
1.855756752233229
100
AcDbArc
 50
306.461740522769
 51
313.8632064597293
  0
ARC
  5
3CB
330
535
100
AcDbEntity
  8
VISIBLE
100
AcDbCircle
 10
49.61212458955721
 20
3.42061859023269
 30
0.0
 40
1.743478682857659
100
AcDbArc
 50
298.8490218804212
 51
306.6995687514258
  0
ARC
  5
3CA
330
535
100
AcDbEntity
  8
VISIBLE
100
AcDbCircle
 10
49.65975477569482
 20
3.315921409435952
 30
0.0
 40
1.628817071828033
100
AcDbArc
 50
289.7661993471674
 51
299.1584950374482
  0
ARC
  5
3C9
330
535
100
AcDbEntity
  8
VISIBLE
100
AcDbCircle
 10
49.66889999999999
 20
3.264287890872411
 30
0.0
 40
1.577157879483143
100
AcDbArc
 50
249.9121036878919
 51
290.0878963121079
  0
ARC
  5
3E0
330
535
100
AcDbEntity
  8
VISIBLE
100
AcDbCircle
 10
49.50365009306336
 20
4.293955096176739
 30
0.0
 40
1.190448061041392
100
AcDbArc
 50
39.52998237990695
 51
47.1300551283185
  0
ARC
  5
3DF
330
535
100
AcDbEntity
  8
VISIBLE
100
AcDbCircle
 10
49.40279176219265
 20
4.198811196163671
 30
0.0
 40
1.328828391916303
100
AcDbArc
 50
31.58306352066804
 51
39.92620055415835
  0
ARC
  5
3DE
330
535
100
AcDbEntity
  8
VISIBLE
100
AcDbCircle
 10
49.25869388688604
 20
4.095057881776989
 30
0.0
 40
1.5059772905498
100
AcDbArc
 50
21.80363503253261
 51
32.07448853536228
  0
ARC
  5
3DD
330
535
100
AcDbEntity
  8
VISIBLE
100
AcDbCircle
 10
48.84716344391471
 20
3.937129784542317
 30
0.0
 40
1.946736442661813
100
AcDbArc
 50
0.0
 51
21.62047729854394
  0
ARC
  5
3E4
330
535
100
AcDbEntity
  8
VISIBLE
100
AcDbCircle
 10
49.66889999999999
 20
4.58237886096857
 30
0.0
 40
0.8547507723424418
100
AcDbArc
 50
70.24805856006577
 51
90.00000000000048
  0
ARC
  5
3E3
330
535
100
AcDbEntity
  8
VISIBLE
100
AcDbCircle
 10
49.6620353020062
 20
4.542948284446076
 30
0.0
 40
0.8942076988801073
100
AcDbArc
 50
61.30691545324291
 51
70.68791396119352
  0
ARC
  5
3E2
330
535
100
AcDbEntity
  8
VISIBLE
100
AcDbCircle
 10
49.62518359980155
 20
4.460188056298117
 30
0.0
 40
0.9845263358662278
100
AcDbArc
 50
53.88523876200232
 51
61.73804806122707
  0
ARC
  5
3E1
330
535
100
AcDbEntity
  8
VISIBLE
100
AcDbCircle
 10
49.57514963055012
 20
4.380699642759379
 30
0.0
 40
1.078249529725531
100
AcDbArc
 50
46.77862732220431
 51
54.22699553456599
  0
ARC
  5
3D8
330
535
100
AcDbEntity
  8
VISIBLE
100
AcDbCircle
 10
49.57514963055012
 20
3.493559926325249
 30
0.0
 40
1.078249529725531
100
AcDbArc
 50
305.773004465434
 51
313.2213726777957
  0
ARC
  5
3D7
330
535
100
AcDbEntity
  8
VISIBLE
100
AcDbCircle
 10
49.62518359980156
 20
3.414071512786515
 30
0.0
 40
0.9845263358662255
100
AcDbArc
 50
298.2619519387725
 51
306.1147612379972
  0
ARC
  5
3D6
330
535
100
AcDbEntity
  8
VISIBLE
100
AcDbCircle
 10
49.6620353020062
 20
3.33131128463855
 30
0.0
 40
0.8942076988801095
100
AcDbArc
 50
289.312086038807
 51
298.6930845467576
  0
ARC
  5
3D5
330
535
100
AcDbEntity
  8
VISIBLE
100
AcDbCircle
 10
49.66889999999999
 20
3.291880708116058
 30
0.0
 40
0.8547507723424417
100
AcDbArc
 50
269.9999999999995
 51
289.7519414399342
  0
ARC
  5
3DC
330
535
100
AcDbEntity
  8
VISIBLE
100
AcDbCircle
 10
48.8471634439147
 20
3.937129784542328
 30
0.0
 40
1.946736442661817
100
AcDbArc
 50
338.3795227014555
 51
0.0
  0
ARC
  5
3DB
330
535
100
AcDbEntity
  8
VISIBLE
100
AcDbCircle
 10
49.25869388688604
 20
3.779201687307678
 30
0.0
 40
1.505977290549814
100
AcDbArc
 50
327.9255114646361
 51
338.1963649674658
  0
ARC
  5
3DA
330
535
100
AcDbEntity
  8
VISIBLE
100
AcDbCircle
 10
49.40279176219265
 20
3.675448372920858
 30
0.0
 40
1.328828391916246
100
AcDbArc
 50
320.0737994458449
 51
328.4169364793352
  0
ARC
  5
3D9
330
535
100
AcDbEntity
  8
VISIBLE
100
AcDbCircle
 10
49.50365009306337
 20
3.580304472907885
 30
0.0
 40
1.190448061041381
100
AcDbArc
 50
312.8699448716812
 51
320.4700176200928
  0
ARC
  5
3F0
330
535
100
AcDbEntity
  8
VISIBLE
100
AcDbCircle
 10
49.83414990693664
 20
3.580304472907941
 30
0.0
 40
1.190448061041431
100
AcDbArc
 50
219.5299823799084
 51
227.13005512832
  0
ARC
  5
3EF
330
535
100
AcDbEntity
  8
VISIBLE
100
AcDbCircle
 10
49.93500823780733
 20
3.675448372920858
 30
0.0
 40
1.328828391916241
100
AcDbArc
 50
211.5830635206647
 51
219.9262005541551
  0
ARC
  5
3EE
330
535
100
AcDbEntity
  8
VISIBLE
100
AcDbCircle
 10
50.07910611311397
 20
3.779201687307681
 30
0.0
 40
1.505977290549829
100
AcDbArc
 50
201.8036350325338
 51
212.0744885353634
  0
ARC
  5
3ED
330
535
100
AcDbEntity
  8
VISIBLE
100
AcDbCircle
 10
50.49063655608528
 20
3.937129784542311
 30
0.0
 40
1.946736442661808
100
AcDbArc
 50
180.0
 51
201.6204772985439
  0
ARC
  5
3F4
330
535
100
AcDbEntity
  8
VISIBLE
100
AcDbCircle
 10
49.66889999999999
 20
3.291880708115997
 30
0.0
 40
0.8547507723423805
100
AcDbArc
 50
250.2480585600648
 51
269.9999999999995
  0
ARC
  5
3F3
330
535
100
AcDbEntity
  8
VISIBLE
100
AcDbCircle
 10
49.6757646979938
 20
3.331311284638595
 30
0.0
 40
0.8942076988801515
100
AcDbArc
 50
241.3069154532434
 51
250.687913961194
  0
ARC
  5
3F2
330
535
100
AcDbEntity
  8
VISIBLE
100
AcDbCircle
 10
49.71261640019843
 20
3.414071512786462
 30
0.0
 40
0.9845263358661857
100
AcDbArc
 50
233.8852387620009
 51
241.7380480612257
  0
ARC
  5
3F1
330
535
100
AcDbEntity
  8
VISIBLE
100
AcDbCircle
 10
49.76265036944986
 20
3.493559926325304
 30
0.0
 40
1.078249529725565
100
AcDbArc
 50
226.7786273222065
 51
234.2269955345682
  0
ARC
  5
3E8
330
535
100
AcDbEntity
  8
VISIBLE
100
AcDbCircle
 10
49.76265036944987
 20
4.380699642759325
 30
0.0
 40
1.078249529725573
100
AcDbArc
 50
125.7730044654323
 51
133.221372677794
  0
ARC
  5
3E7
330
535
100
AcDbEntity
  8
VISIBLE
100
AcDbCircle
 10
49.71261640019843
 20
4.460188056298168
 30
0.0
 40
0.9845263358661841
100
AcDbArc
 50
118.2619519387744
 51
126.1147612379991
  0
ARC
  5
3E6
330
535
100
AcDbEntity
  8
VISIBLE
100
AcDbCircle
 10
49.67576469799379
 20
4.542948284446034
 30
0.0
 40
0.8942076988801471
100
AcDbArc
 50
109.3120860388056
 51
118.6930845467562
  0
ARC
  5
3E5
330
535
100
AcDbEntity
  8
VISIBLE
100
AcDbCircle
 10
49.66889999999999
 20
4.582378860968631
 30
0.0
 40
0.8547507723423806
100
AcDbArc
 50
90.00000000000048
 51
109.7519414399352
  0
ARC
  5
3EC
330
535
100
AcDbEntity
  8
VISIBLE
100
AcDbCircle
 10
50.49063655608529
 20
3.93712978454228
 30
0.0
 40
1.946736442661822
100
AcDbArc
 50
158.379522701455
 51
180.0
  0
ARC
  5
3EB
330
535
100
AcDbEntity
  8
VISIBLE
100
AcDbCircle
 10
50.07910611311397
 20
4.095057881776992
 30
0.0
 40
1.505977290549796
100
AcDbArc
 50
147.9255114646377
 51
158.1963649674674
  0
ARC
  5
3EA
330
535
100
AcDbEntity
  8
VISIBLE
100
AcDbCircle
 10
49.93500823780733
 20
4.198811196163819
 30
0.0
 40
1.328828391916213
100
AcDbArc
 50
140.0737994458465
 51
148.4169364793368
  0
ARC
  5
3E9
330
535
100
AcDbEntity
  8
VISIBLE
100
AcDbCircle
 10
49.83414990693662
 20
4.293955096176684
 30
0.0
 40
1.190448061041427
100
AcDbArc
 50
132.8699448716795
 51
140.470017620091
  0
ARC
  5
324
330
535
100
AcDbEntity
  8
VISIBLE
100
AcDbCircle
 10
49.66889999999999
 20
6.975708497435623
 30
0.0
 40
0.7885789397416062
100
AcDbArc
 50
269.9999999999995
 51
290.0878963121075
  0
ARC
  5
330
330
535
100
AcDbEntity
  8
VISIBLE
100
AcDbCircle
 10
49.6100553728361
 20
7.523078553725039
 30
0.0
 40
0.9278783761166153
100
AcDbArc
 50
46.13679354026982
 51
53.53825947723016
  0
ARC
  5
32F
330
535
100
AcDbEntity
  8
VISIBLE
100
AcDbCircle
 10
49.56923936781718
 20
7.474715117631194
 30
0.0
 40
0.9910396503087276
100
AcDbArc
 50
38.87925536597658
 51
46.37294763134592
  0
ARC
  5
32E
330
535
100
AcDbEntity
  8
VISIBLE
100
AcDbCircle
 10
49.51585576602462
 20
7.42558147772285
 30
0.0
 40
1.063448040505061
100
AcDbArc
 50
30.98925418282199
 51
39.13469966882076
  0
ARC
  5
32D
330
535
100
AcDbEntity
  8
VISIBLE
100
AcDbCircle
 10
49.44625555939845
 20
7.376734604318083
 30
0.0
 40
1.148279810920004
100
AcDbArc
 50
21.38869284914831
 51
31.29058854564534
  0
ARC
  5
334
330
535
100
AcDbEntity
  8
VISIBLE
100
AcDbCircle
 10
49.66889999999998
 20
7.648550391105517
 30
0.0
 40
0.7885789397415456
100
AcDbArc
 50
89.99999999999947
 51
110.0878963121076
  0
ARC
  5
333
330
535
100
AcDbEntity
  8
VISIBLE
100
AcDbCircle
 10
49.66889999999999
 20
7.648550391105455
 30
0.0
 40
0.7885789397416066
100
AcDbArc
 50
69.91210368789248
 51
90.00000000000053
  0
ARC
  5
332
330
535
100
AcDbEntity
  8
VISIBLE
100
AcDbCircle
 10
49.66432738784741
 20
7.622733631823783
 30
0.0
 40
0.8144085359139599
100
AcDbArc
 50
60.84150496254988
 51
70.23380065283061
  0
ARC
  5
331
330
535
100
AcDbEntity
  8
VISIBLE
100
AcDbCircle
 10
49.64051229477862
 20
7.570385041425365
 30
0.0
 40
0.8717393414288067
100
AcDbArc
 50
53.30043124857504
 51
61.15097811957984
  0
ARC
  5
328
330
535
100
AcDbEntity
  8
VISIBLE
100
AcDbCircle
 10
49.56923936781719
 20
7.149543770909883
 30
0.0
 40
0.9910396503087247
100
AcDbArc
 50
313.6270523686538
 51
321.1207446340233
  0
ARC
  5
327
330
535
100
AcDbEntity
  8
VISIBLE
100
AcDbCircle
 10
49.61005537283611
 20
7.101180334816041
 30
0.0
 40
0.9278783761166064
100
AcDbArc
 50
306.4617405227692
 51
313.8632064597295
  0
ARC
  5
326
330
535
100
AcDbEntity
  8
VISIBLE
100
AcDbCircle
 10
49.64051229477862
 20
7.053873847115613
 30
0.0
 40
0.8717393414287229
100
AcDbArc
 50
298.8490218804246
 51
306.6995687514294
  0
ARC
  5
325
330
535
100
AcDbEntity
  8
VISIBLE
100
AcDbCircle
 10
49.66432738784741
 20
7.001525256717382
 30
0.0
 40
0.8144085359140392
100
AcDbArc
 50
289.7661993471673
 51
299.1584950374481
  0
ARC
  5
32C
330
535
100
AcDbEntity
  8
VISIBLE
100
AcDbCircle
 10
49.27640884053688
 20
7.312129444270541
 30
0.0
 40
1.329991064943546
100
AcDbArc
 50
0.0
 51
21.3117412894698
  0
ARC
  5
32B
330
535
100
AcDbEntity
  8
VISIBLE
100
AcDbCircle
 10
49.27640884053688
 20
7.312129444270539
 30
0.0
 40
1.329991064943546
100
AcDbArc
 50
338.6882587105302
 51
0.0
  0
ARC
  5
32A
330
535
100
AcDbEntity
  8
VISIBLE
100
AcDbCircle
 10
49.44625555939845
 20
7.247524284222997
 30
0.0
 40
1.148279810920004
100
AcDbArc
 50
328.7094114543547
 51
338.6113071508517
  0
ARC
  5
329
330
535
100
AcDbEntity
  8
VISIBLE
100
AcDbCircle
 10
49.51585576602462
 20
7.198677410818227
 30
0.0
 40
1.063448040505063
100
AcDbArc
 50
320.8653003311794
 51
329.0107458171781
  0
ARC
  5
340
330
535
100
AcDbEntity
  8
VISIBLE
100
AcDbCircle
 10
49.72774462716387
 20
7.101180334815986
 30
0.0
 40
0.9278783761165688
100
AcDbArc
 50
226.1367935402681
 51
233.5382594772285
  0
ARC
  5
33F
330
535
100
AcDbEntity
  8
VISIBLE
100
AcDbCircle
 10
49.76856063218279
 20
7.149543770909935
 30
0.0
 40
0.9910396503087534
100
AcDbArc
 50
218.8792553659791
 51
226.3729476313485
  0
ARC
  5
33E
330
535
100
AcDbEntity
  8
VISIBLE
100
AcDbCircle
 10
49.82194423397537
 20
7.198677410818181
 30
0.0
 40
1.063448040505045
100
AcDbArc
 50
210.9892541828195
 51
219.1346996688183
  0
ARC
  5
33D
330
535
100
AcDbEntity
  8
VISIBLE
100
AcDbCircle
 10
49.89154444060153
 20
7.247524284222996
 30
0.0
 40
1.148279810920001
100
AcDbArc
 50
201.3886928491483
 51
211.2905885456454
  0
ARC
  5
343
330
535
100
AcDbEntity
  8
VISIBLE
100
AcDbCircle
 10
49.66889999999999
 20
6.975708497435563
 30
0.0
 40
0.788578939741546
100
AcDbArc
 50
249.9121036878919
 51
270.0
  0
ARC
  5
342
330
535
100
AcDbEntity
  8
VISIBLE
100
AcDbCircle
 10
49.67347261215259
 20
7.001525256717382
 30
0.0
 40
0.8144085359140392
100
AcDbArc
 50
240.8415049625519
 51
250.2338006528326
  0
ARC
  5
341
330
535
100
AcDbEntity
  8
VISIBLE
100
AcDbCircle
 10
49.69728770522137
 20
7.053873847115718
 30
0.0
 40
0.8717393414288126
100
AcDbArc
 50
233.3004312485744
 51
241.1509781195792
  0
ARC
  5
338
330
535
100
AcDbEntity
  8
VISIBLE
100
AcDbCircle
 10
49.76856063218278
 20
7.474715117631143
 30
0.0
 40
0.9910396503087514
100
AcDbArc
 50
133.6270523686512
 51
141.1207446340206
  0
ARC
  5
337
330
535
100
AcDbEntity
  8
VISIBLE
100
AcDbCircle
 10
49.72774462716388
 20
7.523078553725094
 30
0.0
 40
0.9278783761165733
100
AcDbArc
 50
126.4617405227719
 51
133.8632064597322
  0
ARC
  5
336
330
535
100
AcDbEntity
  8
VISIBLE
100
AcDbCircle
 10
49.69728770522136
 20
7.570385041425314
 30
0.0
 40
0.8717393414288502
100
AcDbArc
 50
118.8490218804185
 51
126.6995687514233
  0
ARC
  5
335
330
535
100
AcDbEntity
  8
VISIBLE
100
AcDbCircle
 10
49.67347261215259
 20
7.622733631823739
 30
0.0
 40
0.8144085359140039
100
AcDbArc
 50
109.7661993471688
 51
119.1584950374495
  0
ARC
  5
33C
330
535
100
AcDbEntity
  8
VISIBLE
100
AcDbCircle
 10
50.0613911594631
 20
7.31212944427054
 30
0.0
 40
1.329991064943545
100
AcDbArc
 50
180.0
 51
201.3117412894699
  0
ARC
  5
33B
330
535
100
AcDbEntity
  8
VISIBLE
100
AcDbCircle
 10
50.0613911594631
 20
7.31212944427054
 30
0.0
 40
1.329991064943545
100
AcDbArc
 50
158.6882587105301
 51
180.0
  0
ARC
  5
33A
330
535
100
AcDbEntity
  8
VISIBLE
100
AcDbCircle
 10
49.89154444060154
 20
7.376734604318085
 30
0.0
 40
1.148279810920011
100
AcDbArc
 50
148.7094114543549
 51
158.611307150852
  0
ARC
  5
339
330
535
100
AcDbEntity
  8
VISIBLE
100
AcDbCircle
 10
49.82194423397537
 20
7.4255814777229
 30
0.0
 40
1.06344804050504
100
AcDbArc
 50
140.8653003311815
 51
149.0107458171803
  0
ARC
  5
360
330
535
100
AcDbEntity
  8
VISIBLE
100
AcDbCircle
 10
56.58380587901953
 20
6.812129494680995
 30
0.0
 40
2.94650568998041
100
AcDbArc
 50
158.523849598525
 51
201.4761504014758
  0
ARC
  5
35F
330
535
100
AcDbEntity
  8
VISIBLE
100
AcDbCircle
 10
56.08294771236002
 20
7.003583569691616
 30
0.0
 40
2.410333714446254
100
AcDbArc
 50
148.3091037603317
 51
158.4000100066279
  0
ARC
  5
35E
330
535
100
AcDbEntity
  8
VISIBLE
100
AcDbCircle
 10
55.89313872348449
 20
7.13856219085546
 30
0.0
 40
2.17796969760296
100
AcDbArc
 50
140.4571820993631
 51
148.707368070625
  0
ARC
  5
35D
330
535
100
AcDbEntity
  8
VISIBLE
100
AcDbCircle
 10
55.75423605752557
 20
7.268045902083243
 30
0.0
 40
1.98845141476489
100
AcDbArc
 50
133.2337219912524
 51
140.7861911218205
  0
ARC
  5
364
330
535
100
AcDbEntity
  8
VISIBLE
100
AcDbCircle
 10
55.65215846230961
 20
6.233767441047239
 30
0.0
 40
1.829345701111602
100
AcDbArc
 50
226.468667166738
 51
233.898346612503
  0
ARC
  5
363
330
535
100
AcDbEntity
  8
VISIBLE
100
AcDbCircle
 10
55.75423605752558
 20
6.356213087278661
 30
0.0
 40
1.988451414764865
100
AcDbArc
 50
219.2138088781783
 51
226.7662780087464
  0
ARC
  5
362
330
535
100
AcDbEntity
  8
VISIBLE
100
AcDbCircle
 10
55.89313872348441
 20
6.485696798506529
 30
0.0
 40
2.177969697602917
100
AcDbArc
 50
211.2926319293771
 51
219.542817900639
  0
ARC
  5
361
330
535
100
AcDbEntity
  8
VISIBLE
100
AcDbCircle
 10
56.08294771236008
 20
6.620675419670205
 30
0.0
 40
2.410333714446238
100
AcDbArc
 50
201.5999899933688
 51
211.690896239665
  0
ARC
  5
358
330
535
100
AcDbEntity
  8
VISIBLE
100
AcDbCircle
 10
55.50177468809428
 20
7.630046924769284
 30
0.0
 40
1.557117903701601
100
AcDbArc
 50
61.08328332796311
 51
70.47445288224792
  0
ARC
  5
357
330
535
100
AcDbEntity
  8
VISIBLE
100
AcDbCircle
 10
55.44604976554189
 20
7.506175558153342
 30
0.0
 40
1.692527050440149
100
AcDbArc
 50
53.60417495336837
 51
61.45969393507031
  0
ARC
  5
356
330
535
100
AcDbEntity
  8
VISIBLE
100
AcDbCircle
 10
55.3724415376904
 20
7.390491548314722
 30
0.0
 40
1.829345701111568
100
AcDbArc
 50
46.46866716673861
 51
53.89834661250363
  0
ARC
  5
355
330
535
100
AcDbEntity
  8
VISIBLE
100
AcDbCircle
 10
55.27036394247437
 20
7.268045902083343
 30
0.0
 40
1.988451414764843
100
AcDbArc
 50
39.21380887817659
 51
46.76627800874473
  0
ARC
  5
35C
330
535
100
AcDbEntity
  8
VISIBLE
100
AcDbCircle
 10
55.65215846230957
 20
7.390491548314674
 30
0.0
 40
1.829345701111596
100
AcDbArc
 50
126.1016533874949
 51
133.53133283326
  0
ARC
  5
35B
330
535
100
AcDbEntity
  8
VISIBLE
100
AcDbCircle
 10
55.57855023445811
 20
7.506175558153389
 30
0.0
 40
1.692527050440116
100
AcDbArc
 50
118.5403060649311
 51
126.395825046633
  0
ARC
  5
35A
330
535
100
AcDbEntity
  8
VISIBLE
100
AcDbCircle
 10
55.52282531190571
 20
7.630046924769244
 30
0.0
 40
1.55711790370164
100
AcDbArc
 50
109.5255471177513
 51
118.9167166720361
  0
ARC
  5
359
330
535
100
AcDbEntity
  8
VISIBLE
100
AcDbCircle
 10
55.5123
 20
7.690005582062399
 30
0.0
 40
1.497123673169007
100
AcDbArc
 50
70.08716008878086
 51
109.9128399112191
  0
ARC
  5
370
330
535
100
AcDbEntity
  8
VISIBLE
100
AcDbCircle
 10
55.25441916969216
 20
3.845348874125417
 30
0.0
 40
1.321386200411642
100
AcDbArc
 50
313.6270523686554
 51
321.1207446340248
1001
QCAD
1000
reversed:1
  0
ARC
  5
36F
330
535
100
AcDbEntity
  8
VISIBLE
100
AcDbCircle
 10
55.18324103396878
 20
3.910860394003212
 30
0.0
 40
1.4179307206734
100
AcDbArc
 50
320.8653003311795
 51
329.0107458171785
1001
QCAD
1000
reversed:1
  0
ARC
  5
36E
330
535
100
AcDbEntity
  8
VISIBLE
100
AcDbCircle
 10
55.09044075846721
 20
3.975989558542897
 30
0.0
 40
1.531039747893326
100
AcDbArc
 50
328.7094114543553
 51
338.6113071508523
1001
QCAD
1000
reversed:1
  0
ARC
  5
36D
330
535
100
AcDbEntity
  8
VISIBLE
100
AcDbCircle
 10
54.8639784666555
 20
4.062129771938864
 30
0.0
 40
1.773321419920974
100
AcDbArc
 50
338.6882587105098
 51
0.0
1001
QCAD
1000
reversed:1
  0
ARC
  5
374
330
535
100
AcDbEntity
  8
VISIBLE
100
AcDbCircle
 10
55.38730001260259
 20
3.613568509493045
 30
0.0
 40
1.051438586322098
100
AcDbArc
 50
249.9121036878921
 51
290.0878963121081
1001
QCAD
1000
reversed:1
  0
ARC
  5
373
330
535
100
AcDbEntity
  8
VISIBLE
100
AcDbCircle
 10
55.38120319639915
 20
3.647990855202019
 30
0.0
 40
1.085878047885306
100
AcDbArc
 50
289.7661993471684
 51
299.1584950374492
1001
QCAD
1000
reversed:1
  0
ARC
  5
372
330
535
100
AcDbEntity
  8
VISIBLE
100
AcDbCircle
 10
55.34944973897411
 20
3.717788975733266
 30
0.0
 40
1.162319121905118
100
AcDbArc
 50
298.8490218804185
 51
306.6995687514233
1001
QCAD
1000
reversed:1
  0
ARC
  5
371
330
535
100
AcDbEntity
  8
VISIBLE
100
AcDbCircle
 10
55.30884050971743
 20
3.780864292666975
 30
0.0
 40
1.23717116815547
100
AcDbArc
 50
306.461740522769
 51
313.8632064597292
1001
QCAD
1000
reversed:1
  0
ARC
  5
368
330
535
100
AcDbEntity
  8
VISIBLE
100
AcDbCircle
 10
55.5017746880943
 20
5.994212064592707
 30
0.0
 40
1.557117903701639
100
AcDbArc
 50
289.5255471177505
 51
298.9167166720353
  0
ARC
  5
367
330
535
100
AcDbEntity
  8
VISIBLE
100
AcDbCircle
 10
55.51229999999998
 20
5.934253407299551
 30
0.0
 40
1.497123673169014
100
AcDbArc
 50
250.087160088781
 51
289.9128399112193
  0
ARC
  5
366
330
535
100
AcDbEntity
  8
VISIBLE
100
AcDbCircle
 10
55.52282531190569
 20
5.994212064592622
 30
0.0
 40
1.557117903701564
100
AcDbArc
 50
241.0832833279629
 51
250.4744528822477
  0
ARC
  5
365
330
535
100
AcDbEntity
  8
VISIBLE
100
AcDbCircle
 10
55.57855023445813
 20
6.118083431208654
 30
0.0
 40
1.692527050440209
100
AcDbArc
 50
233.6041749533682
 51
241.4596939350701
  0
LINE
  5
36C
330
535
100
AcDbEntity
  8
VISIBLE
100
AcDbLine
 10
56.63729988657651
 20
4.912129686240616
 30
0.0
 11
56.63729988657648
 21
4.062129771938863
 31
0.0
  0
ARC
  5
36B
330
535
100
AcDbEntity
  8
VISIBLE
100
AcDbCircle
 10
55.26775844291114
 20
6.353755140648482
 30
0.0
 40
1.98844857029638
100
AcDbArc
 50
313.3369323773341
 51
313.5311420873451
  0
ARC
  5
36A
330
535
100
AcDbEntity
  8
VISIBLE
100
AcDbCircle
 10
55.37244153769041
 20
6.233767441047219
 30
0.0
 40
1.829345701111554
100
AcDbArc
 50
306.1016533874961
 51
313.5313328332611
  0
ARC
  5
369
330
535
100
AcDbEntity
  8
VISIBLE
100
AcDbCircle
 10
55.44604976554186
 20
6.118083431208588
 30
0.0
 40
1.692527050440158
100
AcDbArc
 50
298.540306064931
 51
306.3958250466329
  0
ARC
  5
378
330
535
100
AcDbEntity
  8
VISIBLE
100
AcDbCircle
 10
55.520180855513
 20
3.845348874125474
 30
0.0
 40
1.321386200411651
100
AcDbArc
 50
218.8792553659781
 51
226.3729476313474
1001
QCAD
1000
reversed:1
  0
ARC
  5
377
330
535
100
AcDbEntity
  8
VISIBLE
100
AcDbCircle
 10
55.46575951548775
 20
3.780864292666926
 30
0.0
 40
1.237171168155426
100
AcDbArc
 50
226.1367935402692
 51
233.5382594772294
1001
QCAD
1000
reversed:1
  0
ARC
  5
376
330
535
100
AcDbEntity
  8
VISIBLE
100
AcDbCircle
 10
55.42515028623109
 20
3.717788975733209
 30
0.0
 40
1.162319121905071
100
AcDbArc
 50
233.3004312485745
 51
241.1509781195793
1001
QCAD
1000
reversed:1
  0
ARC
  5
375
330
535
100
AcDbEntity
  8
VISIBLE
100
AcDbCircle
 10
55.3933968288061
 20
3.647990855202071
 30
0.0
 40
1.08587804788538
100
AcDbArc
 50
240.841504962549
 51
250.2338006528298
1001
QCAD
1000
reversed:1
  0
ARC
  5
37B
330
535
100
AcDbEntity
  8
VISIBLE
100
AcDbCircle
 10
54.07351204705142
 20
2.9597307746005
 30
0.0
 40
0.3777681649922866
100
AcDbArc
 50
40.00000000000019
 51
220.0000000000001
  0
ARC
  5
37A
330
535
100
AcDbEntity
  8
VISIBLE
100
AcDbCircle
 10
55.68572226778033
 20
3.973369382161839
 30
0.0
 40
1.531017577063906
100
AcDbArc
 50
210.2295149396053
 51
211.176415648701
1001
QCAD
1000
reversed:1
  0
ARC
  5
379
330
535
100
AcDbEntity
  8
VISIBLE
100
AcDbCircle
 10
55.5913589912364
 20
3.910860394003209
 30
0.0
 40
1.417930720673386
100
AcDbArc
 50
210.9892541828217
 51
219.1346996688207
1001
QCAD
1000
reversed:1
  0
ARC
  5
344
330
535
100
AcDbEntity
  8
VISIBLE
100
AcDbCircle
 10
55.60735614744664
 20
3.924940885020064
 30
0.0
 40
2.18723498801219
100
AcDbArc
 50
210.860153074821
 51
218.642234808737
  0
ARC
  5
350
330
535
100
AcDbEntity
  8
VISIBLE
100
AcDbCircle
 10
54.87839806304221
 20
4.062129771938571
 30
0.0
 40
2.508901747918628
100
AcDbArc
 50
338.8965571223764
 51
0.0
  0
ARC
  5
34F
330
535
100
AcDbEntity
  8
VISIBLE
100
AcDbCircle
 10
55.07810610599022
 20
3.986679915258633
 30
0.0
 40
2.295422306977212
100
AcDbArc
 50
329.178640263287
 51
338.8587195222358
  0
ARC
  5
34E
330
535
100
AcDbEntity
  8
VISIBLE
100
AcDbCircle
 10
55.16731777671588
 20
3.925047391739505
 30
0.0
 40
2.187243780996978
100
AcDbArc
 50
321.3543772115309
 51
329.3677541245212
  0
ARC
  5
34D
330
535
100
AcDbEntity
  8
VISIBLE
100
AcDbCircle
 10
55.23965085205841
 20
3.859490488686914
 30
0.0
 40
2.089818253359302
100
AcDbArc
 50
314.1070358708187
 51
321.5196819194023
  0
ARC
  5
354
330
535
100
AcDbEntity
  8
VISIBLE
100
AcDbCircle
 10
55.13146127651555
 20
7.138562190855412
 30
0.0
 40
2.177969697602939
100
AcDbArc
 50
31.29263192937704
 51
39.54281790063897
  0
ARC
  5
353
330
535
100
AcDbEntity
  8
VISIBLE
100
AcDbCircle
 10
54.9416522876399
 20
7.003583569691662
 30
0.0
 40
2.410333714446271
100
AcDbArc
 50
21.59998999337056
 51
31.69089623966683
  0
ARC
  5
352
330
535
100
AcDbEntity
  8
VISIBLE
100
AcDbCircle
 10
54.44079412098046
 20
6.812129494680942
 30
0.0
 40
2.946505689980408
100
AcDbArc
 50
0.0
 51
21.476150401476
  0
LINE
  5
351
330
535
100
AcDbEntity
  8
VISIBLE
100
AcDbLine
 10
57.38729981096084
 20
4.062129771938235
 30
0.0
 11
57.38729981096087
 21
6.81212949468096
 31
0.0
  0
ARC
  5
348
330
535
100
AcDbEntity
  8
VISIBLE
100
AcDbCircle
 10
55.39456278077964
 20
3.642136182070599
 30
0.0
 40
1.830020595146209
100
AcDbArc
 50
240.5466695717075
 51
249.9245476294637
  0
ARC
  5
347
330
535
100
AcDbEntity
  8
VISIBLE
100
AcDbCircle
 10
55.43155885078622
 20
3.72233387367318
 30
0.0
 40
1.91805834745858
100
AcDbArc
 50
232.9297346217839
 51
240.7623380964386
  0
ARC
  5
346
330
535
100
AcDbEntity
  8
VISIBLE
100
AcDbCircle
 10
55.47686189358765
 20
3.791685734099169
 30
0.0
 40
2.000710381006823
100
AcDbArc
 50
225.7359394104756
 51
233.0917592717291
  0
ARC
  5
345
330
535
100
AcDbEntity
  8
VISIBLE
100
AcDbCircle
 10
55.53494917314681
 20
3.859490488686874
 30
0.0
 40
2.089818253359295
100
AcDbArc
 50
218.4803180805962
 51
225.8929641291797
  0
ARC
  5
34C
330
535
100
AcDbEntity
  8
VISIBLE
100
AcDbCircle
 10
55.29773813161757
 20
3.791685734099103
 30
0.0
 40
2.000710381006762
100
AcDbArc
 50
306.9082407282714
 51
314.2640605895251
  0
ARC
  5
34B
330
535
100
AcDbEntity
  8
VISIBLE
100
AcDbCircle
 10
55.34304117441891
 20
3.722333873673228
 30
0.0
 40
1.918058347458651
100
AcDbArc
 50
299.2376619035621
 51
307.0702653782167
  0
ARC
  5
34A
330
535
100
AcDbEntity
  8
VISIBLE
100
AcDbCircle
 10
55.38003724442562
 20
3.642136182070541
 30
0.0
 40
1.830020595146131
100
AcDbArc
 50
290.0754523705351
 51
299.4533304282913
  0
ARC
  5
349
330
535
100
AcDbEntity
  8
VISIBLE
100
AcDbCircle
 10
55.38730001260259
 20
3.601574117338744
 30
0.0
 40
1.789444118552145
100
AcDbArc
 50
249.697158354394
 51
290.3028416456062
  0
ARC
  5
398
330
535
100
AcDbEntity
  8
VISIBLE
100
AcDbCircle
 10
55.61666823428752
 20
6.204029087857695
 30
0.0
 40
1.040999207178122
100
AcDbArc
 50
227.249688598807
 51
234.7127814050085
  0
ARC
  5
397
330
535
100
AcDbEntity
  8
VISIBLE
100
AcDbCircle
 10
55.70122942514691
 20
6.308383561906124
 30
0.0
 40
1.175061713119442
100
AcDbArc
 50
220.0177448488014
 51
227.6759233077779
  0
ARC
  5
396
330
535
100
AcDbEntity
  8
VISIBLE
100
AcDbCircle
 10
55.8269446493344
 20
6.429137543322566
 30
0.0
 40
1.349038164174388
100
AcDbArc
 50
212.0390325778305
 51
220.5121567854263
  0
ARC
  5
395
330
535
100
AcDbEntity
  8
VISIBLE
100
AcDbCircle
 10
56.01929286435477
 20
6.570305252273015
 30
0.0
 40
1.587076131583369
100
AcDbArc
 50
202.1273038803484
 51
212.6753661910871
  0
ARC
  5
39B
330
535
100
AcDbEntity
  8
VISIBLE
100
AcDbCircle
 10
55.51229999999999
 20
5.977798143610231
 30
0.0
 40
0.7906684850952577
100
AcDbArc
 50
250.4875786727431
 51
270.0
  0
ARC
  5
39A
330
535
100
AcDbEntity
  8
VISIBLE
100
AcDbCircle
 10
55.51966250119694
 20
6.020617566822633
 30
0.0
 40
0.8335204254959567
100
AcDbArc
 50
241.6423982936042
 51
250.993679924755
  0
ARC
  5
399
330
535
100
AcDbEntity
  8
VISIBLE
100
AcDbCircle
 10
55.55992959062965
 20
6.112427083244311
 30
0.0
 40
0.9334743838805524
100
AcDbArc
 50
234.3075298183044
 51
242.1439946603513
  0
ARC
  5
380
330
535
100
AcDbEntity
  8
VISIBLE
100
AcDbCircle
 10
55.32337057485307
 20
6.308383561906124
 30
0.0
 40
1.175061713119437
100
AcDbArc
 50
312.3240766922218
 51
319.9822551511983
  0
ARC
  5
37F
330
535
100
AcDbEntity
  8
VISIBLE
100
AcDbCircle
 10
55.40793176571246
 20
6.204029087857692
 30
0.0
 40
1.040999207178123
100
AcDbArc
 50
305.2872185949915
 51
312.7503114011931
  0
ARC
  5
37E
330
535
100
AcDbEntity
  8
VISIBLE
100
AcDbCircle
 10
55.46467040937033
 20
6.112427083244306
 30
0.0
 40
0.9334743838805469
100
AcDbArc
 50
297.8560053396488
 51
305.6924701816957
  0
ARC
  5
37D
330
535
100
AcDbEntity
  8
VISIBLE
100
AcDbCircle
 10
55.50493749880305
 20
6.020617566822676
 30
0.0
 40
0.8335204254959944
100
AcDbArc
 50
289.006320075243
 51
298.3576017063939
  0
ARC
  5
384
330
535
100
AcDbEntity
  8
VISIBLE
100
AcDbCircle
 10
54.37797250989457
 20
6.81212949468105
 30
0.0
 40
2.259327376681944
100
AcDbArc
 50
0.0
 51
21.81584093430495
  0
ARC
  5
383
330
535
100
AcDbEntity
  8
VISIBLE
100
AcDbCircle
 10
54.37797250989457
 20
6.812129494681074
 30
0.0
 40
2.259327376681944
100
AcDbArc
 50
338.184159065695
 51
0.0
  0
ARC
  5
382
330
535
100
AcDbEntity
  8
VISIBLE
100
AcDbCircle
 10
55.0053071356452
 20
6.570305252272978
 30
0.0
 40
1.587076131583359
100
AcDbArc
 50
327.3246338089141
 51
337.8726961196529
  0
ARC
  5
381
330
535
100
AcDbEntity
  8
VISIBLE
100
AcDbCircle
 10
55.19765535066558
 20
6.429137543322565
 30
0.0
 40
1.349038164174388
100
AcDbArc
 50
319.4878432145738
 51
327.9609674221695
  0
ARC
  5
37C
330
535
100
AcDbEntity
  8
VISIBLE
100
AcDbCircle
 10
55.51229999999999
 20
5.97779814361021
 30
0.0
 40
0.7906684850952368
100
AcDbArc
 50
270.0
 51
289.512421327257
  0
ARC
  5
390
330
535
100
AcDbEntity
  8
VISIBLE
100
AcDbCircle
 10
55.70122942514692
 20
7.315875427455996
 30
0.0
 40
1.175061713119454
100
AcDbArc
 50
132.3240766922222
 51
139.9822551511987
  0
ARC
  5
38F
330
535
100
AcDbEntity
  8
VISIBLE
100
AcDbCircle
 10
55.61666823428751
 20
7.420229901504434
 30
0.0
 40
1.040999207178119
100
AcDbArc
 50
125.2872185949913
 51
132.7503114011929
  0
ARC
  5
38E
330
535
100
AcDbEntity
  8
VISIBLE
100
AcDbCircle
 10
55.55992959062964
 20
7.511831906117817
 30
0.0
 40
0.9334743838805469
100
AcDbArc
 50
117.8560053396484
 51
125.6924701816954
  0
ARC
  5
38D
330
535
100
AcDbEntity
  8
VISIBLE
100
AcDbCircle
 10
55.51966250119693
 20
7.603641422539445
 30
0.0
 40
0.8335204254959964
100
AcDbArc
 50
109.006320075243
 51
118.3576017063938
  0
ARC
  5
394
330
535
100
AcDbEntity
  8
VISIBLE
100
AcDbCircle
 10
56.64662749010541
 20
6.812129494681091
 30
0.0
 40
2.25932737668195
100
AcDbArc
 50
180.0
 51
201.8158409343053
  0
ARC
  5
393
330
535
100
AcDbEntity
  8
VISIBLE
100
AcDbCircle
 10
56.64662749010541
 20
6.812129494681032
 30
0.0
 40
2.25932737668195
100
AcDbArc
 50
158.1841590656947
 51
180.0
  0
ARC
  5
392
330
535
100
AcDbEntity
  8
VISIBLE
100
AcDbCircle
 10
56.01929286435478
 20
7.053953737089108
 30
0.0
 40
1.587076131583373
100
AcDbArc
 50
147.3246338089129
 51
157.8726961196517
  0
ARC
  5
391
330
535
100
AcDbEntity
  8
VISIBLE
100
AcDbCircle
 10
55.82694464933439
 20
7.195121446039558
 30
0.0
 40
1.349038164174383
100
AcDbArc
 50
139.4878432145736
 51
147.9609674221693
  0
ARC
  5
388
330
535
100
AcDbEntity
  8
VISIBLE
100
AcDbCircle
 10
55.40793176571245
 20
7.420229901504431
 30
0.0
 40
1.040999207178127
100
AcDbArc
 50
47.24968859880659
 51
54.71278140500814
  0
ARC
  5
387
330
535
100
AcDbEntity
  8
VISIBLE
100
AcDbCircle
 10
55.32337057485309
 20
7.315875427455999
 30
0.0
 40
1.175061713119431
100
AcDbArc
 50
40.01774484880216
 51
47.67592330777869
  0
ARC
  5
386
330
535
100
AcDbEntity
  8
VISIBLE
100
AcDbCircle
 10
55.19765535066557
 20
7.195121446039559
 30
0.0
 40
1.349038164174392
100
AcDbArc
 50
32.03903257783031
 51
40.51215678542605
  0
ARC
  5
385
330
535
100
AcDbEntity
  8
VISIBLE
100
AcDbCircle
 10
55.0053071356452
 20
7.053953737089148
 30
0.0
 40
1.587076131583356
100
AcDbArc
 50
22.12730388034705
 51
32.67536619108584
  0
ARC
  5
38C
330
535
100
AcDbEntity
  8
VISIBLE
100
AcDbCircle
 10
55.51229999999999
 20
7.646460845751911
 30
0.0
 40
0.7906684850952372
100
AcDbArc
 50
90.0
 51
109.5124213272568
  0
ARC
  5
38B
330
535
100
AcDbEntity
  8
VISIBLE
100
AcDbCircle
 10
55.51229999999999
 20
7.646460845751911
 30
0.0
 40
0.7906684850952372
100
AcDbArc
 50
70.48757867274318
 51
90.0
  0
ARC
  5
38A
330
535
100
AcDbEntity
  8
VISIBLE
100
AcDbCircle
 10
55.50493749880305
 20
7.603641422539446
 30
0.0
 40
0.8335204254959964
100
AcDbArc
 50
61.64239829360614
 51
70.99367992475693
  0
ARC
  5
389
330
535
100
AcDbEntity
  8
VISIBLE
100
AcDbCircle
 10
55.46467040937033
 20
7.511831906117817
 30
0.0
 40
0.9334743838805469
100
AcDbArc
 50
54.30752981830464
 51
62.14399466035158
  0
ARC
  5
4E0
330
535
100
AcDbEntity
  8
VISIBLE
100
AcDbCircle
 10
3.274886539140295
 20
7.653907750672735
 30
0.0
 40
1.685419859428227
100
AcDbArc
 50
130.4455803913464
 51
138.1624439390272
  0
ARC
  5
4DF
330
535
100
AcDbEntity
  8
VISIBLE
100
AcDbCircle
 10
3.102650951855093
 20
7.879425776699422
 30
0.0
 40
1.402144605835813
100
AcDbArc
 50
123.6726461584696
 51
131.0676963311606
  0
ARC
  5
4DE
330
535
100
AcDbEntity
  8
VISIBLE
100
AcDbCircle
 10
2.999733080554819
 20
8.054929379806273
 30
0.0
 40
1.199081330342758
100
AcDbArc
 50
116.5462870224884
 51
124.2296753810626
  0
ARC
  5
4DD
330
535
100
AcDbEntity
  8
VISIBLE
100
AcDbCircle
 10
2.933289989904482
 20
8.214304740529128
 30
0.0
 40
1.026881234076524
100
AcDbArc
 50
108.0580761161052
 51
117.2041300157323
  0
ARC
  5
4E4
330
535
100
AcDbEntity
  8
VISIBLE
100
AcDbCircle
 10
7.807724219387516
 20
5.491120570601725
 30
0.0
 40
6.761024217475013
100
AcDbArc
 50
180.0
 51
202.0076629927291
  0
ARC
  5
4E3
330
535
100
AcDbEntity
  8
VISIBLE
100
AcDbCircle
 10
7.807724219387516
 20
5.491120570601725
 30
0.0
 40
6.761024217475016
100
AcDbArc
 50
157.9923370072708
 51
180.0
  0
ARC
  5
4E2
330
535
100
AcDbEntity
  8
VISIBLE
100
AcDbCircle
 10
4.161380621151831
 20
6.884327617444575
 30
0.0
 40
2.859274859484079
100
AcDbArc
 50
145.0114069227596
 51
156.4951403156423
  0
ARC
  5
4E1
330
535
100
AcDbEntity
  8
VISIBLE
100
AcDbCircle
 10
3.575411530474302
 20
7.345991489983656
 30
0.0
 40
2.114907477811801
100
AcDbArc
 50
137.3780388335651
 51
146.1553659080571
  0
ARC
  5
4D8
330
535
100
AcDbEntity
  8
VISIBLE
100
AcDbCircle
 10
2.74074904814491
 20
7.879425776699446
 30
0.0
 40
1.402144605835794
100
AcDbArc
 50
48.93230366883873
 51
56.3273538415298
  0
ARC
  5
4D7
330
535
100
AcDbEntity
  8
VISIBLE
100
AcDbCircle
 10
2.568513460859692
 20
7.653907750672733
 30
0.0
 40
1.685419859428237
100
AcDbArc
 50
41.83755606097244
 51
49.55441960865322
  0
ARC
  5
4D6
330
535
100
AcDbEntity
  8
VISIBLE
100
AcDbCircle
 10
2.267988469525702
 20
7.345991489983654
 30
0.0
 40
2.1149074778118
100
AcDbArc
 50
33.84463409194293
 51
42.62196116643496
  0
ARC
  5
4D5
330
535
100
AcDbEntity
  8
VISIBLE
100
AcDbCircle
 10
1.682019378848168
 20
6.884327617444574
 30
0.0
 40
2.859274859484081
100
AcDbArc
 50
23.50485968435765
 51
34.98859307724032
  0
ARC
  5
4DC
330
535
100
AcDbEntity
  8
VISIBLE
100
AcDbCircle
 10
2.9217
 20
8.284677111123973
 30
0.0
 40
0.956443455652757
100
AcDbArc
 50
89.99999999999994
 51
108.7047639546132
  0
ARC
  5
4DB
330
535
100
AcDbEntity
  8
VISIBLE
100
AcDbCircle
 10
2.921700000000001
 20
8.284677111123974
 30
0.0
 40
0.9564434556527543
100
AcDbArc
 50
71.29523604538672
 51
89.99999999999997
  0
ARC
  5
4DA
330
535
100
AcDbEntity
  8
VISIBLE
100
AcDbCircle
 10
2.910110010095509
 20
8.214304740529123
 30
0.0
 40
1.026881234076531
100
AcDbArc
 50
62.79586998426725
 51
71.94192388389429
  0
ARC
  5
4D9
330
535
100
AcDbEntity
  8
VISIBLE
100
AcDbCircle
 10
2.843666919445198
 20
8.05492937980625
 30
0.0
 40
1.199081330342771
100
AcDbArc
 50
55.77032461893846
 51
63.45371297751269
  0
ARC
  5
4E8
330
535
100
AcDbEntity
  8
VISIBLE
100
AcDbCircle
 10
3.102650951855106
 20
3.102815364504086
 30
0.0
 40
1.402144605835859
100
AcDbArc
 50
228.9323036688399
 51
236.3273538415309
  0
ARC
  5
4E7
330
535
100
AcDbEntity
  8
VISIBLE
100
AcDbCircle
 10
3.274886539140298
 20
3.328333390530685
 30
0.0
 40
1.685419859428199
100
AcDbArc
 50
221.8375560609715
 51
229.5544196086522
  0
ARC
  5
4E6
330
535
100
AcDbEntity
  8
VISIBLE
100
AcDbCircle
 10
3.575411530474288
 20
3.636249651219809
 30
0.0
 40
2.114907477811791
100
AcDbArc
 50
213.8446340919431
 51
222.6219611664351
  0
ARC
  5
4E5
330
535
100
AcDbEntity
  8
VISIBLE
100
AcDbCircle
 10
4.161380621151842
 20
4.097913523758896
 30
0.0
 40
2.859274859484094
100
AcDbArc
 50
203.5048596843577
 51
214.9885930772403
  0
ARC
  5
4EB
330
535
100
AcDbEntity
  8
VISIBLE
100
AcDbCircle
 10
2.9217
 20
2.697564030079488
 30
0.0
 40
0.9564434556527545
100
AcDbArc
 50
251.2952360453866
 51
269.9999999999999
  0
ARC
  5
4EA
330
535
100
AcDbEntity
  8
VISIBLE
100
AcDbCircle
 10
2.933289989904486
 20
2.767936400674314
 30
0.0
 40
1.026881234076505
100
AcDbArc
 50
242.7958699842669
 51
251.941923883894
  0
ARC
  5
4E9
330
535
100
AcDbEntity
  8
VISIBLE
100
AcDbCircle
 10
2.999733080554814
 20
2.927311761397219
 30
0.0
 40
1.199081330342781
100
AcDbArc
 50
235.7703246189383
 51
243.4537129775125
  0
ARC
  5
4D0
330
535
100
AcDbEntity
  8
VISIBLE
100
AcDbCircle
 10
2.568513460859698
 20
3.328333390530708
 30
0.0
 40
1.685419859428217
100
AcDbArc
 50
310.4455803913472
 51
318.1624439390279
  0
ARC
  5
4CF
330
535
100
AcDbEntity
  8
VISIBLE
100
AcDbCircle
 10
2.740749048144912
 20
3.102815364504039
 30
0.0
 40
1.40214460583581
100
AcDbArc
 50
303.6726461584696
 51
311.0676963311607
  0
ARC
  5
4CE
330
535
100
AcDbEntity
  8
VISIBLE
100
AcDbCircle
 10
2.843666919445193
 20
2.927311761397216
 30
0.0
 40
1.199081330342775
100
AcDbArc
 50
296.5462870224873
 51
304.2296753810616
  0
ARC
  5
4CD
330
535
100
AcDbEntity
  8
VISIBLE
100
AcDbCircle
 10
2.910110010095507
 20
2.767936400674338
 30
0.0
 40
1.02688123407653
100
AcDbArc
 50
288.0580761161058
 51
297.2041300157328
  0
ARC
  5
4D4
330
535
100
AcDbEntity
  8
VISIBLE
100
AcDbCircle
 10
-1.964324219387514
 20
5.491120570601732
 30
0.0
 40
6.761024217475013
100
AcDbArc
 50
0.0
 51
22.00766299272915
  0
ARC
  5
4D3
330
535
100
AcDbEntity
  8
VISIBLE
100
AcDbCircle
 10
-1.964324219387506
 20
5.491120570601732
 30
0.0
 40
6.761024217475006
100
AcDbArc
 50
337.9923370072708
 51
0.0
  0
ARC
  5
4D2
330
535
100
AcDbEntity
  8
VISIBLE
100
AcDbCircle
 10
1.682019378848165
 20
4.097913523758895
 30
0.0
 40
2.859274859484086
100
AcDbArc
 50
325.0114069227596
 51
336.4951403156422
  0
ARC
  5
4D1
330
535
100
AcDbEntity
  8
VISIBLE
100
AcDbCircle
 10
2.267988469525697
 20
3.636249651219809
 30
0.0
 40
2.114907477811802
100
AcDbArc
 50
317.3780388335651
 51
326.1553659080571
  0
ARC
  5
4CC
330
535
100
AcDbEntity
  8
VISIBLE
100
AcDbCircle
 10
2.921699999999999
 20
2.697564030079491
 30
0.0
 40
0.956443455652757
100
AcDbArc
 50
269.9999999999999
 51
288.7047639546132
  0
ARC
  5
4F0
330
535
100
AcDbEntity
  8
VISIBLE
100
AcDbCircle
 10
2.739311217581356
 20
3.254983651039349
 30
0.0
 40
0.8135159636439194
100
AcDbArc
 50
309.2689097064617
 51
316.8978375678117
  0
ARC
  5
4EF
330
535
100
AcDbEntity
  8
VISIBLE
100
AcDbCircle
 10
2.831251003228147
 20
3.129955166849367
 30
0.0
 40
0.6585747565022905
100
AcDbArc
 50
302.6964310971958
 51
309.9614305503753
  0
ARC
  5
4EE
330
535
100
AcDbEntity
  8
VISIBLE
100
AcDbCircle
 10
2.883567694870875
 20
3.03763562144383
 30
0.0
 40
0.5526538028708629
100
AcDbArc
 50
295.7774916598499
 51
303.3022174328746
  0
ARC
  5
4ED
330
535
100
AcDbEntity
  8
VISIBLE
100
AcDbCircle
 10
2.916124529421456
 20
2.957064042881494
 30
0.0
 40
0.4659768260125423
100
AcDbArc
 50
287.5236144815476
 51
296.4810361060772
  0
ARC
  5
4F4
330
535
100
AcDbEntity
  8
VISIBLE
100
AcDbCircle
 10
-2.598870642402823
 20
5.491120570601733
 30
0.0
 40
6.645570641255322
100
AcDbArc
 50
0.0
 51
21.04498641047724
  0
ARC
  5
4F3
330
535
100
AcDbEntity
  8
VISIBLE
100
AcDbCircle
 10
-2.598870642402825
 20
5.491120570601737
 30
0.0
 40
6.645570641255325
100
AcDbArc
 50
338.9550135895227
 51
0.0
  0
ARC
  5
4F2
330
535
100
AcDbEntity
  8
VISIBLE
100
AcDbCircle
 10
2.177935736988899
 20
3.761400530338793
 30
0.0
 40
1.569492993243308
100
AcDbArc
 50
323.3745506508082
 51
335.2650131744138
  0
ARC
  5
4F1
330
535
100
AcDbEntity
  8
VISIBLE
100
AcDbCircle
 10
2.566242309550673
 20
3.440036725711757
 30
0.0
 40
1.066460114767714
100
AcDbArc
 50
315.9922193900754
 51
324.7852409624978
  0
ARC
  5
4EC
330
535
100
AcDbEntity
  8
VISIBLE
100
AcDbCircle
 10
2.921700000000003
 20
2.922273068045591
 30
0.0
 40
0.4311524943838578
100
AcDbArc
 50
269.9999999999994
 51
288.209181955999
  0
ARC
  5
500
330
535
100
AcDbEntity
  8
VISIBLE
100
AcDbCircle
 10
3.104088782418641
 20
7.727257490164131
 30
0.0
 40
0.8135159636439037
100
AcDbArc
 50
129.2689097064623
 51
136.8978375678123
  0
ARC
  5
4FF
330
535
100
AcDbEntity
  8
VISIBLE
100
AcDbCircle
 10
3.012148996771868
 20
7.852285974354095
 30
0.0
 40
0.6585747565022987
100
AcDbArc
 50
122.6964310971967
 51
129.9614305503763
  0
ARC
  5
4FE
330
535
100
AcDbEntity
  8
VISIBLE
100
AcDbCircle
 10
2.95983230512912
 20
7.944605519759656
 30
0.0
 40
0.5526538028708426
100
AcDbArc
 50
115.7774916598507
 51
123.3022174328754
  0
ARC
  5
4FD
330
535
100
AcDbEntity
  8
VISIBLE
100
AcDbCircle
 10
2.92727547057854
 20
8.02517709832195
 30
0.0
 40
0.4659768260125562
100
AcDbArc
 50
107.5236144815463
 51
116.4810361060759
  0
ARC
  5
504
330
535
100
AcDbEntity
  8
VISIBLE
100
AcDbCircle
 10
8.442270642402828
 20
5.491120570601724
 30
0.0
 40
6.645570641255327
100
AcDbArc
 50
180.0
 51
201.0449864104772
  0
ARC
  5
503
330
535
100
AcDbEntity
  8
VISIBLE
100
AcDbCircle
 10
8.442270642402825
 20
5.49112057060173
 30
0.0
 40
6.645570641255325
100
AcDbArc
 50
158.9550135895227
 51
180.0
  0
ARC
  5
502
330
535
100
AcDbEntity
  8
VISIBLE
100
AcDbCircle
 10
3.665464263011113
 20
7.220840610864657
 30
0.0
 40
1.569492993243324
100
AcDbArc
 50
143.3745506508081
 51
155.2650131744136
  0
ARC
  5
501
330
535
100
AcDbEntity
  8
VISIBLE
100
AcDbCircle
 10
3.27715769044933
 20
7.542204415491691
 30
0.0
 40
1.066460114767725
100
AcDbArc
 50
135.9922193900748
 51
144.7852409624972
  0
ARC
  5
4F8
330
535
100
AcDbEntity
  8
VISIBLE
100
AcDbCircle
 10
2.831251003228134
 20
7.852285974354095
 30
0.0
 40
0.6585747565022987
100
AcDbArc
 50
50.03856944962369
 51
57.30356890280329
  0
ARC
  5
4F7
330
535
100
AcDbEntity
  8
VISIBLE
100
AcDbCircle
 10
2.73931121758136
 20
7.727257490164131
 30
0.0
 40
0.8135159636439037
100
AcDbArc
 50
43.10216243218767
 51
50.73109029353769
  0
ARC
  5
4F6
330
535
100
AcDbEntity
  8
VISIBLE
100
AcDbCircle
 10
2.566242309550669
 20
7.542204415491689
 30
0.0
 40
1.066460114767728
100
AcDbArc
 50
35.21475903750278
 51
44.00778060992513
  0
ARC
  5
4F5
330
535
100
AcDbEntity
  8
VISIBLE
100
AcDbCircle
 10
2.177935736988899
 20
7.220840610864667
 30
0.0
 40
1.569492993243309
100
AcDbArc
 50
24.73498682558638
 51
36.6254493491918
  0
ARC
  5
4FC
330
535
100
AcDbEntity
  8
VISIBLE
100
AcDbCircle
 10
2.9217
 20
8.059968073157876
 30
0.0
 40
0.4311524943838561
100
AcDbArc
 50
89.99999999999989
 51
108.2091819559995
  0
ARC
  5
4FB
330
535
100
AcDbEntity
  8
VISIBLE
100
AcDbCircle
 10
2.921700000000002
 20
8.059968073157876
 30
0.0
 40
0.4311524943838561
100
AcDbArc
 50
71.79081804400046
 51
90.00000000000011
  0
ARC
  5
4FA
330
535
100
AcDbEntity
  8
VISIBLE
100
AcDbCircle
 10
2.916124529421462
 20
8.025177098321949
 30
0.0
 40
0.4659768260125589
100
AcDbArc
 50
63.51896389392408
 51
72.4763855184537
  0
ARC
  5
4F9
330
535
100
AcDbEntity
  8
VISIBLE
100
AcDbCircle
 10
2.883567694870881
 20
7.944605519759659
 30
0.0
 40
0.5526538028708395
100
AcDbArc
 50
56.69778256712444
 51
64.22250834014913
  0
ARC
  5
508
330
535
100
AcDbEntity
  8
VISIBLE
100
AcDbCircle
 10
3.012148996771849
 20
3.129955166849345
 30
0.0
 40
0.6585747565022712
100
AcDbArc
 50
230.0385694496235
 51
237.3035689028031
  0
ARC
  5
507
330
535
100
AcDbEntity
  8
VISIBLE
100
AcDbCircle
 10
3.104088782418644
 20
3.254983651039365
 30
0.0
 40
0.8135159636439325
100
AcDbArc
 50
223.1021624321889
 51
230.7310902935389
  0
ARC
  5
506
330
535
100
AcDbEntity
  8
VISIBLE
100
AcDbCircle
 10
3.277157690449322
 20
3.44003672571174
 30
0.0
 40
1.066460114767701
100
AcDbArc
 50
215.2147590375015
 51
224.0077806099239
  0
ARC
  5
505
330
535
100
AcDbEntity
  8
VISIBLE
100
AcDbCircle
 10
3.665464263011096
 20
3.761400530338804
 30
0.0
 40
1.569492993243311
100
AcDbArc
 50
204.7349868255866
 51
216.6254493491921
  0
ARC
  5
50B
330
535
100
AcDbEntity
  8
VISIBLE
100
AcDbCircle
 10
2.921699999999995
 20
2.922273068045588
 30
0.0
 40
0.4311524943838549
100
AcDbArc
 50
251.7908180440009
 51
270.0000000000005
  0
ARC
  5
50A
330
535
100
AcDbEntity
  8
VISIBLE
100
AcDbCircle
 10
2.927275470578544
 20
2.957064042881475
 30
0.0
 40
0.4659768260125244
100
AcDbArc
 50
243.5189638939219
 51
252.4763855184516
  0
ARC
  5
509
330
535
100
AcDbEntity
  8
VISIBLE
100
AcDbCircle
 10
2.959832305129128
 20
3.037635621443873
 30
0.0
 40
0.5526538028709026
100
AcDbArc
 50
236.6977825671271
 51
244.2225083401518
  0
LINE
  5
4C4
330
535
100
AcDbEntity
  8
VISIBLE
100
AcDbLine
 10
7.530265167442387
 20
6.784834454480253
 30
0.0
 11
8.765099999999999
 21
8.019669287037862
 31
0.0
  0
ARC
  5
4C3
330
535
100
AcDbEntity
  8
VISIBLE
100
AcDbCircle
 10
7.265100151231859
 20
7.049999470690768
 30
0.0
 40
0.3749999621918014
100
AcDbArc
 50
135.0000000000013
 51
315.0000000000013
  0
LINE
  5
4C2
330
535
100
AcDbEntity
  8
VISIBLE
100
AcDbLine
 10
8.874934945981384
 20
9.190164297862394
 30
0.0
 11
6.999935135021332
 21
7.315164486901284
 31
0.0
  0
ARC
  5
4C1
330
535
100
AcDbEntity
  8
VISIBLE
100
AcDbCircle
 10
9.140099962192254
 20
8.924999281651628
 30
0.0
 40
0.3749999621922209
100
AcDbArc
 50
0.0
 51
135.0000000000113
  0
LINE
  5
4C7
330
535
100
AcDbEntity
  8
VISIBLE
100
AcDbLine
 10
9.51509992438434
 20
2.174999962192465
 30
0.0
 11
9.515099924384476
 21
8.924999281651628
 31
0.0
  0
ARC
  5
4C6
330
535
100
AcDbEntity
  8
VISIBLE
100
AcDbCircle
 10
9.140099962192235
 20
2.174999962192434
 30
0.0
 40
0.3749999621921063
100
AcDbArc
 50
180.0
 51
0.0
  0
LINE
  5
4C5
330
535
100
AcDbEntity
  8
VISIBLE
100
AcDbLine
 10
8.765099999999999
 20
8.019669287037862
 30
0.0
 11
8.765100000000128
 21
2.174999962192403
 31
0.0
  0
LINE
  5
12F
330
535
100
AcDbEntity
  8
0
100
AcDbLine
 10
0.0
 20
0.0
 30
0.0
 11
58.434
 21
0.0
 31
0.0
  0
LINE
  5
132
330
535
100
AcDbEntity
  8
0
100
AcDbLine
 10
58.434
 20
15.0
 30
0.0
 11
58.434
 21
0.0
 31
0.0
  0
LINE
  5
133
330
535
100
AcDbEntity
  8
0
100
AcDbLine
 10
58.434
 20
0.0
 30
0.0
 11
58.434
 21
15.0
 31
0.0
  0
LINE
  5
134
330
535
100
AcDbEntity
  8
0
100
AcDbLine
 10
58.434
 20
15.0
 30
0.0
 11
0.0
 21
15.0
 31
0.0
  0
LINE
  5
14B
330
535
100
AcDbEntity
  8
0
100
AcDbLine
 10
0.0
 20
15.0
 30
0.0
 11
0.0
 21
0.0
 31
0.0
  0
ARC
  5
50C
330
535
100
AcDbEntity
  8
0
100
AcDbCircle
 10
38.71920534175035
 20
6.842555520855168
 30
0.0
 40
1.847121395843996
100
AcDbArc
 50
138.4363656341989
 51
144.8672209735747
  0
ARC
  5
50D
330
535
100
AcDbEntity
  8
0
100
AcDbCircle
 10
38.39600788130647
 20
7.156495583722811
 30
0.0
 40
1.397112398808963
100
AcDbArc
 50
131.2625800890716
 51
138.9826220208563
  0
ARC
  5
50E
330
535
100
AcDbEntity
  8
0
100
AcDbCircle
 10
38.2004985113652
 20
7.405941452296863
 30
0.0
 40
1.080748735703177
100
AcDbArc
 50
124.3651000513728
 51
131.8118034985926
  0
ARC
  5
50F
330
535
100
AcDbEntity
  8
0
100
AcDbCircle
 10
38.07831865427122
 20
7.609405554794865
 30
0.0
 40
0.843893035351416
100
AcDbArc
 50
117.1013458911854
 51
124.8681478578121
  0
ARC
  5
510
330
535
100
AcDbEntity
  8
0
100
AcDbCircle
 10
37.99660550612929
 20
7.801168651011814
 30
0.0
 40
0.6360365096766747
100
AcDbArc
 50
108.4534751311647
 51
117.7056957174187
  0
ARC
  5
511
330
535
100
AcDbEntity
  8
0
100
AcDbCircle
 10
37.98209999999999
 20
7.887604011145978
 30
0.0
 40
0.5495252440853855
100
AcDbArc
 50
70.94688737943117
 51
109.0531126205688
  0
ARC
  5
512
330
535
100
AcDbEntity
  8
0
100
AcDbCircle
 10
37.9675944938707
 20
7.801168651011855
 30
0.0
 40
0.6360365096766256
100
AcDbArc
 50
62.29430428258129
 51
71.54652486883528
  0
ARC
  5
513
330
535
100
AcDbEntity
  8
0
100
AcDbCircle
 10
37.88588134572869
 20
7.60940555479481
 30
0.0
 40
0.843893035351488
100
AcDbArc
 50
55.13185214218701
 51
62.89865410881372
  0
ARC
  5
514
330
535
100
AcDbEntity
  8
0
100
AcDbCircle
 10
37.76370148863481
 20
7.405941452296856
 30
0.0
 40
1.080748735703157
100
AcDbArc
 50
48.18819650140833
 51
55.63489994862813
  0
ARC
  5
515
330
535
100
AcDbEntity
  8
0
100
AcDbCircle
 10
37.56819211869345
 20
7.156495583722847
 30
0.0
 40
1.397112398808972
100
AcDbArc
 50
41.01737797914198
 51
48.73741991092659
  0
ARC
  5
516
330
535
100
AcDbEntity
  8
0
100
AcDbCircle
 10
37.24499465824946
 20
6.84255552085536
 30
0.0
 40
1.847121395843975
100
AcDbArc
 50
35.13277902641975
 51
41.56363436579553
  0
VIEWPORT
  5
5F5
330
531
100
AcDbEntity
 67
     1
  8
0
 62
   178
420
        0
100
AcDbViewport
 10
128.5
 20
97.5
 30
0.0
 40
314.226
 41
222.18
 68
     1
 69
     1
 12
128.5
 22
97.5
 13
0.0
 23
0.0
 14
10.0
 24
10.0
 15
10.0
 25
10.0
 16
0.0
 26
0.0
 36
1.0
 17
0.0
 27
0.0
 37
0.0
 42
50.0
 43
0.0
 44
0.0
 45
222.18
 50
0.0
 51
0.0
 72
   100
 90
   557152
  1

281
     0
 71
     1
 74
     0
110
0.0
120
0.0
130
0.0
111
1.0
121
0.0
131
0.0
112
0.0
122
1.0
132
0.0
 79
     0
146
0.0
170
     0
 61
     5
292
     1
282
     1
141
0.0
142
0.0
 63
   256
361
5F6
  0
ENDSEC
  0
SECTION
  2
OBJECTS
  0
DICTIONARY
  5
523
330
0
100
AcDbDictionary
281
     1
  3
ACAD_DETAILVIEWSTYLE
350
5FE
  3
ACAD_GROUP
350
524
  3
ACAD_LAYOUT
350
530
  3
ACAD_MATERIAL
350
559
  3
ACAD_MLEADERSTYLE
350
581
  3
ACAD_MLINESTYLE
350
52D
  3
ACAD_PLOTSETTINGS
350
52F
  3
ACAD_PLOTSTYLENAME
350
525
  3
ACAD_SCALELIST
350
55D
  3
ACAD_SECTIONVIEWSTYLE
350
5FF
  3
ACAD_TABLESTYLE
350
57F
  3
ACAD_VISUALSTYLE
350
540
  3
AcDbVariableDictionary
350
5F7
  3
ACDB_RECOMPOSE_DATA
350
5FB
  3
QCAD_OBJECTS
350
585
  0
SUN
  5
583
330
53F
100
AcDbSun
 90
        1
290
     0
 63
     7
421
 16777215
 40
1.0
291
     1
 91
  2455826
 92
 54000000
292
     0
 70
     2
 71
   256
280
     1
  0
SUN
  5
5F6
330
5F5
100
AcDbSun
 90
        1
290
     0
 63
     7
421
 16777215
 40
1.0
291
     1
 91
  2455826
 92
 54000000
292
     0
 70
     2
 71
   256
280
     1
  0
DICTIONARY
  5
5FE
102
{ACAD_REACTORS
330
523
102
}
330
523
100
AcDbDictionary
281
     1
  0
DICTIONARY
  5
524
102
{ACAD_REACTORS
330
523
102
}
330
523
100
AcDbDictionary
281
     1
  0
DICTIONARY
  5
530
102
{ACAD_REACTORS
330
523
102
}
330
523
100
AcDbDictionary
281
     1
  3
Layout1
350
534
  3
Model
350
538
  0
DICTIONARY
  5
559
102
{ACAD_REACTORS
330
523
102
}
330
523
100
AcDbDictionary
281
     1
  3
ByBlock
350
55B
  3
ByLayer
350
55A
  3
Global
350
55C
  0
DICTIONARY
  5
581
102
{ACAD_REACTORS
330
523
102
}
330
523
100
AcDbDictionary
281
     1
  3
Standard
350
582
  0
DICTIONARY
  5
52D
102
{ACAD_REACTORS
330
523
102
}
330
523
100
AcDbDictionary
281
     1
  3
Standard
350
52E
  0
DICTIONARY
  5
52F
102
{ACAD_REACTORS
330
523
102
}
330
523
100
AcDbDictionary
281
     1
  0
ACDBDICTIONARYWDFLT
  5
525
102
{ACAD_REACTORS
330
523
102
}
330
523
100
AcDbDictionary
281
     1
  3
Normal
350
526
100
AcDbDictionaryWithDefault
340
526
  0
DICTIONARY
  5
55D
102
{ACAD_REACTORS
330
523
102
}
330
523
100
AcDbDictionary
281
     1
  3
A0
350
55E
  3
A1
350
55F
  3
A2
350
560
  3
A3
350
561
  3
A4
350
562
  3
A5
350
563
  3
A6
350
564
  3
A7
350
565
  3
A8
350
566
  3
A9
350
567
  3
B0
350
568
  3
B1
350
569
  3
B2
350
56A
  3
B3
350
56B
  3
B4
350
56C
  3
B5
350
56D
  3
B6
350
56E
  3
B7
350
56F
  3
B8
350
570
  3
B9
350
571
  3
C0
350
572
  3
C1
350
573
  3
C2
350
574
  3
C3
350
575
  3
C4
350
576
  3
C5
350
577
  3
C6
350
578
  3
C7
350
579
  3
C8
350
57A
  3
C9
350
57B
  3
D0
350
57C
  3
D1
350
57D
  3
D2
350
57E
  0
DICTIONARY
  5
5FF
102
{ACAD_REACTORS
330
523
102
}
330
523
100
AcDbDictionary
281
     1
  0
DICTIONARY
  5
57F
102
{ACAD_REACTORS
330
523
102
}
330
523
100
AcDbDictionary
281
     1
  3
Standard
350
580
  0
DICTIONARY
  5
540
102
{ACAD_REACTORS
330
523
102
}
330
523
100
AcDbDictionary
281
     1
  3
2dWireframe
350
545
  3
Basic
350
548
  3
Brighten
350
54C
  3
ColorChange
350
550
  3
Conceptual
350
54A
  3
Dim
350
54B
  3
EdgeColorOff
350
553
  3
Facepattern
350
54F
  3
Flat
350
541
  3
FlatWithEdges
350
542
  3
Gouraud
350
543
  3
GouraudWithEdges
350
544
  3
Hidden
350
547
  3
JitterOff
350
551
  3
Linepattern
350
54E
  3
OverhangOff
350
552
  3
Realistic
350
549
  3
Shaded
350
558
  3
Shaded with edges
350
557
  3
Shades of Gray
350
554
  3
Sketchy
350
555
  3
Thicken
350
54D
  3
Wireframe
350
546
  3
X-Ray
350
556
  0
DICTIONARY
  5
5F7
102
{ACAD_REACTORS
330
523
102
}
330
523
100
AcDbDictionary
281
     1
  3
CANNOSCALE
350
5F8
  3
CMLEADERSTYLE
350
5FD
  3
CTABLESTYLE
350
5FC
  0
XRECORD
  5
5FB
102
{ACAD_REACTORS
330
523
102
}
330
523
100
AcDbXrecord
280
     1
 90
        1
330
580
  0
DICTIONARY
  5
585
102
{ACAD_REACTORS
330
523
102
}
330
523
100
AcDbDictionary
281
     1
  3
ColorSettings/BackgroundColor
350
587
  3
ColorSettings/ColorMode
350
588
  3
Grid/DisplayGrid00
350
589
  3
Grid/DisplayGrid01
350
58A
  3
Grid/DisplayGrid02
350
58B
  3
Grid/DisplayGrid03
350
58C
  3
Grid/GridSpacingX00
350
58D
  3
Grid/GridSpacingX01
350
58E
  3
Grid/GridSpacingX02
350
58F
  3
Grid/GridSpacingX03
350
590
  3
Grid/GridSpacingY00
350
591
  3
Grid/GridSpacingY01
350
592
  3
Grid/GridSpacingY02
350
593
  3
Grid/GridSpacingY03
350
594
  3
Grid/IsometricGrid00
350
595
  3
Grid/IsometricGrid01
350
596
  3
Grid/IsometricGrid02
350
597
  3
Grid/IsometricGrid03
350
598
  3
Grid/IsometricProjection00
350
599
  3
Grid/IsometricProjection01
350
59A
  3
Grid/IsometricProjection02
350
59B
  3
Grid/IsometricProjection03
350
59C
  3
Grid/MetaGridSpacingX00
350
59D
  3
Grid/MetaGridSpacingX01
350
59E
  3
Grid/MetaGridSpacingX02
350
59F
  3
Grid/MetaGridSpacingX03
350
5A0
  3
Grid/MetaGridSpacingY00
350
5A1
  3
Grid/MetaGridSpacingY01
350
5A2
  3
Grid/MetaGridSpacingY02
350
5A3
  3
Grid/MetaGridSpacingY03
350
5A4
  3
MultiPageSettings/Columns
350
5A5
  3
MultiPageSettings/GlueMarginsBottom
350
5A6
  3
MultiPageSettings/GlueMarginsLeft
350
5A7
  3
MultiPageSettings/GlueMarginsRight
350
5A8
  3
MultiPageSettings/GlueMarginsTop
350
5A9
  3
MultiPageSettings/PrintCropMarks
350
5AA
  3
MultiPageSettings/Rows
350
5AB
  3
PageSettings/OffsetX
350
5AC
  3
PageSettings/OffsetY
350
5AD
  3
PageSettings/PageOrientation
350
5AE
  3
PageSettings/PaperHeight
350
5AF
  3
PageSettings/PaperWidth
350
5B0
  3
PageSettings/Scale
350
5B1
  3
PageSettings/ShowPaperBorders
350
5B2
  3
QCADVersion
350
5B3
  3
UnitSettings/PaperUnit
350
5B4
  3
ViewportCenter
350
5B5
  3
ViewportHeight
350
5B6
  3
ViewportWidth
350
5B7
  0
LAYOUT
  5
534
102
{ACAD_REACTORS
330
530
102
}
330
530
100
AcDbPlotSettings
  1

  2
none_device
  4
ISO_A4_(210.00_x_297.00_MM)
  6

 40
7.5
 41
20.0
 42
7.5
 43
20.0
 44
210.0
 45
297.0
 46
0.0
 47
0.0
 48
0.0
 49
0.0
140
0.0
141
0.0
142
1.0
143
1.0
 70
   688
 72
     1
 73
     1
 74
     5
  7

 75
    16
 76
     0
 77
     2
 78
   300
147
1.0
148
0.0
149
0.0
100
AcDbLayout
  1
Layout1
 70
     1
 71
     0
 10
-20.0
 20
-7.5
 11
277.0
 21
202.5
 12
0.0
 22
0.0
 32
0.0
 14
0.0
 24
0.0
 34
0.0
 15
0.0
 25
0.0
 35
0.0
146
0.0
 13
0.0
 23
0.0
 33
0.0
 16
1.0
 26
0.0
 36
0.0
 17
0.0
 27
1.0
 37
0.0
 76
     0
330
531
331
5F5
  0
LAYOUT
  5
538
102
{ACAD_REACTORS
330
530
102
}
330
530
100
AcDbPlotSettings
  1

  2
none_device
  4
Letter_(8.50_x_11.00_Inches)
  6

 40
6.35
 41
6.35
 42
6.35000508
 43
6.35000508
 44
215.9
 45
279.4
 46
0.0
 47
0.0
 48
0.0
 49
0.0
140
0.0
141
0.0
142
1.0
143
1.0
 70
  1712
 72
     0
 73
     0
 74
     0
  7

 75
     0
 76
     0
 77
     2
 78
   300
147
1.0
148
0.0
149
0.0
100
AcDbLayout
  1
Model
 70
     1
 71
     0
 10
0.0
 20
0.0
 11
12.0
 21
9.0
 12
0.0
 22
0.0
 32
0.0
 14
1.000000000000000E+20
 24
1.000000000000000E+20
 34
1.000000000000000E+20
 15
-1.000000000000000E+20
 25
-1.000000000000000E+20
 35
-1.000000000000000E+20
146
0.0
 13
0.0
 23
0.0
 33
0.0
 16
1.0
 26
0.0
 36
0.0
 17
0.0
 27
1.0
 37
0.0
 76
     0
330
535
331
53F
  0
MATERIAL
  5
55B
102
{ACAD_REACTORS
330
559
102
}
330
559
100
AcDbMaterial
  1
ByBlock
 72
     1
 94
      127
  0
MATERIAL
  5
55A
102
{ACAD_REACTORS
330
559
102
}
330
559
100
AcDbMaterial
  1
ByLayer
 72
     1
 94
      127
  0
MATERIAL
  5
55C
102
{ACAD_REACTORS
330
559
102
}
330
559
100
AcDbMaterial
  1
Global
 72
     1
 94
      127
  0
MLEADERSTYLE
  5
582
102
{ACAD_REACTORS
330
581
102
}
330
581
100
AcDbMLeaderStyle
179
     2
170
     2
171
     1
172
     0
 90
        2
 40
0.0
 41
0.0
173
     1
 91
-1056964608
340
52A
 92
       -2
290
     1
 42
0.09
291
     1
 43
0.36
  3
Standard
341
0
 44
0.18
300

342
528
174
     1
178
     6
175
     1
176
     0
 93
-1056964608
 45
0.18
292
     0
297
     0
 46
0.18
343
0
 94
-1056964608
 47
1.0
 49
1.0
140
1.0
293
     1
141
0.0
294
     1
177
     0
142
1.0
295
     0
296
     0
143
0.125
271
     0
272
     9
273
     9
298
     0
  0
MLINESTYLE
  5
52E
102
{ACAD_REACTORS
330
52D
102
}
330
52D
100
AcDbMlineStyle
  2
Standard
 70
     0
  3

 62
   256
 51
90.0
 52
90.0
 71
     2
 49
0.5
 62
   256
  6
BYLAYER
 49
-0.5
 62
   256
  6
BYLAYER
  0
ACDBPLACEHOLDER
  5
526
102
{ACAD_REACTORS
330
525
102
}
330
525
  0
SCALE
  5
55E
102
{ACAD_REACTORS
330
55D
102
}
330
55D
100
AcDbScale
 70
     0
300
1:1
140
1.0
141
1.0
290
     1
  0
SCALE
  5
55F
102
{ACAD_REACTORS
330
55D
102
}
330
55D
100
AcDbScale
 70
     0
300
1:2
140
1.0
141
2.0
290
     0
  0
SCALE
  5
560
102
{ACAD_REACTORS
330
55D
102
}
330
55D
100
AcDbScale
 70
     0
300
1:4
140
1.0
141
4.0
290
     0
  0
SCALE
  5
561
102
{ACAD_REACTORS
330
55D
102
}
330
55D
100
AcDbScale
 70
     0
300
1:5
140
1.0
141
5.0
290
     0
  0
SCALE
  5
562
102
{ACAD_REACTORS
330
55D
102
}
330
55D
100
AcDbScale
 70
     0
300
1:8
140
1.0
141
8.0
290
     0
  0
SCALE
  5
563
102
{ACAD_REACTORS
330
55D
102
}
330
55D
100
AcDbScale
 70
     0
300
1:10
140
1.0
141
10.0
290
     0
  0
SCALE
  5
564
102
{ACAD_REACTORS
330
55D
102
}
330
55D
100
AcDbScale
 70
     0
300
1:16
140
1.0
141
16.0
290
     0
  0
SCALE
  5
565
102
{ACAD_REACTORS
330
55D
102
}
330
55D
100
AcDbScale
 70
     0
300
1:20
140
1.0
141
20.0
290
     0
  0
SCALE
  5
566
102
{ACAD_REACTORS
330
55D
102
}
330
55D
100
AcDbScale
 70
     0
300
1:30
140
1.0
141
30.0
290
     0
  0
SCALE
  5
567
102
{ACAD_REACTORS
330
55D
102
}
330
55D
100
AcDbScale
 70
     0
300
1:40
140
1.0
141
40.0
290
     0
  0
SCALE
  5
568
102
{ACAD_REACTORS
330
55D
102
}
330
55D
100
AcDbScale
 70
     0
300
1:50
140
1.0
141
50.0
290
     0
  0
SCALE
  5
569
102
{ACAD_REACTORS
330
55D
102
}
330
55D
100
AcDbScale
 70
     0
300
1:100
140
1.0
141
100.0
290
     0
  0
SCALE
  5
56A
102
{ACAD_REACTORS
330
55D
102
}
330
55D
100
AcDbScale
 70
     0
300
2:1
140
2.0
141
1.0
290
     0
  0
SCALE
  5
56B
102
{ACAD_REACTORS
330
55D
102
}
330
55D
100
AcDbScale
 70
     0
300
4:1
140
4.0
141
1.0
290
     0
  0
SCALE
  5
56C
102
{ACAD_REACTORS
330
55D
102
}
330
55D
100
AcDbScale
 70
     0
300
8:1
140
8.0
141
1.0
290
     0
  0
SCALE
  5
56D
102
{ACAD_REACTORS
330
55D
102
}
330
55D
100
AcDbScale
 70
     0
300
10:1
140
10.0
141
1.0
290
     0
  0
SCALE
  5
56E
102
{ACAD_REACTORS
330
55D
102
}
330
55D
100
AcDbScale
 70
     0
300
100:1
140
100.0
141
1.0
290
     0
  0
SCALE
  5
56F
102
{ACAD_REACTORS
330
55D
102
}
330
55D
100
AcDbScale
 70
     0
300
1/128" = 1'-0"
140
0.0078125
141
12.0
290
     0
  0
SCALE
  5
570
102
{ACAD_REACTORS
330
55D
102
}
330
55D
100
AcDbScale
 70
     0
300
1/64" = 1'-0"
140
0.015625
141
12.0
290
     0
  0
SCALE
  5
571
102
{ACAD_REACTORS
330
55D
102
}
330
55D
100
AcDbScale
 70
     0
300
1/32" = 1'-0"
140
0.03125
141
12.0
290
     0
  0
SCALE
  5
572
102
{ACAD_REACTORS
330
55D
102
}
330
55D
100
AcDbScale
 70
     0
300
1/16" = 1'-0"
140
0.0625
141
12.0
290
     0
  0
SCALE
  5
573
102
{ACAD_REACTORS
330
55D
102
}
330
55D
100
AcDbScale
 70
     0
300
3/32" = 1'-0"
140
0.09375
141
12.0
290
     0
  0
SCALE
  5
574
102
{ACAD_REACTORS
330
55D
102
}
330
55D
100
AcDbScale
 70
     0
300
1/8" = 1'-0"
140
0.125
141
12.0
290
     0
  0
SCALE
  5
575
102
{ACAD_REACTORS
330
55D
102
}
330
55D
100
AcDbScale
 70
     0
300
3/16" = 1'-0"
140
0.1875
141
12.0
290
     0
  0
SCALE
  5
576
102
{ACAD_REACTORS
330
55D
102
}
330
55D
100
AcDbScale
 70
     0
300
1/4" = 1'-0"
140
0.25
141
12.0
290
     0
  0
SCALE
  5
577
102
{ACAD_REACTORS
330
55D
102
}
330
55D
100
AcDbScale
 70
     0
300
3/8" = 1'-0"
140
0.375
141
12.0
290
     0
  0
SCALE
  5
578
102
{ACAD_REACTORS
330
55D
102
}
330
55D
100
AcDbScale
 70
     0
300
1/2" = 1'-0"
140
0.5
141
12.0
290
     0
  0
SCALE
  5
579
102
{ACAD_REACTORS
330
55D
102
}
330
55D
100
AcDbScale
 70
     0
300
3/4" = 1'-0"
140
0.75
141
12.0
290
     0
  0
SCALE
  5
57A
102
{ACAD_REACTORS
330
55D
102
}
330
55D
100
AcDbScale
 70
     0
300
1" = 1'-0"
140
1.0
141
12.0
290
     0
  0
SCALE
  5
57B
102
{ACAD_REACTORS
330
55D
102
}
330
55D
100
AcDbScale
 70
     0
300
1-1/2" = 1'-0"
140
1.5
141
12.0
290
     0
  0
SCALE
  5
57C
102
{ACAD_REACTORS
330
55D
102
}
330
55D
100
AcDbScale
 70
     0
300
3" = 1'-0"
140
3.0
141
12.0
290
     0
  0
SCALE
  5
57D
102
{ACAD_REACTORS
330
55D
102
}
330
55D
100
AcDbScale
 70
     0
300
6" = 1'-0"
140
6.0
141
12.0
290
     0
  0
SCALE
  5
57E
102
{ACAD_REACTORS
330
55D
102
}
330
55D
100
AcDbScale
 70
     0
300
1'-0" = 1'-0"
140
12.0
141
12.0
290
     0
  0
TABLESTYLE
  5
580
102
{ACAD_REACTORS
330
57F
102
}
102
{ACAD_XDICTIONARY
360
5F9
102
}
330
57F
100
AcDbTableStyle
  3
Standard
 70
     0
 71
     0
 40
0.06
 41
0.06
280
     0
281
     0
  7
Standard
140
0.18
170
     2
 62
     0
 63
   257
283
     0
 90
        4
 91
        0
  1

274
    -2
284
     1
 64
     0
275
    -2
285
     1
 65
     0
276
    -2
286
     1
 66
     0
277
    -2
287
     1
 67
     0
278
    -2
288
     1
 68
     0
279
    -2
289
     1
 69
     0
  7
Standard
140
0.25
170
     5
 62
     0
 63
   257
283
     0
 90
        4
 91
        0
  1

274
    -2
284
     1
 64
     0
275
    -2
285
     1
 65
     0
276
    -2
286
     1
 66
     0
277
    -2
287
     1
 67
     0
278
    -2
288
     1
 68
     0
279
    -2
289
     1
 69
     0
  7
Standard
140
0.18
170
     5
 62
     0
 63
   257
283
     0
 90
        4
 91
        0
  1

274
    -2
284
     1
 64
     0
275
    -2
285
     1
 65
     0
276
    -2
286
     1
 66
     0
277
    -2
287
     1
 67
     0
278
    -2
288
     1
 68
     0
279
    -2
289
     1
 69
     0
  0
VISUALSTYLE
  5
545
102
{ACAD_REACTORS
330
540
102
}
330
540
100
AcDbVisualStyle
  2
2dWireframe
 70
     4
177
     3
291
     0
 70
    58
 90
        0
176
     1
 90
        2
176
     1
 90
        0
176
     1
 90
        0
176
     1
 40
0.6
176
     1
 40
30.0
176
     1
 62
     7
420
 16777215
176
     1
 90
        1
176
     1
 90
        4
176
     1
 62
     7
176
     1
 62
   257
176
     1
 90
        1
176
     1
 90
        1
176
     1
 40
1.0
176
     1
 90
        0
176
     1
 62
   257
176
     1
 40
1.0
176
     1
 90
        1
176
     1
 90
        6
176
     1
 90
        2
176
     1
 62
     7
176
     1
 90
        5
176
     1
 90
        0
176
     1
 90
        0
176
     1
290
     0
176
     1
 90
        1
176
     1
 40
0.0
176
     1
 90
        0
176
     1
290
     1
176
     1
290
     1
176
     1
290
     0
176
     1
290
     0
176
     1
290
     0
176
     1
290
     0
176
     1
290
     0
176
     1
290
     0
176
     1
290
     0
176
     1
 90
       50
176
     1
 40
0.0
176
     1
 40
1.0
176
     1
 90
        0
176
     1
 62
   178
420
        0
176
     1
 90
       50
176
     1
 90
        3
176
     1
 62
     5
420
      255
176
     1
290
     0
176
     1
 90
       50
176
     1
 90
       50
176
     1
 90
       50
176
     1
290
     0
176
     1
 90
       50
176
     1
 62
   256
176
     0
 40
1.0
176
     0
 90
        2
176
     1
  1
strokes_ogs.tif
176
     1
290
     0
176
     1
 40
1.0
176
     1
 40
1.0
176
     1
  0
VISUALSTYLE
  5
548
102
{ACAD_REACTORS
330
540
102
}
330
540
100
AcDbVisualStyle
  2
Basic
 70
     7
177
     3
291
     1
 70
    58
 90
        1
176
     1
 90
        0
176
     1
 90
        1
176
     1
 90
        0
176
     1
 40
0.6
176
     1
 40
30.0
176
     1
 62
     7
420
 16777215
176
     1
 90
        0
176
     1
 90
        4
176
     1
 62
     7
176
     1
 62
   257
176
     1
 90
        1
176
     1
 90
        1
176
     1
 40
1.0
176
     1
 90
        8
176
     1
 62
     7
176
     1
 40
1.0
176
     1
 90
        1
176
     1
 90
        6
176
     1
 90
        2
176
     1
 62
     7
176
     1
 90
        5
176
     1
 90
        0
176
     1
 90
        0
176
     1
290
     0
176
     1
 90
        1
176
     1
 40
0.0
176
     1
 90
        0
176
     1
290
     0
176
     1
290
     1
176
     1
290
     1
176
     1
290
     0
176
     1
290
     0
176
     1
290
     0
176
     1
290
     0
176
     1
290
     0
176
     1
290
     0
176
     1
 90
       50
176
     1
 40
0.0
176
     1
 40
1.0
176
     1
 90
        0
176
     1
 62
   178
420
        0
176
     1
 90
       50
176
     1
 90
        3
176
     1
 62
     5
420
      255
176
     1
290
     0
176
     1
 90
       50
176
     1
 90
       50
176
     1
 90
       50
176
     1
290
     0
176
     1
 90
       50
176
     1
 62
   256
176
     0
 40
1.0
176
     0
 90
        2
176
     1
  1
strokes_ogs.tif
176
     1
290
     0
176
     1
 40
1.0
176
     1
 40
1.0
176
     1
  0
VISUALSTYLE
  5
54C
102
{ACAD_REACTORS
330
540
102
}
330
540
100
AcDbVisualStyle
  2
Brighten
 70
    12
177
     3
291
     1
 70
    58
 90
        2
176
     1
 90
        2
176
     1
 90
        0
176
     1
 90
        0
176
     1
 40
0.6
176
     1
 40
30.0
176
     1
 62
     7
420
 16777215
176
     1
 90
        1
176
     1
 90
        4
176
     1
 62
     7
176
     1
 62
   257
176
     1
 90
        1
176
     1
 90
        1
176
     1
 40
1.0
176
     1
 90
        8
176
     1
 62
     7
176
     1
 40
1.0
176
     1
 90
        1
176
     1
 90
        6
176
     1
 90
        2
176
     1
 62
     7
176
     1
 90
        5
176
     1
 90
        0
176
     1
 90
        0
176
     1
290
     0
176
     1
 90
        1
176
     1
 40
50.0
176
     1
 90
        0
176
     1
290
     0
176
     1
290
     1
176
     1
290
     1
176
     1
290
     0
176
     1
290
     0
176
     1
290
     0
176
     1
290
     0
176
     1
290
     0
176
     1
290
     0
176
     1
 90
       50
176
     1
 40
0.0
176
     1
 40
1.0
176
     1
 90
        0
176
     1
 62
   178
420
        0
176
     1
 90
       50
176
     1
 90
        3
176
     1
 62
     5
420
      255
176
     1
290
     0
176
     1
 90
       50
176
     1
 90
       50
176
     1
 90
       50
176
     1
290
     0
176
     1
 90
       50
176
     1
 62
   256
176
     0
 40
1.0
176
     0
 90
        2
176
     1
  1
strokes_ogs.tif
176
     1
290
     0
176
     1
 40
1.0
176
     1
 40
1.0
176
     1
  0
VISUALSTYLE
  5
550
102
{ACAD_REACTORS
330
540
102
}
330
540
100
AcDbVisualStyle
  2
ColorChange
 70
    16
177
     3
291
     1
 70
    58
 90
        2
176
     1
 90
        2
176
     1
 90
        3
176
     1
 90
        0
176
     1
 40
0.6
176
     1
 40
30.0
176
     1
 62
     8
420
  8421504
176
     1
 90
        1
176
     1
 90
        4
176
     1
 62
     7
176
     1
 62
   257
176
     1
 90
        1
176
     1
 90
        1
176
     1
 40
1.0
176
     1
 90
        8
176
     1
 62
     8
420
  8421504
176
     1
 40
1.0
176
     1
 90
        1
176
     1
 90
        6
176
     1
 90
        2
176
     1
 62
     7
176
     1
 90
        5
176
     1
 90
        0
176
     1
 90
        0
176
     1
290
     0
176
     1
 90
        1
176
     1
 40
0.0
176
     1
 90
        0
176
     1
290
     0
176
     1
290
     1
176
     1
290
     1
176
     1
290
     0
176
     1
290
     0
176
     1
290
     0
176
     1
290
     0
176
     1
290
     0
176
     1
290
     0
176
     1
 90
       50
176
     1
 40
0.0
176
     1
 40
1.0
176
     1
 90
        0
176
     1
 62
   178
420
        0
176
     1
 90
       50
176
     1
 90
        3
176
     1
 62
     5
420
      255
176
     1
290
     0
176
     1
 90
       50
176
     1
 90
       50
176
     1
 90
       50
176
     1
290
     0
176
     1
 90
       50
176
     1
 62
   256
176
     0
 40
1.0
176
     0
 90
        2
176
     1
  1
strokes_ogs.tif
176
     1
290
     0
176
     1
 40
1.0
176
     1
 40
1.0
176
     1
  0
VISUALSTYLE
  5
54A
102
{ACAD_REACTORS
330
540
102
}
330
540
100
AcDbVisualStyle
  2
Conceptual
 70
     9
177
     3
291
     0
 70
    58
 90
        3
176
     1
 90
        2
176
     1
 90
        0
176
     1
 90
        0
176
     1
 40
0.6
176
     1
 40
30.0
176
     1
 62
     7
420
 16777215
176
     1
 90
        2
176
     1
 90
        2
176
     1
 62
     7
176
     1
 62
   257
176
     1
 90
        1
176
     1
 90
        1
176
     1
 40
179.0
176
     1
 90
        8
176
     1
 62
     7
176
     1
 40
1.0
176
     1
 90
        1
176
     1
 90
        6
176
     1
 90
        2
176
     1
 62
     7
176
     1
 90
        3
176
     1
 90
        0
176
     1
 90
        0
176
     1
290
     0
176
     1
 90
        1
176
     1
 40
0.0
176
     1
 90
        0
176
     1
290
     0
176
     1
290
     1
176
     1
290
     1
176
     1
290
     0
176
     1
290
     0
176
     1
290
     0
176
     1
290
     0
176
     1
290
     0
176
     1
290
     0
176
     1
 90
       50
176
     1
 40
0.0
176
     1
 40
1.0
176
     1
 90
        0
176
     1
 62
   178
420
        0
176
     1
 90
       50
176
     1
 90
        3
176
     1
 62
     5
420
      255
176
     1
290
     0
176
     1
 90
       50
176
     1
 90
       50
176
     1
 90
       50
176
     1
290
     0
176
     1
 90
       50
176
     1
 62
   256
176
     0
 40
1.0
176
     0
 90
        2
176
     1
  1
strokes_ogs.tif
176
     1
290
     0
176
     1
 40
1.0
176
     1
 40
1.0
176
     1
  0
VISUALSTYLE
  5
54B
102
{ACAD_REACTORS
330
540
102
}
330
540
100
AcDbVisualStyle
  2
Dim
 70
    11
177
     3
291
     1
 70
    58
 90
        2
176
     1
 90
        2
176
     1
 90
        0
176
     1
 90
        0
176
     1
 40
0.6
176
     1
 40
30.0
176
     1
 62
     7
420
 16777215
176
     1
 90
        1
176
     1
 90
        4
176
     1
 62
     7
176
     1
 62
   257
176
     1
 90
        1
176
     1
 90
        1
176
     1
 40
1.0
176
     1
 90
        8
176
     1
 62
     7
176
     1
 40
1.0
176
     1
 90
        1
176
     1
 90
        6
176
     1
 90
        2
176
     1
 62
     7
176
     1
 90
        5
176
     1
 90
        0
176
     1
 90
        0
176
     1
290
     0
176
     1
 90
        1
176
     1
 40
-50.0
176
     1
 90
        0
176
     1
290
     0
176
     1
290
     1
176
     1
290
     1
176
     1
290
     0
176
     1
290
     0
176
     1
290
     0
176
     1
290
     0
176
     1
290
     0
176
     1
290
     0
176
     1
 90
       50
176
     1
 40
0.0
176
     1
 40
1.0
176
     1
 90
        0
176
     1
 62
   178
420
        0
176
     1
 90
       50
176
     1
 90
        3
176
     1
 62
     5
420
      255
176
     1
290
     0
176
     1
 90
       50
176
     1
 90
       50
176
     1
 90
       50
176
     1
290
     0
176
     1
 90
       50
176
     1
 62
   256
176
     0
 40
1.0
176
     0
 90
        2
176
     1
  1
strokes_ogs.tif
176
     1
290
     0
176
     1
 40
1.0
176
     1
 40
1.0
176
     1
  0
VISUALSTYLE
  5
553
102
{ACAD_REACTORS
330
540
102
}
330
540
100
AcDbVisualStyle
  2
EdgeColorOff
 70
    22
177
     3
291
     1
 70
    58
 90
        2
176
     0
 90
        2
176
     0
 90
        0
176
     0
 90
        0
176
     0
 40
0.6
176
     0
 40
30.0
176
     0
 62
     7
420
 16777215
176
     0
 90
        1
176
     0
 90
        4
176
     0
 62
     7
176
     0
 62
   257
176
     0
 90
        1
176
     0
 90
        1
176
     0
 40
1.0
176
     0
 90
        8
176
     2
 62
     7
176
     0
 40
1.0
176
     0
 90
        1
176
     0
 90
        6
176
     0
 90
        2
176
     0
 62
     7
176
     0
 90
        5
176
     0
 90
        0
176
     0
 90
        0
176
     0
290
     0
176
     0
 90
        1
176
     0
 40
0.0
176
     0
 90
        0
176
     0
290
     0
176
     0
290
     1
176
     0
290
     1
176
     0
290
     0
176
     0
290
     0
176
     0
290
     0
176
     0
290
     0
176
     0
290
     0
176
     0
290
     0
176
     0
 90
       50
176
     0
 40
0.0
176
     0
 40
1.0
176
     0
 90
        0
176
     0
 62
   178
420
        0
176
     0
 90
       50
176
     0
 90
        3
176
     0
 62
     5
420
      255
176
     0
290
     0
176
     0
 90
       50
176
     0
 90
       50
176
     0
 90
       50
176
     0
290
     0
176
     0
 90
       50
176
     0
 62
   256
176
     0
 40
1.0
176
     0
 90
        2
176
     0
  1
strokes_ogs.tif
176
     0
290
     0
176
     0
 40
1.0
176
     0
 40
1.0
176
     0
  0
VISUALSTYLE
  5
54F
102
{ACAD_REACTORS
330
540
102
}
330
540
100
AcDbVisualStyle
  2
Facepattern
 70
    15
177
     3
291
     1
 70
    58
 90
        2
176
     1
 90
        2
176
     1
 90
        0
176
     1
 90
        0
176
     1
 40
0.6
176
     1
 40
30.0
176
     1
 62
     7
420
 16777215
176
     1
 90
        1
176
     1
 90
        4
176
     1
 62
     7
176
     1
 62
   257
176
     1
 90
        1
176
     1
 90
        1
176
     1
 40
1.0
176
     1
 90
        8
176
     1
 62
     7
176
     1
 40
1.0
176
     1
 90
        1
176
     1
 90
        6
176
     1
 90
        2
176
     1
 62
     7
176
     1
 90
        5
176
     1
 90
        0
176
     1
 90
        0
176
     1
290
     0
176
     1
 90
        1
176
     1
 40
0.0
176
     1
 90
        0
176
     1
290
     0
176
     1
290
     1
176
     1
290
     1
176
     1
290
     0
176
     1
290
     0
176
     1
290
     0
176
     1
290
     0
176
     1
290
     0
176
     1
290
     0
176
     1
 90
       50
176
     1
 40
0.0
176
     1
 40
1.0
176
     1
 90
        0
176
     1
 62
   178
420
        0
176
     1
 90
       50
176
     1
 90
        3
176
     1
 62
     5
420
      255
176
     1
290
     0
176
     1
 90
       50
176
     1
 90
       50
176
     1
 90
       50
176
     1
290
     0
176
     1
 90
       50
176
     1
 62
   256
176
     0
 40
1.0
176
     0
 90
        2
176
     1
  1
strokes_ogs.tif
176
     1
290
     0
176
     1
 40
1.0
176
     1
 40
1.0
176
     1
  0
VISUALSTYLE
  5
541
102
{ACAD_REACTORS
330
540
102
}
330
540
100
AcDbVisualStyle
  2
Flat
 70
     0
177
     3
291
     1
 70
    58
 90
        2
176
     1
 90
        1
176
     1
 90
        1
176
     1
 90
        2
176
     1
 40
0.6
176
     1
 40
30.0
176
     1
 62
     7
420
 16777215
176
     1
 90
        0
176
     1
 90
        0
176
     1
 62
     7
176
     1
 62
   257
176
     1
 90
        1
176
     1
 90
        1
176
     1
 40
1.0
176
     1
 90
        8
176
     1
 62
     7
176
     1
 40
1.0
176
     1
 90
        1
176
     1
 90
        6
176
     1
 90
        2
176
     1
 62
     7
176
     1
 90
        5
176
     1
 90
        0
176
     1
 90
        0
176
     1
290
     0
176
     1
 90
       13
176
     1
 40
0.0
176
     1
 90
        0
176
     1
290
     0
176
     1
290
     1
176
     1
290
     1
176
     1
290
     0
176
     1
290
     0
176
     1
290
     0
176
     1
290
     0
176
     1
290
     0
176
     1
290
     0
176
     1
 90
       50
176
     1
 40
0.0
176
     1
 40
1.0
176
     1
 90
        0
176
     1
 62
   178
420
        0
176
     1
 90
       50
176
     1
 90
        3
176
     1
 62
     5
420
      255
176
     1
290
     0
176
     1
 90
       50
176
     1
 90
       50
176
     1
 90
       50
176
     1
290
     0
176
     1
 90
       50
176
     1
 62
   256
176
     0
 40
1.0
176
     0
 90
        2
176
     1
  1
strokes_ogs.tif
176
     1
290
     0
176
     1
 40
1.0
176
     1
 40
1.0
176
     1
  0
VISUALSTYLE
  5
542
102
{ACAD_REACTORS
330
540
102
}
330
540
100
AcDbVisualStyle
  2
FlatWithEdges
 70
     1
177
     3
291
     1
 70
    58
 90
        2
176
     1
 90
        1
176
     1
 90
        1
176
     1
 90
        2
176
     1
 40
0.6
176
     1
 40
30.0
176
     1
 62
     7
420
 16777215
176
     1
 90
        1
176
     1
 90
        0
176
     1
 62
     7
176
     1
 62
   257
176
     1
 90
        1
176
     1
 90
        1
176
     1
 40
1.0
176
     1
 90
        0
176
     1
 62
   257
176
     1
 40
1.0
176
     1
 90
        1
176
     1
 90
        6
176
     1
 90
        2
176
     1
 62
     7
176
     1
 90
        5
176
     1
 90
        0
176
     1
 90
        0
176
     1
290
     0
176
     1
 90
       13
176
     1
 40
0.0
176
     1
 90
        0
176
     1
290
     0
176
     1
290
     1
176
     1
290
     1
176
     1
290
     0
176
     1
290
     0
176
     1
290
     0
176
     1
290
     0
176
     1
290
     0
176
     1
290
     0
176
     1
 90
       50
176
     1
 40
0.0
176
     1
 40
1.0
176
     1
 90
        0
176
     1
 62
   178
420
        0
176
     1
 90
       50
176
     1
 90
        3
176
     1
 62
     5
420
      255
176
     1
290
     0
176
     1
 90
       50
176
     1
 90
       50
176
     1
 90
       50
176
     1
290
     0
176
     1
 90
       50
176
     1
 62
   256
176
     0
 40
1.0
176
     0
 90
        2
176
     1
  1
strokes_ogs.tif
176
     1
290
     0
176
     1
 40
1.0
176
     1
 40
1.0
176
     1
  0
VISUALSTYLE
  5
543
102
{ACAD_REACTORS
330
540
102
}
330
540
100
AcDbVisualStyle
  2
Gouraud
 70
     2
177
     3
291
     1
 70
    58
 90
        2
176
     1
 90
        2
176
     1
 90
        1
176
     1
 90
        2
176
     1
 40
0.6
176
     1
 40
30.0
176
     1
 62
     7
420
 16777215
176
     1
 90
        0
176
     1
 90
        0
176
     1
 62
     7
176
     1
 62
   257
176
     1
 90
        1
176
     1
 90
        1
176
     1
 40
1.0
176
     1
 90
        0
176
     1
 62
     7
176
     1
 40
1.0
176
     1
 90
        1
176
     1
 90
        6
176
     1
 90
        2
176
     1
 62
     7
176
     1
 90
        5
176
     1
 90
        0
176
     1
 90
        0
176
     1
290
     0
176
     1
 90
       13
176
     1
 40
0.0
176
     1
 90
        0
176
     1
290
     0
176
     1
290
     1
176
     1
290
     1
176
     1
290
     0
176
     1
290
     0
176
     1
290
     0
176
     1
290
     0
176
     1
290
     0
176
     1
290
     0
176
     1
 90
       50
176
     1
 40
0.0
176
     1
 40
1.0
176
     1
 90
        0
176
     1
 62
   178
420
        0
176
     1
 90
       50
176
     1
 90
        3
176
     1
 62
     5
420
      255
176
     1
290
     0
176
     1
 90
       50
176
     1
 90
       50
176
     1
 90
       50
176
     1
290
     0
176
     1
 90
       50
176
     1
 62
   256
176
     0
 40
1.0
176
     0
 90
        2
176
     1
  1
strokes_ogs.tif
176
     1
290
     0
176
     1
 40
1.0
176
     1
 40
1.0
176
     1
  0
VISUALSTYLE
  5
544
102
{ACAD_REACTORS
330
540
102
}
330
540
100
AcDbVisualStyle
  2
GouraudWithEdges
 70
     3
177
     3
291
     1
 70
    58
 90
        2
176
     1
 90
        2
176
     1
 90
        1
176
     1
 90
        2
176
     1
 40
0.6
176
     1
 40
30.0
176
     1
 62
     7
420
 16777215
176
     1
 90
        1
176
     1
 90
        0
176
     1
 62
     7
176
     1
 62
   257
176
     1
 90
        1
176
     1
 90
        1
176
     1
 40
1.0
176
     1
 90
        0
176
     1
 62
   257
176
     1
 40
1.0
176
     1
 90
        1
176
     1
 90
        6
176
     1
 90
        2
176
     1
 62
     7
176
     1
 90
        5
176
     1
 90
        0
176
     1
 90
        0
176
     1
290
     0
176
     1
 90
       13
176
     1
 40
0.0
176
     1
 90
        0
176
     1
290
     0
176
     1
290
     1
176
     1
290
     1
176
     1
290
     0
176
     1
290
     0
176
     1
290
     0
176
     1
290
     0
176
     1
290
     0
176
     1
290
     0
176
     1
 90
       50
176
     1
 40
0.0
176
     1
 40
1.0
176
     1
 90
        0
176
     1
 62
   178
420
        0
176
     1
 90
       50
176
     1
 90
        3
176
     1
 62
     5
420
      255
176
     1
290
     0
176
     1
 90
       50
176
     1
 90
       50
176
     1
 90
       50
176
     1
290
     0
176
     1
 90
       50
176
     1
 62
   256
176
     0
 40
1.0
176
     0
 90
        2
176
     1
  1
strokes_ogs.tif
176
     1
290
     0
176
     1
 40
1.0
176
     1
 40
1.0
176
     1
  0
VISUALSTYLE
  5
547
102
{ACAD_REACTORS
330
540
102
}
330
540
100
AcDbVisualStyle
  2
Hidden
 70
     6
177
     3
291
     0
 70
    58
 90
        1
176
     1
 90
        2
176
     1
 90
        2
176
     1
 90
        0
176
     1
 40
0.6
176
     1
 40
30.0
176
     1
 62
     7
420
 16777215
176
     1
 90
        2
176
     1
 90
        2
176
     1
 62
     7
176
     1
 62
   257
176
     1
 90
        2
176
     1
 90
        1
176
     1
 40
40.0
176
     1
 90
        0
176
     1
 62
   257
176
     1
 40
1.0
176
     1
 90
        1
176
     1
 90
        6
176
     1
 90
        2
176
     1
 62
     7
176
     1
 90
        3
176
     1
 90
        0
176
     1
 90
        0
176
     1
290
     0
176
     1
 90
        1
176
     1
 40
0.0
176
     1
 90
        0
176
     1
290
     0
176
     1
290
     1
176
     1
290
     1
176
     1
290
     0
176
     1
290
     0
176
     1
290
     0
176
     1
290
     0
176
     1
290
     0
176
     1
290
     0
176
     1
 90
       50
176
     1
 40
0.0
176
     1
 40
1.0
176
     1
 90
        0
176
     1
 62
   178
420
        0
176
     1
 90
       50
176
     1
 90
        3
176
     1
 62
     5
420
      255
176
     1
290
     0
176
     1
 90
       50
176
     1
 90
       50
176
     1
 90
       50
176
     1
290
     0
176
     1
 90
       50
176
     1
 62
   256
176
     0
 40
1.0
176
     0
 90
        2
176
     1
  1
strokes_ogs.tif
176
     1
290
     0
176
     1
 40
1.0
176
     1
 40
1.0
176
     1
  0
VISUALSTYLE
  5
551
102
{ACAD_REACTORS
330
540
102
}
330
540
100
AcDbVisualStyle
  2
JitterOff
 70
    20
177
     3
291
     1
 70
    58
 90
        2
176
     0
 90
        2
176
     0
 90
        0
176
     0
 90
        0
176
     0
 40
0.6
176
     0
 40
30.0
176
     0
 62
     7
420
 16777215
176
     0
 90
        1
176
     0
 90
        4
176
     0
 62
     7
176
     0
 62
   257
176
     0
 90
        1
176
     0
 90
        1
176
     0
 40
1.0
176
     0
 90
       10
176
     2
 62
     7
176
     0
 40
1.0
176
     0
 90
        1
176
     0
 90
        6
176
     0
 90
        2
176
     0
 62
     7
176
     0
 90
        5
176
     0
 90
        0
176
     0
 90
        0
176
     0
290
     0
176
     0
 90
        1
176
     0
 40
0.0
176
     0
 90
        0
176
     0
290
     0
176
     0
290
     1
176
     0
290
     1
176
     0
290
     0
176
     0
290
     0
176
     0
290
     0
176
     0
290
     0
176
     0
290
     0
176
     0
290
     0
176
     0
 90
       50
176
     0
 40
0.0
176
     0
 40
1.0
176
     0
 90
        0
176
     0
 62
   178
420
        0
176
     0
 90
       50
176
     0
 90
        3
176
     0
 62
     5
420
      255
176
     0
290
     0
176
     0
 90
       50
176
     0
 90
       50
176
     0
 90
       50
176
     0
290
     0
176
     0
 90
       50
176
     0
 62
   256
176
     0
 40
1.0
176
     0
 90
        2
176
     0
  1
strokes_ogs.tif
176
     0
290
     0
176
     0
 40
1.0
176
     0
 40
1.0
176
     0
  0
VISUALSTYLE
  5
54E
102
{ACAD_REACTORS
330
540
102
}
330
540
100
AcDbVisualStyle
  2
Linepattern
 70
    14
177
     3
291
     1
 70
    58
 90
        2
176
     1
 90
        2
176
     1
 90
        0
176
     1
 90
        0
176
     1
 40
0.6
176
     1
 40
30.0
176
     1
 62
     7
420
 16777215
176
     1
 90
        1
176
     1
 90
        4
176
     1
 62
     7
176
     1
 62
   257
176
     1
 90
        7
176
     1
 90
        7
176
     1
 40
1.0
176
     1
 90
        8
176
     1
 62
     7
176
     1
 40
1.0
176
     1
 90
        1
176
     1
 90
        6
176
     1
 90
        2
176
     1
 62
     7
176
     1
 90
        5
176
     1
 90
        0
176
     1
 90
        0
176
     1
290
     0
176
     1
 90
        1
176
     1
 40
0.0
176
     1
 90
        0
176
     1
290
     0
176
     1
290
     1
176
     1
290
     1
176
     1
290
     0
176
     1
290
     0
176
     1
290
     0
176
     1
290
     0
176
     1
290
     0
176
     1
290
     0
176
     1
 90
       50
176
     1
 40
0.0
176
     1
 40
1.0
176
     1
 90
        0
176
     1
 62
   178
420
        0
176
     1
 90
       50
176
     1
 90
        3
176
     1
 62
     5
420
      255
176
     1
290
     0
176
     1
 90
       50
176
     1
 90
       50
176
     1
 90
       50
176
     1
290
     0
176
     1
 90
       50
176
     1
 62
   256
176
     0
 40
1.0
176
     0
 90
        2
176
     1
  1
strokes_ogs.tif
176
     1
290
     0
176
     1
 40
1.0
176
     1
 40
1.0
176
     1
  0
VISUALSTYLE
  5
552
102
{ACAD_REACTORS
330
540
102
}
330
540
100
AcDbVisualStyle
  2
OverhangOff
 70
    21
177
     3
291
     1
 70
    58
 90
        2
176
     0
 90
        2
176
     0
 90
        0
176
     0
 90
        0
176
     0
 40
0.6
176
     0
 40
30.0
176
     0
 62
     7
420
 16777215
176
     0
 90
        1
176
     0
 90
        4
176
     0
 62
     7
176
     0
 62
   257
176
     0
 90
        1
176
     0
 90
        1
176
     0
 40
1.0
176
     0
 90
        9
176
     2
 62
     7
176
     0
 40
1.0
176
     0
 90
        1
176
     0
 90
        6
176
     0
 90
        2
176
     0
 62
     7
176
     0
 90
        5
176
     0
 90
        0
176
     0
 90
        0
176
     0
290
     0
176
     0
 90
        1
176
     0
 40
0.0
176
     0
 90
        0
176
     0
290
     0
176
     0
290
     1
176
     0
290
     1
176
     0
290
     0
176
     0
290
     0
176
     0
290
     0
176
     0
290
     0
176
     0
290
     0
176
     0
290
     0
176
     0
 90
       50
176
     0
 40
0.0
176
     0
 40
1.0
176
     0
 90
        0
176
     0
 62
   178
420
        0
176
     0
 90
       50
176
     0
 90
        3
176
     0
 62
     5
420
      255
176
     0
290
     0
176
     0
 90
       50
176
     0
 90
       50
176
     0
 90
       50
176
     0
290
     0
176
     0
 90
       50
176
     0
 62
   256
176
     0
 40
1.0
176
     0
 90
        2
176
     0
  1
strokes_ogs.tif
176
     0
290
     0
176
     0
 40
1.0
176
     0
 40
1.0
176
     0
  0
VISUALSTYLE
  5
549
102
{ACAD_REACTORS
330
540
102
}
330
540
100
AcDbVisualStyle
  2
Realistic
 70
     8
177
     3
291
     0
 70
    58
 90
        2
176
     1
 90
        3
176
     1
 90
        0
176
     1
 90
        2
176
     1
 40
0.6
176
     1
 40
30.0
176
     1
 62
     7
420
 16777215
176
     1
 90
        0
176
     1
 90
        0
176
     1
 62
     7
176
     1
 62
   257
176
     1
 90
        1
176
     1
 90
        1
176
     1
 40
1.0
176
     1
 90
        8
176
     1
 62
   257
176
     1
 40
1.0
176
     1
 90
        1
176
     1
 90
        6
176
     1
 90
        2
176
     1
 62
     7
176
     1
 90
        3
176
     1
 90
        0
176
     1
 90
        0
176
     1
290
     0
176
     1
 90
       13
176
     1
 40
0.0
176
     1
 90
        0
176
     1
290
     0
176
     1
290
     1
176
     1
290
     1
176
     1
290
     0
176
     1
290
     0
176
     1
290
     0
176
     1
290
     0
176
     1
290
     0
176
     1
290
     0
176
     1
 90
       50
176
     1
 40
0.0
176
     1
 40
1.0
176
     1
 90
        0
176
     1
 62
   178
420
        0
176
     1
 90
       50
176
     1
 90
        3
176
     1
 62
     5
420
      255
176
     1
290
     0
176
     1
 90
       50
176
     1
 90
       50
176
     1
 90
       50
176
     1
290
     0
176
     1
 90
       50
176
     1
 62
   256
176
     0
 40
1.0
176
     0
 90
        2
176
     1
  1
strokes_ogs.tif
176
     1
290
     0
176
     1
 40
1.0
176
     1
 40
1.0
176
     1
  0
VISUALSTYLE
  5
558
102
{ACAD_REACTORS
330
540
102
}
330
540
100
AcDbVisualStyle
  2
Shaded
 70
    27
177
     3
291
     0
 70
    58
 90
        2
176
     1
 90
        2
176
     1
 90
        1
176
     1
 90
        2
176
     1
 40
0.6
176
     1
 40
30.0
176
     1
 62
     7
420
 16777215
176
     1
 90
        0
176
     1
 90
        4
176
     1
 62
     7
176
     1
 62
   257
176
     1
 90
        1
176
     1
 90
        1
176
     1
 40
1.0
176
     1
 90
        8
176
     1
 62
   257
176
     1
 40
1.0
176
     1
 90
        1
176
     1
 90
        6
176
     1
 90
        2
176
     1
 62
     8
420
  7895160
176
     1
 90
        3
176
     1
 90
        0
176
     1
 90
        0
176
     1
290
     0
176
     1
 90
        5
176
     1
 40
0.0
176
     1
 90
        0
176
     1
290
     0
176
     1
290
     1
176
     1
290
     1
176
     1
290
     0
176
     1
290
     0
176
     1
290
     0
176
     1
290
     0
176
     1
290
     0
176
     1
290
     0
176
     1
 90
       50
176
     1
 40
0.0
176
     1
 40
1.0
176
     1
 90
        0
176
     1
 62
   178
420
        0
176
     1
 90
       50
176
     1
 90
        3
176
     1
 62
     5
420
      255
176
     1
290
     0
176
     1
 90
       50
176
     1
 90
       50
176
     1
 90
       50
176
     1
290
     0
176
     1
 90
       50
176
     1
 62
   256
176
     0
 40
1.0
176
     0
 90
        2
176
     1
  1
strokes_ogs.tif
176
     1
290
     0
176
     1
 40
1.0
176
     1
 40
1.0
176
     1
  0
VISUALSTYLE
  5
557
102
{ACAD_REACTORS
330
540
102
}
330
540
100
AcDbVisualStyle
  2
Shaded with edges
 70
    26
177
     3
291
     0
 70
    58
 90
        2
176
     1
 90
        2
176
     1
 90
        1
176
     1
 90
        2
176
     1
 40
0.6
176
     1
 40
30.0
176
     1
 62
     7
420
 16777215
176
     1
 90
        1
176
     1
 90
       10
176
     1
 62
     7
176
     1
 62
   257
176
     1
 90
        2
176
     1
 90
        1
176
     1
 40
1.0
176
     1
 90
        8
176
     1
 62
   257
176
     1
 40
1.0
176
     1
 90
        1
176
     1
 90
        6
176
     1
 90
        2
176
     1
 62
     7
176
     1
 90
        3
176
     1
 90
        0
176
     1
 90
        0
176
     1
290
     0
176
     1
 90
        5
176
     1
 40
0.0
176
     1
 90
        0
176
     1
290
     0
176
     1
290
     1
176
     1
290
     1
176
     1
290
     0
176
     1
290
     0
176
     1
290
     0
176
     1
290
     0
176
     1
290
     0
176
     1
290
     0
176
     1
 90
       50
176
     1
 40
0.0
176
     1
 40
1.0
176
     1
 90
        0
176
     1
 62
   178
420
        0
176
     1
 90
       50
176
     1
 90
        3
176
     1
 62
     5
420
      255
176
     1
290
     0
176
     1
 90
       50
176
     1
 90
       50
176
     1
 90
       50
176
     1
290
     0
176
     1
 90
       50
176
     1
 62
   256
176
     0
 40
1.0
176
     0
 90
        2
176
     1
  1
strokes_ogs.tif
176
     1
290
     0
176
     1
 40
1.0
176
     1
 40
1.0
176
     1
  0
VISUALSTYLE
  5
554
102
{ACAD_REACTORS
330
540
102
}
330
540
100
AcDbVisualStyle
  2
Shades of Gray
 70
    23
177
     3
291
     0
 70
    58
 90
        2
176
     1
 90
        2
176
     1
 90
        3
176
     1
 90
        0
176
     1
 40
0.6
176
     1
 40
30.0
176
     1
 62
     7
420
 16777215
176
     1
 90
        2
176
     1
 90
        2
176
     1
 62
     7
176
     1
 62
     7
176
     1
 90
        1
176
     1
 90
        1
176
     1
 40
40.0
176
     1
 90
        8
176
     1
 62
     7
176
     1
 40
1.0
176
     1
 90
        1
176
     1
 90
        6
176
     1
 90
        2
176
     1
 62
     7
176
     1
 90
        3
176
     1
 90
        0
176
     1
 90
        0
176
     1
290
     0
176
     1
 90
        1
176
     1
 40
0.0
176
     1
 90
        0
176
     1
290
     0
176
     1
290
     1
176
     1
290
     1
176
     1
290
     0
176
     1
290
     0
176
     1
290
     0
176
     1
290
     0
176
     1
290
     0
176
     1
290
     0
176
     1
 90
       50
176
     1
 40
0.0
176
     1
 40
1.0
176
     1
 90
        0
176
     1
 62
   178
420
        0
176
     1
 90
       50
176
     1
 90
        3
176
     1
 62
     5
420
      255
176
     1
290
     0
176
     1
 90
       50
176
     1
 90
       50
176
     1
 90
       50
176
     1
290
     0
176
     1
 90
       50
176
     1
 62
   256
176
     0
 40
1.0
176
     0
 90
        2
176
     1
  1
strokes_ogs.tif
176
     1
290
     0
176
     1
 40
1.0
176
     1
 40
1.0
176
     1
  0
VISUALSTYLE
  5
555
102
{ACAD_REACTORS
330
540
102
}
330
540
100
AcDbVisualStyle
  2
Sketchy
 70
    24
177
     3
291
     0
 70
    58
 90
        1
176
     1
 90
        2
176
     1
 90
        2
176
     1
 90
        0
176
     1
 40
0.6
176
     1
 40
30.0
176
     1
 62
     7
420
 16777215
176
     1
 90
        2
176
     1
 90
        2
176
     1
 62
     7
176
     1
 62
     7
176
     1
 90
        1
176
     1
 90
        1
176
     1
 40
40.0
176
     1
 90
       11
176
     1
 62
     7
176
     1
 40
1.0
176
     1
 90
        1
176
     1
 90
        6
176
     1
 90
        2
176
     1
 62
     7
176
     1
 90
        6
176
     1
 90
        0
176
     1
 90
        0
176
     1
290
     0
176
     1
 90
        1
176
     1
 40
0.0
176
     1
 90
        0
176
     1
290
     0
176
     1
290
     1
176
     1
290
     1
176
     1
290
     0
176
     1
290
     0
176
     1
290
     0
176
     1
290
     0
176
     1
290
     0
176
     1
290
     0
176
     1
 90
       50
176
     1
 40
0.0
176
     1
 40
1.0
176
     1
 90
        0
176
     1
 62
   178
420
        0
176
     1
 90
       50
176
     1
 90
        3
176
     1
 62
     5
420
      255
176
     1
290
     0
176
     1
 90
       50
176
     1
 90
       50
176
     1
 90
       50
176
     1
290
     0
176
     1
 90
       50
176
     1
 62
   256
176
     0
 40
1.0
176
     0
 90
        2
176
     1
  1
strokes_ogs.tif
176
     1
290
     0
176
     1
 40
1.0
176
     1
 40
1.0
176
     1
  0
VISUALSTYLE
  5
54D
102
{ACAD_REACTORS
330
540
102
}
330
540
100
AcDbVisualStyle
  2
Thicken
 70
    13
177
     3
291
     1
 70
    58
 90
        2
176
     1
 90
        2
176
     1
 90
        0
176
     1
 90
        0
176
     1
 40
0.6
176
     1
 40
30.0
176
     1
 62
     7
420
 16777215
176
     1
 90
        1
176
     1
 90
        4
176
     1
 62
     7
176
     1
 62
   257
176
     1
 90
        1
176
     1
 90
        1
176
     1
 40
1.0
176
     1
 90
       12
176
     1
 62
     7
176
     1
 40
1.0
176
     1
 90
        1
176
     1
 90
        6
176
     1
 90
        2
176
     1
 62
     7
176
     1
 90
        5
176
     1
 90
        0
176
     1
 90
        0
176
     1
290
     0
176
     1
 90
        1
176
     1
 40
0.0
176
     1
 90
        0
176
     1
290
     0
176
     1
290
     1
176
     1
290
     1
176
     1
290
     0
176
     1
290
     0
176
     1
290
     0
176
     1
290
     0
176
     1
290
     0
176
     1
290
     0
176
     1
 90
       50
176
     1
 40
0.0
176
     1
 40
1.0
176
     1
 90
        0
176
     1
 62
   178
420
        0
176
     1
 90
       50
176
     1
 90
        3
176
     1
 62
     5
420
      255
176
     1
290
     0
176
     1
 90
       50
176
     1
 90
       50
176
     1
 90
       50
176
     1
290
     0
176
     1
 90
       50
176
     1
 62
   256
176
     0
 40
1.0
176
     0
 90
        2
176
     1
  1
strokes_ogs.tif
176
     1
290
     0
176
     1
 40
1.0
176
     1
 40
1.0
176
     1
  0
VISUALSTYLE
  5
546
102
{ACAD_REACTORS
330
540
102
}
330
540
100
AcDbVisualStyle
  2
Wireframe
 70
     5
177
     3
291
     0
 70
    58
 90
        0
176
     1
 90
        2
176
     1
 90
        0
176
     1
 90
        0
176
     1
 40
0.6
176
     1
 40
30.0
176
     1
 62
     7
420
 16777215
176
     1
 90
        1
176
     1
 90
        4
176
     1
 62
     7
176
     1
 62
   257
176
     1
 90
        1
176
     1
 90
        1
176
     1
 40
1.0
176
     1
 90
        0
176
     1
 62
   257
176
     1
 40
1.0
176
     1
 90
        1
176
     1
 90
        6
176
     1
 90
        2
176
     1
 62
     7
176
     1
 90
        3
176
     1
 90
        0
176
     1
 90
        0
176
     1
290
     0
176
     1
 90
        1
176
     1
 40
0.0
176
     1
 90
        0
176
     1
290
     0
176
     1
290
     1
176
     1
290
     1
176
     1
290
     0
176
     1
290
     0
176
     1
290
     0
176
     1
290
     0
176
     1
290
     0
176
     1
290
     0
176
     1
 90
       50
176
     1
 40
0.0
176
     1
 40
1.0
176
     1
 90
        0
176
     1
 62
   178
420
        0
176
     1
 90
       50
176
     1
 90
        3
176
     1
 62
     5
420
      255
176
     1
290
     0
176
     1
 90
       50
176
     1
 90
       50
176
     1
 90
       50
176
     1
290
     0
176
     1
 90
       50
176
     1
 62
   256
176
     0
 40
1.0
176
     0
 90
        2
176
     1
  1
strokes_ogs.tif
176
     1
290
     0
176
     1
 40
1.0
176
     1
 40
1.0
176
     1
  0
VISUALSTYLE
  5
556
102
{ACAD_REACTORS
330
540
102
}
330
540
100
AcDbVisualStyle
  2
X-Ray
 70
    25
177
     3
291
     0
 70
    58
 90
        2
176
     1
 90
        2
176
     1
 90
        1
176
     1
 90
        1
176
     1
 40
0.5
176
     1
 40
30.0
176
     1
 62
     7
420
 16777215
176
     1
 90
        1
176
     1
 90
        0
176
     1
 62
     7
176
     1
 62
   257
176
     1
 90
        1
176
     1
 90
        1
176
     1
 40
1.0
176
     1
 90
        8
176
     1
 62
     7
176
     1
 40
1.0
176
     1
 90
        1
176
     1
 90
        6
176
     1
 90
        2
176
     1
 62
     7
176
     1
 90
        3
176
     1
 90
        0
176
     1
 90
        0
176
     1
290
     0
176
     1
 90
       13
176
     1
 40
0.0
176
     1
 90
        0
176
     1
290
     0
176
     1
290
     1
176
     1
290
     1
176
     1
290
     0
176
     1
290
     0
176
     1
290
     0
176
     1
290
     0
176
     1
290
     0
176
     1
290
     0
176
     1
 90
       50
176
     1
 40
0.0
176
     1
 40
1.0
176
     1
 90
        0
176
     1
 62
   178
420
        0
176
     1
 90
       50
176
     1
 90
        3
176
     1
 62
     5
420
      255
176
     1
290
     0
176
     1
 90
       50
176
     1
 90
       50
176
     1
 90
       50
176
     1
290
     0
176
     1
 90
       50
176
     1
 62
   256
176
     0
 40
1.0
176
     0
 90
        2
176
     1
  1
strokes_ogs.tif
176
     1
290
     0
176
     1
 40
1.0
176
     1
 40
1.0
176
     1
  0
DICTIONARYVAR
  5
5F8
102
{ACAD_REACTORS
330
5F7
102
}
330
5F7
100
DictionaryVariables
280
     0
  1
1:1
  0
DICTIONARYVAR
  5
5FD
102
{ACAD_REACTORS
330
5F7
102
}
330
5F7
100
DictionaryVariables
280
     0
  1
Standard
  0
DICTIONARYVAR
  5
5FC
102
{ACAD_REACTORS
330
5F7
102
}
330
5F7
100
DictionaryVariables
280
     0
  1
Standard
  0
XRECORD
  5
587
102
{ACAD_REACTORS
330
585
102
}
330
585
100
AcDbXrecord
280
     1
1000
#ffffff
  0
XRECORD
  5
588
102
{ACAD_REACTORS
330
585
102
}
330
585
100
AcDbXrecord
280
     1
1000
FullColor
  0
XRECORD
  5
589
102
{ACAD_REACTORS
330
585
102
}
330
585
100
AcDbXrecord
280
     1
290
     1
  0
XRECORD
  5
58A
102
{ACAD_REACTORS
330
585
102
}
330
585
100
AcDbXrecord
280
     1
290
     1
  0
XRECORD
  5
58B
102
{ACAD_REACTORS
330
585
102
}
330
585
100
AcDbXrecord
280
     1
290
     1
  0
XRECORD
  5
58C
102
{ACAD_REACTORS
330
585
102
}
330
585
100
AcDbXrecord
280
     1
290
     1
  0
XRECORD
  5
58D
102
{ACAD_REACTORS
330
585
102
}
330
585
100
AcDbXrecord
280
     1
1000
auto
  0
XRECORD
  5
58E
102
{ACAD_REACTORS
330
585
102
}
330
585
100
AcDbXrecord
280
     1
1000
auto
  0
XRECORD
  5
58F
102
{ACAD_REACTORS
330
585
102
}
330
585
100
AcDbXrecord
280
     1
1000
auto
  0
XRECORD
  5
590
102
{ACAD_REACTORS
330
585
102
}
330
585
100
AcDbXrecord
280
     1
1000
auto
  0
XRECORD
  5
591
102
{ACAD_REACTORS
330
585
102
}
330
585
100
AcDbXrecord
280
     1
1000
auto
  0
XRECORD
  5
592
102
{ACAD_REACTORS
330
585
102
}
330
585
100
AcDbXrecord
280
     1
1000
auto
  0
XRECORD
  5
593
102
{ACAD_REACTORS
330
585
102
}
330
585
100
AcDbXrecord
280
     1
1000
auto
  0
XRECORD
  5
594
102
{ACAD_REACTORS
330
585
102
}
330
585
100
AcDbXrecord
280
     1
1000
auto
  0
XRECORD
  5
595
102
{ACAD_REACTORS
330
585
102
}
330
585
100
AcDbXrecord
280
     1
290
     0
  0
XRECORD
  5
596
102
{ACAD_REACTORS
330
585
102
}
330
585
100
AcDbXrecord
280
     1
290
     0
  0
XRECORD
  5
597
102
{ACAD_REACTORS
330
585
102
}
330
585
100
AcDbXrecord
280
     1
290
     0
  0
XRECORD
  5
598
102
{ACAD_REACTORS
330
585
102
}
330
585
100
AcDbXrecord
280
     1
290
     0
  0
XRECORD
  5
599
102
{ACAD_REACTORS
330
585
102
}
330
585
100
AcDbXrecord
280
     1
 90
        0
  0
XRECORD
  5
59A
102
{ACAD_REACTORS
330
585
102
}
330
585
100
AcDbXrecord
280
     1
 90
        0
  0
XRECORD
  5
59B
102
{ACAD_REACTORS
330
585
102
}
330
585
100
AcDbXrecord
280
     1
 90
        0
  0
XRECORD
  5
59C
102
{ACAD_REACTORS
330
585
102
}
330
585
100
AcDbXrecord
280
     1
 90
        0
  0
XRECORD
  5
59D
102
{ACAD_REACTORS
330
585
102
}
330
585
100
AcDbXrecord
280
     1
1000
auto
  0
XRECORD
  5
59E
102
{ACAD_REACTORS
330
585
102
}
330
585
100
AcDbXrecord
280
     1
1000
auto
  0
XRECORD
  5
59F
102
{ACAD_REACTORS
330
585
102
}
330
585
100
AcDbXrecord
280
     1
1000
auto
  0
XRECORD
  5
5A0
102
{ACAD_REACTORS
330
585
102
}
330
585
100
AcDbXrecord
280
     1
1000
auto
  0
XRECORD
  5
5A1
102
{ACAD_REACTORS
330
585
102
}
330
585
100
AcDbXrecord
280
     1
1000
auto
  0
XRECORD
  5
5A2
102
{ACAD_REACTORS
330
585
102
}
330
585
100
AcDbXrecord
280
     1
1000
auto
  0
XRECORD
  5
5A3
102
{ACAD_REACTORS
330
585
102
}
330
585
100
AcDbXrecord
280
     1
1000
auto
  0
XRECORD
  5
5A4
102
{ACAD_REACTORS
330
585
102
}
330
585
100
AcDbXrecord
280
     1
1000
auto
  0
XRECORD
  5
5A5
102
{ACAD_REACTORS
330
585
102
}
330
585
100
AcDbXrecord
280
     1
 90
        1
  0
XRECORD
  5
5A6
102
{ACAD_REACTORS
330
585
102
}
330
585
100
AcDbXrecord
280
     1
 40
10.0
  0
XRECORD
  5
5A7
102
{ACAD_REACTORS
330
585
102
}
330
585
100
AcDbXrecord
280
     1
 40
10.0
  0
XRECORD
  5
5A8
102
{ACAD_REACTORS
330
585
102
}
330
585
100
AcDbXrecord
280
     1
 40
10.0
  0
XRECORD
  5
5A9
102
{ACAD_REACTORS
330
585
102
}
330
585
100
AcDbXrecord
280
     1
 40
10.0
  0
XRECORD
  5
5AA
102
{ACAD_REACTORS
330
585
102
}
330
585
100
AcDbXrecord
280
     1
290
     0
  0
XRECORD
  5
5AB
102
{ACAD_REACTORS
330
585
102
}
330
585
100
AcDbXrecord
280
     1
 90
        1
  0
XRECORD
  5
5AC
102
{ACAD_REACTORS
330
585
102
}
330
585
100
AcDbXrecord
280
     1
 40
0.0
  0
XRECORD
  5
5AD
102
{ACAD_REACTORS
330
585
102
}
330
585
100
AcDbXrecord
280
     1
 40
0.0
  0
XRECORD
  5
5AE
102
{ACAD_REACTORS
330
585
102
}
330
585
100
AcDbXrecord
280
     1
1000
Portrait
  0
XRECORD
  5
5AF
102
{ACAD_REACTORS
330
585
102
}
330
585
100
AcDbXrecord
280
     1
 40
279.4
  0
XRECORD
  5
5B0
102
{ACAD_REACTORS
330
585
102
}
330
585
100
AcDbXrecord
280
     1
 40
215.9
  0
XRECORD
  5
5B1
102
{ACAD_REACTORS
330
585
102
}
330
585
100
AcDbXrecord
280
     1
1000
1:1
  0
XRECORD
  5
5B2
102
{ACAD_REACTORS
330
585
102
}
330
585
100
AcDbXrecord
280
     1
290
     1
  0
XRECORD
  5
5B3
102
{ACAD_REACTORS
330
585
102
}
330
585
100
AcDbXrecord
280
     1
1000
3.16.4
  0
XRECORD
  5
5B4
102
{ACAD_REACTORS
330
585
102
}
330
585
100
AcDbXrecord
280
     1
 90
        4
  0
XRECORD
  5
5B5
102
{ACAD_REACTORS
330
585
102
}
330
585
100
AcDbXrecord
280
     1
  0
XRECORD
  5
5B6
102
{ACAD_REACTORS
330
585
102
}
330
585
100
AcDbXrecord
280
     1
 40
3.830213955822018
  0
XRECORD
  5
5B7
102
{ACAD_REACTORS
330
585
102
}
330
585
100
AcDbXrecord
280
     1
 40
5.820775430048471
  0
DICTIONARY
  5
5F9
330
580
100
AcDbDictionary
280
     1
281
     1
  3
ACAD_ROUNDTRIP_2008_TABLESTYLE_CELLSTYLEMAP
360
5FA
  0
CELLSTYLEMAP
  5
5FA
102
{ACAD_REACTORS
330
5F9
102
}
330
5F9
100
AcDbCellStyleMap
 90
        3
300
CELLSTYLE
  1
TABLEFORMAT_BEGIN
 90
        5
170
     1
 91
        0
 92
    32768
 62
   257
 93
        1
300
CONTENTFORMAT
  1
CONTENTFORMAT_BEGIN
 90
        0
 91
        0
 92
        4
 93
        0
300

 40
0.0
140
1.0
 94
        5
 62
     0
340
528
144
0.25
309
CONTENTFORMAT_END
171
     1
301
MARGIN
  1
CELLMARGIN_BEGIN
 40
0.06
 40
0.06
 40
0.06
 40
0.06
 40
0.06
 40
0.06
309
CELLMARGIN_END
 94
        6
 95
        1
302
GRIDFORMAT
  1
GRIDFORMAT_BEGIN
 90
        0
 91
        1
 62
     0
 92
       -2
340
52A
 93
        0
 40
0.045
309
GRIDFORMAT_END
 95
        2
302
GRIDFORMAT
  1
GRIDFORMAT_BEGIN
 90
        0
 91
        1
 62
     0
 92
       -2
340
52A
 93
        0
 40
0.045
309
GRIDFORMAT_END
 95
        4
302
GRIDFORMAT
  1
GRIDFORMAT_BEGIN
 90
        0
 91
        1
 62
     0
 92
       -2
340
52A
 93
        0
 40
0.045
309
GRIDFORMAT_END
 95
        8
302
GRIDFORMAT
  1
GRIDFORMAT_BEGIN
 90
        0
 91
        1
 62
     0
 92
       -2
340
52A
 93
        0
 40
0.045
309
GRIDFORMAT_END
 95
       16
302
GRIDFORMAT
  1
GRIDFORMAT_BEGIN
 90
        0
 91
        1
 62
     0
 92
       -2
340
52A
 93
        0
 40
0.045
309
GRIDFORMAT_END
 95
       32
302
GRIDFORMAT
  1
GRIDFORMAT_BEGIN
 90
        0
 91
        1
 62
     0
 92
       -2
340
52A
 93
        0
 40
0.045
309
GRIDFORMAT_END
309
TABLEFORMAT_END
  1
CELLSTYLE_BEGIN
 90
        1
 91
        1
300
_TITLE
309
CELLSTYLE_END
300
CELLSTYLE
  1
TABLEFORMAT_BEGIN
 90
        5
170
     1
 91
        0
 92
        0
 62
   257
 93
        1
300
CONTENTFORMAT
  1
CONTENTFORMAT_BEGIN
 90
        0
 91
        0
 92
        4
 93
        0
300

 40
0.0
140
1.0
 94
        5
 62
     0
340
528
144
0.18
309
CONTENTFORMAT_END
171
     1
301
MARGIN
  1
CELLMARGIN_BEGIN
 40
0.06
 40
0.06
 40
0.06
 40
0.06
 40
0.06
 40
0.06
309
CELLMARGIN_END
 94
        6
 95
        1
302
GRIDFORMAT
  1
GRIDFORMAT_BEGIN
 90
        0
 91
        1
 62
     0
 92
       -2
340
52A
 93
        0
 40
0.045
309
GRIDFORMAT_END
 95
        2
302
GRIDFORMAT
  1
GRIDFORMAT_BEGIN
 90
        0
 91
        1
 62
     0
 92
       -2
340
52A
 93
        0
 40
0.045
309
GRIDFORMAT_END
 95
        4
302
GRIDFORMAT
  1
GRIDFORMAT_BEGIN
 90
        0
 91
        1
 62
     0
 92
       -2
340
52A
 93
        0
 40
0.045
309
GRIDFORMAT_END
 95
        8
302
GRIDFORMAT
  1
GRIDFORMAT_BEGIN
 90
        0
 91
        1
 62
     0
 92
       -2
340
52A
 93
        0
 40
0.045
309
GRIDFORMAT_END
 95
       16
302
GRIDFORMAT
  1
GRIDFORMAT_BEGIN
 90
        0
 91
        1
 62
     0
 92
       -2
340
52A
 93
        0
 40
0.045
309
GRIDFORMAT_END
 95
       32
302
GRIDFORMAT
  1
GRIDFORMAT_BEGIN
 90
        0
 91
        1
 62
     0
 92
       -2
340
52A
 93
        0
 40
0.045
309
GRIDFORMAT_END
309
TABLEFORMAT_END
  1
CELLSTYLE_BEGIN
 90
        2
 91
        1
300
_HEADER
309
CELLSTYLE_END
300
CELLSTYLE
  1
TABLEFORMAT_BEGIN
 90
        5
170
     1
 91
        0
 92
        0
 62
   257
 93
        1
300
CONTENTFORMAT
  1
CONTENTFORMAT_BEGIN
 90
        0
 91
        0
 92
        4
 93
        0
300

 40
0.0
140
1.0
 94
        2
 62
     0
340
528
144
0.18
309
CONTENTFORMAT_END
171
     1
301
MARGIN
  1
CELLMARGIN_BEGIN
 40
0.06
 40
0.06
 40
0.06
 40
0.06
 40
0.06
 40
0.06
309
CELLMARGIN_END
 94
        6
 95
        1
302
GRIDFORMAT
  1
GRIDFORMAT_BEGIN
 90
        0
 91
        1
 62
     0
 92
       -2
340
52A
 93
        0
 40
0.045
309
GRIDFORMAT_END
 95
        2
302
GRIDFORMAT
  1
GRIDFORMAT_BEGIN
 90
        0
 91
        1
 62
     0
 92
       -2
340
52A
 93
        0
 40
0.045
309
GRIDFORMAT_END
 95
        4
302
GRIDFORMAT
  1
GRIDFORMAT_BEGIN
 90
        0
 91
        1
 62
     0
 92
       -2
340
52A
 93
        0
 40
0.045
309
GRIDFORMAT_END
 95
        8
302
GRIDFORMAT
  1
GRIDFORMAT_BEGIN
 90
        0
 91
        1
 62
     0
 92
       -2
340
52A
 93
        0
 40
0.045
309
GRIDFORMAT_END
 95
       16
302
GRIDFORMAT
  1
GRIDFORMAT_BEGIN
 90
        0
 91
        1
 62
     0
 92
       -2
340
52A
 93
        0
 40
0.045
309
GRIDFORMAT_END
 95
       32
302
GRIDFORMAT
  1
GRIDFORMAT_BEGIN
 90
        0
 91
        1
 62
     0
 92
       -2
340
52A
 93
        0
 40
0.045
309
GRIDFORMAT_END
309
TABLEFORMAT_END
  1
CELLSTYLE_BEGIN
 90
        3
 91
        2
300
_DATA
309
CELLSTYLE_END
  0
ENDSEC
  0
EOF
