<?xml version="1.0" encoding="UTF-8" standalone="no"?>
<!-- 2019-07-21 07:49:51 Generated by QCAD SVG Exporter -->

<svg
   xmlns:dc="http://purl.org/dc/elements/1.1/"
   xmlns:cc="http://creativecommons.org/ns#"
   xmlns:rdf="http://www.w3.org/1999/02/22-rdf-syntax-ns#"
   xmlns:svg="http://www.w3.org/2000/svg"
   xmlns="http://www.w3.org/2000/svg"
   xmlns:sodipodi="http://sodipodi.sourceforge.net/DTD/sodipodi-0.dtd"
   xmlns:inkscape="http://www.inkscape.org/namespaces/inkscape"
   width="58.433998mm"
   height="15mm"
   viewBox="0 -15 58.434 15"
   version="1.1"
   style="fill:none;stroke-linecap:round;stroke-linejoin:round"
   id="svg2"
   inkscape:version="0.91 r13725"
   sodipodi:docname="Input Digits-new.svg"
   inkscape:export-filename="/Users/mwu/Documents/Curta/Release Files/Input Digits-new.png"
   inkscape:export-xdpi="440"
   inkscape:export-ydpi="440">
  <metadata
     id="metadata52">
    <rdf:RDF>
      <cc:Work
         rdf:about="">
        <dc:format>image/svg+xml</dc:format>
        <dc:type
           rdf:resource="http://purl.org/dc/dcmitype/StillImage" />
        <dc:title></dc:title>
      </cc:Work>
    </rdf:RDF>
  </metadata>
  <defs
     id="defs50" />
  <sodipodi:namedview
     pagecolor="#ffffff"
     bordercolor="#666666"
     borderopacity="1"
     objecttolerance="10"
     gridtolerance="10"
     guidetolerance="10"
     inkscape:pageopacity="0"
     inkscape:pageshadow="2"
     inkscape:window-width="1291"
     inkscape:window-height="780"
     id="namedview48"
     showgrid="false"
     units="mm"
     inkscape:zoom="3.5949417"
     inkscape:cx="97.086913"
     inkscape:cy="26.574803"
     inkscape:window-x="0"
     inkscape:window-y="0"
     inkscape:window-maximized="0"
     inkscape:current-layer="svg2" />
  <rect
     style="opacity:0.99823531;fill:#000000;fill-opacity:1;fill-rule:nonzero;stroke:none;stroke-width:0.04741333;stroke-miterlimit:4;stroke-dasharray:none;stroke-opacity:1"
     id="rect4207"
     width="58.386532"
     height="14.952538"
     x="0.023731314"
     y="-14.976269" />
  <path
     style="fill:#ffffff;stroke:#000000;stroke-width:0"
     d="m 72.466797,20.597656 c -0.527078,0 -1.033143,0.08725 -1.503906,0.25 -0.253311,0.08459 -0.49666,0.188494 -0.728516,0.310547 -0.228189,0.117053 -0.445957,0.249083 -0.654297,0.394531 -0.232335,0.159198 -0.454986,0.332389 -0.664062,0.519532 -0.256855,0.225524 -0.498252,0.468792 -0.722657,0.726562 -0.228295,0.257265 -0.442114,0.527008 -0.640625,0.808594 -1.088791,1.52743 -1.728515,3.397558 -1.728515,5.416016 l 0,9.722656 c 0,2.018538 0.639905,3.886968 1.728515,5.414062 0.198744,0.281913 0.412419,0.551423 0.640625,0.808594 0.224433,0.257815 0.465855,0.501075 0.722657,0.726562 0.209161,0.187208 0.430044,0.36053 0.662109,0.519532 l 0.002,0 c 0.208701,0.14569 0.426923,0.277917 0.654297,0.394531 0.232795,0.122517 0.476951,0.226595 0.728516,0.310547 0.472273,0.163159 0.977154,0.251953 1.503906,0.251953 0.527077,0 1.033142,-0.0892 1.503906,-0.251953 l 0.002,0 c 0.253311,-0.0846 0.494706,-0.188494 0.726563,-0.310547 l 0.002,0 c 0.228189,-0.117053 0.445957,-0.249082 0.654297,-0.394531 0.232334,-0.159197 0.453033,-0.332389 0.662109,-0.519532 0.256854,-0.225524 0.498252,-0.468792 0.722656,-0.726562 0.228296,-0.257265 0.444068,-0.527007 0.642578,-0.808594 1.088795,-1.527429 1.728516,-3.395606 1.728516,-5.414062 0,-2.555287 -1.026575,-4.870471 -2.689453,-6.556641 -1.007128,-1.021239 -2.407454,-1.654297 -3.955078,-1.654297 -1.547625,0 -2.945997,0.633058 -3.953125,1.654297 -0.01063,0.01077 -0.02293,0.02044 -0.0332,0.03125 l 0,-3.197265 c 3.2e-5,-1.444113 0.459342,-2.78236 1.238281,-3.875 l 1.322266,-1.375 1.425781,-0.519532 1.427734,0.519532 1.322266,1.375 c 0.531213,0.745221 0.912329,1.604179 1.101562,2.533203 l 0,0.002 c 0.123697,0.606267 0.658394,1.0625 1.300782,1.0625 0.73384,0 1.330078,-0.594282 1.330078,-1.328125 0,-0.09146 -0.0096,-0.181721 -0.02734,-0.267578 l 0.002,-0.002 c -0.265287,-1.300353 -0.799104,-2.500268 -1.541016,-3.541016 -0.198744,-0.281913 -0.414371,-0.551423 -0.642578,-0.808594 -0.224433,-0.257814 -0.465855,-0.501075 -0.722656,-0.726562 -0.209161,-0.187207 -0.430044,-0.360531 -0.662109,-0.519532 -0.208701,-0.14569 -0.426923,-0.277917 -0.654297,-0.394531 -0.232795,-0.122517 -0.476952,-0.226599 -0.728516,-0.310547 -0.472273,-0.163158 -0.979108,-0.25 -1.505859,-0.25 z m 0,12.59375 c 0.807091,0 1.537275,0.3307 2.0625,0.863282 1.189672,1.206339 1.923828,2.863272 1.923828,4.691406 0,1.828133 -0.734156,3.485066 -1.923828,4.691406 -0.525225,0.53258 -1.255409,0.861328 -2.0625,0.861328 -0.807091,0 -1.537276,-0.328747 -2.0625,-0.861328 -1.189673,-1.20634 -1.923828,-2.863273 -1.923828,-4.691406 0,-1.828134 0.734155,-3.485067 1.923828,-4.691406 0.525224,-0.53258 1.255409,-0.863282 2.0625,-0.863282 z"
     transform="matrix(0.2822222,0,0,0.28222222,0,-15)"
     id="path6"
     inkscape:connector-curvature="0" />
  <path
     inkscape:connector-curvature="0"
     id="path10"
     style="fill:#ffffff;stroke:#000000;stroke-width:0"
     d="m 24.4203,-4.4996297 c 0,0.5326065 0.103146,1.0411221 0.290312,1.5060658 l 2.71e-4,-3.012e-4 c 0.06417,0.1563208 0.14237,0.3049393 0.233082,0.4445449 l 2e-5,-1.65e-5 c 0.05996,0.094797 0.126724,0.1847382 0.199648,0.2692003 l -3e-6,2.2e-6 c 0.05603,0.066133 0.116405,0.1284528 0.180685,0.1865243 l 5e-6,-3.4e-6 c 0.05438,0.049919 0.112019,0.096344 0.17252,0.1388976 l 2.5e-5,-1.42e-5 c 0.05595,0.03998 0.114694,0.076229 0.175801,0.1083504 l 5.6e-5,-2.4e-5 c 0.06391,0.034355 0.130824,0.063649 0.200043,0.087318 l 4.4e-5,-9.6e-6 c 0.132341,0.046639 0.274458,0.071965 0.422491,0.071965 0.14812,0 0.290319,-0.025357 0.422255,-0.071883 l 2e-5,1.56e-5 c 0.06968,-0.023842 0.136536,-0.053123 0.200208,-0.087356 l 3.6e-5,3.35e-5 c 0.06131,-0.032232 0.120026,-0.068469 0.175887,-0.1083897 l 1.7e-5,1.88e-5 c 0.06056,-0.042598 0.118187,-0.089016 0.172555,-0.1389215 l 3e-6,4.5e-6 c 0.06429,-0.058079 0.124665,-0.1204011 0.180681,-0.1865186 l -10e-7,-3e-6 c 0.07296,-0.084501 0.139739,-0.1744671 0.199601,-0.2691235 l 1.5e-5,2.1e-5 c 0.09088,-0.1398722 0.169107,-0.2885895 0.232983,-0.4442512 l 1.88e-4,5.136e-4 c 0.187494,-0.4659723 0.290552,-0.9742814 0.290552,-1.506661 0,-0.5326066 -0.103146,-1.0411222 -0.290312,-1.5060659 l -2.71e-4,3.013e-4 c -0.06417,-0.1563209 -0.14237,-0.3049393 -0.233082,-0.444545 l -2e-5,1.65e-5 c -0.05996,-0.094797 -0.126724,-0.1847381 -0.199648,-0.2692002 l 3e-6,-2.3e-6 c -0.05603,-0.066133 -0.116405,-0.1284527 -0.180685,-0.1865243 l -5e-6,3.5e-6 C 27.2119,-6.955566 27.154261,-7.001991 27.09376,-7.0445447 l -2.5e-5,1.42e-5 c -0.05595,-0.03998 -0.114694,-0.076229 -0.175801,-0.1083504 l -5.6e-5,2.41e-5 c -0.06391,-0.034355 -0.130824,-0.063649 -0.200043,-0.087318 l -4.4e-5,9.7e-6 C 26.58545,-7.286804 26.443333,-7.31213 26.2953,-7.31213 c -0.14812,0 -0.290319,0.025356 -0.422255,0.071883 l -2e-5,-1.57e-5 c -0.06968,0.023842 -0.136536,0.053123 -0.200208,0.087356 l -3.5e-5,-3.23e-5 c -0.04394,0.02317 -0.08649,0.048366 -0.127599,0.075486 l 1.17e-4,-1.3596766 1.875,0 c 0.207107,0 0.375,-0.1678932 0.375,-0.375 0,-0.2071068 -0.167893,-0.375 -0.375,-0.375 l -2.25,0 c -0.207107,0 -0.375,0.1678932 -0.375,0.375 l 0,2.6249997 c 0,0.2143117 0.173734,0.3880456 0.388046,0.3880456 0.144016,0 0.269708,-0.078454 0.336657,-0.1949332 l -1.96e-4,-3.812e-4 c 0.02124,-0.037127 0.04384,-0.073383 0.06771,-0.1087015 l 1.6e-5,2.45e-5 c 0.03679,-0.055726 0.07772,-0.108479 0.122353,-0.1578231 l -1e-6,-2.4e-6 c 0.03169,-0.035941 0.06577,-0.069729 0.101989,-0.1011165 l 4e-6,4.9e-6 c 0.02904,-0.025686 0.05975,-0.049523 0.09195,-0.071325 l 1.3e-5,1.38e-5 c 0.0286,-0.019755 0.0586,-0.037637 0.08982,-0.05347 l 2.3e-5,2.13e-5 c 0.03158,-0.016461 0.06464,-0.030476 0.09893,-0.041795 l 1.1e-5,9e-6 c 0.06357,-0.021761 0.131746,-0.033571 0.202686,-0.033571 0.07099,0 0.139208,0.011825 0.202806,0.033612 l 2.7e-5,-5.5e-6 c 0.03426,0.011317 0.06729,0.025327 0.09884,0.041777 l 3.6e-5,-1.52e-5 c 0.0312,0.015828 0.06118,0.033703 0.08977,0.05345 l 1.9e-5,-1.03e-5 c 0.03219,0.021798 0.0629,0.04563 0.09193,0.071311 l 6e-6,-3.8e-6 c 0.03621,0.031388 0.07029,0.065175 0.101988,0.1011162 l -2e-6,1.7e-6 c 0.04464,0.049355 0.08558,0.1021217 0.122378,0.1578611 l 1.2e-5,-1.02e-5 c 0.06334,0.092299 0.117879,0.1911059 0.162419,0.2952117 l 3.59e-4,-3.995e-4 c 0.16405,0.403976 0.254414,0.845737 0.254414,1.3086037 0,0.4630592 -0.09044,0.9049951 -0.254619,1.3091076 l -2.5e-4,-6.805e-4 c -0.04454,0.10404 -0.09906,0.2027859 -0.162365,0.2950313 l -10e-6,-1.26e-5 c -0.03679,0.055725 -0.07772,0.1084789 -0.122353,0.1578231 l 1e-6,2.4e-6 c -0.03169,0.035941 -0.06577,0.069729 -0.101989,0.1011164 l -4e-6,-4.8e-6 c -0.02904,0.025686 -0.05975,0.049523 -0.09195,0.071325 l -1.3e-5,-1.38e-5 c -0.02861,0.019755 -0.0586,0.037638 -0.08982,0.05347 l -2.3e-5,-2.13e-5 c -0.03158,0.016461 -0.06464,0.030476 -0.09893,0.041795 l -1.1e-5,-9.1e-6 c -0.06357,0.021761 -0.131746,0.033571 -0.202686,0.033571 -0.07099,0 -0.139208,-0.011825 -0.202806,-0.033612 l -2.7e-5,5.5e-6 c -0.03425,-0.011317 -0.06729,-0.025327 -0.09884,-0.041777 l -3.6e-5,1.52e-5 c -0.0312,-0.015828 -0.06118,-0.033703 -0.08977,-0.05345 l -1.9e-5,1.04e-5 c -0.03219,-0.021798 -0.0629,-0.04563 -0.09193,-0.071311 l -6e-6,3.7e-6 c -0.03622,-0.031388 -0.07029,-0.065176 -0.101988,-0.1011161 l 2e-6,-1.8e-6 c -0.04464,-0.049355 -0.08558,-0.1021216 -0.122378,-0.157861 l -1.2e-5,1.01e-5 c -0.06334,-0.092299 -0.117879,-0.1911059 -0.162419,-0.2952117 l -3.59e-4,3.995e-4 C 25.260664,-3.5950021 25.1703,-4.036763 25.1703,-4.4996297 c 0,-0.2071068 -0.167893,-0.375 -0.375,-0.375 -0.207107,0 -0.375,0.1678932 -0.375,0.375" />
  <path
     inkscape:connector-curvature="0"
     id="path12"
     style="fill:#ffffff;stroke:#000000;stroke-width:0"
     d="m 37.9821,-5.4371296 z m 0,0 c -0.207107,0 -0.375,-0.1678932 -0.375,-0.375 0,-0.2071068 0.167893,-0.375 0.375,-0.375 0,0 0,0 0,0 l 0,0 c 0.09528,0 0.186613,-0.016898 0.271028,-0.04781 l 8e-6,5.9e-6 c 0.04227,-0.015207 0.08278,-0.033735 0.121301,-0.055281 l 1.2e-5,1.07e-5 c 0.035,-0.019327 0.06848,-0.040952 0.100267,-0.064687 l 4e-6,4.7e-6 c 0.03216,-0.023808 0.06272,-0.049633 0.0915,-0.077297 l 10e-7,5e-7 c 0.03126,-0.029808 0.06058,-0.061639 0.08773,-0.095275 l 0,-4e-7 c 0.03177,-0.038993 0.06082,-0.080273 0.08685,-0.1235104 l 4e-6,5.9e-6 c 0.03425,-0.056225 0.06378,-0.1155683 0.08801,-0.1773594 l 2.5e-5,7.09e-5 c 0.05863,-0.1501116 0.09076,-0.3132425 0.09076,-0.4838788 0,-0.1707151 -0.03216,-0.3339178 -0.09068,-0.4836714 l -3.7e-5,4.12e-5 c -0.02436,-0.062101 -0.05388,-0.1214016 -0.08805,-0.1774864 l -5e-6,4.5e-6 c -0.02608,-0.043321 -0.05512,-0.084587 -0.08687,-0.1235524 l 0,-3e-7 c -0.02716,-0.033648 -0.05648,-0.065477 -0.08774,-0.095282 l -10e-7,3e-7 c -0.02878,-0.027668 -0.05934,-0.053497 -0.09148,-0.077286 l -7e-6,3.6e-6 c -0.03183,-0.023763 -0.06532,-0.045395 -0.100223,-0.064665 l -1.7e-5,7.7e-6 c -0.03865,-0.021616 -0.0792,-0.040152 -0.121206,-0.055257 l -1.6e-5,3.7e-6 c -0.08465,-0.030981 -0.175938,-0.04786 -0.271166,-0.04786 -0.09528,0 -0.186613,0.016898 -0.271028,0.04781 l -8e-6,-5.9e-6 c -0.04227,0.015207 -0.08278,0.033735 -0.121301,0.055281 l -1.2e-5,-1.07e-5 c -0.035,0.019327 -0.06848,0.040952 -0.100267,0.064687 l -4e-6,-4.7e-6 c -0.03216,0.023808 -0.06272,0.049633 -0.0915,0.077296 l -10e-7,-5e-7 c -0.03126,0.029808 -0.06058,0.061639 -0.08773,0.095275 l 0,4e-7 c -0.03177,0.038993 -0.06082,0.080273 -0.08684,0.1235104 l -4e-6,-6e-6 c -0.03376,0.055437 -0.06294,0.1139039 -0.08697,0.1747547 l 2.13e-4,5.68e-4 c -0.05526,0.1382076 -0.190395,0.2358448 -0.348333,0.2358448 -0.207106,0 -0.375,-0.1678932 -0.375,-0.375 0,-0.059986 0.01409,-0.1166818 0.03913,-0.1669617 l -2.17e-4,-5.686e-4 c 0.03469,-0.082951 0.07507,-0.162935 0.120642,-0.2394653 l 5e-6,7e-6 c 0.04343,-0.07337 0.09184,-0.143447 0.144762,-0.209765 l -10e-7,-3e-7 c 0.04705,-0.059277 0.09785,-0.1154472 0.15204,-0.1681517 l 0,3e-7 c 0.05162,-0.050452 0.106455,-0.097626 0.164174,-0.1411827 l 5e-6,5e-6 c 0.05887,-0.044664 0.120881,-0.085411 0.185635,-0.1218541 l 1.3e-5,1.24e-5 c 0.07351,-0.041703 0.150746,-0.077606 0.23108,-0.1070865 l 9e-6,7.3e-6 c 0.165535,-0.061431 0.344608,-0.094996 0.53152,-0.094996 0.187011,0 0.366174,0.0336 0.531781,0.095093 l 2e-5,-4.5e-6 c 0.08027,0.029474 0.157443,0.06536 0.2309,0.1070389 l 1.9e-5,-9.1e-6 c 0.06473,0.036433 0.126709,0.077167 0.185559,0.121815 l 6e-6,-3.8e-6 c 0.05771,0.043552 0.11254,0.09072 0.164151,0.1411658 l 1e-6,-3e-7 c 0.05419,0.052709 0.104994,0.1088841 0.152051,0.1681671 l 0,2e-7 c 0.05294,0.066341 0.10136,0.1364428 0.144803,0.2098407 l 6e-6,-4.8e-6 c 0.05454,0.091528 0.101643,0.1879998 0.140485,0.2885817 l 3.1e-5,-3.55e-5 c 0.08892,0.2306808 0.137673,0.4813248 0.137673,0.743356 0,0.2621564 -0.0488,0.5129147 -0.137814,0.7436862 l -2.2e-5,-6.14e-5 c -0.03883,0.1005061 -0.08592,0.1969065 -0.140423,0.2883701 l -4e-6,-6.3e-6 c -0.04343,0.07337 -0.09184,0.1434471 -0.144762,0.209765 l 0,4e-7 c -0.04705,0.059277 -0.09785,0.1154471 -0.152039,0.1681516 l 0,-3e-7 c -0.02848,0.027808 -0.05794,0.054618 -0.08832,0.080374 l 5.1e-5,-7.49e-5 c 0.05015,0.039176 0.09824,0.080873 0.144072,0.1249025 l 10e-7,-7e-7 c 0.06253,0.059616 0.121158,0.1232774 0.17548,0.1905644 l 0,7e-7 c 0.06352,0.077971 0.121625,0.1605306 0.173738,0.2471049 l 10e-6,-9.1e-6 c 0.06844,0.1123485 0.127495,0.2310349 0.176095,0.3549727 l 7.3e-5,-8.23e-5 c 0.117095,0.2998077 0.181364,0.6260696 0.181364,0.9673422 0,0.3414301 -0.06433,0.6678355 -0.181526,0.9677576 l -5.1e-5,-1.416e-4 c -0.04859,0.1238465 -0.107621,0.2424476 -0.176017,0.3547187 l -8e-6,-1.18e-5 c -0.0521,0.086544 -0.110189,0.169075 -0.17369,0.2470208 l 0,9e-7 c -0.05432,0.067282 -0.112948,0.1309384 -0.175469,0.1905501 l -1e-6,-1e-6 c -0.05756,0.055336 -0.118688,0.1069933 -0.182998,0.1545931 l -8e-6,-9.5e-6 c -0.06363,0.047506 -0.130617,0.090771 -0.200535,0.1293735 l -2.2e-5,-2.14e-5 c -0.07721,0.043175 -0.158295,0.080247 -0.242604,0.1105623 l -1.4e-5,-1.18e-5 c -0.169029,0.061861 -0.351601,0.09562 -0.542057,0.09562 -0.19056,0 -0.373226,-0.033796 -0.542332,-0.095721 l -3.2e-5,7.3e-6 c -0.08424,-0.030309 -0.165261,-0.067364 -0.242411,-0.1105132 l -3.5e-5,1.55e-5 c -0.06989,-0.038592 -0.136842,-0.081842 -0.200447,-0.1293305 l -1.2e-5,7.3e-6 c -0.0643,-0.047594 -0.125416,-0.099244 -0.18297,-0.1545723 l -1e-6,7e-7 c -0.06253,-0.059616 -0.121158,-0.1232774 -0.17548,-0.1905644 l 0,-6e-7 c -0.06352,-0.077971 -0.121625,-0.1605307 -0.173738,-0.2471049 l -1.3e-5,1.2e-5 c -0.03007,-0.049557 -0.05832,-0.1003431 -0.08466,-0.1522645 l 3.03e-4,-3.145e-4 c -0.02589,-0.050946 -0.04048,-0.1085971 -0.04048,-0.1696572 0,-0.2071067 0.167893,-0.3749999 0.375,-0.3749999 0.129896,0 0.244366,0.066045 0.311663,0.1663856 l -2.96e-4,3.12e-4 c 0.02661,0.057533 0.05666,0.1129494 0.0899,0.1660796 l 1.1e-5,-1.01e-5 c 0.03395,0.055087 0.07176,0.1074578 0.113077,0.1567773 l -10e-7,8e-7 c 0.03355,0.040609 0.06974,0.078949 0.108298,0.1147624 l 2e-6,-1.1e-6 c 0.03401,0.031975 0.0701,0.061765 0.108017,0.089135 l 1.1e-5,-6.6e-6 c 0.03622,0.026475 0.07431,0.050525 0.113958,0.07189 l 2.9e-5,-1.25e-5 c 0.04258,0.023358 0.0872,0.043327 0.133405,0.059525 l 2.4e-5,-5.5e-6 c 0.09044,0.032494 0.187762,0.050169 0.289214,0.050169 0.10151,0 0.198887,-0.017695 0.289061,-0.050114 l 10e-6,8.7e-6 c 0.0465,-0.016312 0.09108,-0.036272 0.133513,-0.059551 l 1.9e-5,1.73e-5 c 0.03977,-0.021432 0.07784,-0.045474 0.114011,-0.071915 l 8e-6,8.7e-6 c 0.03795,-0.027394 0.07403,-0.05718 0.108035,-0.089148 l 2e-6,1.5e-6 c 0.03857,-0.035817 0.07475,-0.074159 0.108293,-0.1147563 l -10e-7,-1.1e-6 c 0.04134,-0.049348 0.07916,-0.1017355 0.113048,-0.1567281 l 7e-6,1.03e-5 c 0.04763,-0.075837 0.08866,-0.1561551 0.12224,-0.239991 l 6.3e-5,1.702e-4 c 0.08825,-0.2223843 0.136691,-0.4645413 0.136691,-0.7180126 0,-0.2535834 -0.04848,-0.4958425 -0.136574,-0.7177178 l -9e-5,9.94e-5 c -0.03375,-0.084224 -0.07476,-0.1644862 -0.122293,-0.2401567 l -9e-6,8e-6 c -0.03395,-0.055087 -0.07176,-0.1074578 -0.113077,-0.1567773 l 10e-7,-8e-7 c -0.03355,-0.040609 -0.06974,-0.078949 -0.108298,-0.1147624 l -2e-6,1.1e-6 c -0.03401,-0.031975 -0.0701,-0.061765 -0.108017,-0.089135 l -1.1e-5,6.6e-6 c -0.03622,-0.026475 -0.07431,-0.050525 -0.113958,-0.07189 l -2.9e-5,1.25e-5 c -0.04258,-0.023358 -0.0872,-0.043327 -0.133405,-0.059525 l -2.4e-5,5.4e-6 c -0.09044,-0.032494 -0.187762,-0.050169 -0.289214,-0.050169" />
  <path
     inkscape:connector-curvature="0"
     id="path14"
     style="fill:#ffffff;stroke:#000000;stroke-width:0"
     d="m 41.9505,-2.1161205 c 0,0.2071067 0.167893,0.3749999 0.375,0.3749999 l 3,0 c 0.207107,0 0.375,-0.1678932 0.375,-0.3749999 0,-0.2071068 -0.167893,-0.375 -0.375,-0.375 l -2.625,0 0,-0.699301 c 0,-0.2071067 0.08395,-0.3946067 0.21967,-0.53033 l 2.212849,-2.2128493 0,0 C 45.483638,-6.2842193 45.7005,-6.7685942 45.7005,-7.30362 c 0,-1.0700516 -0.867448,-1.9374998 -1.9375,-1.9374998 -0.80039,0 -1.487425,0.48533 -1.782762,1.1775023 l 2.11e-4,5.288e-4 c -0.01929,0.045201 -0.02995,0.094904 -0.02995,0.1470963 0,0.2071068 0.167893,0.375 0.375,0.375 0.154914,0 0.287889,-0.093935 0.345051,-0.2279037 l -2.12e-4,-5.288e-4 c 0.181116,-0.4243072 0.602159,-0.721695 1.092661,-0.721695 0.655838,0 1.1875,0.5316618 1.1875,1.1874999 0,0.327919 -0.132916,0.624794 -0.347811,0.8396892 l -2.212849,2.2128493 0,0 c -0.271447,0.2714465 -0.43934,0.6464465 -0.43934,1.06066 z" />
  <path
     style="fill:#ffffff;stroke:#000000;stroke-width:0"
     d="m 115.11133,20.597656 c -0.52706,0 -0.98816,0.285435 -1.23438,0.710938 l -7.68164,13.304687 c -0.18489,0.319522 -0.29101,0.690373 -0.29101,1.085938 0,1.19908 0.97279,2.171875 2.17187,2.171875 l 5.80078,0 0,7.972656 c 0,0.733843 0.59428,1.328125 1.32813,1.328125 0.73384,0 1.33008,-0.594282 1.33008,-1.328125 l 0,-7.972656 1.32812,0 c 0.73384,0 1.32813,-0.596235 1.32813,-1.330078 0,-0.733843 -0.59429,-1.328125 -1.32813,-1.328125 l -1.32812,0 0,-13.191407 c 0,-0.78653 -0.6373,-1.423828 -1.42383,-1.423828 z m -1.23438,6.025391 0,8.589844 -4.95898,0 4.95898,-8.589844 z"
     transform="matrix(0.2822222,0,0,0.28222222,0,-15)"
     id="path16"
     inkscape:connector-curvature="0" />
  <path
     inkscape:connector-curvature="0"
     id="path20"
     style="fill:#ffffff;stroke:#000000;stroke-width:0"
     d="m 16.012603,-9.1871293 c 0.300742,0 0.544541,0.2437995 0.544541,0.5445415 0,0.072767 -0.01427,0.1422011 -0.04017,0.2056543 l -0.0025,-0.00643 c -0.805198,1.9736675 -1.25721,4.12597 -1.278836,6.3803392 l 9e-6,8.943e-4 c 0,0.2071068 -0.167893,0.375 -0.375,0.375 -0.207107,0 -0.375,-0.1678932 -0.375,-0.375 0,-2.2620911 0.4552,-4.4178647 1.278997,-6.3807178 l -2.560247,0.00572 c -0.207107,0 -0.375,-0.1678932 -0.375,-0.375 0,-0.2071068 0.167893,-0.375 0.375,-0.375 z" />
  <path
     style="fill:#ffffff;stroke:#000000;stroke-width:0"
     d="m 31.056641,20.597656 c -0.662636,0 -1.296938,0.118393 -1.882813,0.335938 -0.285381,0.104786 -0.558403,0.231411 -0.818359,0.378906 -0.229692,0.129288 -0.449755,0.273495 -0.658203,0.431641 -0.204566,0.154382 -0.399157,0.321255 -0.582032,0.5 -0.192019,0.186764 -0.372369,0.3857 -0.539062,0.595703 -0.187618,0.235119 -0.357978,0.484392 -0.511719,0.74414 -0.193439,0.324642 -0.360835,0.66617 -0.498047,1.021485 -0.315563,0.818541 -0.488281,1.706308 -0.488281,2.634765 0,0.9289 0.173333,1.818242 0.488281,2.634766 0.138012,0.357202 0.30511,0.697729 0.498047,1.021484 0.154088,0.260299 0.324249,0.509211 0.511719,0.744141 0.166769,0.210093 0.347063,0.408956 0.539062,0.595703 0.100914,0.09853 0.204876,0.193916 0.3125,0.285156 -0.177774,0.138863 -0.347373,0.2854 -0.509765,0.441407 -0.221549,0.211241 -0.428657,0.437416 -0.621094,0.675781 -0.225117,0.276328 -0.430793,0.568591 -0.615234,0.875 -0.242399,0.39794 -0.453416,0.820521 -0.625,1.257812 -0.415051,1.06331 -0.642578,2.219152 -0.642579,3.427735 0,1.209791 0.227886,2.366488 0.642579,3.427734 0.172654,0.440086 0.380918,0.860361 0.623047,1.257813 0.184821,0.306999 0.392225,0.598866 0.617187,0.875 0.192511,0.238454 0.399566,0.464561 0.621094,0.675781 0.203963,0.196076 0.420669,0.378289 0.648437,0.546875 0.225557,0.168396 0.463595,0.322423 0.710938,0.458984 0.273933,0.153181 0.559727,0.283581 0.857422,0.390625 l 0.002,0 c 0.599897,0.219551 1.245076,0.339844 1.919922,0.339844 0.675211,0 1.323655,-0.120782 1.921875,-0.339844 0.299522,-0.107766 0.586363,-0.237932 0.859375,-0.390625 0.248028,-0.136963 0.485653,-0.290785 0.710937,-0.458984 0.227934,-0.168715 0.444507,-0.350831 0.648438,-0.546875 0.221548,-0.211241 0.428656,-0.437416 0.621093,-0.675781 0.225107,-0.276329 0.430795,-0.568591 0.615235,-0.875 0.242409,-0.397941 0.453417,-0.818569 0.625,-1.25586 l 0,-0.002 c 0.415052,-1.063309 0.642578,-2.219151 0.642578,-3.427734 0,-1.209792 -0.227891,-2.366489 -0.642578,-3.427735 -0.172666,-0.440086 -0.382872,-0.860361 -0.625,-1.257812 -0.184819,-0.307003 -0.390274,-0.598867 -0.615235,-0.875 -0.192508,-0.238455 -0.399566,-0.464561 -0.621093,-0.675781 -0.162415,-0.15603 -0.334055,-0.302631 -0.511719,-0.441407 0.107667,-0.09128 0.213547,-0.186631 0.314453,-0.285156 0.192019,-0.186764 0.370414,-0.3857 0.537109,-0.595703 0.187618,-0.23512 0.359932,-0.484392 0.513672,-0.744141 0.193429,-0.324641 0.360836,-0.666169 0.498047,-1.021484 0.315567,-0.818541 0.488281,-1.706308 0.488281,-2.634766 0,-0.9289 -0.173327,-1.816288 -0.488281,-2.632812 C 36.410816,24.25022 36.243697,23.90774 36.050781,23.583984 35.896683,23.323686 35.724596,23.074774 35.537109,22.839844 35.370339,22.62975 35.192,22.430888 35,22.244141 c -0.182898,-0.178767 -0.377596,-0.345724 -0.582031,-0.5 -0.20868,-0.158315 -0.429107,-0.302707 -0.658203,-0.431641 -0.260798,-0.147951 -0.534672,-0.274801 -0.81836,-0.378906 -0.587464,-0.218012 -1.222477,-0.335938 -1.884765,-0.335938 z m 0,2.65625 c 0.337422,0 0.660989,0.06015 0.960937,0.169922 0.148846,0.05352 0.292721,0.11872 0.429688,0.195313 0.123671,0.06828 0.242688,0.146269 0.355468,0.230468 0.113886,0.08429 0.222236,0.175402 0.324219,0.273438 0.110764,0.105608 0.214293,0.218665 0.310547,0.337891 0.112482,0.138065 0.216184,0.284 0.308594,0.4375 0.121064,0.198724 0.226174,0.408866 0.3125,0.628906 0.207347,0.530623 0.320312,1.107994 0.320312,1.71289 0,0.604617 -0.112575,1.182953 -0.320312,1.714844 l -0.002,0 c -0.08585,0.218945 -0.189193,0.429684 -0.310547,0.628906 -0.09222,0.153204 -0.196037,0.299336 -0.308594,0.4375 -0.09622,0.119183 -0.199772,0.232272 -0.310547,0.337891 -0.101966,0.09802 -0.210252,0.189079 -0.324219,0.273437 -0.112642,0.0841 -0.231456,0.160035 -0.355468,0.228516 -0.136506,0.07634 -0.279926,0.14143 -0.429688,0.195313 -0.29911,0.10953 -0.623331,0.169922 -0.960937,0.169921 -0.337423,10e-7 -0.66099,-0.06015 -0.960938,-0.169921 -0.148846,-0.05353 -0.290768,-0.118721 -0.427734,-0.195313 -0.123671,-0.06828 -0.242689,-0.144316 -0.355469,-0.228516 -0.113885,-0.08429 -0.222235,-0.175401 -0.324219,-0.273437 -0.110764,-0.105608 -0.214289,-0.218665 -0.310547,-0.337891 -0.112482,-0.138066 -0.216184,-0.284 -0.308593,-0.4375 -0.121065,-0.198725 -0.226175,-0.408863 -0.3125,-0.628906 -0.207348,-0.530623 -0.320313,-1.109948 -0.320313,-1.714844 0,-0.604617 0.112576,-1.182952 0.320313,-1.714843 0.08585,-0.218945 0.191145,-0.427732 0.3125,-0.626953 0.09222,-0.153206 0.196033,-0.299334 0.308593,-0.4375 0.09622,-0.119183 0.199773,-0.232272 0.310547,-0.337891 0.101966,-0.09802 0.210252,-0.189079 0.324219,-0.273438 0.112642,-0.0841 0.231457,-0.161987 0.355469,-0.230468 0.136505,-0.07635 0.279926,-0.14143 0.429687,-0.195313 0.29911,-0.109531 0.621378,-0.169922 0.958985,-0.169922 z m 0,10.63086 c 0.359476,0 0.704941,0.0626 1.02539,0.177734 0.163708,0.05739 0.321782,0.128173 0.472657,0.210938 0.140497,0.0757 0.275944,0.160097 0.404296,0.253906 0.134361,0.09698 0.262301,0.203109 0.382813,0.316406 0.136637,0.126898 0.263934,0.26236 0.382812,0.40625 0.146413,0.174754 0.282067,0.359497 0.402344,0.554688 0.16841,0.268123 0.312045,0.553132 0.431641,0.851562 l 0.002,0 c 0.312127,0.786172 0.482422,1.644445 0.482422,2.542969 0,0.897479 -0.17211,1.75546 -0.484375,2.542969 l 0,0.002 c -0.118867,0.29647 -0.265137,0.581385 -0.433594,0.849609 -0.120061,0.194856 -0.2539,0.379832 -0.400391,0.554688 -0.118843,0.143848 -0.246161,0.279339 -0.382812,0.40625 -0.120486,0.113272 -0.248337,0.21934 -0.382813,0.316406 -0.128178,0.09369 -0.263376,0.177966 -0.404296,0.253906 -0.150339,0.08248 -0.3079,0.153139 -0.472657,0.210938 -0.319514,0.11487 -0.66571,0.177734 -1.02539,0.177734 -0.359477,0 -0.702988,-0.0626 -1.023438,-0.177734 C 29.869495,44.278545 29.711421,44.207765 29.560547,44.125 29.420049,44.0493 29.284603,43.964903 29.15625,43.871094 29.021889,43.774114 28.893949,43.667985 28.773438,43.554688 28.6368,43.42779 28.50755,43.292328 28.388672,43.148438 28.24226,42.973683 28.108559,42.78894 27.988281,42.59375 c -0.16841,-0.268124 -0.314,-0.553131 -0.433593,-0.851562 -0.312128,-0.786172 -0.484376,-1.644445 -0.484376,-2.542969 10e-7,-0.898127 0.171682,-1.756946 0.484376,-2.544922 l 0.002,0.002 c 0.118987,-0.297057 0.262876,-0.582849 0.43164,-0.851562 0.120062,-0.194857 0.2539,-0.379833 0.400391,-0.554688 0.118843,-0.14385 0.248114,-0.279339 0.384766,-0.40625 0.120485,-0.113272 0.248336,-0.219341 0.382812,-0.316406 0.128178,-0.09369 0.263376,-0.177963 0.404297,-0.253906 0.150339,-0.08248 0.307903,-0.153136 0.472656,-0.210938 0.319514,-0.11487 0.663758,-0.177734 1.023438,-0.177734 z"
     transform="matrix(0.2822222,0,0,0.28222222,0,-15)"
     id="path22"
     inkscape:connector-curvature="0" />
  <path
     style="fill:#ffffff;stroke:#000000;stroke-width:0"
     d="m 10.351562,20.597656 c -0.6352373,0 -1.2430551,0.110036 -1.8066401,0.314453 C 8.2581372,21.013923 7.9822435,21.138374 7.7207031,21.283203 7.4790248,21.414965 7.2489663,21.5624 7.0292969,21.724609 6.8026847,21.89016 6.5857005,22.070865 6.3828125,22.263672 6.1573377,22.475739 5.9459576,22.701544 5.75,22.941406 5.5144764,23.226359 5.3004049,23.528912 5.1074219,23.845703 4.8451803,24.269527 4.6169314,24.72037 4.4316406,25.1875 c -0.4667301,1.185516 -0.7226562,2.474795 -0.7226562,3.824219 0,1.350683 0.2563619,2.640998 0.7226562,3.824219 0.1863957,0.469979 0.4138164,0.918464 0.6757813,1.341796 0.1933547,0.317367 0.4071994,0.619523 0.6425781,0.904297 0.1960264,0.239942 0.4073593,0.467642 0.6328125,0.679688 0.2029252,0.192841 0.4200532,0.371698 0.6464844,0.537109 0.2199508,0.162411 0.4504248,0.31005 0.6914062,0.441406 0.2624493,0.145308 0.5372689,0.269976 0.8222657,0.371094 0.5652018,0.204881 1.1737085,0.316406 1.8085932,0.316406 0.635238,0 1.245009,-0.111992 1.808594,-0.316406 0.286785,-0.101817 0.562679,-0.226264 0.824219,-0.371094 0.241678,-0.131761 0.471737,-0.279196 0.691406,-0.441406 0.226612,-0.16555 0.443597,-0.344302 0.646485,-0.537109 0.0058,-0.0055 0.0099,-0.01212 0.01563,-0.01758 l 0,3.011718 c 0,0.805877 -0.151314,1.579103 -0.427735,2.28711 -0.114638,0.291938 -0.254754,0.571226 -0.416015,0.835937 -0.123074,0.204435 -0.260153,0.399861 -0.410157,0.583985 -0.128313,0.158935 -0.266376,0.310356 -0.414062,0.451171 -0.135975,0.130717 -0.28168,0.252795 -0.433594,0.365235 -0.150311,0.11222 -0.307497,0.2135 -0.472656,0.304687 -0.182385,0.101987 -0.375065,0.190109 -0.574219,0.261719 -0.399281,0.14613 -0.8294,0.22461 -1.2792968,0.224609 -0.450141,0 -0.8817867,-0.07833 -1.28125,-0.224609 C 8.4299141,43.774106 8.2388853,43.685911 8.0566406,43.583984 7.8915544,43.492822 7.7322802,43.391474 7.5820312,43.279297 7.4301438,43.166871 7.2863463,43.044758 7.1503906,42.914062 7.0026949,42.773237 6.8646494,42.621836 6.7363281,42.462891 6.5862797,42.278706 6.4473207,42.083412 6.3242188,41.878906 c -0.015484,-0.02555 -0.029842,-0.05036 -0.044922,-0.07617 -0.2455477,-0.292322 -0.61376,-0.478515 -1.0253907,-0.478515 -0.7392596,0 -1.3378906,0.59863 -1.3378906,1.33789 0,0.260345 0.090163,0.493658 0.21875,0.699219 0.1564038,0.2483 0.3194182,0.492694 0.5019532,0.720703 0.1990736,0.250105 0.4134001,0.486798 0.6425781,0.708985 0.2170913,0.21162 0.4468301,0.409284 0.6894531,0.591796 0.246398,0.186442 0.5068852,0.356083 0.7773438,0.507813 0.3064287,0.173431 0.6276596,0.323423 0.9609374,0.445313 0.6868592,0.25432 1.4290563,0.392578 2.203125,0.392578 0.7744779,0 1.5161809,-0.138804 2.2011719,-0.392578 0.335275,-0.122691 0.655505,-0.272418 0.960938,-0.445313 0.271169,-0.152153 0.531222,-0.321574 0.777343,-0.507813 0.242784,-0.182639 0.474344,-0.380205 0.691407,-0.591796 0.229198,-0.222208 0.443593,-0.458984 0.642578,-0.708985 0.225354,-0.281469 0.430577,-0.579485 0.615234,-0.890625 0.233972,-0.39128 0.435672,-0.80194 0.601563,-1.230468 0.384463,-0.995109 0.595703,-2.075943 0.595703,-3.205079 l 0,-9.74414 c 0,-1.350684 -0.256362,-2.640999 -0.722656,-3.824219 -0.186396,-0.46998 -0.413817,-0.918464 -0.675782,-1.341797 -0.193354,-0.317367 -0.407199,-0.619523 -0.642578,-0.904297 -0.196025,-0.23994 -0.407359,-0.465689 -0.632812,-0.677734 -0.202926,-0.192841 -0.420054,-0.373651 -0.646485,-0.539063 -0.219952,-0.16241 -0.450425,-0.310048 -0.691406,-0.441406 -0.262449,-0.145307 -0.537269,-0.268022 -0.822266,-0.369141 -0.565201,-0.204881 -1.175661,-0.316406 -1.810547,-0.316406 z M 4.1347656,43.361328 c -0.021513,-0.03415 -0.047361,-0.06509 -0.068359,-0.09961 l 0.1621094,0.261719 c -0.040134,-0.04778 -0.060518,-0.108985 -0.09375,-0.16211 z m -0.068359,-0.09961 -0.029297,-0.04492 -0.00195,0.002 c 0.00913,0.01525 0.022017,0.02779 0.03125,0.04297 z M 10.351562,23.253906 c 0.3284,0 0.644175,0.05616 0.9375,0.160156 0.152403,0.05251 0.300773,0.117285 0.441407,0.19336 0.13344,0.07068 0.260728,0.150421 0.382812,0.238281 0.130769,0.09271 0.25559,0.194104 0.373047,0.302735 0.137108,0.124936 0.265334,0.26025 0.384766,0.402343 0.152804,0.178663 0.294333,0.368134 0.419922,0.56836 0.185328,0.288313 0.343354,0.593803 0.474609,0.916015 l 0.002,0 c 0.36865,0.919336 0.570313,1.924118 0.570313,2.976563 0,1.051343 -0.203398,2.055637 -0.572266,2.976562 l 0,0.002 c -0.130504,0.32023 -0.29119,0.627611 -0.476563,0.916016 -0.12538,0.199912 -0.265092,0.38961 -0.417968,0.568359 -0.119399,0.142059 -0.247643,0.27544 -0.384766,0.400391 -0.117429,0.108602 -0.242153,0.209925 -0.373047,0.302734 -0.121905,0.08774 -0.248946,0.167362 -0.382812,0.238282 -0.140115,0.07581 -0.288003,0.140468 -0.441407,0.193359 -0.292444,0.103752 -0.608907,0.160156 -0.9375,0.160156 -0.328399,0 -0.6422172,-0.05616 -0.9355464,-0.160156 C 9.263613,34.556863 9.1152432,34.49209 8.9746094,34.416016 8.8411695,34.345337 8.7138815,34.265594 8.5917969,34.177734 8.4610279,34.08502 8.3362071,33.983631 8.21875,33.875 8.0816407,33.750065 7.9534151,33.616703 7.8339844,33.474609 7.68118,33.295947 7.5396515,33.106475 7.4140625,32.90625 7.228733,32.617937 7.0707079,32.310492 6.9394531,31.988281 l -0.00195,0 c -0.368653,-0.919335 -0.5703156,-1.924118 -0.5703156,-2.976562 0,-1.051991 0.201012,-2.057126 0.5703125,-2.978516 l 0.00195,0.002 C 7.0700786,25.714342 7.228379,25.40803 7.4140625,25.119141 7.5394435,24.919228 7.6811084,24.72953 7.8339844,24.550781 7.9533832,24.408723 8.0816276,24.273389 8.21875,24.148438 8.3361795,24.039832 8.4609036,23.938513 8.5917969,23.845703 8.7137022,23.757971 8.8407432,23.678341 8.9746094,23.607422 9.1147241,23.531613 9.2626117,23.466953 9.4160156,23.414062 9.70846,23.310311 10.02297,23.253906 10.351562,23.253906 Z"
     transform="matrix(0.2822222,0,0,0.28222222,0,-15)"
     id="path28"
     inkscape:connector-curvature="0" />
  <path
     style="fill:#ffffff;stroke:#000000;stroke-width:0"
     d="m 196.69727,20.40625 -0.16407,0.0039 -0.16211,0.01172 -0.16211,0.01953 -0.1621,0.02734 -0.16211,0.03711 -0.16211,0.04297 -0.16211,0.05273 -0.16016,0.05859 -0.1582,0.06836 -0.16016,0.07422 -0.15625,0.08398 -0.1582,0.0918 -0.1543,0.09766 -0.1543,0.105469 -0.15234,0.113281 -0.15234,0.121094 -0.15039,0.128906 -0.14649,0.136719 -0.14648,0.142578 -0.14649,0.15039 -0.14257,0.15625 -0.14063,0.164063 -0.13867,0.171875 -0.13672,0.177734 -0.13477,0.185547 -0.13086,0.189453 -0.13085,0.199219 -0.12696,0.203125 -0.125,0.208984 -0.12109,0.216797 -0.1211,0.222656 -0.11523,0.226563 -0.11523,0.234375 -0.10938,0.238281 -0.10937,0.244141 -0.10547,0.25 -0.10157,0.253906 -0.0976,0.259766 -0.0957,0.263672 -0.0918,0.269531 -0.0899,0.273437 -0.0859,0.277344 -0.082,0.28125 -0.0781,0.28711 -0.0742,0.289062 -0.0723,0.292969 -0.0684,0.296875 -0.0645,0.298828 -0.0605,0.302734 -0.0566,0.306641 -0.0527,0.308594 -0.0488,0.310547 -0.0449,0.3125 -0.043,0.316406 -0.0371,0.316406 -0.0332,0.320312 -0.0293,0.320313 -0.0273,0.322266 -0.0215,0.322265 -0.0176,0.324219 -0.0137,0.324219 -0.01,0.326172 -0.006,0.326172 -0.002,0.326171 0.002,0.326172 0.006,0.326172 0.01,0.324219 0.0137,0.326172 0.0176,0.324218 0.0215,0.322266 0.0273,0.322266 0.0293,0.320312 0.0332,0.31836 0.0371,0.318359 0.043,0.314453 0.0449,0.314453 0.0488,0.310547 0.0527,0.308594 0.0566,0.304687 0.0605,0.302735 0.0645,0.300781 0.0684,0.294922 0.0723,0.294922 0.0742,0.289062 0.0781,0.285157 0.082,0.28125 0.0859,0.277343 0.0899,0.273438 0.0918,0.269531 0.0957,0.263672 0.0976,0.259766 0.10157,0.255859 0.10547,0.248047 0.10937,0.24414 0.10938,0.240235 0.11523,0.232422 0.11523,0.228515 0.1211,0.222656 0.12109,0.214844 0.125,0.210938 0.12696,0.203125 0.13085,0.197265 0.13086,0.191407 0.13477,0.183593 0.13672,0.177735 0.13867,0.171875 0.14063,0.164062 0.14257,0.158203 0.14649,0.148438 0.14648,0.144531 0.14649,0.134766 0.15039,0.128906 0.15234,0.121094 0.15234,0.113281 0.1543,0.107422 0.1543,0.09766 0.1582,0.08984 0.15625,0.08398 0.16016,0.07617 0.1582,0.06641 0.16016,0.06055 0.16211,0.05078 0.16211,0.04492 0.16211,0.03516 0.1621,0.02734 0.16211,0.02148 0.16211,0.01172 0.16407,0.0039 0.16211,-0.0039 0.16406,-0.01172 0.16211,-0.02148 0.16211,-0.02734 0.16211,-0.03516 0.16211,-0.04492 0.16015,-0.05078 0.16211,-0.06055 0.1582,-0.06641 0.15821,-0.07617 0.1582,-0.08398 0.15625,-0.08984 0.15625,-0.09766 0.1543,-0.107422 0.15234,-0.113281 0.15234,-0.121094 0.14844,-0.128906 0.14844,-0.134766 0.14648,-0.144531 0.14453,-0.148438 0.14454,-0.158203 0.14062,-0.164062 0.13867,-0.171875 0.13672,-0.177735 0.13477,-0.183593 0.13086,-0.191407 0.13086,-0.197265 0.12695,-0.203125 0.125,-0.210938 0.12109,-0.214844 0.11914,-0.222656 0.11719,-0.228515 0.11524,-0.232422 0.10937,-0.240235 0.10938,-0.24414 0.10351,-0.248047 0.10352,-0.255859 0.0976,-0.259766 0.0957,-0.263672 0.0918,-0.269531 0.0899,-0.273438 0.0859,-0.277343 0.082,-0.28125 0.0781,-0.285157 0.0742,-0.289062 0.0723,-0.294922 0.0684,-0.294922 0.0645,-0.300781 0.0605,-0.302735 0.0566,-0.304687 0.0527,-0.308594 0.0488,-0.310547 0.0449,-0.314453 0.043,-0.314453 0.0371,-0.318359 0.0332,-0.31836 0.0293,-0.320312 0.0273,-0.322266 0.0215,-0.322266 0.0176,-0.324218 0.0137,-0.326172 0.01,-0.324219 0.006,-0.326172 0.002,-0.326172 -0.002,-0.326171 -0.006,-0.326172 -0.01,-0.326172 -0.0137,-0.324219 -0.0176,-0.324219 -0.0215,-0.322265 -0.0273,-0.322266 -0.0293,-0.320313 -0.0332,-0.320312 -0.0371,-0.316406 -0.043,-0.316406 -0.0449,-0.3125 -0.0488,-0.310547 -0.0527,-0.308594 -0.0566,-0.306641 -0.0605,-0.302734 -0.0645,-0.298828 -0.0684,-0.296875 -0.0723,-0.292969 -0.0742,-0.289062 -0.0781,-0.28711 -0.082,-0.28125 -0.0859,-0.277344 -0.0899,-0.273437 -0.0918,-0.269531 -0.0957,-0.263672 -0.0976,-0.259766 -0.10352,-0.253906 -0.10351,-0.25 -0.10938,-0.244141 -0.10937,-0.238281 -0.11524,-0.234375 -0.11719,-0.226563 -0.11914,-0.222656 -0.12109,-0.216797 -0.125,-0.208984 -0.12695,-0.203125 -0.13086,-0.199219 -0.13086,-0.189453 -0.13477,-0.185547 -0.13672,-0.177734 -0.13867,-0.171875 -0.14062,-0.164063 -0.14454,-0.15625 -0.14453,-0.15039 -0.14648,-0.142578 -0.14844,-0.136719 -0.14844,-0.128906 -0.15234,-0.121094 -0.15234,-0.113281 -0.1543,-0.105469 -0.15625,-0.09766 -0.15625,-0.0918 -0.1582,-0.08398 -0.15821,-0.07422 -0.1582,-0.06836 -0.16211,-0.05859 -0.16015,-0.05273 -0.16211,-0.04297 -0.16211,-0.03711 -0.16211,-0.02734 -0.16211,-0.01953 -0.16406,-0.01172 -0.16211,-0.0039 z m 0,2.65625 0.0976,0.0039 0.0977,0.0098 0.0976,0.01563 0.0977,0.02148 0.0977,0.0293 0.0957,0.03516 0.0977,0.04102 0.0957,0.04883 0.0957,0.05273 0.0957,0.06055 0.0937,0.06641 0.0937,0.07422 0.0937,0.07813 0.0937,0.08398 0.0898,0.0918 0.0918,0.0957 0.0898,0.103515 0.0898,0.109375 0.0879,0.113282 0.0859,0.121093 0.0859,0.125 0.084,0.132813 0.084,0.136719 0.082,0.140625 0.0801,0.148437 0.0801,0.152344 0.0781,0.158203 0.0762,0.164062 0.0742,0.167969 0.0742,0.171875 0.0703,0.177735 0.0703,0.18164 0.0684,0.1875 0.0664,0.191407 0.0645,0.195312 0.0645,0.199219 0.0605,0.203125 0.0586,0.208984 0.0586,0.210938 0.0547,0.214843 0.0527,0.21875 0.0527,0.222657 0.0488,0.224609 0.0469,0.228516 0.0449,0.232421 0.043,0.234376 0.041,0.236328 0.0391,0.240234 0.0352,0.242188 0.0351,0.24414 0.0312,0.248047 0.0293,0.248047 0.0273,0.25 0.0254,0.251953 0.0215,0.253906 0.0215,0.25586 0.0176,0.255859 0.0156,0.257812 0.0137,0.259766 0.01,0.257813 0.008,0.259765 0.006,0.261719 0.004,0.259766 0.002,0.261718 -0.002,0.259766 -0.004,0.261719 -0.006,0.259765 -0.008,0.259766 -0.01,0.259766 -0.0137,0.257812 -0.0156,0.257813 -0.0176,0.257812 -0.0215,0.253906 -0.0215,0.253907 -0.0254,0.251953 -0.0273,0.251953 -0.0293,0.248047 -0.0312,0.246094 -0.0351,0.24414 -0.0352,0.242188 L 200.3418,38 l -0.041,0.238281 -0.043,0.234375 -0.0449,0.230469 -0.0469,0.228516 -0.0488,0.226562 -0.0527,0.220703 -0.0527,0.21875 -0.0547,0.216797 -0.0586,0.210938 -0.0586,0.207031 -0.0605,0.203125 -0.0645,0.201172 -0.0645,0.195312 -0.0664,0.191407 -0.0684,0.185546 -0.0703,0.181641 -0.0703,0.177734 -0.0742,0.173829 -0.0742,0.167968 -0.0762,0.16211 -0.0781,0.158203 -0.0801,0.152343 -0.0801,0.148438 -0.082,0.142578 -0.084,0.136719 -0.084,0.130859 -0.0859,0.126953 -0.0859,0.119141 -0.0879,0.115234 -0.0898,0.107422 -0.0898,0.103516 -0.0918,0.09766 -0.0898,0.08984 -0.0937,0.08594 -0.0937,0.07813 -0.0937,0.07227 -0.0937,0.06641 -0.0957,0.06055 -0.0957,0.05469 -0.0957,0.04687 -0.0977,0.04102 -0.0957,0.03516 -0.0977,0.0293 -0.0977,0.02344 -0.0976,0.01563 -0.0977,0.0098 -0.0976,0.002 -0.0977,-0.002 -0.0977,-0.0098 -0.0976,-0.01563 -0.0977,-0.02344 -0.0977,-0.0293 -0.0976,-0.03516 -0.0957,-0.04102 -0.0957,-0.04687 -0.0957,-0.05469 -0.0957,-0.06055 -0.0937,-0.06641 -0.0957,-0.07227 -0.0918,-0.07813 -0.0937,-0.08594 -0.0918,-0.08984 -0.0898,-0.09766 -0.0898,-0.103516 -0.0898,-0.107422 -0.0879,-0.115234 -0.0859,-0.119141 -0.0859,-0.126953 -0.084,-0.130859 -0.084,-0.136719 -0.082,-0.142578 -0.0801,-0.148438 -0.0801,-0.152343 -0.0781,-0.158203 -0.0762,-0.16211 -0.0742,-0.167968 -0.0742,-0.173829 -0.0703,-0.177734 -0.0703,-0.181641 -0.0684,-0.185546 -0.0664,-0.191407 -0.0664,-0.195312 -0.0625,-0.201172 -0.0605,-0.203125 -0.0586,-0.207031 -0.0586,-0.210938 -0.0547,-0.216797 -0.0527,-0.21875 -0.0527,-0.220703 -0.0488,-0.226562 -0.0469,-0.228516 -0.0449,-0.230469 -0.043,-0.234375 L 193.0534,38 l -0.0391,-0.240234 -0.0351,-0.242188 -0.0352,-0.24414 -0.0312,-0.246094 -0.0293,-0.248047 -0.0273,-0.251953 -0.0254,-0.251953 -0.0215,-0.253907 -0.0215,-0.253906 -0.0176,-0.257812 -0.0156,-0.257813 -0.0137,-0.257812 -0.01,-0.259766 -0.008,-0.259766 -0.008,-0.259765 -0.002,-0.261719 -0.002,-0.259766 0.002,-0.261718 0.002,-0.259766 0.008,-0.261719 0.008,-0.259765 0.01,-0.257813 0.0137,-0.259766 0.0156,-0.257812 0.0176,-0.255859 0.0215,-0.25586 0.0215,-0.253906 0.0254,-0.251953 0.0273,-0.25 0.0293,-0.248047 0.0312,-0.248047 0.0352,-0.24414 0.0351,-0.242188 0.0391,-0.240234 0.041,-0.236328 0.043,-0.234376 0.0449,-0.232421 0.0469,-0.228516 0.0488,-0.224609 0.0527,-0.222657 0.0527,-0.21875 0.0547,-0.214843 0.0586,-0.210938 0.0586,-0.208984 0.0605,-0.203125 0.0625,-0.199219 0.0664,-0.195312 0.0664,-0.191407 0.0684,-0.1875 0.0703,-0.18164 0.0703,-0.177735 0.0742,-0.171875 0.0742,-0.167969 0.0762,-0.164062 0.0781,-0.158203 0.0801,-0.152344 0.0801,-0.148437 0.082,-0.140625 0.084,-0.136719 0.084,-0.132813 0.0859,-0.125 0.0859,-0.121093 0.0879,-0.113282 0.0898,-0.109375 0.0898,-0.103515 0.0898,-0.0957 0.0918,-0.0918 0.0937,-0.08398 0.0918,-0.07813 0.0957,-0.07422 0.0937,-0.06641 0.0957,-0.06055 0.0957,-0.05273 0.0957,-0.04883 0.0957,-0.04102 0.0976,-0.03516 0.0977,-0.0293 0.0977,-0.02148 0.0976,-0.01563 0.0977,-0.0098 0.0977,-0.0039 z"
     transform="matrix(0.2822222,0,0,0.28222222,0,-15)"
     id="path32"
     inkscape:connector-curvature="0" />
  <path
     inkscape:connector-curvature="0"
     id="path36"
     style="fill:#ffffff;stroke:#000000;stroke-width:0"
     d="m 50.4189,-8.9249993 c 0,-0.2071067 -0.167893,-0.3749999 -0.375,-0.3749999 -0.103553,0 -0.197303,0.041973 -0.265165,0.1098349 l -1.875,1.8749998 0,0 c -0.06786,0.067862 -0.109835,0.1616116 -0.109835,0.265165 0,0.2071068 0.167893,0.375 0.375,0.375 0.103554,0 0.197304,-0.041973 0.265165,-0.109835 l 1.234835,-1.2348348 0,5.8446693 c 0,0.2071068 0.167893,0.375 0.375,0.375 0.207107,0 0.375,-0.1678932 0.375,-0.375 z" />
  <path
     inkscape:connector-curvature="0"
     id="path40"
     style="stroke:#000000;stroke-width:0"
     d="m 58.434,-15 0,15" />
</svg>
