<?xml version="1.0" encoding="UTF-8" standalone="no"?>
<!-- Created with Inkscape (http://www.inkscape.org/) -->

<svg
   xmlns:dc="http://purl.org/dc/elements/1.1/"
   xmlns:cc="http://creativecommons.org/ns#"
   xmlns:rdf="http://www.w3.org/1999/02/22-rdf-syntax-ns#"
   xmlns:svg="http://www.w3.org/2000/svg"
   xmlns="http://www.w3.org/2000/svg"
   xmlns:sodipodi="http://sodipodi.sourceforge.net/DTD/sodipodi-0.dtd"
   xmlns:inkscape="http://www.inkscape.org/namespaces/inkscape"
   width="214.34111mm"
   height="11.541111mm"
   viewBox="0 0 759.47637 40.8937"
   id="svg2"
   version="1.1"
   inkscape:version="0.91 r13725"
   sodipodi:docname="lower_housing.svg"
   inkscape:export-filename="/Users/mwu/Documents/Curta/Release Files/lower_housing.png"
   inkscape:export-xdpi="440"
   inkscape:export-ydpi="440">
  <defs
     id="defs4">
    <marker
       style="overflow:visible"
       refY="0"
       refX="0"
       orient="auto"
       id="DistanceX">
      <path
         id="path4162"
         style="stroke:#000000;stroke-width:0.5"
         d="M 3,-3 -3,3 M 0,-5 0,5"
         inkscape:connector-curvature="0" />
    </marker>
    <pattern
       y="0"
       x="0"
       width="8"
       patternUnits="userSpaceOnUse"
       id="Hatch"
       height="8">
      <path
         id="path4165"
         stroke-width="0.25"
         stroke="#000000"
         linecap="square"
         d="M8 4 l-4,4" />
      <path
         id="path4167"
         stroke-width="0.25"
         stroke="#000000"
         linecap="square"
         d="M6 2 l-4,4" />
      <path
         id="path4169"
         stroke-width="0.25"
         stroke="#000000"
         linecap="square"
         d="M4 0 l-4,4" />
    </pattern>
    <symbol
       id="*Model_Space" />
    <symbol
       id="*Paper_Space" />
  </defs>
  <sodipodi:namedview
     id="base"
     pagecolor="#ffffff"
     bordercolor="#666666"
     borderopacity="1.0"
     inkscape:pageopacity="0.0"
     inkscape:pageshadow="2"
     inkscape:zoom="1.52"
     inkscape:cx="304.24861"
     inkscape:cy="-20.496419"
     inkscape:document-units="px"
     inkscape:current-layer="layer1"
     showgrid="false"
     fit-margin-top="0"
     fit-margin-left="0"
     fit-margin-right="0"
     fit-margin-bottom="0"
     inkscape:window-width="1680"
     inkscape:window-height="1005"
     inkscape:window-x="0"
     inkscape:window-y="1"
     inkscape:window-maximized="1" />
  <metadata
     id="metadata7">
    <rdf:RDF>
      <cc:Work
         rdf:about="">
        <dc:format>image/svg+xml</dc:format>
        <dc:type
           rdf:resource="http://purl.org/dc/dcmitype/StillImage" />
        <dc:title />
      </cc:Work>
    </rdf:RDF>
  </metadata>
  <g
     inkscape:label="Layer 1"
     inkscape:groupmode="layer"
     id="layer1"
     transform="translate(-8.833235,-69.05821)">
    <g
       inkscape:label="0"
       id="g4173"
       transform="translate(93.413944,-953.99889)"
       style="stroke:#000000;stroke-opacity:1">
      <path
         inkscape:connector-curvature="0"
         d="m -84.330709,1063.7008 0,-40.3937"
         style="fill:none;stroke:#000000;stroke-width:0.5;stroke-opacity:1"
         id="path4175" />
      <path
         inkscape:connector-curvature="0"
         d="m -84.330709,1023.3071 758.976379,0"
         style="fill:none;stroke:#000000;stroke-width:0.5;stroke-opacity:1"
         id="path4177" />
      <path
         inkscape:connector-curvature="0"
         d="m 674.64567,1023.3071 0,40.3937"
         style="fill:none;stroke:#000000;stroke-width:0.5;stroke-opacity:1"
         id="path4179" />
      <path
         inkscape:connector-curvature="0"
         d="m 674.64567,1063.7008 -758.976379,0"
         style="fill:none;stroke:#000000;stroke-width:0.5;stroke-opacity:1"
         id="path4181" />
    </g>
    <path
       style="fill:#000000;stroke:none;stroke-width:0.5;fill-opacity:1"
       d="M 253.12891 11.720703 A 3.069745 3.069745 0 0 0 252.02734 11.888672 A 3.274102 3.274102 0 0 0 251.54102 12.095703 A 3.765102 3.765102 0 0 0 251.10352 12.357422 A 4.324603 4.324603 0 0 0 250.66211 12.703125 A 5.071919 5.071919 0 0 0 250.17969 13.1875 A 6.134932 6.134932 0 0 0 249.75391 13.726562 A 6.225762 6.225762 0 0 0 248.59961 17.335938 L 248.59961 23.818359 A 6.225762 6.225762 0 0 0 249.75391 27.427734 A 6.134932 6.134932 0 0 0 250.17969 27.96875 A 5.071919 5.071919 0 0 0 250.66211 28.451172 A 4.324603 4.324603 0 0 0 251.10352 28.798828 A 3.765102 3.765102 0 0 0 251.54102 29.060547 A 3.274102 3.274102 0 0 0 252.02734 29.267578 A 3.069745 3.069745 0 0 0 254.03125 29.267578 A 3.274102 3.274102 0 0 0 254.51758 29.060547 A 3.765102 3.765102 0 0 0 254.95508 28.798828 A 4.324603 4.324603 0 0 0 255.39648 28.451172 A 5.071919 5.071919 0 0 0 255.87891 27.96875 A 6.134932 6.134932 0 0 0 256.30469 27.427734 A 6.225761 6.225761 0 0 0 255.66602 19.447266 A 3.702543 3.702543 0 0 0 250.39258 19.447266 A 6.236305 6.236305 0 0 0 250.37305 19.46875 L 250.37305 17.337891 A 4.454076 4.454076 0 0 1 251.19727 14.755859 L 252.07812 13.837891 L 253.0293 13.492188 L 253.98047 13.837891 L 254.86133 14.755859 A 4.454108 4.454108 0 0 1 255.5957 16.445312 A 0.88583108 0.88583108 0 1 0 257.33203 16.089844 L 257.33203 16.087891 A 6.225762 6.225762 0 0 0 256.30469 13.726562 A 6.134932 6.134932 0 0 0 255.87891 13.1875 A 5.071919 5.071919 0 0 0 255.39648 12.703125 A 4.324603 4.324603 0 0 0 254.95508 12.357422 A 3.765102 3.765102 0 0 0 254.51758 12.095703 A 3.274102 3.274102 0 0 0 254.03125 11.888672 A 3.069745 3.069745 0 0 0 253.12891 11.720703 z M 253.04492 20.117188 A 1.93089 1.93089 0 0 1 254.4043 20.691406 A 4.454108 4.454108 0 0 1 254.4043 26.945312 A 1.93089 1.93089 0 0 1 251.6543 26.945312 A 4.454108 4.454108 0 0 1 251.6543 20.691406 A 1.93089 1.93089 0 0 1 253.04492 20.117188 z "
       transform="translate(8.833235,69.05821)"
       id="path4185" />
    <path
       id="path4189"
       style="fill:#000000;stroke:none;stroke-width:0.5;fill-opacity:1"
       d="m 341.65803,91.85061 a 9.535759,9.535759 0 0 0 0.68767,3.5555 6.375283,6.375283 0 0 0 0.54989,1.051 5.325019,5.325019 0 0 0 0.47117,0.6363 4.580601,4.580601 0 0 0 0.42677,0.4407 4.019657,4.019657 0 0 0 0.40783,0.3279 3.577443,3.577443 0 0 0 0.41584,0.2557 3.172411,3.172411 0 0 0 0.47322,0.2062 3.000095,3.000095 0 0 0 1.9935,0 3.172411,3.172411 0 0 0 0.47322,-0.2062 3.577443,3.577443 0 0 0 0.41584,-0.2557 4.019657,4.019657 0 0 0 0.40782,-0.3279 4.580601,4.580601 0 0 0 0.42677,-0.4407 5.325019,5.325019 0 0 0 0.47117,-0.6363 6.375283,6.375283 0 0 0 0.54989,-1.051 9.535759,9.535759 0 0 0 0,-7.1111 6.375283,6.375283 0 0 0 -0.54989,-1.0509 5.325019,5.325019 0 0 0 -0.47117,-0.6364 4.580601,4.580601 0 0 0 -0.42677,-0.4406 4.019657,4.019657 0 0 0 -0.40782,-0.3279 3.577443,3.577443 0 0 0 -0.41584,-0.2557 3.172411,3.172411 0 0 0 -0.47322,-0.2062 3.000095,3.000095 0 0 0 -1.9935,0 3.172411,3.172411 0 0 0 -0.47322,0.2062 3.577233,3.577233 0 0 0 -0.30169,0.178 l 0,-3.2121 4.42914,0 a 0.885827,0.885827 0 0 0 0,-1.7716 l -5.31496,0 a 0.885827,0.885827 0 0 0 -0.88583,0.8858 l 0,6.2008 a 0.916643,0.916643 0 0 0 1.71181,0.456 4.050735,4.050735 0 0 1 0.15979,-0.2571 3.099382,3.099382 0 0 1 0.28885,-0.3732 2.518386,2.518386 0 0 1 0.24093,-0.2388 2.122195,2.122195 0 0 1 0.21733,-0.1684 1.831696,1.831696 0 0 1 0.21235,-0.1261 1.580971,1.580971 0 0 1 0.23381,-0.099 1.477496,1.477496 0 0 1 0.95687,0 1.580971,1.580971 0 0 1 0.23382,0.099 1.831696,1.831696 0 0 1 0.21235,0.1261 2.122195,2.122195 0 0 1 0.21733,0.1684 2.518386,2.518386 0 0 1 0.24093,0.2388 3.099382,3.099382 0 0 1 0.28884,0.3732 4.051705,4.051705 0 0 1 0.38318,0.6979 8.220683,8.220683 0 0 1 0,6.1788 4.051705,4.051705 0 0 1 -0.38318,0.6979 3.099382,3.099382 0 0 1 -0.28884,0.3731 2.518386,2.518386 0 0 1 -0.24093,0.2389 2.122195,2.122195 0 0 1 -0.21733,0.1683 1.831696,1.831696 0 0 1 -0.21235,0.1262 1.580971,1.580971 0 0 1 -0.23382,0.099 1.477496,1.477496 0 0 1 -0.95687,0 1.580971,1.580971 0 0 1 -0.23381,-0.099 1.831696,1.831696 0 0 1 -0.21235,-0.1262 2.122195,2.122195 0 0 1 -0.21733,-0.1683 2.518386,2.518386 0 0 1 -0.24093,-0.2389 3.099382,3.099382 0 0 1 -0.28885,-0.3731 4.051705,4.051705 0 0 1 -0.38317,-0.6979 8.220683,8.220683 0 0 1 -0.6026,-3.0894 0.88583,0.88583 0 0 0 -1.77166,0 z"
       inkscape:connector-curvature="0" />
    <path
       id="path4191"
       style="fill:#000000;stroke:none;stroke-width:0.5;fill-opacity:1"
       d="m 514.53599,89.63601 a 0.885827,0.885827 0 0 1 0,-1.7716 1.862785,1.862785 0 0 0 0.63979,-0.1134 1.9238,1.9238 0 0 0 0.28673,-0.1304 2.059227,2.059227 0 0 0 0.23705,-0.1526 2.191839,2.191839 0 0 0 0.21623,-0.1825 2.341039,2.341039 0 0 0 0.20721,-0.2251 2.512082,2.512082 0 0 0 0.20498,-0.2921 2.712472,2.712472 0 0 0 0.20773,-0.4196 3.141711,3.141711 0 0 0 0,-2.2836 2.712472,2.712472 0 0 0 -0.20773,-0.4196 2.512082,2.512082 0 0 0 -0.20498,-0.2921 2.341039,2.341039 0 0 0 -0.20721,-0.2251 2.191839,2.191839 0 0 0 -0.21623,-0.1825 2.059227,2.059227 0 0 0 -0.23705,-0.1526 1.9238,1.9238 0 0 0 -0.28673,-0.1305 1.862785,1.862785 0 0 0 -1.27959,0 1.9238,1.9238 0 0 0 -0.28673,0.1305 2.059227,2.059227 0 0 0 -0.23705,0.1526 2.191839,2.191839 0 0 0 -0.21623,0.1825 2.341039,2.341039 0 0 0 -0.2072,0.2251 2.512082,2.512082 0 0 0 -0.20499,0.2921 2.712458,2.712458 0 0 0 -0.20528,0.4134 0.885827,0.885827 0 1 1 -1.616,-0.7226 4.514031,4.514031 0 0 1 0.28474,-0.5665 4.324413,4.324413 0 0 1 0.34168,-0.496 4.151795,4.151795 0 0 1 0.35906,-0.3974 3.992441,3.992441 0 0 1 0.38796,-0.3333 3.843357,3.843357 0 0 1 0.43887,-0.2875 3.683168,3.683168 0 0 1 0.54624,-0.2527 3.608986,3.608986 0 0 1 2.50946,0 3.683168,3.683168 0 0 1 0.54624,0.2527 3.843357,3.843357 0 0 1 0.43886,0.2875 3.992441,3.992441 0 0 1 0.38797,0.3333 4.151795,4.151795 0 0 1 0.35905,0.3974 4.324413,4.324413 0 0 1 0.34168,0.496 4.51414,4.51414 0 0 1 0.33146,0.6822 4.882998,4.882998 0 0 1 0,3.5097 4.51414,4.51414 0 0 1 -0.33146,0.6822 4.324413,4.324413 0 0 1 -0.34168,0.4961 4.151795,4.151795 0 0 1 -0.35905,0.3974 3.992366,3.992366 0 0 1 -0.20869,0.1898 4.383602,4.383602 0 0 1 0.3405,0.2949 4.682077,4.682077 0 0 1 0.41441,0.4503 5.024164,5.024164 0 0 1 0.40997,0.5841 5.424944,5.424944 0 0 1 0.41546,0.8392 6.283422,6.283422 0 0 1 0,4.5673 5.424944,5.424944 0 0 1 -0.41546,0.8391 5.024164,5.024164 0 0 1 -0.40997,0.5842 4.682077,4.682077 0 0 1 -0.41441,0.4503 4.383677,4.383677 0 0 1 -0.43246,0.3649 4.118454,4.118454 0 0 1 -0.4741,0.3053 3.847599,3.847599 0 0 1 -0.57346,0.2608 3.72557,3.72557 0 0 1 -2.55918,0 3.847599,3.847599 0 0 1 -0.57346,-0.2608 4.118454,4.118454 0 0 1 -0.4741,-0.3053 4.383677,4.383677 0 0 1 -0.43247,-0.3649 4.682077,4.682077 0 0 1 -0.4144,-0.4503 5.024164,5.024164 0 0 1 -0.40997,-0.5842 5.424605,5.424605 0 0 1 -0.19971,-0.3599 0.885827,0.885827 0 0 1 1.5262,-0.8934 3.557026,3.557026 0 0 0 0.21207,0.3927 3.138965,3.138965 0 0 0 0.26685,0.3706 2.812082,2.812082 0 0 0 0.25577,0.2711 2.547046,2.547046 0 0 0 0.25532,0.2104 2.325653,2.325653 0 0 0 0.26955,0.1697 2.112302,2.112302 0 0 0 0.31559,0.1405 2.019096,2.019096 0 0 0 1.3647,0 2.112302,2.112302 0 0 0 0.31558,-0.1405 2.325653,2.325653 0 0 0 0.26955,-0.1697 2.547046,2.547046 0 0 0 0.25532,-0.2104 2.812082,2.812082 0 0 0 0.25578,-0.2711 3.138965,3.138965 0 0 0 0.26684,-0.3706 3.557427,3.557427 0 0 0 0.28852,-0.5678 4.59859,4.59859 0 0 0 0,-3.3888 3.557427,3.557427 0 0 0 -0.28852,-0.5677 3.138965,3.138965 0 0 0 -0.26684,-0.3706 2.812082,2.812082 0 0 0 -0.25578,-0.2711 2.547046,2.547046 0 0 0 -0.25532,-0.2105 2.325653,2.325653 0 0 0 -0.26955,-0.1697 2.112302,2.112302 0 0 0 -0.31558,-0.1405 2.019096,2.019096 0 0 0 -0.68235,-0.1188 l 0,0 z"
       inkscape:connector-curvature="0" />
    <path
       id="path4193"
       style="fill:#000000;stroke:none;stroke-width:0.5;fill-opacity:1"
       d="m 594.33126,97.48091 a 0.885827,0.885827 0 0 0 0.88583,0.8858 l 7.08661,0 a 0.885827,0.885827 0 0 0 0,-1.7716 l -6.20078,0 0,-1.6519 a 1.771653,1.771653 0 0 1 0.5189,-1.2527 l 5.22721,-5.2272 a 4.576771,4.576771 0 1 0 -7.4469,-5.03 0.8858272,0.8858272 0 0 0 1.62992,0.6943 2.805118,2.805118 0 1 1 4.56423,3.0829 l -5.22721,5.2272 a 3.543307,3.543307 0 0 0 -1.03781,2.5055 l 0,2.5377 z"
       inkscape:connector-curvature="0" />
    <path
       style="fill:#000000;stroke:none;stroke-width:0.5;fill-opacity:1"
       d="M 422.27344 11.720703 A 0.949426 0.949426 0 0 0 421.47852 12.193359 L 416.35742 21.064453 A 1.447418 1.447418 0 0 0 417.61133 23.234375 L 421.47852 23.234375 L 421.47852 28.550781 A 0.885827 0.885827 0 0 0 423.25 28.550781 L 423.25 23.234375 L 424.13672 23.234375 A 0.88585 0.88585 0 0 0 424.13672 21.462891 L 423.25 21.462891 L 423.25 12.669922 A 0.949426 0.949426 0 0 0 422.27344 11.720703 z M 421.47852 15.738281 L 421.47852 21.462891 L 418.17188 21.462891 L 421.47852 15.738281 z "
       transform="translate(8.833235,69.05821)"
       id="path4195" />
    <path
       id="path4199"
       style="fill:#000000;stroke:none;stroke-width:0.5;fill-opacity:1"
       d="m 181.24534,80.77781 a 1.286318,1.286318 0 0 1 1.19124,1.7716 40.97539,40.97539 0 0 0 -3.02657,15.0591 0.885827,0.885827 0 0 1 -1.77166,0 38.977274,38.977274 0 0 1 3.02658,-15.0591 l -6.05315,0 a 0.885827,0.885827 0 0 1 0,-1.7716 l 6.63356,0 z"
       inkscape:connector-curvature="0" />
    <path
       style="fill:#000000;stroke:none;stroke-width:0.5;fill-opacity:1"
       d="M 84.417969 11.722656 A 3.608986 3.608986 0 0 0 83.326172 11.945312 A 3.683168 3.683168 0 0 0 82.779297 12.197266 A 3.843357 3.843357 0 0 0 82.341797 12.484375 A 3.992441 3.992441 0 0 0 81.953125 12.818359 A 4.151795 4.151795 0 0 0 81.59375 13.214844 A 4.324413 4.324413 0 0 0 81.251953 13.710938 A 4.51414 4.51414 0 0 0 80.919922 14.394531 A 4.882998 4.882998 0 0 0 80.919922 17.904297 A 4.51414 4.51414 0 0 0 81.251953 18.585938 A 4.324413 4.324413 0 0 0 81.59375 19.082031 A 4.151795 4.151795 0 0 0 81.953125 19.478516 A 3.992366 3.992366 0 0 0 82.162109 19.669922 A 4.383602 4.383602 0 0 0 81.820312 19.964844 A 4.682077 4.682077 0 0 0 81.40625 20.414062 A 5.024164 5.024164 0 0 0 80.996094 20.998047 A 5.424944 5.424944 0 0 0 80.582031 21.837891 A 6.283422 6.283422 0 0 0 80.582031 26.404297 A 5.424944 5.424944 0 0 0 80.996094 27.244141 A 5.024164 5.024164 0 0 0 81.40625 27.828125 A 4.682077 4.682077 0 0 0 81.820312 28.279297 A 4.383677 4.383677 0 0 0 82.253906 28.642578 A 4.118454 4.118454 0 0 0 82.728516 28.949219 A 3.847599 3.847599 0 0 0 83.300781 29.208984 A 3.72557 3.72557 0 0 0 85.859375 29.208984 A 3.847599 3.847599 0 0 0 86.433594 28.949219 A 4.118454 4.118454 0 0 0 86.908203 28.642578 A 4.383677 4.383677 0 0 0 87.339844 28.279297 A 4.682077 4.682077 0 0 0 87.753906 27.828125 A 5.024164 5.024164 0 0 0 88.164062 27.244141 A 5.424944 5.424944 0 0 0 88.580078 26.404297 A 6.283422 6.283422 0 0 0 88.580078 21.837891 A 5.424944 5.424944 0 0 0 88.164062 20.998047 A 5.024164 5.024164 0 0 0 87.753906 20.414062 A 4.682077 4.682077 0 0 0 87.339844 19.964844 A 4.383602 4.383602 0 0 0 87 19.669922 A 3.992366 3.992366 0 0 0 87.208984 19.478516 A 4.151795 4.151795 0 0 0 87.568359 19.082031 A 4.324413 4.324413 0 0 0 87.910156 18.585938 A 4.51414 4.51414 0 0 0 88.240234 17.904297 A 4.882998 4.882998 0 0 0 88.240234 14.394531 A 4.51414 4.51414 0 0 0 87.910156 13.710938 A 4.324413 4.324413 0 0 0 87.568359 13.214844 A 4.151795 4.151795 0 0 0 87.208984 12.818359 A 3.992441 3.992441 0 0 0 86.820312 12.484375 A 3.843357 3.843357 0 0 0 86.380859 12.197266 A 3.683168 3.683168 0 0 0 85.835938 11.945312 A 3.608986 3.608986 0 0 0 84.417969 11.722656 z M 84.580078 13.490234 A 1.862785 1.862785 0 0 1 85.220703 13.605469 A 1.9238 1.9238 0 0 1 85.507812 13.734375 A 2.059227 2.059227 0 0 1 85.744141 13.886719 A 2.191839 2.191839 0 0 1 85.960938 14.070312 A 2.341039 2.341039 0 0 1 86.167969 14.294922 A 2.512082 2.512082 0 0 1 86.373047 14.587891 A 2.712472 2.712472 0 0 1 86.580078 15.007812 A 3.141711 3.141711 0 0 1 86.794922 16.148438 A 3.141711 3.141711 0 0 1 86.580078 17.291016 A 2.712472 2.712472 0 0 1 86.373047 17.710938 A 2.512082 2.512082 0 0 1 86.167969 18.001953 A 2.341039 2.341039 0 0 1 85.960938 18.226562 A 2.191839 2.191839 0 0 1 85.744141 18.410156 A 2.059227 2.059227 0 0 1 85.507812 18.5625 A 1.9238 1.9238 0 0 1 85.220703 18.693359 A 1.862785 1.862785 0 0 1 84.580078 18.806641 A 1.862785 1.862785 0 0 1 83.941406 18.693359 A 1.9238 1.9238 0 0 1 83.654297 18.5625 A 2.059227 2.059227 0 0 1 83.417969 18.410156 A 2.191839 2.191839 0 0 1 83.201172 18.226562 A 2.341039 2.341039 0 0 1 82.994141 18.001953 A 2.512082 2.512082 0 0 1 82.789062 17.710938 A 2.712472 2.712472 0 0 1 82.580078 17.291016 A 3.141711 3.141711 0 0 1 82.365234 16.148438 A 3.141711 3.141711 0 0 1 82.580078 15.007812 A 2.712472 2.712472 0 0 1 82.789062 14.587891 A 2.512082 2.512082 0 0 1 82.994141 14.294922 A 2.341039 2.341039 0 0 1 83.201172 14.070312 A 2.191839 2.191839 0 0 1 83.417969 13.886719 A 2.059227 2.059227 0 0 1 83.654297 13.734375 A 1.9238 1.9238 0 0 1 83.941406 13.605469 A 1.862785 1.862785 0 0 1 84.580078 13.490234 z M 84.580078 20.578125 A 2.019096 2.019096 0 0 1 85.263672 20.697266 A 2.112302 2.112302 0 0 1 85.578125 20.837891 A 2.325653 2.325653 0 0 1 85.847656 21.005859 A 2.547046 2.547046 0 0 1 86.103516 21.216797 A 2.812082 2.812082 0 0 1 86.359375 21.488281 A 3.138965 3.138965 0 0 1 86.626953 21.859375 A 3.557427 3.557427 0 0 1 86.914062 22.425781 A 4.59859 4.59859 0 0 1 87.238281 24.121094 A 4.59859 4.59859 0 0 1 86.914062 25.816406 A 3.557427 3.557427 0 0 1 86.626953 26.382812 A 3.138965 3.138965 0 0 1 86.359375 26.753906 A 2.812082 2.812082 0 0 1 86.103516 27.025391 A 2.547046 2.547046 0 0 1 85.847656 27.236328 A 2.325653 2.325653 0 0 1 85.578125 27.404297 A 2.112302 2.112302 0 0 1 85.263672 27.544922 A 2.019096 2.019096 0 0 1 84.580078 27.664062 A 2.019096 2.019096 0 0 1 83.898438 27.544922 A 2.112302 2.112302 0 0 1 83.582031 27.404297 A 2.325653 2.325653 0 0 1 83.3125 27.236328 A 2.547046 2.547046 0 0 1 83.058594 27.025391 A 2.812082 2.812082 0 0 1 82.802734 26.753906 A 3.138965 3.138965 0 0 1 82.535156 26.382812 A 3.557427 3.557427 0 0 1 82.246094 25.816406 A 4.59859 4.59859 0 0 1 81.923828 24.121094 A 4.59859 4.59859 0 0 1 82.246094 22.425781 A 3.557427 3.557427 0 0 1 82.535156 21.859375 A 3.138965 3.138965 0 0 1 82.802734 21.488281 A 2.812082 2.812082 0 0 1 83.058594 21.216797 A 2.547046 2.547046 0 0 1 83.3125 21.005859 A 2.325653 2.325653 0 0 1 83.582031 20.837891 A 2.112302 2.112302 0 0 1 83.898438 20.697266 A 2.019096 2.019096 0 0 1 84.580078 20.578125 z "
       transform="translate(8.833235,69.05821)"
       id="path4201" />
    <path
       id="path4207"
       style="fill:#000000;stroke:none;stroke-width:0.5;fill-opacity:1"
       d="m 684.75646,81.39701 a 0.885827,0.885827 0 0 0 -1.5122,-0.6264 l -4.42913,4.4291 a 0.88584216,0.88584216 0 0 0 1.25274,1.2528 l 2.91694,-2.917 0,13.8063 a 0.885827,0.885827 0 0 0 1.77165,0 l 0,-15.9448 z"
       inkscape:connector-curvature="0" />
  </g>
</svg>
