<?xml version="1.0" encoding="UTF-8" standalone="no"?>
<!-- 2017-01-24 15:54:56 Generated by QCAD SVG Exporter -->

<svg
   xmlns:dc="http://purl.org/dc/elements/1.1/"
   xmlns:cc="http://creativecommons.org/ns#"
   xmlns:rdf="http://www.w3.org/1999/02/22-rdf-syntax-ns#"
   xmlns:svg="http://www.w3.org/2000/svg"
   xmlns="http://www.w3.org/2000/svg"
   xmlns:sodipodi="http://sodipodi.sourceforge.net/DTD/sodipodi-0.dtd"
   xmlns:inkscape="http://www.inkscape.org/namespaces/inkscape"
   width="59.37599993943646mm"
   height="10.49999998929mm"
   viewBox="-29.68799996971823 0 59.37599993943646 10.49999998929"
   version="1.1"
   style="stroke-linecap:round;stroke-linejoin:round;fill:none"
   id="svg2"
   inkscape:version="0.91 r13725"
   sodipodi:docname="results dial.svg"
   inkscape:export-filename="/Users/mwu/Documents/Curta/Release Files/results dial.png"
   inkscape:export-xdpi="846"
   inkscape:export-ydpi="846">
  <metadata
     id="metadata54">
    <rdf:RDF>
      <cc:Work
         rdf:about="">
        <dc:format>image/svg+xml</dc:format>
        <dc:type
           rdf:resource="http://purl.org/dc/dcmitype/StillImage" />
      </cc:Work>
    </rdf:RDF>
  </metadata>
  <defs
     id="defs52" />
  <sodipodi:namedview
     pagecolor="#ffffff"
     bordercolor="#666666"
     borderopacity="1"
     objecttolerance="10"
     gridtolerance="10"
     guidetolerance="10"
     inkscape:pageopacity="0"
     inkscape:pageshadow="2"
     inkscape:window-width="846"
     inkscape:window-height="497"
     id="namedview50"
     showgrid="false"
     inkscape:zoom="1.5400162"
     inkscape:cx="106.16772"
     inkscape:cy="-7.3713908"
     inkscape:window-x="0"
     inkscape:window-y="0"
     inkscape:window-maximized="0"
     inkscape:current-layer="svg2" />
  <path
     style="fill:#000000;fill-opacity:1;stroke:#000000;stroke-width:0"
     d="M 9.5625 12.167969 C 7.9617332 12.167969 6.5378503 12.924724 5.6308594 14.101562 C 4.7598224 15.323507 4.2480469 16.818828 4.2480469 18.433594 L 4.2480469 26.212891 C 4.2480575 27.827719 4.7599783 29.321288 5.6308594 30.542969 C 6.4524247 31.848731 7.9060856 32.716797 9.5625 32.716797 C 11.218989 32.716797 12.67282 31.848474 13.494141 30.542969 C 14.365174 29.321025 14.876953 27.827656 14.876953 26.212891 C 14.876953 24.168661 14.056865 22.315733 12.726562 20.966797 C 11.920857 20.149806 10.800599 19.642578 9.5625 19.642578 C 8.3244013 19.642578 7.204143 20.149806 6.3984375 20.966797 C 6.3899336 20.975372 6.3815508 20.983542 6.3730469 20.992188 L 6.3730469 18.433594 C 6.3730469 17.278292 6.7401447 16.208115 7.3632812 15.333984 C 7.8830525 14.695749 8.6752241 14.289062 9.5625 14.289062 C 10.449787 14.289062 11.241948 14.695737 11.761719 15.333984 C 12.186689 15.930162 12.493143 16.61811 12.644531 17.361328 L 12.642578 17.363281 C 12.741507 17.848295 13.169683 18.212891 13.683594 18.212891 C 14.270667 18.212891 14.748047 17.735512 14.748047 17.148438 C 14.748047 17.075272 14.740381 17.004234 14.726562 16.935547 L 14.726562 16.933594 C 14.514318 15.893312 14.087669 14.934161 13.494141 14.101562 C 12.587061 12.924643 11.163242 12.167969 9.5625 12.167969 z M 9.5625 21.830078 C 10.195979 21.830078 10.77452 22.068189 11.212891 22.458984 C 12.16463 23.424056 12.751953 24.750384 12.751953 26.212891 C 12.751953 27.675398 12.16463 28.999772 11.212891 29.964844 C 10.77452 30.355635 10.195976 30.59375 9.5625 30.59375 C 8.9290205 30.59375 8.3504802 30.355639 7.9121094 29.964844 C 6.9603701 28.999772 6.3730469 27.675397 6.3730469 26.212891 C 6.3730469 24.750384 6.9603701 23.424056 7.9121094 22.458984 C 8.3504802 22.068192 8.9290241 21.830078 9.5625 21.830078 z "
     transform="matrix(0.28222224,0,0,0.28222222,-29.688002,0)"
     id="path6" />
  <path
     inkscape:connector-curvature="0"
     id="path10"
     style="stroke:#000000;stroke-width:0;fill:#000000;fill-opacity:1"
     d="m 24.9492,7.05 c 0,0.4260853 0.08252,0.8328978 0.232249,1.2048528 l 2.17e-4,-2.41e-4 c 0.05134,0.1250567 0.113896,0.2439515 0.186466,0.355636 l 1.6e-5,-1.32e-5 c 0.04796,0.075838 0.101379,0.1477905 0.159718,0.2153602 l -2e-6,1.8e-6 c 0.04482,0.052906 0.09312,0.1027622 0.144548,0.1492195 l 4e-6,-2.8e-6 c 0.04351,0.039935 0.08962,0.077076 0.138016,0.1111181 l 2e-5,-1.13e-5 c 0.04476,0.031984 0.09175,0.060984 0.140641,0.08668 l 4.4e-5,-1.92e-5 c 0.05113,0.027484 0.10466,0.050919 0.160035,0.069854 l 3.6e-5,-7.8e-6 C 26.21708,9.2797389 26.330774,9.3 26.4492,9.3 c 0.118496,0 0.232255,-0.020285 0.337804,-0.057506 l 1.6e-5,1.25e-5 c 0.05574,-0.019074 0.109229,-0.042499 0.160167,-0.069885 l 2.8e-5,2.68e-5 c 0.04904,-0.025786 0.09602,-0.054775 0.14071,-0.086712 l 1.4e-5,1.5e-5 c 0.04845,-0.034078 0.09455,-0.071213 0.138043,-0.1111373 l 3e-6,3.6e-6 c 0.05143,-0.046463 0.09973,-0.096321 0.144545,-0.1492148 l -10e-7,-2.5e-6 c 0.05836,-0.0676 0.111791,-0.1395737 0.159681,-0.2152988 l 1.2e-5,1.69e-5 c 0.0727,-0.1118978 0.135286,-0.2308717 0.186386,-0.355401 l 1.51e-4,4.109e-4 C 27.866754,7.8825504 27.9492,7.475903 27.9492,7.0499993 c 0,-0.4260853 -0.08252,-0.8328978 -0.232249,-1.2048528 l -2.17e-4,2.41e-4 C 27.665394,5.7203308 27.602838,5.601436 27.530268,5.4897515 l -1.6e-5,1.32e-5 C 27.482282,5.4139267 27.428873,5.3419742 27.370534,5.2744045 l 2e-6,-1.8e-6 c -0.04482,-0.052906 -0.09312,-0.1027622 -0.144548,-0.1492195 l -4e-6,2.8e-6 C 27.182474,5.085251 27.136364,5.04811 27.087968,5.0140679 l -2e-5,1.13e-5 c -0.04476,-0.031984 -0.09176,-0.060983 -0.140641,-0.08668 l -4.4e-5,1.92e-5 c -0.05113,-0.027484 -0.10466,-0.050919 -0.160035,-0.069854 l -3.6e-5,7.7e-6 C 26.68132,4.8202611 26.567626,4.8 26.4492,4.8 c -0.118496,0 -0.232255,0.020285 -0.337804,0.057506 l -1.6e-5,-1.25e-5 c -0.05574,0.019074 -0.109229,0.042499 -0.160167,0.069885 l -2.7e-5,-2.58e-5 c -0.03515,0.018536 -0.0692,0.038693 -0.10208,0.060389 L 25.8492,3.9 l 1.5,0 c 0.165685,0 0.3,-0.1343146 0.3,-0.3 0,-0.1656854 -0.134315,-0.3 -0.3,-0.3 l -1.8,0 c -0.165685,0 -0.3,0.1343146 -0.3,0.3 l 0,2.1 c 0,0.1714493 0.138987,0.3104364 0.310436,0.3104364 0.115213,0 0.215767,-0.062763 0.269326,-0.1559465 l -1.56e-4,-3.049e-4 c 0.01699,-0.029701 0.03507,-0.058706 0.05417,-0.086961 l 1.3e-5,1.96e-5 c 0.02943,-0.04458 0.06218,-0.086783 0.09788,-0.1262585 l -10e-7,-1.9e-6 c 0.02536,-0.028753 0.05262,-0.055783 0.08159,-0.080893 l 4e-6,3.9e-6 c 0.02323,-0.020549 0.0478,-0.039618 0.07356,-0.05706 l 10e-6,1.1e-5 c 0.02288,-0.015804 0.04688,-0.03011 0.07185,-0.042776 l 1.8e-5,1.71e-5 c 0.02527,-0.013168 0.05171,-0.024381 0.07914,-0.033436 l 10e-6,7.2e-6 C 26.337903,5.4094479 26.392448,5.4 26.4492,5.4 c 0.05679,0 0.111366,0.00946 0.162245,0.02689 l 2.1e-5,-4.4e-6 c 0.02741,0.00905 0.05383,0.020261 0.07907,0.033422 l 2.9e-5,-1.22e-5 c 0.02496,0.012662 0.04894,0.026963 0.07182,0.04276 l 1.5e-5,-8.3e-6 c 0.02576,0.017439 0.05032,0.036504 0.07354,0.057049 l 4e-6,-3e-6 c 0.02897,0.02511 0.05624,0.05214 0.08159,0.080893 l -2e-6,1.5e-6 c 0.03571,0.039484 0.06846,0.081697 0.0979,0.1262888 l 10e-6,-8.1e-6 c 0.05067,0.073839 0.0943,0.1528847 0.129934,0.2361694 l 2.88e-4,-3.196e-4 C 27.276908,6.3262978 27.3492,6.6797066 27.3492,7.05 c 0,0.3704474 -0.07235,0.7239961 -0.203695,1.0472862 l -2e-4,-5.444e-4 c -0.03562,0.083232 -0.07924,0.1622287 -0.129882,0.236025 l -8e-6,-1.01e-5 c -0.02943,0.04458 -0.06218,0.086783 -0.09788,0.1262585 l 10e-7,1.9e-6 c -0.02536,0.028753 -0.05262,0.055783 -0.08159,0.080893 l -3e-6,-3.9e-6 c -0.02323,0.020549 -0.0478,0.039618 -0.07356,0.05706 l -1.1e-5,-1.1e-5 c -0.02288,0.015804 -0.04688,0.03011 -0.07185,0.042776 l -1.8e-5,-1.7e-5 c -0.02527,0.013168 -0.05171,0.024381 -0.07914,0.033436 l -9e-6,-7.3e-6 C 26.560497,8.690552 26.505952,8.7 26.4492,8.7 26.39241,8.7 26.337834,8.69054 26.286955,8.67311 l -2.1e-5,4.4e-6 c -0.0274,-0.00905 -0.05383,-0.020261 -0.07907,-0.033422 l -2.9e-5,1.22e-5 c -0.02496,-0.012662 -0.04894,-0.026963 -0.07181,-0.04276 l -1.5e-5,8.3e-6 c -0.02576,-0.017439 -0.05032,-0.036504 -0.07354,-0.057049 l -4e-6,2.9e-6 c -0.02897,-0.02511 -0.05624,-0.05214 -0.08159,-0.080893 l 2e-6,-1.4e-6 c -0.03571,-0.039484 -0.06846,-0.081697 -0.0979,-0.1262888 l -10e-6,8.1e-6 c -0.05067,-0.073839 -0.0943,-0.1528847 -0.129934,-0.2361694 l -2.88e-4,3.196e-4 C 25.621491,7.7737022 25.5492,7.4202934 25.5492,7.05 c 0,-0.1656854 -0.134315,-0.3 -0.3,-0.3 -0.165685,0 -0.3,0.1343146 -0.3,0.3" />
  <path
     inkscape:connector-curvature="0"
     id="path12"
     style="stroke:#000000;stroke-width:0;fill:#000000;fill-opacity:1"
     d="m 14.574,6.3 z m 0,0 c -0.165685,0 -0.3,-0.1343146 -0.3,-0.3 0,-0.1656854 0.134315,-0.3 0.3,-0.3 0,0 0,0 0,0 l 0,0 c 0.07622,0 0.14929,-0.013518 0.216823,-0.038248 l 6e-6,4.7e-6 c 0.03381,-0.012166 0.06622,-0.026988 0.09704,-0.044225 l 9e-6,8.6e-6 c 0.028,-0.015462 0.05478,-0.032762 0.08021,-0.051749 l 3e-6,3.8e-6 c 0.02573,-0.019046 0.05018,-0.039706 0.0732,-0.061837 l 1e-6,4e-7 c 0.02501,-0.023847 0.04846,-0.049311 0.07019,-0.07622 l 0,-4e-7 c 0.02541,-0.031194 0.04866,-0.064218 0.06948,-0.098808 l 4e-6,4.7e-6 c 0.0274,-0.04498 0.05102,-0.092455 0.07041,-0.1418875 l 2.1e-5,5.67e-5 c 0.0469,-0.1200893 0.07261,-0.250594 0.07261,-0.3871031 0,-0.136572 -0.02573,-0.2671342 -0.07254,-0.3869371 l -3e-5,3.29e-5 c -0.01949,-0.049681 -0.0431,-0.097121 -0.07044,-0.1419891 l -4e-6,3.6e-6 c -0.02086,-0.034657 -0.0441,-0.06767 -0.06949,-0.098842 l 0,-3e-7 c -0.02173,-0.026919 -0.04518,-0.052381 -0.07019,-0.076226 l 0,3e-7 c -0.02303,-0.022135 -0.04748,-0.042797 -0.07319,-0.061829 l -5e-6,2.9e-6 c -0.02546,-0.01901 -0.05226,-0.036316 -0.08018,-0.051732 l -1.4e-5,6.2e-6 c -0.03092,-0.017293 -0.06336,-0.032121 -0.09696,-0.044205 l -1.2e-5,3e-6 C 14.723211,3.9135036 14.650183,3.9 14.574,3.9 c -0.07622,0 -0.14929,0.013518 -0.216823,0.038248 l -6e-6,-4.7e-6 c -0.03381,0.012166 -0.06622,0.026988 -0.09704,0.044225 l -9e-6,-8.6e-6 c -0.028,0.015462 -0.05478,0.032762 -0.08021,0.051749 l -3e-6,-3.8e-6 c -0.02573,0.019046 -0.05018,0.039706 -0.0732,0.061837 l -1e-6,-4e-7 c -0.02501,0.023847 -0.04846,0.049311 -0.07019,0.07622 l 0,4e-7 c -0.02541,0.031194 -0.04866,0.064218 -0.06948,0.098808 l -4e-6,-4.8e-6 c -0.02701,0.04435 -0.05035,0.091123 -0.06958,0.1398038 l 1.64e-4,4.211e-4 c -0.04913,0.098653 -0.151002,0.1664306 -0.268699,0.1664306 -0.165685,0 -0.3,-0.1343145 -0.3,-0.3 0,-0.039335 0.0076,-0.076903 0.02133,-0.1113241 l -1.67e-4,-4.217e-4 c 0.02776,-0.066361 0.06006,-0.130348 0.09651,-0.1915723 l 3e-6,5.7e-6 c 0.03475,-0.058696 0.07347,-0.1147577 0.11581,-0.1678121 l -10e-7,-2e-7 c 0.03764,-0.047422 0.07828,-0.092358 0.121632,-0.1345213 l 0,2e-7 c 0.04129,-0.040362 0.08516,-0.078101 0.131339,-0.1129462 l 4e-6,4e-6 c 0.0471,-0.035731 0.09671,-0.068329 0.148508,-0.097483 l 1.1e-5,1e-5 c 0.05881,-0.033363 0.120596,-0.062085 0.184863,-0.085669 l 8e-6,5.8e-6 C 14.281212,3.3268519 14.42447,3.3 14.574,3.3 c 0.149609,0 0.292939,0.02688 0.425425,0.076074 l 1.6e-5,-3.6e-6 c 0.06422,0.023579 0.125954,0.052288 0.18472,0.085631 l 1.5e-5,-7.2e-6 c 0.05178,0.029146 0.101367,0.061734 0.148447,0.097452 l 5e-6,-3e-6 c 0.04617,0.034842 0.09003,0.072576 0.131321,0.1129326 l 0,-10e-8 c 0.04335,0.042167 0.084,0.087107 0.121642,0.1345336 l 0,2e-7 c 0.04235,0.053073 0.08109,0.1091543 0.115842,0.1678726 l 5e-6,-3.9e-6 c 0.04363,0.073223 0.08131,0.1503999 0.112387,0.2308654 l 2.6e-5,-2.84e-5 C 15.884997,4.3898597 15.924,4.590375 15.924,4.8 c 0,0.2097251 -0.03904,0.4103318 -0.110251,0.5949489 l -1.8e-5,-4.91e-5 c -0.03106,0.080405 -0.06873,0.1575252 -0.112338,0.2306961 l -3e-6,-5e-6 c -0.03475,0.058696 -0.07347,0.1147577 -0.11581,0.1678121 l 0,2e-7 c -0.03764,0.047422 -0.07828,0.092358 -0.121631,0.1345213 l 0,-2e-7 c -0.02278,0.022246 -0.04635,0.043694 -0.07066,0.064299 l 4.1e-5,-5.99e-5 c 0.04012,0.03134 0.07859,0.064699 0.115257,0.099922 l 10e-7,-6e-7 c 0.05002,0.047693 0.09693,0.098622 0.140384,0.1524516 l 0,5e-7 c 0.05082,0.062377 0.0973,0.1284245 0.13899,0.197684 l 9e-6,-7.3e-6 c 0.05475,0.089879 0.101996,0.184828 0.140875,0.2839782 l 5.9e-5,-6.59e-5 C 16.022585,6.9659723 16.074,7.2269818 16.074,7.5 c 0,0.2731441 -0.05146,0.5342685 -0.14522,0.7742061 l -4.1e-5,-1.133e-4 c -0.03887,0.099077 -0.0861,0.1939582 -0.140814,0.2837751 l -6e-6,-9.5e-6 c -0.04168,0.069235 -0.08815,0.13526 -0.138953,0.1976166 l 1e-6,8e-7 c -0.04346,0.053825 -0.09036,0.1047507 -0.140376,0.1524401 l 0,-8e-7 c -0.04605,0.044269 -0.09495,0.085595 -0.146399,0.1236745 l -7e-6,-7.7e-6 c -0.05091,0.038005 -0.104493,0.072617 -0.160427,0.1034989 l -1.8e-5,-1.72e-5 c -0.06177,0.03454 -0.126636,0.064198 -0.194083,0.08845 l -1.2e-5,-9.4e-6 C 14.872422,9.2729927 14.726365,9.3 14.574,9.3 14.421552,9.3 14.275419,9.272963 14.140134,9.223424 l -2.5e-5,5.8e-6 C 14.072719,9.1991828 14.0079,9.1695388 13.94618,9.1350188 l -2.8e-5,1.24e-5 c -0.05591,-0.030874 -0.109473,-0.065473 -0.160358,-0.1034644 l -9e-6,5.8e-6 c -0.05144,-0.038075 -0.100333,-0.079395 -0.146376,-0.1236579 l -1e-6,6e-7 c -0.05002,-0.047693 -0.09693,-0.098622 -0.140384,-0.1524515 l 0,-5e-7 c -0.05082,-0.062377 -0.0973,-0.1284246 -0.13899,-0.197684 l -1.1e-5,9.7e-6 c -0.02406,-0.039646 -0.04666,-0.080275 -0.06773,-0.1218116 l 2.43e-4,-2.516e-4 C 13.271826,8.3949698 13.260146,8.3488478 13.260146,8.3 c 0,-0.1656854 0.134315,-0.3 0.3,-0.3 0.103917,0 0.195494,0.052836 0.249331,0.1331085 l -2.37e-4,2.497e-4 c 0.02129,0.046026 0.04533,0.090359 0.07192,0.1328636 l 9e-6,-8.1e-6 c 0.02716,0.044069 0.0574,0.085966 0.09046,0.1254219 l 0,7e-7 c 0.02684,0.032487 0.05579,0.063159 0.08664,0.09181 l 2e-6,-9e-7 c 0.02721,0.02558 0.05608,0.049412 0.08641,0.071308 l 9e-6,-5.2e-6 c 0.02898,0.02118 0.05945,0.04042 0.09117,0.057512 l 2.2e-5,-10e-6 c 0.03406,0.018686 0.06976,0.034662 0.106724,0.04762 l 2e-5,-4.4e-6 C 14.414979,8.68586 14.492838,8.7 14.574,8.7 c 0.08121,0 0.159109,-0.014156 0.231248,-0.040091 l 9e-6,7e-6 c 0.0372,-0.013049 0.07287,-0.029018 0.106811,-0.047641 l 1.4e-5,1.38e-5 c 0.03182,-0.017146 0.06227,-0.03638 0.09121,-0.057532 l 6e-6,6.9e-6 c 0.03036,-0.021915 0.05923,-0.045744 0.08643,-0.071319 l 1e-6,1.1e-6 c 0.03085,-0.028654 0.0598,-0.059327 0.08663,-0.091805 l -10e-7,-9e-7 c 0.03308,-0.039478 0.06333,-0.081388 0.09044,-0.1253825 l 6e-6,8.3e-6 c 0.0381,-0.06067 0.07093,-0.1249241 0.09779,-0.1919929 l 5e-5,1.362e-4 C 15.435246,7.8965027 15.474,7.7027771 15.474,7.5 c 0,-0.2028668 -0.03879,-0.3966741 -0.109259,-0.5741743 l -7.2e-5,7.95e-5 c -0.027,-0.067379 -0.05981,-0.131589 -0.09783,-0.1921254 l -8e-6,6.5e-6 c -0.02716,-0.044069 -0.0574,-0.085966 -0.09046,-0.1254219 l 0,-7e-7 c -0.02684,-0.032487 -0.05579,-0.063159 -0.08664,-0.09181 l -2e-6,9e-7 c -0.02721,-0.02558 -0.05608,-0.049412 -0.08641,-0.071308 l -9e-6,5.2e-6 c -0.02898,-0.02118 -0.05945,-0.04042 -0.09117,-0.057512 l -2.2e-5,9.9e-6 c -0.03406,-0.018686 -0.06976,-0.034661 -0.106724,-0.04762 l -2e-5,4.4e-6 C 14.733021,6.31414 14.655162,6.3 14.574,6.3" />
  <path
     inkscape:connector-curvature="0"
     id="path14"
     style="stroke:#000000;stroke-width:0;fill:#000000;fill-opacity:1"
     d="m 7.1364,9 c 0,0.1656854 0.1343146,0.3 0.3,0.3 l 2.4,0 c 0.165685,0 0.3,-0.1343146 0.3,-0.3 0,-0.1656854 -0.134315,-0.3 -0.3,-0.3 l -2.1,0 0,-0.5594408 c 0,-0.1656855 0.067157,-0.3156855 0.1757359,-0.4242641 l 1.7702796,-1.7702796 0,0 C 9.9629103,5.6655207 10.1364,5.2780207 10.1364,4.85 10.1364,3.9939586 9.4424414,3.3 8.5864,3.3 7.9460881,3.3 7.3964602,3.688264 7.1601902,4.242002 l 1.692e-4,4.23e-4 C 7.1449301,4.2785862 7.1364,4.3183479 7.1364,4.360102 c 0,0.1656855 0.1343146,0.3 0.3,0.3 0.1239313,0 0.2303109,-0.075148 0.2760406,-0.1823229 L 7.7122714,4.477356 C 7.8571642,4.1379102 8.1939987,3.9 8.5864,3.9 c 0.5246705,0 0.95,0.4253295 0.95,0.95 0,0.2623353 -0.1063324,0.4998353 -0.2782486,0.6717514 l -1.7702795,1.7702796 0,0 C 7.2707146,7.5091883 7.1364,7.8091883 7.1364,8.1405592 Z" />
  <path
     style="fill:#000000;fill-opacity:1;stroke:#000000;stroke-width:0"
     d="M 179.92188 11.693359 C 179.50023 11.693359 179.13252 11.921316 178.93555 12.261719 L 172.79102 22.90625 C 172.6428 23.161995 172.55664 23.458641 172.55664 23.775391 C 172.55664 24.734279 173.33408 25.511719 174.29297 25.511719 L 174.29492 25.511719 L 178.93555 25.511719 L 178.93555 31.890625 C 178.93555 32.477699 179.41097 32.953125 179.99805 32.953125 C 180.58512 32.953125 181.0625 32.477699 181.0625 31.890625 L 181.0625 25.511719 L 182.125 25.511719 C 182.71207 25.511719 183.1875 25.036293 183.1875 24.449219 C 183.1875 23.862145 182.71207 23.386719 182.125 23.386719 L 181.0625 23.386719 L 181.0625 12.832031 C 181.0625 12.202807 180.5511 11.693359 179.92188 11.693359 z M 178.93555 16.513672 L 178.93555 23.386719 L 174.96875 23.386719 L 178.93555 16.513672 z "
     transform="matrix(0.28222224,0,0,0.28222222,-29.688002,0)"
     id="path16" />
  <path
     inkscape:connector-curvature="0"
     id="path20"
     style="stroke:#000000;stroke-width:0;fill:#000000;fill-opacity:1"
     d="m -20.005035,3.3 c 0.240594,0 0.435633,0.1950396 0.435633,0.4356332 0,0.058214 -0.01142,0.1137609 -0.03214,0.1645234 l -0.002,-0.00515 C -20.24772,5.4739433 -20.60933,7.1957855 -20.626631,8.999281 L -20.6266,9 c 0,0.1656854 -0.134315,0.3 -0.3,0.3 -0.165685,0 -0.3,-0.1343146 -0.3,-0.3 0,-1.8096731 0.36416,-3.5342921 1.023197,-5.1045748 L -22.2516,3.9 c -0.165685,0 -0.3,-0.1343146 -0.3,-0.3 0,-0.1656854 0.134315,-0.3 0.3,-0.3 z" />
  <path
     style="fill:#000000;fill-opacity:1;stroke:#000000;stroke-width:0"
     d="M 51.640625 11.693359 C 51.110518 11.693359 50.60151 11.788854 50.132812 11.962891 C 49.904518 12.046722 49.686479 12.147629 49.478516 12.265625 C 49.29476 12.369058 49.119884 12.484814 48.953125 12.611328 C 48.78946 12.734834 48.632628 12.868724 48.486328 13.011719 C 48.332726 13.161129 48.189982 13.320278 48.056641 13.488281 C 47.906546 13.676378 47.767516 13.874232 47.644531 14.082031 C 47.489795 14.341745 47.357811 14.616139 47.248047 14.900391 C 46.995593 15.555225 46.857422 16.265047 46.857422 17.007812 C 46.857422 17.750933 46.994133 18.462015 47.246094 19.115234 L 47.248047 19.115234 C 47.358456 19.400995 47.490192 19.674589 47.644531 19.933594 C 47.767803 20.14183 47.906677 20.339399 48.056641 20.527344 C 48.190046 20.695417 48.332719 20.854508 48.486328 21.003906 C 48.567045 21.082731 48.650226 21.15943 48.736328 21.232422 C 48.5941 21.343512 48.458033 21.461135 48.328125 21.585938 C 48.150889 21.754927 47.985974 21.936263 47.832031 22.126953 C 47.651925 22.348017 47.487398 22.581044 47.339844 22.826172 L 47.337891 22.826172 C 47.143717 23.144928 46.977211 23.481719 46.839844 23.832031 C 46.507464 24.683059 46.326172 25.606831 46.326172 26.574219 C 46.326172 27.542052 46.50808 28.467409 46.839844 29.316406 C 46.977962 29.668476 47.144196 30.004305 47.337891 30.322266 C 47.485753 30.567866 47.652067 30.80253 47.832031 31.023438 C 47.986023 31.214198 48.15091 31.395477 48.328125 31.564453 C 48.491294 31.721312 48.665438 31.867085 48.847656 32.001953 C 49.028117 32.13667 49.218143 32.259892 49.416016 32.369141 C 49.635169 32.491686 49.865359 32.596002 50.103516 32.681641 C 50.583435 32.857278 51.100749 32.953125 51.640625 32.953125 C 52.180795 32.953125 52.697208 32.856889 53.175781 32.681641 C 53.415415 32.595428 53.646825 32.491296 53.865234 32.369141 C 54.06366 32.259571 54.253367 32.136513 54.433594 32.001953 C 54.615932 31.866981 54.788027 31.721289 54.951172 31.564453 C 55.128408 31.395462 55.295276 31.214127 55.449219 31.023438 C 55.629325 30.802374 55.793852 30.567393 55.941406 30.322266 C 56.135579 30.00351 56.302086 29.668671 56.439453 29.318359 L 56.441406 29.318359 C 56.773768 28.467334 56.955078 27.541606 56.955078 26.574219 C 56.955078 25.606385 56.77317 24.681028 56.441406 23.832031 C 56.303288 23.479961 56.135101 23.144133 55.941406 22.826172 C 55.793544 22.580571 55.629183 22.34786 55.449219 22.126953 C 55.295227 21.936192 55.128387 21.754913 54.951172 21.585938 C 54.821239 21.461114 54.68508 21.343441 54.542969 21.232422 C 54.629107 21.159401 54.712217 21.082724 54.792969 21.003906 C 54.946571 20.854496 55.091268 20.695347 55.224609 20.527344 C 55.374704 20.339247 55.511781 20.141393 55.634766 19.933594 C 55.789502 19.67388 55.923439 19.399486 56.033203 19.115234 C 56.285664 18.460401 56.423828 17.750579 56.423828 17.007812 C 56.423828 16.264693 56.285164 15.55361 56.033203 14.900391 C 55.922794 14.61463 55.789105 14.341036 55.634766 14.082031 C 55.511494 13.873795 55.374573 13.676226 55.224609 13.488281 C 55.091204 13.320208 54.946578 13.161118 54.792969 13.011719 C 54.646666 12.868704 54.491688 12.734747 54.328125 12.611328 C 54.161164 12.484676 53.986019 12.368771 53.802734 12.265625 C 53.594104 12.147264 53.375389 12.046176 53.148438 11.962891 C 52.678453 11.788481 52.170456 11.693359 51.640625 11.693359 z M 51.640625 13.818359 L 51.705078 13.820312 L 51.771484 13.822266 L 51.835938 13.828125 L 51.900391 13.833984 L 51.964844 13.84375 L 52.029297 13.853516 L 52.09375 13.865234 L 52.158203 13.880859 L 52.222656 13.896484 L 52.285156 13.914062 L 52.349609 13.933594 L 52.412109 13.957031 L 52.474609 13.980469 L 52.535156 14.005859 L 52.595703 14.033203 L 52.65625 14.0625 L 52.716797 14.091797 L 52.777344 14.125 L 52.835938 14.160156 L 52.892578 14.195312 L 52.949219 14.232422 L 53.005859 14.273438 L 53.0625 14.314453 L 53.117188 14.355469 L 53.169922 14.400391 L 53.222656 14.447266 L 53.275391 14.494141 L 53.326172 14.542969 L 53.376953 14.59375 L 53.425781 14.644531 L 53.472656 14.699219 L 53.519531 14.753906 L 53.564453 14.808594 L 53.609375 14.867188 L 53.652344 14.925781 L 53.695312 14.984375 L 53.734375 15.046875 L 53.775391 15.107422 L 53.8125 15.171875 L 53.849609 15.236328 L 53.884766 15.302734 L 53.919922 15.369141 L 53.953125 15.435547 L 53.984375 15.503906 L 54.013672 15.574219 L 54.042969 15.644531 L 54.070312 15.714844 L 54.095703 15.787109 L 54.121094 15.859375 L 54.142578 15.933594 L 54.164062 16.007812 L 54.183594 16.082031 L 54.203125 16.158203 L 54.21875 16.232422 L 54.234375 16.308594 L 54.248047 16.386719 L 54.259766 16.462891 L 54.269531 16.539062 L 54.279297 16.617188 L 54.285156 16.695312 L 54.291016 16.773438 L 54.294922 16.851562 L 54.296875 16.929688 L 54.298828 17.007812 L 54.296875 17.085938 L 54.294922 17.164062 L 54.291016 17.242188 L 54.285156 17.320312 L 54.279297 17.398438 L 54.269531 17.476562 L 54.259766 17.552734 L 54.248047 17.630859 L 54.234375 17.707031 L 54.21875 17.783203 L 54.203125 17.859375 L 54.183594 17.933594 L 54.164062 18.007812 L 54.142578 18.082031 L 54.121094 18.15625 L 54.095703 18.228516 L 54.070312 18.300781 L 54.042969 18.371094 L 54.013672 18.441406 L 53.984375 18.511719 L 53.953125 18.580078 L 53.919922 18.646484 L 53.884766 18.714844 L 53.849609 18.779297 L 53.8125 18.84375 L 53.775391 18.908203 L 53.734375 18.970703 L 53.695312 19.03125 L 53.652344 19.091797 L 53.609375 19.150391 L 53.564453 19.207031 L 53.519531 19.263672 L 53.472656 19.318359 L 53.425781 19.371094 L 53.376953 19.421875 L 53.326172 19.472656 L 53.275391 19.521484 L 53.222656 19.568359 L 53.169922 19.615234 L 53.117188 19.660156 L 53.0625 19.701172 L 53.005859 19.744141 L 52.949219 19.783203 L 52.892578 19.820312 L 52.835938 19.855469 L 52.777344 19.890625 L 52.716797 19.923828 L 52.65625 19.955078 L 52.595703 19.982422 L 52.535156 20.009766 L 52.474609 20.035156 L 52.412109 20.060547 L 52.349609 20.082031 L 52.285156 20.101562 L 52.222656 20.119141 L 52.158203 20.134766 L 52.09375 20.150391 L 52.029297 20.162109 L 51.964844 20.173828 L 51.900391 20.181641 L 51.835938 20.1875 L 51.771484 20.193359 L 51.705078 20.195312 L 51.640625 20.197266 L 51.576172 20.195312 L 51.509766 20.193359 L 51.445312 20.1875 L 51.380859 20.181641 L 51.316406 20.171875 L 51.251953 20.162109 L 51.1875 20.150391 L 51.123047 20.134766 L 51.058594 20.119141 L 50.996094 20.101562 L 50.931641 20.082031 L 50.869141 20.058594 L 50.806641 20.035156 L 50.746094 20.009766 L 50.685547 19.982422 L 50.625 19.955078 L 50.564453 19.923828 L 50.503906 19.890625 L 50.445312 19.855469 L 50.388672 19.820312 L 50.332031 19.783203 L 50.275391 19.742188 L 50.21875 19.701172 L 50.164062 19.660156 L 50.111328 19.615234 L 50.058594 19.568359 L 50.005859 19.521484 L 49.955078 19.472656 L 49.904297 19.421875 L 49.855469 19.371094 L 49.808594 19.318359 L 49.761719 19.263672 L 49.716797 19.207031 L 49.671875 19.150391 L 49.628906 19.091797 L 49.585938 19.03125 L 49.546875 18.970703 L 49.505859 18.908203 L 49.46875 18.84375 L 49.431641 18.779297 L 49.396484 18.714844 L 49.361328 18.646484 L 49.328125 18.580078 L 49.296875 18.511719 L 49.267578 18.441406 L 49.238281 18.371094 L 49.210938 18.300781 L 49.185547 18.228516 L 49.160156 18.15625 L 49.138672 18.082031 L 49.117188 18.007812 L 49.097656 17.933594 L 49.078125 17.859375 L 49.0625 17.783203 L 49.046875 17.707031 L 49.033203 17.630859 L 49.021484 17.552734 L 49.011719 17.476562 L 49.001953 17.398438 L 48.996094 17.320312 L 48.990234 17.242188 L 48.986328 17.164062 L 48.984375 17.085938 L 48.982422 17.007812 L 48.982422 16.929688 L 48.984375 16.851562 L 48.988281 16.773438 L 48.994141 16.695312 L 49.001953 16.617188 L 49.009766 16.539062 L 49.021484 16.462891 L 49.033203 16.384766 L 49.046875 16.308594 L 49.060547 16.232422 L 49.078125 16.158203 L 49.095703 16.082031 L 49.115234 16.007812 L 49.136719 15.933594 L 49.160156 15.859375 L 49.183594 15.787109 L 49.208984 15.714844 L 49.236328 15.644531 L 49.265625 15.574219 L 49.296875 15.503906 L 49.328125 15.435547 L 49.361328 15.369141 L 49.394531 15.300781 L 49.429688 15.236328 L 49.466797 15.171875 L 49.505859 15.107422 L 49.544922 15.044922 L 49.585938 14.984375 L 49.626953 14.925781 L 49.671875 14.867188 L 49.714844 14.808594 L 49.761719 14.751953 L 49.808594 14.697266 L 49.855469 14.644531 L 49.904297 14.59375 L 49.955078 14.542969 L 50.005859 14.494141 L 50.056641 14.447266 L 50.109375 14.400391 L 50.164062 14.355469 L 50.21875 14.314453 L 50.273438 14.273438 L 50.330078 14.232422 L 50.386719 14.195312 L 50.445312 14.160156 L 50.503906 14.125 L 50.5625 14.091797 L 50.623047 14.0625 L 50.683594 14.033203 L 50.744141 14.005859 L 50.806641 13.980469 L 50.869141 13.957031 L 50.931641 13.933594 L 50.994141 13.914062 L 51.058594 13.896484 L 51.121094 13.880859 L 51.185547 13.865234 L 51.25 13.853516 L 51.314453 13.84375 L 51.378906 13.833984 L 51.445312 13.828125 L 51.509766 13.822266 L 51.574219 13.820312 L 51.640625 13.818359 z M 51.640625 22.322266 L 51.71875 22.324219 L 51.796875 22.328125 L 51.875 22.333984 L 51.953125 22.34375 L 52.03125 22.355469 L 52.107422 22.369141 L 52.185547 22.384766 L 52.261719 22.404297 L 52.339844 22.425781 L 52.416016 22.451172 L 52.490234 22.476562 L 52.566406 22.505859 L 52.640625 22.537109 L 52.714844 22.572266 L 52.787109 22.607422 L 52.861328 22.646484 L 52.931641 22.6875 L 53.003906 22.730469 L 53.074219 22.777344 L 53.142578 22.824219 L 53.212891 22.875 L 53.279297 22.927734 L 53.345703 22.982422 L 53.412109 23.039062 L 53.476562 23.097656 L 53.539062 23.160156 L 53.601562 23.222656 L 53.664062 23.287109 L 53.722656 23.355469 L 53.78125 23.423828 L 53.839844 23.496094 L 53.894531 23.568359 L 53.949219 23.642578 L 54.003906 23.71875 L 54.054688 23.796875 L 54.105469 23.876953 L 54.154297 23.958984 L 54.201172 24.041016 L 54.248047 24.126953 L 54.291016 24.212891 L 54.333984 24.300781 L 54.375 24.388672 L 54.414062 24.478516 L 54.453125 24.570312 L 54.488281 24.662109 L 54.523438 24.757812 L 54.554688 24.851562 L 54.585938 24.947266 L 54.615234 25.044922 L 54.642578 25.142578 L 54.667969 25.240234 L 54.691406 25.339844 L 54.714844 25.441406 L 54.734375 25.541016 L 54.751953 25.642578 L 54.767578 25.746094 L 54.783203 25.847656 L 54.794922 25.951172 L 54.804688 26.054688 L 54.814453 26.158203 L 54.820312 26.261719 L 54.826172 26.365234 L 54.828125 26.470703 L 54.830078 26.574219 L 54.828125 26.679688 L 54.826172 26.783203 L 54.820312 26.886719 L 54.814453 26.992188 L 54.804688 27.095703 L 54.794922 27.199219 L 54.783203 27.300781 L 54.767578 27.404297 L 54.751953 27.505859 L 54.734375 27.607422 L 54.714844 27.708984 L 54.691406 27.808594 L 54.667969 27.908203 L 54.642578 28.007812 L 54.615234 28.105469 L 54.585938 28.201172 L 54.554688 28.298828 L 54.523438 28.392578 L 54.488281 28.486328 L 54.453125 28.580078 L 54.414062 28.669922 L 54.375 28.761719 L 54.333984 28.849609 L 54.291016 28.9375 L 54.248047 29.023438 L 54.201172 29.107422 L 54.154297 29.191406 L 54.105469 29.271484 L 54.054688 29.351562 L 54.003906 29.429688 L 53.949219 29.505859 L 53.894531 29.582031 L 53.839844 29.654297 L 53.78125 29.724609 L 53.722656 29.794922 L 53.664062 29.861328 L 53.601562 29.927734 L 53.539062 29.990234 L 53.476562 30.050781 L 53.412109 30.109375 L 53.345703 30.167969 L 53.279297 30.222656 L 53.212891 30.273438 L 53.142578 30.324219 L 53.074219 30.373047 L 53.003906 30.417969 L 52.931641 30.462891 L 52.861328 30.503906 L 52.787109 30.541016 L 52.714844 30.578125 L 52.640625 30.611328 L 52.566406 30.644531 L 52.490234 30.671875 L 52.416016 30.699219 L 52.339844 30.722656 L 52.261719 30.744141 L 52.185547 30.763672 L 52.107422 30.78125 L 52.03125 30.794922 L 51.953125 30.806641 L 51.875 30.814453 L 51.796875 30.822266 L 51.71875 30.826172 L 51.640625 30.826172 L 51.5625 30.826172 L 51.484375 30.822266 L 51.40625 30.814453 L 51.328125 30.806641 L 51.25 30.794922 L 51.171875 30.78125 L 51.095703 30.763672 L 51.017578 30.744141 L 50.941406 30.722656 L 50.865234 30.699219 L 50.789062 30.671875 L 50.714844 30.644531 L 50.640625 30.611328 L 50.566406 30.578125 L 50.492188 30.541016 L 50.419922 30.503906 L 50.347656 30.462891 L 50.277344 30.417969 L 50.207031 30.373047 L 50.136719 30.324219 L 50.068359 30.273438 L 50.001953 30.222656 L 49.933594 30.167969 L 49.869141 30.109375 L 49.804688 30.050781 L 49.740234 29.990234 L 49.677734 29.927734 L 49.617188 29.861328 L 49.556641 29.794922 L 49.498047 29.724609 L 49.441406 29.654297 L 49.384766 29.582031 L 49.330078 29.505859 L 49.277344 29.429688 L 49.226562 29.351562 L 49.175781 29.271484 L 49.126953 29.191406 L 49.078125 29.107422 L 49.033203 29.023438 L 48.988281 28.9375 L 48.945312 28.849609 L 48.904297 28.761719 L 48.865234 28.669922 L 48.828125 28.580078 L 48.792969 28.486328 L 48.757812 28.392578 L 48.724609 28.298828 L 48.693359 28.201172 L 48.666016 28.105469 L 48.638672 28.007812 L 48.613281 27.908203 L 48.587891 27.808594 L 48.566406 27.708984 L 48.546875 27.607422 L 48.529297 27.505859 L 48.511719 27.404297 L 48.498047 27.300781 L 48.486328 27.199219 L 48.474609 27.095703 L 48.466797 26.992188 L 48.460938 26.886719 L 48.455078 26.783203 L 48.451172 26.679688 L 48.451172 26.574219 L 48.451172 26.470703 L 48.455078 26.365234 L 48.458984 26.261719 L 48.466797 26.158203 L 48.474609 26.054688 L 48.486328 25.951172 L 48.498047 25.847656 L 48.511719 25.746094 L 48.529297 25.642578 L 48.546875 25.541016 L 48.566406 25.441406 L 48.587891 25.339844 L 48.611328 25.240234 L 48.636719 25.142578 L 48.664062 25.044922 L 48.693359 24.947266 L 48.724609 24.851562 L 48.757812 24.757812 L 48.791016 24.664062 L 48.828125 24.570312 L 48.865234 24.478516 L 48.904297 24.388672 L 48.945312 24.300781 L 48.988281 24.212891 L 49.033203 24.126953 L 49.078125 24.041016 L 49.126953 23.958984 L 49.175781 23.876953 L 49.224609 23.796875 L 49.277344 23.71875 L 49.330078 23.642578 L 49.384766 23.568359 L 49.441406 23.496094 L 49.498047 23.423828 L 49.556641 23.355469 L 49.617188 23.287109 L 49.677734 23.222656 L 49.740234 23.160156 L 49.804688 23.097656 L 49.869141 23.039062 L 49.933594 22.982422 L 50 22.927734 L 50.068359 22.875 L 50.136719 22.824219 L 50.207031 22.777344 L 50.277344 22.730469 L 50.347656 22.6875 L 50.419922 22.646484 L 50.492188 22.607422 L 50.566406 22.572266 L 50.640625 22.537109 L 50.714844 22.505859 L 50.789062 22.476562 L 50.865234 22.451172 L 50.941406 22.425781 L 51.017578 22.404297 L 51.095703 22.384766 L 51.171875 22.369141 L 51.25 22.355469 L 51.328125 22.34375 L 51.40625 22.333984 L 51.484375 22.328125 L 51.5625 22.324219 L 51.640625 22.322266 z "
     transform="matrix(0.28222224,0,0,0.28222222,-29.688002,0)"
     id="path22" />
  <path
     style="fill:#000000;fill-opacity:1;stroke:#000000;stroke-width:0"
     d="M 72.679688 11.693359 C 72.171497 11.693359 71.68329 11.781778 71.232422 11.945312 C 71.002993 12.026766 70.783451 12.126325 70.574219 12.242188 C 70.380878 12.347597 70.195267 12.465937 70.019531 12.595703 C 69.838241 12.728145 69.666216 12.871146 69.503906 13.025391 C 69.323516 13.195044 69.15481 13.37647 68.998047 13.568359 C 68.809614 13.796322 68.636807 14.039536 68.482422 14.292969 C 68.272686 14.631925 68.091566 14.991651 67.943359 15.365234 C 67.57006 16.313555 67.363281 17.34637 67.363281 18.425781 C 67.363281 19.506328 67.568374 20.537799 67.941406 21.484375 L 67.943359 21.484375 C 68.092462 21.860359 68.27286 22.219928 68.482422 22.558594 C 68.637123 22.812486 68.809745 23.053431 68.998047 23.28125 C 69.154874 23.473202 69.323552 23.654582 69.503906 23.824219 C 69.666261 23.978491 69.838388 24.121579 70.019531 24.253906 C 70.195492 24.383836 70.381434 24.502338 70.574219 24.607422 C 70.784177 24.723667 71.004425 24.823403 71.232422 24.904297 C 71.684583 25.068202 72.17178 25.158203 72.679688 25.158203 C 73.187878 25.158203 73.674132 25.067831 74.125 24.904297 C 74.354429 24.822843 74.573971 24.723284 74.783203 24.607422 C 74.976544 24.502012 75.162155 24.383673 75.337891 24.253906 C 75.51918 24.121468 75.691205 23.978463 75.853516 23.824219 C 75.858157 23.81986 75.862581 23.814941 75.867188 23.810547 L 75.867188 26.220703 C 75.867188 26.865926 75.746869 27.482046 75.525391 28.048828 C 75.433573 28.282871 75.320659 28.506584 75.191406 28.71875 C 75.092948 28.882298 74.983286 29.038246 74.863281 29.185547 C 74.760632 29.312695 74.651355 29.434224 74.533203 29.546875 C 74.424424 29.651449 74.307079 29.747937 74.185547 29.837891 C 74.065298 29.927667 73.938769 30.009082 73.806641 30.082031 C 73.660734 30.163623 73.508932 30.233724 73.349609 30.291016 C 73.030189 30.407916 72.684136 30.472656 72.324219 30.472656 C 71.964106 30.472656 71.618399 30.40804 71.298828 30.291016 C 71.139634 30.233738 70.987594 30.163573 70.841797 30.082031 C 70.709727 30.009103 70.583091 29.927632 70.462891 29.837891 C 70.34138 29.747947 70.225953 29.651434 70.117188 29.546875 C 69.999029 29.434216 69.887813 29.312703 69.785156 29.185547 C 69.66512 29.038198 69.555514 28.882356 69.457031 28.71875 C 69.44463 28.698305 69.432146 28.67885 69.419922 28.658203 L 69.419922 28.65625 C 69.223481 28.422392 68.928914 28.275391 68.599609 28.275391 C 68.0082 28.275391 67.529297 28.754295 67.529297 29.345703 C 67.529297 29.607805 67.622966 29.847078 67.779297 30.033203 C 67.881486 30.187294 67.990453 30.336668 68.105469 30.480469 C 68.26474 30.680552 68.43581 30.871079 68.619141 31.048828 C 68.792834 31.218124 68.977776 31.375474 69.171875 31.521484 C 69.368989 31.67064 69.576602 31.806348 69.792969 31.927734 C 70.038112 32.06648 70.295878 32.18569 70.5625 32.283203 C 71.111975 32.48666 71.704964 32.597656 72.324219 32.597656 C 72.943801 32.597656 73.537945 32.488174 74.085938 32.285156 C 74.354159 32.187003 74.611122 32.066051 74.855469 31.927734 L 74.855469 31.929688 C 75.072404 31.807964 75.279666 31.670477 75.476562 31.521484 C 75.670789 31.375373 75.855646 31.218101 76.029297 31.048828 C 76.212656 30.871064 76.383781 30.68047 76.542969 30.480469 C 76.723252 30.255292 76.889382 30.018443 77.037109 29.769531 C 77.224285 29.456508 77.384864 29.126026 77.517578 28.783203 C 77.825148 27.987116 77.994141 27.124011 77.994141 26.220703 L 77.994141 18.425781 C 77.994141 17.345234 77.789053 16.31181 77.416016 15.365234 C 77.266899 14.989251 77.084572 14.631635 76.875 14.292969 C 76.720317 14.039077 76.54963 13.796179 76.361328 13.568359 C 76.204508 13.376408 76.033878 13.195027 75.853516 13.025391 C 75.691175 12.871119 75.519037 12.728031 75.337891 12.595703 C 75.16193 12.465774 74.977942 12.347271 74.785156 12.242188 C 74.575198 12.125942 74.354951 12.026206 74.126953 11.945312 C 73.674792 11.781407 73.187596 11.693359 72.679688 11.693359 z M 72.679688 13.818359 L 72.757812 13.820312 L 72.835938 13.824219 L 72.914062 13.832031 L 72.992188 13.841797 L 73.068359 13.853516 L 73.146484 13.869141 L 73.224609 13.886719 L 73.300781 13.908203 L 73.376953 13.931641 L 73.453125 13.957031 L 73.529297 13.986328 L 73.605469 14.017578 L 73.679688 14.050781 L 73.753906 14.087891 L 73.826172 14.126953 L 73.898438 14.169922 L 73.970703 14.214844 L 74.042969 14.261719 L 74.113281 14.310547 L 74.181641 14.363281 L 74.25 14.417969 L 74.318359 14.474609 L 74.384766 14.533203 L 74.451172 14.595703 L 74.515625 14.658203 L 74.578125 14.724609 L 74.640625 14.792969 L 74.701172 14.865234 L 74.761719 14.9375 L 74.820312 15.011719 L 74.876953 15.089844 L 74.933594 15.167969 L 74.988281 15.248047 L 75.041016 15.332031 L 75.09375 15.416016 L 75.144531 15.503906 L 75.193359 15.591797 L 75.240234 15.681641 L 75.287109 15.773438 L 75.330078 15.865234 L 75.373047 15.960938 L 75.414062 16.056641 L 75.453125 16.154297 L 75.492188 16.253906 L 75.527344 16.353516 L 75.5625 16.455078 L 75.59375 16.558594 L 75.625 16.662109 L 75.654297 16.767578 L 75.681641 16.873047 L 75.707031 16.980469 L 75.730469 17.087891 L 75.751953 17.197266 L 75.771484 17.306641 L 75.791016 17.416016 L 75.806641 17.527344 L 75.820312 17.636719 L 75.833984 17.75 L 75.84375 17.861328 L 75.851562 17.974609 L 75.859375 18.085938 L 75.863281 18.199219 L 75.867188 18.3125 L 75.867188 18.425781 L 75.867188 18.539062 L 75.863281 18.650391 L 75.859375 18.763672 L 75.851562 18.876953 L 75.84375 18.988281 L 75.833984 19.101562 L 75.820312 19.212891 L 75.806641 19.324219 L 75.791016 19.433594 L 75.771484 19.544922 L 75.751953 19.654297 L 75.730469 19.761719 L 75.707031 19.869141 L 75.681641 19.976562 L 75.654297 20.082031 L 75.625 20.1875 L 75.59375 20.291016 L 75.5625 20.394531 L 75.527344 20.496094 L 75.492188 20.595703 L 75.453125 20.695312 L 75.414062 20.792969 L 75.373047 20.888672 L 75.330078 20.984375 L 75.287109 21.078125 L 75.240234 21.169922 L 75.193359 21.259766 L 75.144531 21.347656 L 75.09375 21.433594 L 75.041016 21.519531 L 74.988281 21.601562 L 74.933594 21.681641 L 74.876953 21.761719 L 74.820312 21.837891 L 74.761719 21.914062 L 74.701172 21.986328 L 74.640625 22.056641 L 74.578125 22.125 L 74.515625 22.191406 L 74.451172 22.255859 L 74.384766 22.316406 L 74.318359 22.376953 L 74.25 22.433594 L 74.181641 22.488281 L 74.113281 22.539062 L 74.042969 22.589844 L 73.970703 22.636719 L 73.898438 22.681641 L 73.826172 22.722656 L 73.753906 22.761719 L 73.679688 22.798828 L 73.605469 22.833984 L 73.529297 22.865234 L 73.453125 22.892578 L 73.376953 22.919922 L 73.300781 22.943359 L 73.224609 22.962891 L 73.146484 22.982422 L 73.068359 22.996094 L 72.992188 23.009766 L 72.914062 23.019531 L 72.835938 23.025391 L 72.757812 23.029297 L 72.679688 23.03125 L 72.601562 23.029297 L 72.523438 23.025391 L 72.445312 23.019531 L 72.367188 23.009766 L 72.289062 22.996094 L 72.210938 22.982422 L 72.134766 22.962891 L 72.056641 22.943359 L 71.980469 22.919922 L 71.904297 22.892578 L 71.828125 22.865234 L 71.753906 22.833984 L 71.679688 22.798828 L 71.605469 22.761719 L 71.53125 22.722656 L 71.458984 22.681641 L 71.386719 22.636719 L 71.316406 22.589844 L 71.246094 22.539062 L 71.175781 22.488281 L 71.107422 22.433594 L 71.039062 22.376953 L 70.972656 22.316406 L 70.908203 22.255859 L 70.84375 22.191406 L 70.779297 22.125 L 70.716797 22.056641 L 70.65625 21.986328 L 70.595703 21.914062 L 70.537109 21.837891 L 70.480469 21.761719 L 70.423828 21.681641 L 70.369141 21.601562 L 70.316406 21.519531 L 70.263672 21.433594 L 70.214844 21.347656 L 70.166016 21.259766 L 70.117188 21.169922 L 70.072266 21.078125 L 70.027344 20.984375 L 69.984375 20.888672 L 69.943359 20.792969 L 69.904297 20.695312 L 69.867188 20.595703 L 69.830078 20.496094 L 69.796875 20.394531 L 69.763672 20.291016 L 69.732422 20.1875 L 69.703125 20.082031 L 69.675781 19.976562 L 69.650391 19.869141 L 69.626953 19.761719 L 69.605469 19.654297 L 69.585938 19.544922 L 69.568359 19.433594 L 69.550781 19.324219 L 69.537109 19.212891 L 69.525391 19.101562 L 69.513672 18.988281 L 69.505859 18.876953 L 69.498047 18.763672 L 69.494141 18.650391 L 69.490234 18.539062 L 69.490234 18.425781 L 69.490234 18.3125 L 69.494141 18.199219 L 69.498047 18.085938 L 69.505859 17.974609 L 69.513672 17.861328 L 69.523438 17.75 L 69.537109 17.638672 L 69.550781 17.527344 L 69.566406 17.416016 L 69.585938 17.306641 L 69.605469 17.197266 L 69.626953 17.087891 L 69.650391 16.980469 L 69.675781 16.873047 L 69.703125 16.767578 L 69.732422 16.662109 L 69.763672 16.558594 L 69.796875 16.455078 L 69.830078 16.353516 L 69.867188 16.253906 L 69.904297 16.154297 L 69.943359 16.056641 L 69.984375 15.960938 L 70.027344 15.865234 L 70.072266 15.773438 L 70.117188 15.681641 L 70.164062 15.591797 L 70.212891 15.503906 L 70.263672 15.416016 L 70.316406 15.332031 L 70.369141 15.248047 L 70.423828 15.167969 L 70.480469 15.089844 L 70.537109 15.011719 L 70.595703 14.9375 L 70.65625 14.865234 L 70.716797 14.792969 L 70.779297 14.724609 L 70.841797 14.660156 L 70.90625 14.595703 L 70.972656 14.533203 L 71.039062 14.474609 L 71.107422 14.417969 L 71.175781 14.363281 L 71.244141 14.310547 L 71.316406 14.261719 L 71.386719 14.214844 L 71.458984 14.169922 L 71.53125 14.126953 L 71.605469 14.087891 L 71.677734 14.050781 L 71.753906 14.017578 L 71.828125 13.986328 L 71.904297 13.957031 L 71.980469 13.931641 L 72.056641 13.908203 L 72.132812 13.886719 L 72.210938 13.869141 L 72.289062 13.853516 L 72.367188 13.841797 L 72.443359 13.832031 L 72.521484 13.824219 L 72.601562 13.820312 L 72.679688 13.818359 z "
     transform="matrix(0.28222224,0,0,0.28222222,-29.688002,0)"
     id="path28" />
  <path
     style="fill:#000000;fill-opacity:1;stroke:#000000;stroke-width:0"
     d="M 93.716797 11.693359 L 93.587891 11.695312 L 93.457031 11.705078 L 93.326172 11.722656 L 93.197266 11.744141 L 93.066406 11.773438 L 92.9375 11.808594 L 92.808594 11.849609 L 92.681641 11.896484 L 92.552734 11.951172 L 92.425781 12.011719 L 92.300781 12.078125 L 92.173828 12.150391 L 92.050781 12.228516 L 91.927734 12.314453 L 91.804688 12.404297 L 91.683594 12.501953 L 91.564453 12.605469 L 91.445312 12.712891 L 91.328125 12.828125 L 91.212891 12.947266 L 91.097656 13.074219 L 90.984375 13.205078 L 90.875 13.341797 L 90.765625 13.484375 L 90.658203 13.632812 L 90.550781 13.785156 L 90.447266 13.943359 L 90.345703 14.105469 L 90.246094 14.273438 L 90.148438 14.447266 L 90.052734 14.625 L 89.958984 14.806641 L 89.869141 14.992188 L 89.779297 15.183594 L 89.693359 15.378906 L 89.609375 15.580078 L 89.527344 15.783203 L 89.449219 15.990234 L 89.373047 16.201172 L 89.298828 16.417969 L 89.226562 16.636719 L 89.158203 16.857422 L 89.09375 17.083984 L 89.029297 17.3125 L 88.970703 17.542969 L 88.912109 17.777344 L 88.859375 18.015625 L 88.806641 18.255859 L 88.759766 18.498047 L 88.712891 18.742188 L 88.671875 18.988281 L 88.630859 19.236328 L 88.595703 19.488281 L 88.5625 19.740234 L 88.53125 19.994141 L 88.503906 20.25 L 88.480469 20.505859 L 88.460938 20.763672 L 88.443359 21.021484 L 88.427734 21.28125 L 88.417969 21.541016 L 88.408203 21.800781 L 88.404297 22.0625 L 88.402344 22.322266 L 88.404297 22.583984 L 88.408203 22.84375 L 88.417969 23.105469 L 88.427734 23.365234 L 88.443359 23.625 L 88.460938 23.882812 L 88.480469 24.140625 L 88.503906 24.396484 L 88.53125 24.652344 L 88.5625 24.90625 L 88.595703 25.158203 L 88.630859 25.408203 L 88.671875 25.658203 L 88.712891 25.904297 L 88.759766 26.148438 L 88.806641 26.390625 L 88.859375 26.630859 L 88.912109 26.867188 L 88.970703 27.101562 L 89.03125 27.333984 L 89.09375 27.5625 L 89.158203 27.787109 L 89.226562 28.009766 L 89.298828 28.228516 L 89.373047 28.443359 L 89.449219 28.654297 L 89.527344 28.863281 L 89.609375 29.066406 L 89.693359 29.265625 L 89.779297 29.460938 L 89.869141 29.652344 L 89.958984 29.839844 L 90.052734 30.021484 L 90.148438 30.199219 L 90.246094 30.371094 L 90.345703 30.539062 L 90.447266 30.703125 L 90.550781 30.861328 L 90.658203 31.013672 L 90.765625 31.162109 L 90.875 31.302734 L 90.984375 31.439453 L 91.097656 31.572266 L 91.212891 31.697266 L 91.328125 31.818359 L 91.445312 31.931641 L 91.564453 32.041016 L 91.683594 32.144531 L 91.804688 32.240234 L 91.927734 32.332031 L 92.050781 32.416016 L 92.175781 32.494141 L 92.300781 32.568359 L 92.425781 32.634766 L 92.552734 32.695312 L 92.681641 32.748047 L 92.808594 32.796875 L 92.9375 32.837891 L 93.066406 32.873047 L 93.197266 32.902344 L 93.326172 32.923828 L 93.457031 32.939453 L 93.587891 32.949219 L 93.716797 32.953125 L 93.847656 32.949219 L 93.978516 32.939453 L 94.109375 32.923828 L 94.238281 32.902344 L 94.369141 32.873047 L 94.498047 32.837891 L 94.626953 32.796875 L 94.753906 32.748047 L 94.882812 32.695312 L 95.009766 32.634766 L 95.134766 32.568359 L 95.259766 32.494141 L 95.384766 32.416016 L 95.507812 32.332031 L 95.630859 32.240234 L 95.751953 32.144531 L 95.871094 32.041016 L 95.990234 31.931641 L 96.107422 31.818359 L 96.222656 31.697266 L 96.337891 31.572266 L 96.449219 31.439453 L 96.560547 31.302734 L 96.669922 31.162109 L 96.777344 31.013672 L 96.882812 30.861328 L 96.988281 30.703125 L 97.089844 30.539062 L 97.189453 30.371094 L 97.287109 30.199219 L 97.382812 30.021484 L 97.476562 29.839844 L 97.566406 29.652344 L 97.65625 29.460938 L 97.742188 29.265625 L 97.826172 29.066406 L 97.908203 28.863281 L 97.986328 28.654297 L 98.0625 28.443359 L 98.136719 28.228516 L 98.207031 28.009766 L 98.277344 27.787109 L 98.341797 27.5625 L 98.404297 27.333984 L 98.464844 27.101562 L 98.521484 26.867188 L 98.576172 26.630859 L 98.628906 26.390625 L 98.675781 26.148438 L 98.722656 25.904297 L 98.763672 25.658203 L 98.804688 25.408203 L 98.839844 25.158203 L 98.873047 24.90625 L 98.904297 24.652344 L 98.929688 24.396484 L 98.955078 24.140625 L 98.974609 23.882812 L 98.992188 23.625 L 99.007812 23.365234 L 99.017578 23.105469 L 99.025391 22.84375 L 99.03125 22.583984 L 99.033203 22.322266 L 99.03125 22.0625 L 99.025391 21.800781 L 99.017578 21.541016 L 99.007812 21.28125 L 98.992188 21.021484 L 98.974609 20.763672 L 98.955078 20.505859 L 98.929688 20.25 L 98.904297 19.994141 L 98.873047 19.740234 L 98.839844 19.488281 L 98.804688 19.236328 L 98.763672 18.988281 L 98.722656 18.742188 L 98.675781 18.498047 L 98.628906 18.255859 L 98.576172 18.015625 L 98.521484 17.777344 L 98.464844 17.542969 L 98.404297 17.3125 L 98.341797 17.083984 L 98.277344 16.857422 L 98.208984 16.636719 L 98.136719 16.417969 L 98.0625 16.201172 L 97.986328 15.990234 L 97.908203 15.783203 L 97.826172 15.580078 L 97.742188 15.378906 L 97.65625 15.183594 L 97.566406 14.992188 L 97.476562 14.806641 L 97.382812 14.625 L 97.287109 14.447266 L 97.189453 14.273438 L 97.089844 14.105469 L 96.988281 13.943359 L 96.882812 13.785156 L 96.777344 13.632812 L 96.669922 13.484375 L 96.560547 13.341797 L 96.449219 13.205078 L 96.337891 13.074219 L 96.222656 12.947266 L 96.107422 12.828125 L 95.990234 12.712891 L 95.871094 12.605469 L 95.751953 12.501953 L 95.630859 12.404297 L 95.507812 12.314453 L 95.384766 12.228516 L 95.259766 12.150391 L 95.134766 12.078125 L 95.009766 12.011719 L 94.882812 11.951172 L 94.753906 11.896484 L 94.626953 11.849609 L 94.498047 11.808594 L 94.369141 11.773438 L 94.238281 11.744141 L 94.109375 11.722656 L 93.978516 11.705078 L 93.847656 11.695312 L 93.716797 11.693359 z M 93.716797 13.818359 L 93.796875 13.822266 L 93.875 13.830078 L 93.953125 13.841797 L 94.029297 13.859375 L 94.107422 13.882812 L 94.185547 13.910156 L 94.263672 13.943359 L 94.339844 13.982422 L 94.416016 14.025391 L 94.492188 14.074219 L 94.568359 14.126953 L 94.642578 14.185547 L 94.71875 14.248047 L 94.792969 14.316406 L 94.865234 14.388672 L 94.9375 14.466797 L 95.009766 14.548828 L 95.082031 14.634766 L 95.152344 14.726562 L 95.220703 14.822266 L 95.289062 14.923828 L 95.357422 15.029297 L 95.423828 15.138672 L 95.490234 15.251953 L 95.554688 15.371094 L 95.617188 15.492188 L 95.679688 15.619141 L 95.740234 15.75 L 95.800781 15.882812 L 95.859375 16.021484 L 95.916016 16.164062 L 95.972656 16.310547 L 96.027344 16.458984 L 96.080078 16.611328 L 96.132812 16.767578 L 96.183594 16.927734 L 96.232422 17.091797 L 96.279297 17.257812 L 96.324219 17.425781 L 96.369141 17.597656 L 96.412109 17.773438 L 96.453125 17.951172 L 96.492188 18.130859 L 96.529297 18.314453 L 96.566406 18.5 L 96.599609 18.6875 L 96.632812 18.876953 L 96.664062 19.068359 L 96.693359 19.261719 L 96.720703 19.457031 L 96.746094 19.65625 L 96.769531 19.853516 L 96.791016 20.054688 L 96.810547 20.255859 L 96.830078 20.458984 L 96.845703 20.664062 L 96.859375 20.869141 L 96.873047 21.074219 L 96.882812 21.28125 L 96.890625 21.490234 L 96.898438 21.697266 L 96.902344 21.90625 L 96.90625 22.113281 L 96.90625 22.322266 L 96.90625 22.53125 L 96.902344 22.740234 L 96.898438 22.949219 L 96.890625 23.15625 L 96.882812 23.363281 L 96.871094 23.570312 L 96.859375 23.777344 L 96.845703 23.982422 L 96.830078 24.185547 L 96.810547 24.388672 L 96.791016 24.591797 L 96.769531 24.791016 L 96.746094 24.990234 L 96.720703 25.1875 L 96.693359 25.382812 L 96.664062 25.578125 L 96.632812 25.769531 L 96.599609 25.958984 L 96.566406 26.146484 L 96.529297 26.332031 L 96.492188 26.513672 L 96.453125 26.695312 L 96.412109 26.873047 L 96.369141 27.046875 L 96.324219 27.21875 L 96.279297 27.388672 L 96.232422 27.554688 L 96.183594 27.716797 L 96.132812 27.876953 L 96.080078 28.033203 L 96.027344 28.1875 L 95.972656 28.335938 L 95.916016 28.482422 L 95.859375 28.623047 L 95.800781 28.761719 L 95.740234 28.896484 L 95.679688 29.027344 L 95.617188 29.152344 L 95.554688 29.275391 L 95.490234 29.394531 L 95.423828 29.507812 L 95.357422 29.617188 L 95.289062 29.722656 L 95.220703 29.822266 L 95.152344 29.917969 L 95.082031 30.009766 L 95.009766 30.097656 L 94.9375 30.179688 L 94.865234 30.257812 L 94.791016 30.330078 L 94.71875 30.398438 L 94.642578 30.460938 L 94.568359 30.519531 L 94.492188 30.572266 L 94.416016 30.621094 L 94.339844 30.664062 L 94.263672 30.701172 L 94.185547 30.734375 L 94.107422 30.763672 L 94.029297 30.785156 L 93.953125 30.804688 L 93.875 30.816406 L 93.796875 30.824219 L 93.716797 30.826172 L 93.638672 30.824219 L 93.560547 30.816406 L 93.482422 30.804688 L 93.404297 30.785156 L 93.328125 30.763672 L 93.25 30.734375 L 93.171875 30.701172 L 93.095703 30.664062 L 93.019531 30.621094 L 92.943359 30.572266 L 92.867188 30.519531 L 92.791016 30.460938 L 92.716797 30.398438 L 92.642578 30.330078 L 92.570312 30.257812 L 92.498047 30.179688 L 92.425781 30.097656 L 92.353516 30.009766 L 92.283203 29.917969 L 92.214844 29.822266 L 92.146484 29.722656 L 92.078125 29.617188 L 92.011719 29.507812 L 91.945312 29.394531 L 91.880859 29.275391 L 91.818359 29.152344 L 91.755859 29.027344 L 91.695312 28.896484 L 91.634766 28.761719 L 91.576172 28.623047 L 91.519531 28.482422 L 91.462891 28.335938 L 91.408203 28.1875 L 91.355469 28.033203 L 91.302734 27.876953 L 91.251953 27.716797 L 91.203125 27.554688 L 91.15625 27.388672 L 91.109375 27.21875 L 91.066406 27.046875 L 91.023438 26.873047 L 90.982422 26.695312 L 90.943359 26.513672 L 90.904297 26.332031 L 90.869141 26.146484 L 90.833984 25.958984 L 90.802734 25.769531 L 90.771484 25.576172 L 90.742188 25.382812 L 90.714844 25.1875 L 90.689453 24.990234 L 90.666016 24.791016 L 90.644531 24.591797 L 90.625 24.388672 L 90.605469 24.185547 L 90.589844 23.982422 L 90.576172 23.777344 L 90.5625 23.570312 L 90.552734 23.363281 L 90.544922 23.15625 L 90.537109 22.949219 L 90.533203 22.740234 L 90.529297 22.53125 L 90.529297 22.322266 L 90.529297 22.113281 L 90.533203 21.90625 L 90.537109 21.697266 L 90.544922 21.490234 L 90.552734 21.28125 L 90.5625 21.074219 L 90.576172 20.869141 L 90.589844 20.664062 L 90.605469 20.458984 L 90.625 20.255859 L 90.644531 20.054688 L 90.666016 19.853516 L 90.689453 19.65625 L 90.714844 19.457031 L 90.742188 19.261719 L 90.771484 19.068359 L 90.802734 18.876953 L 90.833984 18.6875 L 90.869141 18.5 L 90.904297 18.314453 L 90.943359 18.130859 L 90.982422 17.951172 L 91.023438 17.773438 L 91.066406 17.597656 L 91.111328 17.425781 L 91.15625 17.257812 L 91.203125 17.091797 L 91.251953 16.927734 L 91.302734 16.767578 L 91.355469 16.611328 L 91.408203 16.458984 L 91.462891 16.310547 L 91.519531 16.164062 L 91.576172 16.021484 L 91.634766 15.882812 L 91.695312 15.75 L 91.755859 15.619141 L 91.818359 15.492188 L 91.880859 15.371094 L 91.945312 15.251953 L 92.011719 15.138672 L 92.078125 15.029297 L 92.146484 14.923828 L 92.214844 14.822266 L 92.283203 14.726562 L 92.353516 14.634766 L 92.425781 14.548828 L 92.498047 14.466797 L 92.570312 14.388672 L 92.642578 14.316406 L 92.716797 14.248047 L 92.791016 14.185547 L 92.867188 14.126953 L 92.943359 14.074219 L 93.019531 14.025391 L 93.095703 13.982422 L 93.171875 13.943359 L 93.25 13.910156 L 93.328125 13.882812 L 93.404297 13.859375 L 93.482422 13.841797 L 93.560547 13.830078 L 93.638672 13.822266 L 93.716797 13.818359 z "
     transform="matrix(0.28222224,0,0,0.28222222,-29.688002,0)"
     id="path32" />
  <path
     inkscape:connector-curvature="0"
     id="path36"
     style="stroke:#000000;stroke-width:0"
     d="M -29.688,0 29.688,0" />
  <path
     inkscape:connector-curvature="0"
     id="path38"
     style="stroke:#000000;stroke-width:0"
     d="m -29.688,10.5 59.376,0" />
  <path
     inkscape:connector-curvature="0"
     id="path40"
     style="stroke:#000000;stroke-width:0"
     d="m 29.688,0 0,10.5" />
  <path
     inkscape:connector-curvature="0"
     id="path42"
     style="stroke:#000000;stroke-width:0;fill:#000000;fill-opacity:1"
     d="m 3.7488,3.6 c 0,-0.1656854 -0.1343146,-0.3 -0.3,-0.3 -0.082843,0 -0.1578427,0.033579 -0.212132,0.087868 l -1.5,1.5 0,0 C 1.6823786,4.9421573 1.6488,5.0171573 1.6488,5.1 c 0,0.1656854 0.1343146,0.3 0.3,0.3 0.082843,0 0.1578427,-0.033579 0.212132,-0.087868 L 3.1488,4.3242641 3.1488,9 c 0,0.1656854 0.1343146,0.3 0.3,0.3 0.1656854,0 0.3,-0.1343146 0.3,-0.3 z" />
  <path
     inkscape:connector-curvature="0"
     id="path44"
     style="stroke:#000000;stroke-width:0"
     d="M 0,0" />
  <path
     inkscape:connector-curvature="0"
     id="path46"
     style="stroke:#000000;stroke-width:0"
     d="M 0,0" />
  <path
     inkscape:connector-curvature="0"
     id="path48"
     style="stroke:#000000;stroke-width:0"
     d="m -29.688,0 0,10.5" />
</svg>
