<?xml version="1.0" encoding="UTF-8" standalone="no"?>
<!-- 2017-01-24 15:55:37 Generated by QCAD SVG Exporter -->

<svg
   xmlns:dc="http://purl.org/dc/elements/1.1/"
   xmlns:cc="http://creativecommons.org/ns#"
   xmlns:rdf="http://www.w3.org/1999/02/22-rdf-syntax-ns#"
   xmlns:svg="http://www.w3.org/2000/svg"
   xmlns="http://www.w3.org/2000/svg"
   xmlns:sodipodi="http://sodipodi.sourceforge.net/DTD/sodipodi-0.dtd"
   xmlns:inkscape="http://www.inkscape.org/namespaces/inkscape"
   width="3.493851278256121mm"
   height="23.999999999999986mm"
   viewBox="-1.7469256391280605 -11.999999999999995 3.493851278256121 23.999999999999986"
   version="1.1"
   style="stroke-linecap:round;stroke-linejoin:round;fill:none"
   id="svg2"
   inkscape:version="0.91 r13725"
   sodipodi:docname="reversing lever arrows.svg">
  <metadata
     id="metadata16">
    <rdf:RDF>
      <cc:Work
         rdf:about="">
        <dc:format>image/svg+xml</dc:format>
        <dc:type
           rdf:resource="http://purl.org/dc/dcmitype/StillImage" />
      </cc:Work>
    </rdf:RDF>
  </metadata>
  <defs
     id="defs14" />
  <sodipodi:namedview
     pagecolor="#ffffff"
     bordercolor="#666666"
     borderopacity="1"
     objecttolerance="10"
     gridtolerance="10"
     guidetolerance="10"
     inkscape:pageopacity="0"
     inkscape:pageshadow="2"
     inkscape:window-width="677"
     inkscape:window-height="480"
     id="namedview12"
     showgrid="false"
     inkscape:zoom="2.7751852"
     inkscape:cx="6.1898938"
     inkscape:cy="42.519685"
     inkscape:window-x="0"
     inkscape:window-y="0"
     inkscape:window-maximized="0"
     inkscape:current-layer="svg2" />
  <circle
     id="circle6"
     style="stroke:none;stroke-width:0.25;fill:#000000;fill-opacity:1"
     r="0.44999999"
     cy="0"
     cx="0"
     transform="scale(1,-1)" />
  <path
     inkscape:connector-curvature="0"
     id="path8"
     style="stroke:none;stroke-width:0.25;fill:#000000;fill-opacity:1"
     d="m 0.6,-2.1 0,-3.9 0.8469256,0 c 0.1656855,0 0.3,-0.1343146 0.3,-0.3 0,-0.026905 -0.00354,-0.052982 -0.010164,-0.077715 l -1.44698415,-5.399931 5.847e-5,-6.9e-5 C 0.25555175,-11.905765 0.13878078,-12 0,-12 c -0.13880843,0 -0.25559828,0.09427 -0.28981575,0.222208 l -1.44688765,5.4001463 -3.8e-5,-1.458e-4 c -0.00665,0.024863 -0.010184,0.050915 -0.010184,0.077792 0,0.1656854 0.1343145,0.3 0.3,0.3 L -0.6,-6 l 0,3.9 c 0,0.3313708 0.26862915,0.6 0.6,0.6 0.33137085,0 0.6,-0.2686292 0.6,-0.6" />
  <path
     inkscape:connector-curvature="0"
     id="path10"
     style="stroke:none;stroke-width:0.25;fill:#000000;fill-opacity:1"
     d="m 0.6,2.1 0,3.9 0.8469256,0 c 0.1656855,0 0.3,0.1343146 0.3,0.3 0,0.026905 -0.00354,0.052982 -0.010184,0.077792 l -1.44696365,5.399854 3.8e-5,1.47e-4 C 0.25555175,11.905765 0.13878078,12 0,12 -0.13880843,12 -0.25559828,11.90573 -0.28983622,11.777715 l -1.44686718,-5.4000693 -5.85e-5,6.93e-5 C -1.7433919,6.352928 -1.7469259,6.326877 -1.7469259,6.3 c 0,-0.1656854 0.1343145,-0.3 0.3,-0.3 L -0.6,6 l 0,-3.9 c 0,-0.3313708 0.26862915,-0.6 0.6,-0.6 0.33137085,0 0.6,0.2686292 0.6,0.6" />
</svg>
