<?xml version="1.0" encoding="UTF-8" standalone="no"?>
<!-- Created with Inkscape (http://www.inkscape.org/) -->

<svg
   xmlns:dc="http://purl.org/dc/elements/1.1/"
   xmlns:cc="http://creativecommons.org/ns#"
   xmlns:rdf="http://www.w3.org/1999/02/22-rdf-syntax-ns#"
   xmlns:svg="http://www.w3.org/2000/svg"
   xmlns="http://www.w3.org/2000/svg"
   xmlns:sodipodi="http://sodipodi.sourceforge.net/DTD/sodipodi-0.dtd"
   xmlns:inkscape="http://www.inkscape.org/namespaces/inkscape"
   width="225.14343mm"
   height="180.86479mm"
   viewBox="0 0 797.75232 640.8595"
   id="svg2"
   version="1.1"
   inkscape:version="0.91 r13725"
   sodipodi:docname="upper_housing_numbers.svg"
   inkscape:export-filename="/Users/mwu/upper_housing_numbers.png"
   inkscape:export-xdpi="440"
   inkscape:export-ydpi="440">
  <defs
     id="defs4">
    <marker
       style="overflow:visible"
       refY="0"
       refX="0"
       orient="auto"
       id="DistanceX">
      <path
         id="path4162"
         style="stroke:#000000;stroke-width:0.5"
         d="M 3,-3 -3,3 M 0,-5 0,5"
         inkscape:connector-curvature="0" />
    </marker>
    <pattern
       y="0"
       x="0"
       width="8"
       patternUnits="userSpaceOnUse"
       id="Hatch"
       height="8">
      <path
         id="path4165"
         stroke-width="0.25"
         stroke="#000000"
         linecap="square"
         d="M8 4 l-4,4" />
      <path
         id="path4167"
         stroke-width="0.25"
         stroke="#000000"
         linecap="square"
         d="M6 2 l-4,4" />
      <path
         id="path4169"
         stroke-width="0.25"
         stroke="#000000"
         linecap="square"
         d="M4 0 l-4,4" />
    </pattern>
    <symbol
       id="*Model_Space" />
    <symbol
       id="*Paper_Space" />
  </defs>
  <sodipodi:namedview
     id="base"
     pagecolor="#ffffff"
     bordercolor="#666666"
     borderopacity="1.0"
     inkscape:pageopacity="0.0"
     inkscape:pageshadow="2"
     inkscape:zoom="1"
     inkscape:cx="295.21548"
     inkscape:cy="341.28865"
     inkscape:document-units="px"
     inkscape:current-layer="layer1"
     showgrid="false"
     fit-margin-top="0"
     fit-margin-left="0"
     fit-margin-right="0"
     fit-margin-bottom="0"
     inkscape:window-width="1680"
     inkscape:window-height="1005"
     inkscape:window-x="0"
     inkscape:window-y="1"
     inkscape:window-maximized="1" />
  <metadata
     id="metadata7">
    <rdf:RDF>
      <cc:Work
         rdf:about="">
        <dc:format>image/svg+xml</dc:format>
        <dc:type
           rdf:resource="http://purl.org/dc/dcmitype/StillImage" />
        <dc:title></dc:title>
      </cc:Work>
    </rdf:RDF>
  </metadata>
  <g
     inkscape:label="Layer 1"
     inkscape:groupmode="layer"
     id="layer1"
     transform="translate(33.161861,-91.932454)">
    <path
       id="path4175"
       style="fill:none;stroke:#000000"
       d="m 77.43871,114.48632 a 362.29479,362.29479 0 1 0 576.55116,0 l 28.708,-21.85317 a 398.37402,398.37402 0 1 1 -633.96716,0 l 28.708,21.85317 z"
       inkscape:connector-curvature="0" />
    <path
       style="fill:#000000;stroke:none;fill-opacity:1"
       d="M 667.58203 498.35352 A 5.071919 5.071919 0 0 0 667.40625 498.36328 A 4.324603 4.324603 0 0 0 666.84961 498.44141 A 3.765102 3.765102 0 0 0 666.35742 498.57227 A 3.274102 3.274102 0 0 0 665.87109 498.7793 A 3.069745 3.069745 0 0 0 664.47656 500.21875 A 3.274102 3.274102 0 0 0 664.28906 500.71289 A 3.765102 3.765102 0 0 0 664.17383 501.20898 A 4.324603 4.324603 0 0 0 664.11523 501.76758 A 5.071919 5.071919 0 0 0 664.12891 502.45117 A 6.134932 6.134932 0 0 0 664.21875 503.13281 A 6.225761 6.225761 0 0 0 670.40039 508.2207 A 3.702543 3.702543 0 0 0 674.06641 504.42969 A 6.236305 6.236305 0 0 0 674.06641 504.40039 L 675.59766 505.88281 A 4.454076 4.454076 0 0 1 676.88086 508.26953 L 676.92773 509.54102 L 676.51562 510.4668 L 675.60547 510.9082 L 674.33398 510.9082 A 4.454108 4.454108 0 0 1 672.60938 510.26172 A 0.88585913 0.88585913 0 0 0 671.65625 511.75781 L 671.65625 511.75391 A 6.225762 6.225762 0 0 0 674.06836 512.65625 A 6.134932 6.134932 0 0 0 674.75391 512.72461 A 5.071919 5.071919 0 0 0 675.43555 512.71484 A 4.324603 4.324603 0 0 0 675.99219 512.63672 A 3.765102 3.765102 0 0 0 676.48438 512.50586 A 3.274102 3.274102 0 0 0 676.97266 512.30078 A 3.069745 3.069745 0 0 0 678.36523 510.85938 A 3.274102 3.274102 0 0 0 678.55469 510.36719 A 3.765102 3.765102 0 0 0 678.66992 509.86914 A 4.324603 4.324603 0 0 0 678.72656 509.31055 A 5.071919 5.071919 0 0 0 678.71484 508.62891 A 6.134932 6.134932 0 0 0 678.62305 507.94531 A 6.225762 6.225762 0 0 0 676.83008 504.60742 L 672.16992 500.10156 A 6.225762 6.225762 0 0 0 668.77344 498.42188 A 6.134932 6.134932 0 0 0 668.08984 498.35352 A 5.071919 5.071919 0 0 0 667.58203 498.35352 z M 667.79883 500.125 A 4.454108 4.454108 0 0 1 672.29492 504.47266 A 1.93089 1.93089 0 0 1 670.38477 506.44922 A 4.454108 4.454108 0 0 1 665.88672 502.10156 A 1.93089 1.93089 0 0 1 667.79883 500.125 z "
       transform="translate(-33.161861,91.932454)"
       id="path4179" />
    <path
       id="path4183"
       style="fill:#000000;stroke:none;fill-opacity:1"
       d="m 568.20386,651.85802 a 9.535759,9.535759 0 0 0 -2.45898,-2.6586 6.375283,6.375283 0 0 0 -1.02137,-0.6031 5.325019,5.325019 0 0 0 -0.73586,-0.2922 4.580601,4.580601 0 0 0 -0.59497,-0.1494 4.019657,4.019657 0 0 0 -0.51943,-0.064 3.577443,3.577443 0 0 0 -0.48816,0 3.172411,3.172411 0 0 0 -0.5108,0.074 3.000095,3.000095 0 0 0 -1.6939,1.0511 3.172411,3.172411 0 0 0 -0.29341,0.4247 3.577443,3.577443 0 0 0 -0.21851,0.4365 4.019657,4.019657 0 0 0 -0.17364,0.4937 4.580601,4.580601 0 0 0 -0.1303,0.5994 5.325019,5.325019 0 0 0 -0.0649,0.7892 6.375283,6.375283 0 0 0 0.0869,1.1829 9.535759,9.535759 0 0 0 3.74932,6.0424 6.375283,6.375283 0 0 0 1.02137,0.603 5.325019,5.325019 0 0 0 0.73586,0.2923 4.580601,4.580601 0 0 0 0.59497,0.1494 4.019657,4.019657 0 0 0 0.51943,0.064 3.577443,3.577443 0 0 0 0.48817,0 3.172411,3.172411 0 0 0 0.51079,-0.074 3.000095,3.000095 0 0 0 1.6939,-1.051 3.172411,3.172411 0 0 0 0.29341,-0.4247 3.577233,3.577233 0 0 0 0.16245,-0.3104 l 1.69359,2.7294 -3.76348,2.3353 a 0.88582899,0.88582899 0 0 0 0.9341,1.5054 l 4.51618,-2.8024 a 0.885827,0.885827 0 0 0 0.28564,-1.2197 l -3.26936,-5.2689 a 0.916643,0.916643 0 0 0 -1.69497,0.5151 4.050735,4.050735 0 0 1 -2.1e-4,0.3027 3.099382,3.099382 0 0 1 -0.0487,0.4694 2.518386,2.518386 0 0 1 -0.0788,0.33 2.122195,2.122195 0 0 1 -0.0959,0.2576 1.831696,1.831696 0 0 1 -0.11393,0.2191 1.580971,1.580971 0 0 1 -0.14666,0.2071 1.477496,1.477496 0 0 1 -0.81307,0.5045 1.580971,1.580971 0 0 1 -0.25068,0.039 1.831696,1.831696 0 0 1 -0.24694,0 2.122195,2.122195 0 0 1 -0.27343,-0.029 2.518386,2.518386 0 0 1 -0.33065,-0.076 3.099382,3.099382 0 0 1 -0.44217,-0.1648 4.051705,4.051705 0 0 1 -0.69357,-0.391 8.220683,8.220683 0 0 1 -3.25778,-5.2502 4.051705,4.051705 0 0 1 -0.0424,-0.795 3.099382,3.099382 0 0 1 0.0487,-0.4694 2.518386,2.518386 0 0 1 0.0788,-0.33 2.122195,2.122195 0 0 1 0.0959,-0.2576 1.831696,1.831696 0 0 1 0.11393,-0.2191 1.580971,1.580971 0 0 1 0.14666,-0.2071 1.477496,1.477496 0 0 1 0.81307,-0.5045 1.580971,1.580971 0 0 1 0.25068,-0.04 1.831696,1.831696 0 0 1 0.24694,0 2.122195,2.122195 0 0 1 0.27343,0.028 2.518386,2.518386 0 0 1 0.33065,0.076 3.099382,3.099382 0 0 1 0.44217,0.1648 4.051705,4.051705 0 0 1 0.69357,0.391 8.220683,8.220683 0 0 1 2.14092,2.3073 0.88582899,0.88582899 0 0 0 1.5054,-0.9341 z"
       inkscape:connector-curvature="0" />
    <path
       id="path4185"
       style="fill:#000000;stroke:none;fill-opacity:1"
       d="m 389.09403,712.33202 a 0.88583595,0.88583595 0 1 1 0.10925,1.7683 1.862785,1.862785 0 0 0 -0.63159,0.1526 1.9238,1.9238 0 0 0 -0.27814,0.1478 2.059227,2.059227 0 0 0 -0.22718,0.167 2.191839,2.191839 0 0 0 -0.20457,0.1955 2.341039,2.341039 0 0 0 -0.19293,0.2374 2.512082,2.512082 0 0 0 -0.18658,0.3042 2.712472,2.712472 0 0 0 -0.18146,0.4316 3.141711,3.141711 0 0 0 0.14083,2.2793 2.712472,2.712472 0 0 0 0.23321,0.406 2.512082,2.512082 0 0 0 0.2226,0.2789 2.341039,2.341039 0 0 0 0.22069,0.2119 2.191839,2.191839 0 0 0 0.22708,0.1688 2.059227,2.059227 0 0 0 0.24601,0.1377 1.9238,1.9238 0 0 0 0.29423,0.1125 1.862785,1.862785 0 0 0 1.27715,-0.079 1.9238,1.9238 0 0 0 0.27814,-0.1479 2.059227,2.059227 0 0 0 0.22719,-0.1669 2.191839,2.191839 0 0 0 0.20457,-0.1955 2.341039,2.341039 0 0 0 0.19292,-0.2375 2.512082,2.512082 0 0 0 0.18658,-0.3041 2.712458,2.712458 0 0 0 0.1794,-0.4253 0.885827,0.885827 0 1 1 1.65749,0.6215 4.514031,4.514031 0 0 1 -0.24927,0.583 4.324413,4.324413 0 0 1 -0.31044,0.5162 4.151795,4.151795 0 0 1 -0.33387,0.4187 3.992441,3.992441 0 0 1 -0.36667,0.3567 3.843357,3.843357 0 0 1 -0.4203,0.314 3.683168,3.683168 0 0 1 -0.52961,0.2858 3.608986,3.608986 0 0 1 -2.50469,0.1548 3.683168,3.683168 0 0 1 -0.56078,-0.2185 3.843357,3.843357 0 0 1 -0.45576,-0.2599 3.992441,3.992441 0 0 1 -0.40779,-0.3088 4.151795,4.151795 0 0 1 -0.38287,-0.3744 4.324413,4.324413 0 0 1 -0.37162,-0.4741 4.51414,4.51414 0 0 1 -0.37289,-0.6604 4.882998,4.882998 0 0 1 -0.21644,-3.5031 4.51414,4.51414 0 0 1 0.28875,-0.7013 4.324413,4.324413 0 0 1 0.31044,-0.5162 4.151795,4.151795 0 0 1 0.33387,-0.4188 3.992366,3.992366 0 0 1 0.19658,-0.2023 4.383602,4.383602 0 0 1 -0.35804,-0.2733 4.682077,4.682077 0 0 1 -0.44138,-0.4239 5.024164,5.024164 0 0 1 -0.44521,-0.5577 5.424944,5.424944 0 0 1 -0.46642,-0.812 6.283422,6.283422 0 0 1 -0.28166,-4.5586 5.424944,5.424944 0 0 1 0.36292,-0.8632 5.024164,5.024164 0 0 1 0.37317,-0.6083 4.682077,4.682077 0 0 1 0.38585,-0.475 4.383677,4.383677 0 0 1 0.40914,-0.3909 4.118454,4.118454 0 0 1 0.45437,-0.3339 3.847599,3.847599 0 0 1 0.55628,-0.2958 3.72557,3.72557 0 0 1 2.55431,-0.1578 3.847599,3.847599 0 0 1 0.58846,0.225 4.118454,4.118454 0 0 1 0.49202,0.2755 4.383677,4.383677 0 0 1 0.45415,0.3376 4.682077,4.682077 0 0 1 0.44138,0.4238 5.024164,5.024164 0 0 1 0.44521,0.5578 5.424605,5.424605 0 0 1 0.22153,0.347 0.885827,0.885827 0 0 1 -1.4682,0.9857 3.557026,3.557026 0 0 0 -0.23589,-0.3788 3.138965,3.138965 0 0 0 -0.28919,-0.3534 2.812082,2.812082 0 0 0 -0.272,-0.2549 2.547046,2.547046 0 0 0 -0.26782,-0.1943 2.325653,2.325653 0 0 0 -0.2795,-0.1527 2.112302,2.112302 0 0 0 -0.32365,-0.1208 2.019096,2.019096 0 0 0 -1.3621,0.084 2.112302,2.112302 0 0 0 -0.30632,0.1598 2.325653,2.325653 0 0 0 -0.25857,0.1859 2.547046,2.547046 0 0 0 -0.24186,0.2258 2.812082,2.812082 0 0 0 -0.23857,0.2864 3.138965,3.138965 0 0 0 -0.24348,0.3864 3.557427,3.557427 0 0 0 -0.25296,0.5844 4.59859,4.59859 0 0 0 0.20898,3.3824 3.557427,3.557427 0 0 0 0.32298,0.5488 3.138965,3.138965 0 0 0 0.28919,0.3535 2.812082,2.812082 0 0 0 0.27201,0.2548 2.547046,2.547046 0 0 0 0.26781,0.1943 2.325653,2.325653 0 0 0 0.2795,0.1527 2.112302,2.112302 0 0 0 0.32365,0.1208 2.019096,2.019096 0 0 0 0.68838,0.077 l 0,0 z"
       inkscape:connector-curvature="0" />
    <path
       id="path4187"
       style="fill:#000000;stroke:none;fill-opacity:1"
       d="m 301.75162,699.55492 a 0.885827,0.885827 0 0 0 -0.70764,-1.0337 l -6.96554,-1.3044 a 0.88583499,0.88583499 0 0 0 -0.3261,1.7414 l 6.09485,1.1413 -0.30406,1.6237 a 1.771653,1.771653 0 0 1 -0.74063,1.1358 l -6.10003,4.1758 a 4.576771,4.576771 0 1 0 6.39382,6.3147 0.88582904,0.88582904 0 0 0 -1.47427,-0.9825 2.805118,2.805118 0 1 1 -3.91879,-3.8703 l 6.10003,-4.1757 a 3.543307,3.543307 0 0 0 1.48125,-2.2717 l 0.46711,-2.4944 z"
       inkscape:connector-curvature="0" />
    <path
       style="fill:#000000;stroke:none;fill-opacity:1"
       d="M 510.52148 595.0625 A 0.885827 0.885827 0 0 0 509.71094 596.2168 L 511.32422 601.28125 L 510.48047 601.54883 A 0.88582821 0.88582821 0 0 0 511.01953 603.23828 L 511.86328 602.96875 L 514.5332 611.34766 A 0.949426 0.949426 0 0 0 516.36523 611.26172 L 518.55078 601.25586 A 1.447418 1.447418 0 0 0 516.69727 599.56836 L 513.01367 600.74219 L 511.39844 595.67773 A 0.885827 0.885827 0 0 0 510.52148 595.0625 z M 516.70117 601.42578 L 515.28906 607.88672 L 513.55078 602.42969 L 516.70117 601.42578 z "
       transform="translate(-33.161861,91.932454)"
       id="path4189" />
    <path
       id="path4193"
       style="fill:#000000;stroke:none;fill-opacity:1"
       d="m 700.27206,530.43642 a 1.286318,1.286318 0 0 1 -2.12965,0.1497 40.97539,40.97539 0 0 0 -11.54665,-10.1297 0.885827,0.885827 0 0 1 0.88304,-1.5359 38.977274,38.977274 0 0 1 11.54665,10.1297 l 3.01705,-5.2477 a 0.885827,0.885827 0 0 1 1.5359,0.883 l -3.30634,5.7509 z"
       inkscape:connector-curvature="0" />
    <path
       style="fill:#000000;stroke:none;fill-opacity:1"
       d="M 760.14258 339.47656 A 6.283422 6.283422 0 0 0 759.23828 339.49805 A 5.424944 5.424944 0 0 0 758.31836 339.66992 A 5.024164 5.024164 0 0 0 757.64453 339.90625 A 4.682077 4.682077 0 0 0 757.09766 340.18359 A 4.383677 4.383677 0 0 0 756.63086 340.5 A 4.118454 4.118454 0 0 0 756.20703 340.87305 A 3.847599 3.847599 0 0 0 755.80078 341.35547 A 3.72557 3.72557 0 0 0 755.10547 343.81836 A 3.847599 3.847599 0 0 0 755.20117 344.44141 A 4.118454 4.118454 0 0 0 755.36719 344.98047 A 4.383677 4.383677 0 0 0 755.59961 345.49414 A 4.682077 4.682077 0 0 0 755.92188 346.01562 A 5.024164 5.024164 0 0 0 756.37109 346.57031 A 5.424944 5.424944 0 0 0 757.06641 347.19727 A 6.283422 6.283422 0 0 0 761.46289 348.4375 A 5.424944 5.424944 0 0 0 762.38281 348.26562 A 5.024164 5.024164 0 0 0 763.05664 348.0293 A 4.682077 4.682077 0 0 0 763.60156 347.75195 A 4.383602 4.383602 0 0 0 763.97852 347.50391 A 3.992366 3.992366 0 0 0 764.10547 347.75781 A 4.151795 4.151795 0 0 0 764.38867 348.21094 A 4.324413 4.324413 0 0 0 764.77344 348.67383 A 4.51414 4.51414 0 0 0 765.33984 349.17773 A 4.882998 4.882998 0 0 0 768.71875 350.13086 A 4.51414 4.51414 0 0 0 769.46484 349.99805 A 4.324413 4.324413 0 0 0 770.03516 349.80273 A 4.151795 4.151795 0 0 0 770.51562 349.56641 A 3.992441 3.992441 0 0 0 770.94141 349.2832 A 3.843357 3.843357 0 0 0 771.33789 348.9375 A 3.683168 3.683168 0 0 0 771.72852 348.48047 A 3.608986 3.608986 0 0 0 772.41016 346.06641 A 3.683168 3.683168 0 0 0 772.31445 345.47266 A 3.843357 3.843357 0 0 0 772.1582 344.9707 A 3.992441 3.992441 0 0 0 771.94141 344.50781 A 4.151795 4.151795 0 0 0 771.6582 344.05469 A 4.324413 4.324413 0 0 0 771.27344 343.58984 A 4.51414 4.51414 0 0 0 770.70508 343.08594 A 4.882998 4.882998 0 0 0 767.32812 342.13281 A 4.51414 4.51414 0 0 0 766.58203 342.26758 A 4.324413 4.324413 0 0 0 766.01172 342.46094 A 4.151795 4.151795 0 0 0 765.53125 342.69922 A 3.992366 3.992366 0 0 0 765.29297 342.84766 A 4.383602 4.383602 0 0 0 765.10156 342.44141 A 4.682077 4.682077 0 0 0 764.7793 341.91992 A 5.024164 5.024164 0 0 0 764.32812 341.36719 A 5.424944 5.424944 0 0 0 763.63477 340.73828 A 6.283422 6.283422 0 0 0 760.14258 339.47656 z M 759.70898 341.23828 A 4.59859 4.59859 0 0 1 761.07227 341.41016 A 4.59859 4.59859 0 0 1 762.61523 342.18164 A 3.557427 3.557427 0 0 1 763.08203 342.61328 A 3.138965 3.138965 0 0 1 763.36719 342.9707 A 2.812082 2.812082 0 0 1 763.55859 343.29102 A 2.547046 2.547046 0 0 1 763.69141 343.59375 A 2.325653 2.325653 0 0 1 763.78125 343.89844 A 2.112302 2.112302 0 0 1 763.83203 344.24023 A 2.019096 2.019096 0 0 1 763.75977 344.92969 A 2.019096 2.019096 0 0 1 763.46094 345.55469 A 2.112302 2.112302 0 0 1 763.24023 345.82031 A 2.325653 2.325653 0 0 1 763.00391 346.0332 A 2.547046 2.547046 0 0 1 762.73242 346.22266 A 2.812082 2.812082 0 0 1 762.40234 346.39453 A 3.138965 3.138965 0 0 1 761.97266 346.55078 A 3.557427 3.557427 0 0 1 761.34766 346.67383 A 4.59859 4.59859 0 0 1 759.62891 346.52539 A 4.59859 4.59859 0 0 1 758.08594 345.75391 A 3.557427 3.557427 0 0 1 757.61719 345.32227 A 3.138965 3.138965 0 0 1 757.33398 344.96484 A 2.812082 2.812082 0 0 1 757.14258 344.64453 A 2.547046 2.547046 0 0 1 757.00977 344.3418 A 2.325653 2.325653 0 0 1 756.91797 344.03711 A 2.112302 2.112302 0 0 1 756.86914 343.69531 A 2.019096 2.019096 0 0 1 756.93945 343.00586 A 2.019096 2.019096 0 0 1 757.24023 342.38086 A 2.112302 2.112302 0 0 1 757.46094 342.11523 A 2.325653 2.325653 0 0 1 757.69727 341.90234 A 2.547046 2.547046 0 0 1 757.96875 341.71289 A 2.812082 2.812082 0 0 1 758.29883 341.54102 A 3.138965 3.138965 0 0 1 758.72852 341.38477 A 3.557427 3.557427 0 0 1 759.35352 341.26172 A 4.59859 4.59859 0 0 1 759.70898 341.23828 z M 767.69336 343.88477 A 3.141711 3.141711 0 0 1 768.625 344.00195 A 3.141711 3.141711 0 0 1 769.66602 344.51758 A 2.712472 2.712472 0 0 1 770.01367 344.83203 A 2.512082 2.512082 0 0 1 770.23828 345.10742 A 2.341039 2.341039 0 0 1 770.39844 345.36914 A 2.191839 2.191839 0 0 1 770.51562 345.62695 A 2.059227 2.059227 0 0 1 770.59766 345.89648 A 1.9238 1.9238 0 0 1 770.64648 346.20703 A 1.862785 1.862785 0 0 1 770.58008 346.85352 A 1.862785 1.862785 0 0 1 770.29883 347.43945 A 1.9238 1.9238 0 0 1 770.0957 347.67969 A 2.059227 2.059227 0 0 1 769.88281 347.86719 A 2.191839 2.191839 0 0 1 769.64844 348.02539 A 2.341039 2.341039 0 0 1 769.37695 348.16406 A 2.512082 2.512082 0 0 1 769.03906 348.28125 A 2.712472 2.712472 0 0 1 768.58008 348.36719 A 3.141711 3.141711 0 0 1 767.42188 348.26367 A 3.141711 3.141711 0 0 1 766.38086 347.74609 A 2.712472 2.712472 0 0 1 766.0332 347.43359 A 2.512082 2.512082 0 0 1 765.80859 347.15625 A 2.341039 2.341039 0 0 1 765.64844 346.89648 A 2.191839 2.191839 0 0 1 765.53125 346.63867 A 2.059227 2.059227 0 0 1 765.44922 346.36914 A 1.9238 1.9238 0 0 1 765.40039 346.05664 A 1.862785 1.862785 0 0 1 765.46484 345.41016 A 1.862785 1.862785 0 0 1 765.74805 344.82617 A 1.9238 1.9238 0 0 1 765.95117 344.58594 A 2.059227 2.059227 0 0 1 766.16406 344.39844 A 2.191839 2.191839 0 0 1 766.39844 344.24023 A 2.341039 2.341039 0 0 1 766.66992 344.10156 A 2.512082 2.512082 0 0 1 767.00781 343.98438 A 2.712472 2.712472 0 0 1 767.4668 343.89844 A 3.141711 3.141711 0 0 1 767.69336 343.88477 z "
       transform="translate(-33.161861,91.932454)"
       id="path4195" />
    <path
       style="fill:#000000;stroke:none;fill-opacity:1"
       d="M 771.77344 248.48828 A 0.89236604 0.89236604 0 0 0 771.44727 248.56055 A 5.166697 5.166697 0 0 0 770.85938 248.94531 A 4.936579 4.936579 0 0 0 770.375 249.35938 A 4.726088 4.726088 0 0 0 769.9668 249.80859 A 4.530846 4.530846 0 0 0 769.61523 250.31836 A 4.322883 4.322883 0 0 0 769.30078 250.95117 A 4.227033 4.227033 0 0 0 769.21875 253.88281 A 4.322883 4.322883 0 0 0 769.49609 254.5332 A 4.530846 4.530846 0 0 0 769.82031 255.06055 A 4.726088 4.726088 0 0 0 770.20117 255.53125 A 4.936579 4.936579 0 0 0 770.66211 255.97266 A 5.166718 5.166718 0 0 0 771.24414 256.40039 A 5.422257 5.422257 0 0 0 772.05469 256.82422 A 5.92654 5.92654 0 0 0 774.17773 257.28125 L 780.66992 257.46484 A 6.96025 6.96025 0 0 0 783.23047 257.05273 A 5.693702 5.693702 0 0 0 784.13867 256.62891 A 5.14481 5.14481 0 0 0 784.75391 256.2168 A 4.697129 4.697129 0 0 0 785.21875 255.80859 A 4.321289 4.321289 0 0 0 785.58789 255.38867 A 3.998095 3.998095 0 0 0 785.89453 254.93555 A 3.678231 3.678231 0 0 0 786.1582 254.39258 A 3.536513 3.536513 0 0 0 786.22461 251.98438 A 3.678231 3.678231 0 0 0 785.99414 251.42969 A 3.998095 3.998095 0 0 0 785.71289 250.95898 A 4.321289 4.321289 0 0 0 785.36719 250.51953 A 4.697129 4.697129 0 0 0 784.92578 250.08398 A 5.14481 5.14481 0 0 0 784.33594 249.63867 A 5.693702 5.693702 0 0 0 783.45312 249.16406 A 6.96025 6.96025 0 0 0 778.35938 249.02148 A 5.693702 5.693702 0 0 0 777.45117 249.44531 A 5.14481 5.14481 0 0 0 776.83594 249.85742 A 4.697129 4.697129 0 0 0 776.37109 250.26562 A 4.321289 4.321289 0 0 0 776.00195 250.68555 A 3.998095 3.998095 0 0 0 775.69531 251.13867 A 3.678231 3.678231 0 0 0 775.43164 251.68164 A 3.536513 3.536513 0 0 0 775.36523 254.08984 A 3.678231 3.678231 0 0 0 775.5957 254.64453 A 3.998095 3.998095 0 0 0 775.87695 255.11523 A 4.321289 4.321289 0 0 0 776.22266 255.55469 A 4.697123 4.697123 0 0 0 776.23438 255.56641 L 774.22656 255.50977 A 4.188948 4.188948 0 0 1 772.71289 255.18164 A 3.616629 3.616629 0 0 1 772.16211 254.88867 A 3.349443 3.349443 0 0 1 771.7793 254.60352 A 3.121385 3.121385 0 0 1 771.48828 254.32031 A 2.922452 2.922452 0 0 1 771.25195 254.02539 A 2.745636 2.745636 0 0 1 771.05859 253.70312 A 2.565066 2.565066 0 0 1 770.89453 253.31641 A 2.483713 2.483713 0 0 1 770.94336 251.61133 A 2.565066 2.565066 0 0 1 771.12695 251.23242 A 2.745636 2.745636 0 0 1 771.33984 250.92383 A 2.922452 2.922452 0 0 1 771.5918 250.64258 A 3.121385 3.121385 0 0 1 771.89844 250.37305 A 3.349443 3.349443 0 0 1 772.29492 250.11133 A 3.616577 3.616577 0 0 1 772.34766 250.08203 A 0.89236604 0.89236604 0 0 0 771.77344 248.48828 z M 771.44727 248.56055 A 0.89236604 0.89236604 0 0 0 771.24023 248.68359 L 771.44727 248.56055 z M 780.86914 250.38086 A 5.336994 5.336994 0 0 1 782.8418 250.81836 A 3.748999 3.748999 0 0 1 783.44336 251.15234 A 3.186704 3.186704 0 0 1 783.81641 251.44141 A 2.775736 2.775736 0 0 1 784.07617 251.70508 A 2.459053 2.459053 0 0 1 784.26953 251.96094 A 2.205058 2.205058 0 0 1 784.42188 252.2207 A 1.968946 1.968946 0 0 1 784.54297 252.51758 A 1.867721 1.867721 0 0 1 784.63281 253.14453 A 1.867721 1.867721 0 0 1 784.50781 253.76562 A 1.968946 1.968946 0 0 1 784.37109 254.05469 A 2.205058 2.205058 0 0 1 784.20508 254.30664 A 2.459053 2.459053 0 0 1 783.99609 254.55078 A 2.775736 2.775736 0 0 1 783.7207 254.79883 A 3.186704 3.186704 0 0 1 783.33398 255.06641 A 3.748999 3.748999 0 0 1 782.71289 255.36719 A 5.336994 5.336994 0 0 1 780.7207 255.69336 A 5.336994 5.336994 0 0 1 778.74805 255.25586 A 3.748999 3.748999 0 0 1 778.14648 254.92188 A 3.186704 3.186704 0 0 1 777.77344 254.63281 A 2.775736 2.775736 0 0 1 777.51367 254.36719 A 2.459053 2.459053 0 0 1 777.32031 254.11328 A 2.205058 2.205058 0 0 1 777.16797 253.85352 A 1.968946 1.968946 0 0 1 777.04688 253.55469 A 1.867721 1.867721 0 0 1 776.95703 252.92969 A 1.867721 1.867721 0 0 1 777.08203 252.30859 A 1.968946 1.968946 0 0 1 777.2207 252.01758 A 2.205058 2.205058 0 0 1 777.38477 251.76562 A 2.459053 2.459053 0 0 1 777.59375 251.52344 A 2.775736 2.775736 0 0 1 777.86914 251.27344 A 3.186704 3.186704 0 0 1 778.25586 251.00586 A 3.748999 3.748999 0 0 1 778.87695 250.70703 A 5.336994 5.336994 0 0 1 780.86914 250.38086 z "
       transform="translate(-33.161861,91.932454)"
       id="path4201" />
    <path
       style="fill:#000000;stroke:none;fill-opacity:1"
       d="M 772.17383 159.33594 A 4.429134 8.858268 77.46953 0 0 761.28516 165.98633 A 4.429134 8.858268 77.46953 1 0 778.58008 162.14258 A 4.429134 8.858268 77.46953 0 0 772.17383 159.33594 z M 773.18555 161.05078 A 2.6574815 7.086618 77.46953 0 1 776.84961 162.52734 A 2.6574815 7.086618 77.46953 0 1 763.01367 165.60156 A 2.6574815 7.086618 77.46953 0 1 773.18555 161.05078 z "
       transform="translate(-33.161861,91.932454)"
       id="path4205" />
    <path
       id="path4209"
       style="fill:#000000;stroke:none;fill-opacity:1"
       d="m 202.85528,685.10122 a 0.885827,0.885827 0 0 0 1.11108,1.2019 l 5.87654,-2.1681 a 0.885827,0.885827 0 0 0 -0.61324,-1.6621 l -3.87016,1.4278 5.77987,-12.5382 a 0.88582936,0.88582936 0 1 0 -1.60893,-0.7417 l -6.67516,14.4804 z"
       inkscape:connector-curvature="0" />
    <path
       id="path4211"
       style="fill:#000000;stroke:none;fill-opacity:1"
       d="m 710.57422,157.77215 a 0.885827,0.885827 0 0 0 -0.1191,-1.63246 l -5.94601,-1.96961 a 0.885827,0.885827 0 0 0 -0.55709,1.68178 l 3.91592,1.29715 -12.33712,6.19753 a 0.885827,0.885827 0 0 0 0.79527,1.58313 l 14.24813,-7.15752 z"
       inkscape:connector-curvature="0" />
    <path
       id="path4213"
       style="fill:#000000;stroke:none;fill-opacity:1"
       d="m 714.41095,165.40973 a 0.885827,0.885827 0 0 0 -0.1191,-1.63246 l -5.94601,-1.96961 a 0.88582827,0.88582827 0 0 0 -0.55709,1.68179 l 3.91592,1.29714 -12.33713,6.19754 a 0.885827,0.885827 0 0 0 0.79528,1.58312 l 14.24813,-7.15752 z"
       inkscape:connector-curvature="0" />
    <path
       id="path4215"
       style="fill:#000000;stroke:none;fill-opacity:1"
       d="m 743.16228,247.36996 a 0.885827,0.885827 0 0 0 0.28337,-1.61208 l -5.28458,-3.36269 a 0.885827,0.885827 0 0 0 -0.95111,1.4947 l 3.48031,2.2146 -13.47745,2.9954 a 0.885827,0.885827 0 0 0 0.38437,1.72945 l 15.56509,-3.45938 z"
       inkscape:connector-curvature="0" />
  </g>
</svg>
