<?xml version="1.0" encoding="UTF-8" standalone="no"?>
<!-- 2017-01-24 15:55:14 Generated by QCAD SVG Exporter -->

<svg
   xmlns:dc="http://purl.org/dc/elements/1.1/"
   xmlns:cc="http://creativecommons.org/ns#"
   xmlns:rdf="http://www.w3.org/1999/02/22-rdf-syntax-ns#"
   xmlns:svg="http://www.w3.org/2000/svg"
   xmlns="http://www.w3.org/2000/svg"
   xmlns:sodipodi="http://sodipodi.sourceforge.net/DTD/sodipodi-0.dtd"
   xmlns:inkscape="http://www.inkscape.org/namespaces/inkscape"
   width="320.47223in"
   height="61.524651in"
   viewBox="-35.3 -50.1 320.47223 61.524651"
   version="1.1"
   style="fill:none;stroke-linecap:round;stroke-linejoin:round"
   id="svg2"
   inkscape:version="0.91 r13725"
   sodipodi:docname="upper outer sleeve.svg"
   inkscape:export-filename="/Users/mwu/Documents/Curta/Release Files/upper outer sleeve.png"
   inkscape:export-xdpi="90"
   inkscape:export-ydpi="90">
  <metadata
     id="metadata38">
    <rdf:RDF>
      <cc:Work
         rdf:about="">
        <dc:format>image/svg+xml</dc:format>
        <dc:type
           rdf:resource="http://purl.org/dc/dcmitype/StillImage" />
        <dc:title></dc:title>
      </cc:Work>
    </rdf:RDF>
  </metadata>
  <defs
     id="defs36" />
  <sodipodi:namedview
     pagecolor="#ffffff"
     bordercolor="#666666"
     borderopacity="1"
     objecttolerance="10"
     gridtolerance="10"
     guidetolerance="10"
     inkscape:pageopacity="0"
     inkscape:pageshadow="2"
     inkscape:window-width="1284"
     inkscape:window-height="782"
     id="namedview34"
     showgrid="false"
     inkscape:zoom="0.064980192"
     inkscape:cx="4746.7296"
     inkscape:cy="2591.1834"
     inkscape:window-x="0"
     inkscape:window-y="0"
     inkscape:window-maximized="0"
     inkscape:current-layer="svg2"
     units="in"
     fit-margin-top="0"
     fit-margin-left="0"
     fit-margin-right="0"
     fit-margin-bottom="0" />
  <path
     inkscape:connector-curvature="0"
     id="path32"
     style="fill:none;fill-opacity:1;stroke:#000000;stroke-width:0.02222222;stroke-miterlimit:4;stroke-dasharray:none"
     d="m 285.16112,-50.088887 0,61.50243 -320.450008,0 0,-61.50243 z" />
  <path
     inkscape:connector-curvature="0"
     id="path6"
     style="fill:#000000;fill-opacity:1;stroke:none;stroke-width:0.01574803"
     d="m 8.1123269,-3.2876724 c 0,1.159798 0.940202,2.1 2.1000001,2.1 l 6,0 c 1.159798,0 2.1,-0.940202 2.1,-2.1 l 0,-3.9 c 0,-0.3313708 0.268629,-0.6 0.6,-0.6 0.331371,0 0.6,0.2686292 0.6,0.6 l 0,3.9 c 0,1.8225397 -1.47746,3.30000004 -3.3,3.30000004 l -6,0 c -1.8225398,0 -3.3000001,-1.47746034 -3.3000001,-3.30000004 l 0,-3.9 c 0,-0.3313708 0.2686292,-0.6 0.6,-0.6 0.3313708,0 0.6,0.2686292 0.6,0.6 z" />
  <path
     style="fill:#000000;fill-opacity:1;stroke:none;stroke-width:1.41732264"
     d="m 26.412322,-7.7876746 c -0.331371,0 -0.6,0.2686289 -0.6,0.5999999 l 0,6.59999939 c 0,0.33137107 0.268629,0.59999994 0.6,0.59999994 0.331371,0 0.6,-0.26862887 0.6,-0.59999994 l 0,-1.59999989 7.579882,0 2.867209,2.08524317 0,0 c 0.09905,0.07216222 0.221034,0.11473555 0.352951,0.11473555 0.331371,0 0.6,-0.26862887 0.6,-0.59999994 0,-0.19945443 -0.09731,-0.37617663 -0.247049,-0.48526438 l -1.71033,-1.243751 c 1.134903,-0.3579933 1.957336,-1.4184276 1.957336,-2.6709631 0,-1.5463976 -1.253604,-2.7999997 -2.8,-2.7999997 l -9.199999,0 z m 0.6,1.1999999 8.599999,0 c 0.883655,0 1.6,0.7163444 1.6,1.5999998 0,0.8836555 -0.716345,1.5999999 -1.6,1.5999999 l -8.599999,0 0,-3.1999997 z"
     id="path8"
     inkscape:connector-curvature="0" />
  <path
     inkscape:connector-curvature="0"
     id="path12"
     style="fill:#000000;fill-opacity:1;stroke:none;stroke-width:0.01574803"
     d="m -2.2326675,-7.7876724 c 1.35205803,0 2.54342013,0.6880213 3.2430723,1.7330499 l -2.561e-4,2.398e-4 c 0.063836,0.095348 0.1010659,0.2100151 0.1010659,0.333377 0,0.3313708 -0.26862923,0.6 -0.60000008,0.6 -0.20800894,0 -0.39129541,-0.1058495 -0.4989342,-0.2666231 l 2.5606e-4,-2.398e-4 C -0.47189636,-6.1113836 -1.2966603,-6.5876724 -2.2326675,-6.5876724 l -5.8550056,0 c -1.4911688,0 -2.6999999,1.2088312 -2.6999999,2.7 0,1.4911688 1.2088311,2.7 2.6999999,2.7 l 5.8550056,0 c 0.9360402,0 1.7608293,-0.4763224 2.24515264,-1.1997273 L 0.0122917,-2.387733 c 0.10764033,-0.1607641 0.29092122,-0.2666061 0.49892282,-0.2666061 0.33137085,0 0.60000008,0.2686292 0.60000008,0.6 0,0.1233693 -0.037234,0.2380421 -0.1010773,0.333394 l 1.935e-4,3.333e-4 c -0.69966218,1.04496667 -1.89098795,1.73293944 -3.2429983,1.73293944 l -5.8550056,0 c -2.1539109,0 -3.8999999,-1.74608954 -3.8999999,-3.90000004 0,-2.1539105 1.746089,-3.9 3.8999999,-3.9 z" />
  <path
     inkscape:connector-curvature="0"
     id="path14"
     style="fill:#000000;fill-opacity:1;stroke:none;stroke-width:0.01574803"
     d="m 56.712327,-7.7876724 c 0.331371,0 0.6,0.2686292 0.6,0.6 0,0.3313708 -0.268629,0.6 -0.6,0.6 l -5.1,0 0,6.00000004 c 0,0.33137085 -0.268629,0.6 -0.6,0.6 -0.331371,0 -0.6,-0.26862915 -0.6,-0.6 l 0,-6.00000004 -5.1,0 c -0.331371,0 -0.6,-0.2686292 -0.6,-0.6 0,-0.3313708 0.268629,-0.6 0.6,-0.6 z" />
  <path
     style="fill:#000000;fill-opacity:1;stroke:none;stroke-width:0.01574803"
     d="m 66.812318,-7.7876746 c -1.767311,0 -3.2,1.4326888 -3.2,3.1999997 l 0,3.99999959 c 0,0.33137107 0.268629,0.59999994 0.6,0.59999994 0.331371,0 0.6,-0.26862887 0.6,-0.59999994 l 0,-1.39999989 10.199999,0 0,1.39999989 c 0,0.33137107 0.268629,0.59999994 0.6,0.59999994 0.331366,0 0.6,-0.26862887 0.6,-0.59999994 l 0,-3.99999959 c 0,-1.7673109 -1.432689,-3.1999997 -3.2,-3.1999997 l -6.199999,0 z m 0,1.1999999 6.199999,0 c 1.104569,0 2,0.8954299 2,1.9999998 l 0,1.3999998 -10.199999,0 0,-1.3999998 c 0,-1.1045699 0.895431,-1.9999998 2,-1.9999998 z"
     id="path16"
     inkscape:connector-curvature="0" />
  <circle
     id="circle22"
     style="fill:#000000;fill-opacity:1;stroke:none;stroke-width:0.02222222;stroke-miterlimit:4;stroke-dasharray:none"
     r="2.7"
     cy="45.587669"
     cx="94.212326"
     transform="scale(1,-1)" />
  <path
     inkscape:connector-curvature="0"
     id="path24"
     style="fill:#000000;fill-opacity:1;stroke:none;stroke-width:0.01574803"
     d="m 117.38573,-13.933321 -3e-5,-9.1e-5 c -0.004,0.01554 -0.006,0.03182 -0.006,0.04861 0,0.103543 0.0839,0.187481 0.18748,0.187481 0.0518,0 0.0986,-0.02098 0.13257,-0.05491 l 1.11258,-1.112938 0,16.0774966 c 0,0.1656854 0.13431,0.3 0.3,0.3 0.16569,0 0.3,-0.1343146 0.3,-0.3 l 0,-16.0774966 1.0799,1.079903 0,0 c 0.0362,0.03619 0.0862,0.05858 0.14142,0.05858 0.11046,0 0.2,-0.08954 0.2,-0.2 0,-0.01794 -0.002,-0.03532 -0.007,-0.05181 l -1.41455,-5.278977 6e-5,-7.2e-5 c -0.0353,-0.132568 -0.15615,-0.230127 -0.29983,-0.230127 -0.14371,0 -0.26461,0.0976 -0.30004,0.230047 z" />
  <path
     inkscape:connector-curvature="0"
     id="path26"
     style="fill:#000000;fill-opacity:1;stroke:none;stroke-width:0.01574803"
     d="m 279.38573,-13.933321 -3e-5,-9.1e-5 c -0.004,0.01554 -0.006,0.03182 -0.006,0.04861 0,0.103543 0.0839,0.187481 0.18748,0.187481 0.0518,0 0.0986,-0.02098 0.13257,-0.05491 l 1.11258,-1.112938 0,16.0774966 c 0,0.1656854 0.13431,0.3 0.3,0.3 0.16569,0 0.3,-0.1343146 0.3,-0.3 l 0,-16.0774966 1.0799,1.079903 0,0 c 0.0362,0.03619 0.0862,0.05858 0.14142,0.05858 0.11046,0 0.2,-0.08954 0.2,-0.2 0,-0.01794 -0.002,-0.03532 -0.007,-0.05181 l -1.41455,-5.278977 6e-5,-7.2e-5 c -0.0353,-0.132568 -0.15615,-0.230127 -0.29983,-0.230127 -0.14371,0 -0.26461,0.0976 -0.30004,0.230047 z" />
  <circle
     id="circle28"
     style="fill:#000000;fill-opacity:1;stroke:none;stroke-width:0.02222222;stroke-miterlimit:4;stroke-dasharray:none"
     r="2.7"
     cy="45.587669"
     cx="-25.287672"
     transform="scale(1,-1)" />
</svg>
